<svg xmlns="http://www.w3.org/2000/svg" xmlns:xlink="http://www.w3.org/1999/xlink" fill="none" version="1.1" width="34.12245750427246" height="13.796655654907227" viewBox="0 0 34.12245750427246 13.796655654907227"><g style="mix-blend-mode:passthrough"><path d="M32.6225,8.72743L24.4469,8.727450000000001Q24.3446,8.727450000000001,24.2433,8.713560000000001Q24.142,8.69968,24.0435,8.672170000000001Q23.945,8.64467,23.8511,8.604040000000001Q23.7573,8.56342,23.6698,8.51043Q23.5823,8.45744,23.5028,8.39307Q23.4233,8.328700000000001,23.3533,8.25413Q23.2833,8.17957,23.2241,8.09619Q23.1649,8.01282,23.1175,7.92217L20.1245,2.194728L21.4539,1.5L22.7926,2.1765179999999997L17.3368,12.9732Q17.3036,13.0389,17.2641,13.1011Q17.2245,13.1633,17.1791,13.2214Q17.133699999999997,13.2794,17.0828,13.3327Q17.0319,13.386,16.976,13.434Q16.920099999999998,13.482,16.8598,13.5244Q16.799500000000002,13.5667,16.735300000000002,13.6029Q16.6712,13.6392,16.6038,13.6689Q16.5363,13.6987,16.4663,13.7217Q16.3963,13.7447,16.3244,13.7607Q16.252499999999998,13.7768,16.179299999999998,13.7857Q16.1062,13.7946,16.0325,13.7963Q15.9588,13.798,15.8853,13.7924Q15.8119,13.7869,15.7393,13.7742Q15.6667,13.7615,15.5957,13.7417Q15.5247,13.7219,15.456,13.6953Q15.3873,13.6687,15.3215,13.6354Q15.1307,13.539,14.9745,13.3931Q14.8182,13.2473,14.7089,13.0635L9.19013,3.78641L10.47927,3.01953L11.7016,3.88896L8.708549999999999,8.096879999999999Q8.60453,8.24311,8.46896,8.36068Q8.33339,8.47824,8.17391,8.56051Q8.01444,8.64279,7.84005,8.685120000000001Q7.66567,8.727450000000001,7.48622,8.727450000000001L1.5,8.727450000000001L1.5,5.72745L7.48622,5.72745L7.48622,7.22745L6.26389,6.35801L9.25694,2.150098Q9.440380000000001,1.892194,9.71239,1.730387Q9.77572,1.692712,9.84244,1.661426Q9.90915,1.630141,9.97862,1.605545Q10.04808,1.58095,10.11963,1.5632818Q10.19117,1.5456136,10.26409,1.5350427Q10.33702,1.5244718,10.41063,1.5211001Q10.48425,1.5177283,10.55784,1.5215881Q10.63143,1.5254479,10.70428,1.5365021Q10.77714,1.5475563,10.84856,1.5656984Q10.91998,1.5838406,10.98928,1.608896Q11.05858,1.633951,11.12509,1.665679Q11.1916,1.697406,11.25468,1.7355Q11.31776,1.773593,11.37681,1.817687Q11.43585,1.86178,11.49029,1.911448Q11.5447,1.961116,11.594,2.0158810000000003Q11.6433,2.070645,11.687,2.129979Q11.7307,2.189313,11.7684,2.2526450000000002L17.2872,11.5298L15.998,12.2967L14.6593,11.6201L20.1151,0.823481Q20.221,0.613831,20.386,0.4466000000000001Q20.551,0.27937999999999996,20.7591,0.17057999999999995Q20.8245,0.13644999999999996,20.8928,0.10888999999999993Q20.9611,0.08132000000000006,21.0318,0.06058999999999992Q21.1026,0.03986000000000001,21.175,0.02615999999999996Q21.2474,0.012459999999999916,21.3208,0.005919999999999925Q21.3942,-0.0006200000000000649,21.4679,0.0000700000000000145Q21.5415,0.0007500000000000284,21.6148,0.00865999999999989Q21.6881,0.016569999999999974,21.7602,0.031609999999999916Q21.8323,0.046659999999999924,21.9027,0.06871000000000005Q21.973,0.09075999999999995,22.0408,0.11959000000000009Q22.1086,0.14843000000000006,22.1733,0.18377Q22.2379,0.21910999999999992,22.2988,0.2606200000000001Q22.3597,0.30213,22.4162,0.34941Q22.4728,0.39669,22.5244,0.4492799999999999Q22.576,0.501867,22.6222,0.559264Q22.6684,0.616661,22.7088,0.678311Q22.7492,0.739962,22.7833,0.805272L25.7763,6.53272L24.4469,7.22745L24.4469,5.72745L32.6225,5.72743L32.6225,8.72743ZM34.1225,7.22743Q34.1225,7.30112,34.1152,7.37446Q34.108,7.44779,34.0936,7.52007Q34.0793,7.59234,34.0579,7.66286Q34.0365,7.73338,34.0083,7.80146Q33.9801,7.86954,33.9453,7.93453Q33.9106,7.99952,33.8697,8.06079Q33.8287,8.122060000000001,33.782,8.179020000000001Q33.7352,8.23598,33.6831,8.28809Q33.631,8.3402,33.574,8.386949999999999Q33.5171,8.4337,33.455799999999996,8.47464Q33.3945,8.51558,33.3296,8.55031Q33.2646,8.585049999999999,33.1965,8.61325Q33.1284,8.641449999999999,33.057900000000004,8.66284Q32.9874,8.68423,32.915099999999995,8.69861Q32.8428,8.71299,32.7695,8.72021Q32.696200000000005,8.72743,32.6225,8.72743Q32.5488,8.72743,32.4754,8.72021Q32.402100000000004,8.71299,32.3298,8.69861Q32.2575,8.68423,32.187,8.66284Q32.1165,8.641449999999999,32.0484,8.61325Q31.9803,8.585049999999999,31.9154,8.55031Q31.8504,8.51558,31.7891,8.47464Q31.7278,8.4337,31.6709,8.386949999999999Q31.6139,8.3402,31.5618,8.28809Q31.5097,8.23598,31.4629,8.179020000000001Q31.4162,8.122060000000001,31.3752,8.06079Q31.3343,7.99952,31.2996,7.93453Q31.2648,7.86954,31.2366,7.80146Q31.2084,7.73338,31.187,7.66286Q31.1657,7.59234,31.1513,7.52007Q31.1369,7.44779,31.1297,7.37446Q31.1225,7.30112,31.1225,7.22743Q31.1225,7.15374,31.1297,7.08041Q31.1369,7.00707,31.1513,6.9348Q31.1657,6.86252,31.187,6.792Q31.2084,6.72149,31.2366,6.65341Q31.2648,6.58532,31.2996,6.52034Q31.3343,6.45535,31.3752,6.39408Q31.4162,6.3328,31.4629,6.27584Q31.5097,6.21888,31.5618,6.16677Q31.6139,6.11466,31.6709,6.06792Q31.7278,6.02117,31.7891,5.98023Q31.8504,5.93929,31.9154,5.90455Q31.9803,5.86981,32.0484,5.84161Q32.1165,5.81341,32.187,5.79202Q32.2575,5.77063,32.3298,5.75625Q32.402100000000004,5.74188,32.4754,5.73465Q32.5488,5.72743,32.6225,5.72743Q32.696200000000005,5.72743,32.7695,5.73465Q32.8428,5.74188,32.915099999999995,5.75625Q32.9874,5.77063,33.057900000000004,5.79202Q33.1284,5.81341,33.1965,5.84161Q33.2646,5.86981,33.3296,5.90455Q33.3945,5.93929,33.455799999999996,5.98023Q33.5171,6.02117,33.574,6.06792Q33.631,6.11466,33.6831,6.16677Q33.7352,6.21888,33.782,6.27584Q33.8287,6.3328,33.8697,6.39408Q33.9106,6.45535,33.9453,6.52034Q33.9801,6.58533,34.0083,6.65341Q34.0365,6.72149,34.0579,6.792Q34.0793,6.86252,34.0936,6.9348Q34.108,7.00707,34.1152,7.08041Q34.1225,7.15374,34.1225,7.22743Z" fill="#00C155" fill-opacity="1"/></g></svg>