<svg xmlns="http://www.w3.org/2000/svg" xmlns:xlink="http://www.w3.org/1999/xlink" fill="none" version="1.1" width="38.322998046875" height="31.7379150390625" viewBox="0 0 38.322998046875 31.7379150390625"><g style="mix-blend-mode:passthrough"><g style="mix-blend-mode:passthrough"><path d="M38.0208,28.6858C38.845,30.0182,37.8867,31.7379,36.3199,31.7379L2.00317,31.7379C0.436448,31.7379,-0.521919,30.0182,0.302291,28.6858L17.4607,0.947854C18.2425,-0.315951,20.0807,-0.315951,20.8624,0.947854L38.0208,28.6858Z" fill="#D61D00" fill-opacity="1"/></g><g style="mix-blend-mode:passthrough"><g style="mix-blend-mode:passthrough"><path d="M20.758680236816407,25.37285727203369Q20.758690236816406,25.45131727203369,20.750990236816406,25.52939727203369Q20.743300236816406,25.60748727203369,20.728000236816406,25.68443727203369Q20.712690236816407,25.76139727203369,20.689910236816406,25.83647727203369Q20.667140236816408,25.91155727203369,20.637110236816405,25.984047272033692Q20.607080236816408,26.05653727203369,20.570100236816405,26.125737272033692Q20.533110236816405,26.19492727203369,20.489520236816407,26.26016727203369Q20.445930236816405,26.32540727203369,20.396150236816407,26.386057272033693Q20.346380236816408,26.44671727203369,20.290900236816405,26.50219727203369Q20.235420236816406,26.557677272033693,20.174760236816407,26.607447272033692Q20.114110236816405,26.65722727203369,20.048870236816406,26.700817272033692Q19.983630236816406,26.74440727203369,19.914440236816407,26.78139727203369Q19.845240236816405,26.818377272033693,19.772750236816407,26.84840727203369Q19.700260236816405,26.878437272033693,19.625180236816405,26.90120727203369Q19.550100236816405,26.923987272033692,19.473140236816405,26.93929727203369Q19.396190236816405,26.95459727203369,19.318100236816406,26.96228727203369Q19.240020236816406,26.96997727203369,19.161560236816406,26.96997727203369Q19.083100236816406,26.96997727203369,19.005010236816407,26.96228727203369Q18.926930236816407,26.95459727203369,18.849970236816407,26.93929727203369Q18.773020236816407,26.923987272033692,18.697940236816407,26.90120727203369Q18.622850236816404,26.878437272033693,18.550363236816406,26.84840727203369Q18.477874236816405,26.818377272033693,18.408677236816406,26.78139727203369Q18.339480236816406,26.74440727203369,18.274241236816405,26.700817272033692Q18.209002236816406,26.65722727203369,18.148350236816405,26.607447272033692Q18.087699236816405,26.557677272033693,18.032218236816405,26.50219727203369Q17.976737236816405,26.44671727203369,17.926961236816407,26.386057272033693Q17.877186236816407,26.32540727203369,17.833594236816406,26.26016727203369Q17.790003236816407,26.19492727203369,17.753017236816405,26.125737272033692Q17.716030236816405,26.05653727203369,17.686004236816405,25.984047272033692Q17.655978236816406,25.91155727203369,17.633202036816407,25.83647727203369Q17.610425736816406,25.76139727203369,17.595118636816405,25.68443727203369Q17.579811436816406,25.60748727203369,17.572120836816406,25.52939727203369Q17.564430236816406,25.45131727203369,17.564430236816406,25.37285727203369Q17.564430236816406,25.29439727203369,17.572120836816406,25.216307272033692Q17.579811436816406,25.138227272033692,17.595118636816405,25.061267272033692Q17.610425736816406,24.984317272033692,17.633202036816407,24.909237272033693Q17.655978236816406,24.83414727203369,17.686004236816405,24.76166027203369Q17.716030236816405,24.68917127203369,17.753017236816405,24.61997427203369Q17.790003236816407,24.55077727203369,17.833594236816406,24.48553827203369Q17.877186236816407,24.42029927203369,17.926961236816407,24.35964727203369Q17.976737236816405,24.29899627203369,18.032218236816405,24.24351527203369Q18.087699236816405,24.18803427203369,18.148350236816405,24.138258272033692Q18.209002236816406,24.08848327203369,18.274241236816405,24.04489127203369Q18.339480236816406,24.001300272033692,18.408677236816406,23.96431427203369Q18.477874236816405,23.92732727203369,18.550363236816406,23.89730127203369Q18.622850236816404,23.86727527203369,18.697940236816407,23.844499072033692Q18.773020236816407,23.82172277203369,18.849970236816407,23.806415572033693Q18.926930236816407,23.79110847203369,19.005010236816407,23.78341787203369Q19.083100236816406,23.77572727203369,19.161560236816406,23.77572727203369Q19.240020236816406,23.77572727203369,19.318100236816406,23.78341787203369Q19.396190236816405,23.79110847203369,19.473140236816405,23.806415572033693Q19.550100236816405,23.82172277203369,19.625180236816405,23.844499072033692Q19.700260236816405,23.86727527203369,19.772750236816407,23.89730127203369Q19.845240236816405,23.92732727203369,19.914440236816407,23.96431427203369Q19.983630236816406,24.001300272033692,20.048870236816406,24.04489127203369Q20.114110236816405,24.08848327203369,20.174760236816407,24.138258272033692Q20.235420236816406,24.18803427203369,20.290900236816405,24.24351527203369Q20.346380236816408,24.29899627203369,20.396150236816407,24.35964727203369Q20.445930236816405,24.42029927203369,20.489520236816407,24.48553827203369Q20.533110236816405,24.55077727203369,20.570100236816405,24.61997427203369Q20.607080236816408,24.68917127203369,20.637110236816405,24.76166027203369Q20.667140236816408,24.83414727203369,20.689910236816406,24.909237272033693Q20.712690236816407,24.984317272033692,20.728000236816406,25.061267272033692Q20.743300236816406,25.138227272033692,20.750990236816406,25.216307272033692Q20.758690236816406,25.29439727203369,20.758680236816407,25.37285727203369Z" fill="#FFFFFF" fill-opacity="1"/></g><g style="mix-blend-mode:passthrough"><path d="M17.933151841163635,8.25756549835205C17.933151841163635,7.981423498352051,18.157009841163635,7.757565498352051,18.433151841163635,7.757565498352051L19.828841841163637,7.757565498352051C20.104981841163635,7.757565498352051,20.328841841163637,7.981423498352051,20.328841841163637,8.25756549835205L20.328841841163637,21.63166549835205C20.328841841163637,21.907865498352052,20.104981841163635,22.13166549835205,19.828841841163637,22.13166549835205L18.433151841163635,22.13166549835205C18.157009841163635,22.13166549835205,17.933151841163635,21.907865498352052,17.933151841163635,21.63166549835205L17.933151841163635,8.25756549835205Z" fill="#FFFFFF" fill-opacity="1"/></g></g></g></svg>