<svg xmlns="http://www.w3.org/2000/svg" xmlns:xlink="http://www.w3.org/1999/xlink" fill="none" version="1.1" width="60.36279296875" height="41.365478515625" viewBox="0 0 60.36279296875 41.365478515625"><g style="mix-blend-mode:passthrough"><g style="mix-blend-mode:passthrough"><path d="M27.990345001220703,37.153933236694336L27.990345001220703,20.751333236694336L32.201805001220706,20.751333236694336L32.201805001220706,37.153933236694336L27.990345001220703,37.153933236694336Z" fill-rule="evenodd" fill="#00C155" fill-opacity="1"/></g><g style="mix-blend-mode:passthrough"><g style="mix-blend-mode:passthrough"><path d="M2.105,21.384601479492186L58.2578,21.384601479492186L58.2578,21.383871479492186C59.4204,21.383871479492186,60.3628,20.441431479492188,60.3628,19.27887147949219C60.3628,18.116313479492188,59.4204,17.173872709492187,58.2578,17.173872709492187L58.2578,17.173141479492188L2.105,17.173141479492188L2.105,17.173872709492187C0.942441,17.173872709492187,0,18.116313479492188,0,19.27887147949219C0,20.441431479492188,0.942441,21.383871479492186,2.105,21.383871479492186L2.105,21.384601479492186Z" fill-rule="evenodd" fill="#00C155" fill-opacity="1"/></g><g style="mix-blend-mode:passthrough"><path d="M33.60562496337891,37.85583770019531C33.60562496337891,39.79410770019531,32.034344963378906,41.36539770019531,30.096074963378907,41.36539770019531C28.157804963378908,41.36539770019531,26.586524963378906,39.79410770019531,26.586524963378906,37.85583770019531C26.586524963378906,35.91755770019531,28.157804963378908,34.34626770019531,30.096074963378907,34.34626770019531C32.034344963378906,34.34626770019531,33.60562496337891,35.91755770019531,33.60562496337891,37.85583770019531Z" fill="#00C155" fill-opacity="1"/></g><g style="mix-blend-mode:passthrough"><path d="M33.60562496337891,37.85583770019531C33.60562496337891,39.79410770019531,32.034344963378906,41.36539770019531,30.096074963378907,41.36539770019531C28.157804963378908,41.36539770019531,26.586524963378906,39.79410770019531,26.586524963378906,37.85583770019531C26.586524963378906,35.91755770019531,28.157804963378908,34.34626770019531,30.096074963378907,34.34626770019531C32.034344963378906,34.34626770019531,33.60562496337891,35.91755770019531,33.60562496337891,37.85583770019531ZM32.201804963378905,37.85583770019531Q32.201804963378905,36.983607700195314,31.585054963378905,36.366847700195315Q30.968294963378906,35.750087700195316,30.096074963378907,35.750087700195316Q29.223854963378905,35.750087700195316,28.607104963378905,36.366847700195315Q27.990344963378906,36.983607700195314,27.990344963378906,37.85583770019531Q27.990344963378906,38.728057700195315,28.607104963378905,39.344817700195314Q29.223854963378905,39.96157770019531,30.096074963378907,39.96157770019531Q30.968294963378906,39.96157770019531,31.585054963378905,39.344817700195314Q32.201804963378905,38.728057700195315,32.201804963378905,37.85583770019531Z" fill-rule="evenodd" fill="#00C155" fill-opacity="1"/></g><g style="mix-blend-mode:passthrough"><path d="M13.815727044677734,37.85583770019531C13.815727044677734,39.79410770019531,12.244447044677734,41.36539770019531,10.306177044677735,41.36539770019531C8.367907044677734,41.36539770019531,6.796627044677734,39.79410770019531,6.796627044677734,37.85583770019531C6.796627044677734,35.91755770019531,8.367907044677734,34.34626770019531,10.306177044677735,34.34626770019531C12.244447044677734,34.34626770019531,13.815727044677734,35.91755770019531,13.815727044677734,37.85583770019531Z" fill="#00C155" fill-opacity="1"/></g><g style="mix-blend-mode:passthrough"><path d="M13.815727044677734,37.85583770019531C13.815727044677734,39.79410770019531,12.244447044677734,41.36539770019531,10.306177044677735,41.36539770019531C8.367907044677734,41.36539770019531,6.796627044677734,39.79410770019531,6.796627044677734,37.85583770019531C6.796627044677734,35.91755770019531,8.367907044677734,34.34626770019531,10.306177044677735,34.34626770019531C12.244447044677734,34.34626770019531,13.815727044677734,35.91755770019531,13.815727044677734,37.85583770019531ZM12.411907044677735,37.85583770019531Q12.411907044677735,36.983607700195314,11.795157044677733,36.366847700195315Q11.178397044677734,35.750087700195316,10.306177044677735,35.750087700195316Q9.433957044677735,35.750087700195316,8.817207044677733,36.366847700195315Q8.200447044677734,36.983607700195314,8.200447044677734,37.85583770019531Q8.200447044677734,38.728057700195315,8.817207044677733,39.344817700195314Q9.433957044677735,39.96157770019531,10.306177044677735,39.96157770019531Q11.178397044677734,39.96157770019531,11.795157044677733,39.344817700195314Q12.411907044677735,38.728057700195315,12.411907044677735,37.85583770019531Z" fill-rule="evenodd" fill="#00C155" fill-opacity="1"/></g><g style="mix-blend-mode:passthrough"><path d="M53.56620006713867,37.85583770019531C53.56620006713867,39.79410770019531,51.99492006713867,41.36539770019531,50.05665006713867,41.36539770019531C48.11838006713867,41.36539770019531,46.54710006713867,39.79410770019531,46.54710006713867,37.85583770019531C46.54710006713867,35.91755770019531,48.11838006713867,34.34626770019531,50.05665006713867,34.34626770019531C51.99492006713867,34.34626770019531,53.56620006713867,35.91755770019531,53.56620006713867,37.85583770019531Z" fill="#00C155" fill-opacity="1"/></g><g style="mix-blend-mode:passthrough"><path d="M53.56620006713867,37.85583770019531C53.56620006713867,39.79410770019531,51.99492006713867,41.36539770019531,50.05665006713867,41.36539770019531C48.11838006713867,41.36539770019531,46.54710006713867,39.79410770019531,46.54710006713867,37.85583770019531C46.54710006713867,35.91755770019531,48.11838006713867,34.34626770019531,50.05665006713867,34.34626770019531C51.99492006713867,34.34626770019531,53.56620006713867,35.91755770019531,53.56620006713867,37.85583770019531ZM52.16238006713867,37.85583770019531Q52.16238006713867,36.983607700195314,51.545630067138674,36.366847700195315Q50.928870067138675,35.750087700195316,50.05665006713867,35.750087700195316Q49.18443006713867,35.750087700195316,48.567680067138674,36.366847700195315Q47.950920067138675,36.983607700195314,47.950920067138675,37.85583770019531Q47.950920067138675,38.728057700195315,48.567680067138674,39.344817700195314Q49.18443006713867,39.96157770019531,50.05665006713867,39.96157770019531Q50.928870067138675,39.96157770019531,51.545630067138674,39.344817700195314Q52.16238006713867,38.728057700195315,52.16238006713867,37.85583770019531Z" fill-rule="evenodd" fill="#00C155" fill-opacity="1"/></g><g style="mix-blend-mode:passthrough"><g style="mix-blend-mode:passthrough"><path d="M22.9036329284668,3.50957C22.9036329284668,5.44784,21.332352928466797,7.01913,19.394082928466798,7.01913C17.4558129284668,7.01913,15.884532928466797,5.44784,15.884532928466797,3.50957C15.884532928466797,1.57129,17.4558129284668,0,19.394082928466798,0C21.332352928466797,0,22.9036329284668,1.57129,22.9036329284668,3.50957Z" fill="#00C155" fill-opacity="1"/></g><g style="mix-blend-mode:passthrough"><path d="M22.9036329284668,3.50957C22.9036329284668,5.44784,21.332352928466797,7.01913,19.394082928466798,7.01913C17.4558129284668,7.01913,15.884532928466797,5.44784,15.884532928466797,3.50957C15.884532928466797,1.57129,17.4558129284668,0,19.394082928466798,0C21.332352928466797,0,22.9036329284668,1.57129,22.9036329284668,3.50957ZM21.499812928466795,3.50957Q21.499812928466795,2.63734,20.883062928466796,2.02058Q20.266302928466796,1.40382,19.394082928466798,1.40382Q18.521862928466795,1.40382,17.905112928466796,2.02058Q17.288352928466796,2.63734,17.288352928466796,3.50957Q17.288352928466796,4.38179,17.905112928466796,4.99855Q18.521862928466795,5.61531,19.394082928466798,5.61531Q20.266302928466796,5.61531,20.883062928466796,4.99855Q21.499812928466795,4.38179,21.499812928466795,3.50957Z" fill-rule="evenodd" fill="#00C155" fill-opacity="1"/></g><g style="mix-blend-mode:passthrough"><path d="M44.3986108795166,3.50957C44.3986108795166,5.44784,42.8273308795166,7.01913,40.8890608795166,7.01913C38.9507908795166,7.01913,37.3795108795166,5.44784,37.3795108795166,3.50957C37.3795108795166,1.57129,38.9507908795166,0,40.8890608795166,0C42.8273308795166,0,44.3986108795166,1.57129,44.3986108795166,3.50957Z" fill="#00C155" fill-opacity="1"/></g><g style="mix-blend-mode:passthrough"><path d="M44.3986108795166,3.50957C44.3986108795166,5.44784,42.8273308795166,7.01913,40.8890608795166,7.01913C38.9507908795166,7.01913,37.3795108795166,5.44784,37.3795108795166,3.50957C37.3795108795166,1.57129,38.9507908795166,0,40.8890608795166,0C42.8273308795166,0,44.3986108795166,1.57129,44.3986108795166,3.50957ZM42.9947908795166,3.50957Q42.9947908795166,2.63734,42.378040879516604,2.02058Q41.761280879516605,1.40382,40.8890608795166,1.40382Q40.0168408795166,1.40382,39.400090879516604,2.02058Q38.783330879516605,2.63734,38.783330879516605,3.50957Q38.783330879516605,4.38179,39.400090879516604,4.99855Q40.0168408795166,5.61531,40.8890608795166,5.61531Q41.761280879516605,5.61531,42.378040879516604,4.99855Q42.9947908795166,4.38179,42.9947908795166,3.50957Z" fill-rule="evenodd" fill="#00C155" fill-opacity="1"/></g></g><g style="mix-blend-mode:passthrough"><path d="M17.288440704345703,19.27888412246704L17.288440704345703,2.876284122467041L21.499900704345702,2.876284122467041L21.499900704345702,19.27888412246704L17.288440704345703,19.27888412246704Z" fill-rule="evenodd" fill="#00C155" fill-opacity="1"/></g><g style="mix-blend-mode:passthrough"><path d="M38.78324508666992,19.106576154327392L38.78324508666992,2.7039761543273926L42.994705086669924,2.7039761543273926L42.994705086669924,19.106576154327392L38.78324508666992,19.106576154327392Z" fill-rule="evenodd" fill="#00C155" fill-opacity="1"/></g><g style="mix-blend-mode:passthrough"><path d="M8.200532913208008,37.153933236694336L8.200532913208008,20.751333236694336L12.411992913208007,20.751333236694336L12.411992913208007,37.153933236694336L8.200532913208008,37.153933236694336Z" fill-rule="evenodd" fill="#00C155" fill-opacity="1"/></g><g style="mix-blend-mode:passthrough"><path d="M47.95083999633789,36.38338727722168L47.95083999633789,19.98078727722168L52.16229999633789,19.98078727722168L52.16229999633789,36.38338727722168L47.95083999633789,36.38338727722168Z" fill-rule="evenodd" fill="#00C155" fill-opacity="1"/></g></g></g></svg>