<svg xmlns="http://www.w3.org/2000/svg" xmlns:xlink="http://www.w3.org/1999/xlink" fill="none" version="1.1" width="52" height="52" viewBox="0 0 52 52"><g style="mix-blend-mode:passthrough"><g><g style="mix-blend-mode:passthrough"><path d="M100.0167,64.7113Q100.13069999999999,64.7772,100.2238,64.8702Q100.3169,64.9633,100.3827,65.0774Q100.4485,65.1914,100.48259999999999,65.3185Q100.5167,65.4457,100.5167,65.5774L100.5167,90.4226Q100.5167,90.5543,100.48259999999999,90.6815Q100.4485,90.8086,100.3827,90.9226Q100.3169,91.0367,100.2238,91.1298Q100.13069999999999,91.2228,100.0167,91.2887L78.5,103.7113Q78.386,103.7772,78.25880000000001,103.8112Q78.1317,103.84530000000001,78,103.84530000000001Q77.86840000000001,103.84530000000001,77.74119999999999,103.8112Q77.614,103.7772,77.5,103.7113L55.98334,91.2887Q55.86933,91.2228,55.77623,91.1298Q55.68314,91.0367,55.61731,90.9226Q55.55149,90.8086,55.51741,90.6815Q55.48334,90.5543,55.48334,90.4226L55.48334,65.5774Q55.48334,65.4457,55.51741,65.3185Q55.55149,65.1914,55.61731,65.0774Q55.68314,64.9633,55.77623,64.8702Q55.86932,64.7772,55.98334,64.7113L77.5,52.288675Q77.614,52.222849,77.74119999999999,52.188775Q77.86840000000001,52.154701,78,52.154701Q78.1317,52.154701,78.25880000000001,52.188775Q78.386,52.222849,78.5,52.288675L100.0167,64.7113Z" transform="matrix(-1,0,0,-1,104,104)" fill="#00C155" fill-opacity="1"/></g><g style="mix-blend-mode:passthrough"><path d="M24.681640625,76.9627380859375L24.681640625,51.4515390396115L27.681640625,51.4515390396115L27.681640625,76.9627380859375L24.681640625,76.9627380859375ZM27.681640625,76.9627380859375Q27.681640625,77.0364380859375,27.674420625,77.1098380859375Q27.667190625,77.1831380859375,27.652820625,77.2554380859375Q27.638440625,77.32763808593751,27.617050625,77.39823808593749Q27.595660625,77.4687380859375,27.567460625,77.5368380859375Q27.539260625,77.6048380859375,27.504520625,77.6698380859375Q27.469780625,77.7348380859375,27.428840625,77.7961380859375Q27.387900625,77.8574380859375,27.341160625,77.9143380859375Q27.294410625,77.9713380859375,27.242300625,78.0234380859375Q27.190190625,78.0755380859375,27.133230625,78.1222380859375Q27.076267625,78.1690380859375,27.014995625,78.2099380859375Q26.953724625,78.25093808593749,26.888735625,78.2856380859375Q26.823746625,78.3203380859375,26.755665625,78.34853808593749Q26.687584625,78.3767380859375,26.617067625,78.3981380859375Q26.546550625,78.4195380859375,26.474275625,78.4339380859375Q26.402001625,78.44833808593751,26.328666625,78.4555380859375Q26.255330925,78.4627380859375,26.181640625,78.4627380859375Q26.107950325,78.4627380859375,26.034614625,78.4555380859375Q25.961279625,78.44833808593751,25.889005625,78.4339380859375Q25.816730625,78.4195380859375,25.746213625,78.3981380859375Q25.675696625,78.3767380859375,25.607615625,78.34853808593749Q25.539534625,78.3203380859375,25.474545625,78.2856380859375Q25.409556625,78.25093808593749,25.348285625,78.2099380859375Q25.287013625,78.1690380859375,25.230050625,78.1222380859375Q25.173090625,78.0755380859375,25.120980625,78.0234380859375Q25.068870625,77.9713380859375,25.022120625,77.9143380859375Q24.975380625,77.8574380859375,24.934440625,77.7961380859375Q24.893500625,77.7348380859375,24.858760625,77.6698380859375Q24.824020625,77.6048380859375,24.795820625,77.5368380859375Q24.767620625,77.4687380859375,24.746230625,77.39823808593749Q24.724840625,77.32763808593751,24.710460625,77.2554380859375Q24.696090625,77.1831380859375,24.688860625,77.1098380859375Q24.681640625,77.0364380859375,24.681640625,76.9627380859375Q24.681640625,76.8890380859375,24.688860625,76.8157380859375Q24.696090625,76.7424380859375,24.710460625,76.6701380859375Q24.724840625,76.5978380859375,24.746230625,76.5273380859375Q24.767620625,76.4568380859375,24.795820625,76.3887380859375Q24.824020625,76.3206380859375,24.858760625,76.2556380859375Q24.893500625,76.19063808593751,24.934440625,76.1294380859375Q24.975380625,76.0681380859375,25.022120625,76.0111380859375Q25.068870625,75.9542380859375,25.120980625,75.90213808593751Q25.173090625,75.8500380859375,25.230050625,75.8032380859375Q25.287013625,75.7565380859375,25.348285625,75.7155380859375Q25.409556625,75.6746380859375,25.474545625,75.6398380859375Q25.539534625,75.6051380859375,25.607615625,75.5769380859375Q25.675696625,75.5487380859375,25.746213625,75.5273380859375Q25.816730625,75.5059380859375,25.889005625,75.4916380859375Q25.961279625,75.4772380859375,26.034614625,75.4700380859375Q26.107950325,75.4627380859375,26.181640625,75.4627380859375Q26.255330925,75.4627380859375,26.328666625,75.4700380859375Q26.402001625,75.4772380859375,26.474275625,75.4916380859375Q26.546550625,75.5059380859375,26.617067625,75.5273380859375Q26.687584625,75.5487380859375,26.755665625,75.5769380859375Q26.823746625,75.6051380859375,26.888735625,75.6398380859375Q26.953724625,75.6746380859375,27.014995625,75.7155380859375Q27.076267625,75.7565380859375,27.133230625,75.8032380859375Q27.190190625,75.8500380859375,27.242300625,75.90213808593751Q27.294410625,75.9542380859375,27.341160625,76.0111380859375Q27.387900625,76.0681380859375,27.428840625,76.1294380859375Q27.469780625,76.19063808593751,27.504520625,76.2556380859375Q27.539260625,76.3206380859375,27.567460625,76.3887380859375Q27.595660625,76.4568380859375,27.617050625,76.5273380859375Q27.638440625,76.5978380859375,27.652820625,76.6701380859375Q27.667190625,76.7424380859375,27.674420625,76.8157380859375Q27.681640625,76.8890380859375,27.681640625,76.9627380859375ZM27.681640625,51.4515390396115Q27.681640625,51.5252292859375,27.674420625,51.5985650859375Q27.667190625,51.6719000859375,27.652820625,51.7441740859375Q27.638440625,51.8164490859375,27.617050625,51.8869660859375Q27.595660625,51.9574830859375,27.567460625,52.0255640859375Q27.539260625,52.0936450859375,27.504520625,52.1586340859375Q27.469780625,52.2236230859375,27.428840625,52.2848940859375Q27.387900625,52.3461650859375,27.341160625,52.4031290859375Q27.294410625,52.4600880859375,27.242300625,52.5121980859375Q27.190190625,52.5643080859375,27.133230625,52.6110580859375Q27.076267625,52.6578080859375,27.014995625,52.6987480859375Q26.953724625,52.7396880859375,26.888735625,52.7744180859375Q26.823746625,52.8091580859375,26.755665625,52.8373580859375Q26.687584625,52.8655580859375,26.617067625,52.8869480859375Q26.546550625,52.9083380859375,26.474275625,52.9227180859375Q26.402001625,52.9370980859375,26.328666625,52.9443180859375Q26.255330925,52.9515380859375,26.181640625,52.9515380859375Q26.107950325,52.9515380859375,26.034614625,52.9443180859375Q25.961279625,52.9370980859375,25.889005625,52.9227180859375Q25.816730625,52.9083380859375,25.746213625,52.8869480859375Q25.675696625,52.8655580859375,25.607615625,52.8373580859375Q25.539534625,52.8091580859375,25.474545625,52.7744180859375Q25.409556625,52.7396880859375,25.348285625,52.6987480859375Q25.287013625,52.6578080859375,25.230050625,52.6110580859375Q25.173090625,52.5643080859375,25.120980625,52.5121980859375Q25.068870625,52.4600880859375,25.022120625,52.4031290859375Q24.975380625,52.3461660859375,24.934440625,52.2848940859375Q24.893500625,52.2236230859375,24.858760625,52.1586340859375Q24.824020625,52.0936450859375,24.795820625,52.0255640859375Q24.767620625,51.9574830859375,24.746230625,51.8869660859375Q24.724840625,51.8164490859375,24.710460625,51.7441740859375Q24.696090625,51.6719000859375,24.688860625,51.5985650859375Q24.681640625,51.5252292859375,24.681640625,51.4515390396115Q24.681640625,51.3778487859375,24.688860625,51.3045130859375Q24.696090625,51.2311780859375,24.710460625,51.1589040859375Q24.724840625,51.0866290859375,24.746230625,51.0161120859375Q24.767620625,50.9455950859375,24.795820625,50.8775140859375Q24.824020625,50.8094330859375,24.858760625,50.7444440859375Q24.893500625,50.6794550859375,24.934440625,50.6181840859375Q24.975380625,50.5569120859375,25.022120625,50.4999490859375Q25.068870625,50.4429880859375,25.120980625,50.3908780859375Q25.173090625,50.3387680859375,25.230050625,50.2920280859375Q25.287013625,50.2452780859375,25.348285625,50.2043380859375Q25.409556625,50.1633980859375,25.474545625,50.1286580859375Q25.539534625,50.0939180859375,25.607615625,50.0657180859375Q25.675696625,50.0375180859375,25.746213625,50.0161280859375Q25.816730625,49.9947380859375,25.889005625,49.9803580859375Q25.961279625,49.9659880859375,26.034614625,49.9587580859375Q26.107950325,49.9515380859375,26.181640625,49.9515380859375Q26.255330925,49.9515380859375,26.328666625,49.9587580859375Q26.402001625,49.9659880859375,26.474275625,49.9803580859375Q26.546550625,49.9947380859375,26.617067625,50.0161280859375Q26.687584625,50.0375180859375,26.755665625,50.0657180859375Q26.823746625,50.0939180859375,26.888735625,50.1286580859375Q26.953724625,50.1633980859375,27.014995625,50.2043380859375Q27.076267625,50.2452780859375,27.133230625,50.2920280859375Q27.190190625,50.3387680859375,27.242300625,50.3908780859375Q27.294410625,50.4429880859375,27.341160625,50.4999490859375Q27.387900625,50.5569120859375,27.428840625,50.6181840859375Q27.469780625,50.6794550859375,27.504520625,50.7444440859375Q27.539260625,50.8094330859375,27.567460625,50.8775140859375Q27.595660625,50.9455950859375,27.617050625,51.0161120859375Q27.638440625,51.0866290859375,27.652820625,51.1589040859375Q27.667190625,51.2311780859375,27.674420625,51.3045130859375Q27.681640625,51.3778487859375,27.681640625,51.4515390396115Z" transform="matrix(-1,0,0,-1,52.36328125,102.903076171875)" fill="#FFFFFF" fill-opacity="1"/></g><g style="mix-blend-mode:passthrough"><path d="M2.0458984375,37.92524423828125L2.0458984375,12.97784519195525L5.0458984375,12.97784519195525L5.0458984375,37.92524423828125L2.0458984375,37.92524423828125ZM5.0458984375,37.92524423828125Q5.0458984375,37.998944238281254,5.0386784375,38.07224423828125Q5.0314484375,38.145544238281246,5.0170784375,38.217844238281245Q5.0026984375,38.29014423828125,4.9813084375,38.36064423828125Q4.9599184375,38.43114423828125,4.9317184375,38.49924423828125Q4.9035184375,38.56734423828125,4.8687784375,38.63234423828125Q4.8340384375,38.69734423828125,4.7930984375,38.758544238281246Q4.7521584375,38.81984423828125,4.7054184375000006,38.87684423828125Q4.6586684375,38.93374423828125,4.6065584375,38.985844238281246Q4.5544484375,39.038044238281245,4.4974884375,39.084744238281246Q4.4405254375,39.13144423828125,4.3792534375,39.17244423828125Q4.3179824374999995,39.21334423828125,4.2529934375,39.24814423828125Q4.1880044375,39.28284423828125,4.1199234375,39.311044238281255Q4.0518424374999995,39.33924423828125,3.9813254375,39.36064423828125Q3.9108084375,39.38204423828125,3.8385334374999998,39.39644423828125Q3.7662594375,39.410744238281254,3.6929244375,39.418044238281254Q3.6195887375,39.42524423828125,3.5458984375,39.42524423828125Q3.4722081375,39.42524423828125,3.3988724375,39.418044238281254Q3.3255374375,39.410744238281254,3.2532634375000002,39.39644423828125Q3.1809884375,39.38204423828125,3.1104714375,39.36064423828125Q3.0399544375,39.33924423828125,2.9718734375,39.311044238281255Q2.9037924375,39.28284423828125,2.8388034375,39.24814423828125Q2.7738144375,39.21334423828125,2.7125434375,39.17244423828125Q2.6512714375,39.13144423828125,2.5943084375,39.084744238281246Q2.5373484375,39.038044238281245,2.4852384375,38.985844238281246Q2.4331284374999997,38.93374423828125,2.3863784375,38.87684423828125Q2.3396384374999997,38.81984423828125,2.2986984374999997,38.758544238281246Q2.2577584374999997,38.69734423828125,2.2230184375,38.63234423828125Q2.1882784375,38.56734423828125,2.1600784375,38.49924423828125Q2.1318784375,38.43114423828125,2.1104884375,38.36064423828125Q2.0890984374999997,38.29014423828125,2.0747184375,38.217844238281245Q2.0603484375,38.145544238281246,2.0531184375000002,38.07224423828125Q2.0458984375,37.998944238281254,2.0458984375,37.92524423828125Q2.0458984375,37.85154423828125,2.0531184375000002,37.778244238281246Q2.0603484375,37.704844238281254,2.0747184375,37.63254423828125Q2.0890984374999997,37.560344238281246,2.1104884375,37.48984423828125Q2.1318784375,37.41924423828125,2.1600784375,37.351244238281254Q2.1882784375,37.28314423828125,2.2230184375,37.218144238281255Q2.2577584374999997,37.15314423828125,2.2986984374999997,37.091844238281254Q2.3396384374999997,37.030644238281255,2.3863784375,36.97364423828125Q2.4331284374999997,36.91664423828125,2.4852384375,36.864544238281255Q2.5373484375,36.812444238281245,2.5943084375,36.76574423828125Q2.6512714375,36.71894423828125,2.7125434375,36.678044238281245Q2.7738144375,36.63704423828125,2.8388034375,36.60234423828125Q2.9037924375,36.56764423828125,2.9718734375,36.53944423828125Q3.0399544375,36.51124423828125,3.1104714375,36.48984423828125Q3.1809884375,36.46844423828125,3.2532634375000002,36.45404423828125Q3.3255374375,36.43964423828125,3.3988724375,36.43244423828125Q3.4722081375,36.42524423828125,3.5458984375,36.42524423828125Q3.6195887375,36.42524423828125,3.6929244375,36.43244423828125Q3.7662594375,36.43964423828125,3.8385334374999998,36.45404423828125Q3.9108084375,36.46844423828125,3.9813254375,36.48984423828125Q4.0518424374999995,36.51124423828125,4.1199234375,36.53944423828125Q4.1880044375,36.56764423828125,4.2529934375,36.60234423828125Q4.3179824374999995,36.63704423828125,4.3792534375,36.678044238281245Q4.4405254375,36.71894423828125,4.4974884375,36.76574423828125Q4.5544484375,36.812444238281245,4.6065584375,36.864544238281255Q4.6586684375,36.91664423828125,4.7054184375000006,36.97364423828125Q4.7521584375,37.030644238281255,4.7930984375,37.091844238281254Q4.8340384375,37.15314423828125,4.8687784375,37.218144238281255Q4.9035184375,37.28314423828125,4.9317184375,37.351244238281254Q4.9599184375,37.41924423828125,4.9813084375,37.48984423828125Q5.0026984375,37.560344238281246,5.0170784375,37.63264423828125Q5.0314484375,37.704844238281254,5.0386784375,37.778244238281246Q5.0458984375,37.85154423828125,5.0458984375,37.92524423828125ZM5.0458984375,12.97784519195525Q5.0458984375,13.05153543828125,5.0386784375,13.12487123828125Q5.0314484375,13.19820623828125,5.0170784375,13.27048023828125Q5.0026984375,13.34275523828125,4.9813084375,13.41327223828125Q4.9599184375,13.48378923828125,4.9317184375,13.55187023828125Q4.9035184375,13.61995123828125,4.8687784375,13.68494023828125Q4.8340384375,13.74992923828125,4.7930984375,13.81120023828125Q4.7521584375,13.87247123828125,4.7054184375000006,13.92943523828125Q4.6586684375,13.98639423828125,4.6065584375,14.03850423828125Q4.5544484375,14.09061423828125,4.4974884375,14.13736423828125Q4.4405254375,14.18411423828125,4.3792534375,14.225054238281249Q4.3179824374999995,14.26599423828125,4.2529934375,14.30072423828125Q4.1880044375,14.33546423828125,4.1199234375,14.36366423828125Q4.0518424374999995,14.39186423828125,3.9813254375,14.413254238281251Q3.9108084375,14.43464423828125,3.8385334374999998,14.44902423828125Q3.7662594375,14.46340423828125,3.6929244375,14.47062423828125Q3.6195887375,14.47784423828125,3.5458984375,14.47784423828125Q3.4722081375,14.47784423828125,3.3988724375,14.47062423828125Q3.3255374375,14.46340423828125,3.2532634375000002,14.44902423828125Q3.1809884375,14.43464423828125,3.1104714375,14.413254238281251Q3.0399544375,14.39186423828125,2.9718734375,14.36366423828125Q2.9037924375,14.33546423828125,2.8388034375,14.30072423828125Q2.7738144375,14.26599423828125,2.7125434375,14.225054238281249Q2.6512714375,14.18411423828125,2.5943084375,14.13736423828125Q2.5373484375,14.09061423828125,2.4852384375,14.03850423828125Q2.4331284374999997,13.98639423828125,2.3863784375,13.92943523828125Q2.3396384374999997,13.87247223828125,2.2986984374999997,13.81120023828125Q2.2577584374999997,13.74992923828125,2.2230184375,13.68494023828125Q2.1882784375,13.61995123828125,2.1600784375,13.55187023828125Q2.1318784375,13.48378923828125,2.1104884375,13.41327223828125Q2.0890984374999997,13.34275523828125,2.0747184375,13.27048023828125Q2.0603484375,13.19820623828125,2.0531184375000002,13.12487123828125Q2.0458984375,13.05153543828125,2.0458984375,12.97784519195525Q2.0458984375,12.90415493828125,2.0531184375000002,12.83081923828125Q2.0603484375,12.75748423828125,2.0747184375,12.68521023828125Q2.0890984374999997,12.61293523828125,2.1104884375,12.54241823828125Q2.1318784375,12.47190123828125,2.1600784375,12.40382023828125Q2.1882784375,12.33573923828125,2.2230184375,12.27075023828125Q2.2577584374999997,12.20576123828125,2.2986984374999997,12.14449023828125Q2.3396384374999997,12.08321823828125,2.3863784375,12.02625523828125Q2.4331284374999997,11.96929423828125,2.4852384375,11.91718423828125Q2.5373484375,11.86507423828125,2.5943084375,11.818334238281249Q2.6512714375,11.77158423828125,2.7125434375,11.73064423828125Q2.7738144375,11.68970423828125,2.8388034375,11.65496423828125Q2.9037924375,11.62022423828125,2.9718734375,11.59202423828125Q3.0399544375,11.56382423828125,3.1104714375,11.542434238281249Q3.1809884375,11.52104423828125,3.2532634375000002,11.50666423828125Q3.3255374375,11.49229423828125,3.3988724375,11.48506423828125Q3.4722081375,11.47784423828125,3.5458984375,11.47784423828125Q3.6195887375,11.47784423828125,3.6929244375,11.48506423828125Q3.7662594375,11.49229423828125,3.8385334374999998,11.50666423828125Q3.9108084375,11.52104423828125,3.9813254375,11.542434238281249Q4.0518424374999995,11.56382423828125,4.1199234375,11.59202423828125Q4.1880044375,11.62022423828125,4.2529934375,11.65496423828125Q4.3179824374999995,11.68970423828125,4.3792534375,11.73064423828125Q4.4405254375,11.77158423828125,4.4974884375,11.818334238281249Q4.5544484375,11.86507423828125,4.6065584375,11.91718423828125Q4.6586684375,11.96929423828125,4.7054184375000006,12.02625523828125Q4.7521584375,12.08321823828125,4.7930984375,12.14449023828125Q4.8340384375,12.20576123828125,4.8687784375,12.27075023828125Q4.9035184375,12.33573923828125,4.9317184375,12.40382023828125Q4.9599184375,12.47190123828125,4.9813084375,12.54241823828125Q5.0026984375,12.61293523828125,5.0170784375,12.68521023828125Q5.0314484375,12.75748423828125,5.0386784375,12.83081923828125Q5.0458984375,12.90415493828125,5.0458984375,12.97784519195525Z" transform="matrix(0.49999991059303284,-0.866025447845459,0.866025447845459,0.49999991059303284,-9.466193832748104,9.55976156180077)" fill="#FFFFFF" fill-opacity="1"/></g><g style="mix-blend-mode:passthrough"><path d="M46.286865234375,38.4431275390625L46.286865234375,13.4957284927365L49.286865234375,13.4957284927365L49.286865234375,38.4431275390625L46.286865234375,38.4431275390625ZM49.286865234375,38.4431275390625Q49.286865234375,38.516827539062504,49.279645234375,38.5901275390625Q49.272415234375,38.663427539062496,49.258045234375,38.735727539062495Q49.243665234375,38.8080275390625,49.222275234375,38.8785275390625Q49.200885234375,38.9490275390625,49.172685234375,39.0171275390625Q49.144485234375,39.0852275390625,49.109745234375,39.1502275390625Q49.075005234375,39.2152275390625,49.034065234375,39.276427539062496Q48.993125234375,39.3377275390625,48.946385234375,39.3947275390625Q48.899635234375,39.4516275390625,48.847525234375,39.503727539062496Q48.795415234375,39.555927539062495,48.738455234375,39.602627539062496Q48.681492234375,39.6493275390625,48.620220234375,39.6903275390625Q48.558949234375,39.7312275390625,48.493960234375,39.7660275390625Q48.428971234375,39.8007275390625,48.360890234375,39.828927539062505Q48.292809234375,39.8571275390625,48.222292234375,39.8785275390625Q48.151775234375,39.8999275390625,48.079500234375,39.9143275390625Q48.007226234375,39.928627539062504,47.933891234375,39.935927539062504Q47.860555534375,39.9431275390625,47.786865234375,39.9431275390625Q47.713174934375,39.9431275390625,47.639839234375,39.935927539062504Q47.566504234375,39.928627539062504,47.494230234375,39.9143275390625Q47.421955234375,39.8999275390625,47.351438234375,39.8785275390625Q47.280921234375,39.8571275390625,47.212840234375,39.828927539062505Q47.144759234375,39.8007275390625,47.079770234375,39.7660275390625Q47.014781234375,39.7312275390625,46.953510234375,39.6903275390625Q46.892238234375,39.6493275390625,46.835275234375,39.602627539062496Q46.778315234375,39.555927539062495,46.726205234375,39.503727539062496Q46.674095234375,39.4516275390625,46.627345234375,39.3947275390625Q46.580605234375,39.3377275390625,46.539665234375,39.276427539062496Q46.498725234375,39.2152275390625,46.463985234375,39.1502275390625Q46.429245234375,39.0852275390625,46.401045234375,39.0171275390625Q46.372845234375,38.9490275390625,46.351455234375,38.8785275390625Q46.330065234375,38.8080275390625,46.315685234375,38.735727539062495Q46.301315234375,38.663427539062496,46.294085234375,38.5901275390625Q46.286865234375,38.516827539062504,46.286865234375,38.4431275390625Q46.286865234375,38.3694275390625,46.294085234375,38.296127539062496Q46.301315234375,38.222727539062504,46.315685234375,38.1504275390625Q46.330065234375,38.078227539062496,46.351455234375,38.0077275390625Q46.372845234375,37.9371275390625,46.401045234375,37.869127539062504Q46.429245234375,37.8010275390625,46.463985234375,37.736027539062505Q46.498725234375,37.6710275390625,46.539665234375,37.609727539062504Q46.580605234375,37.548527539062505,46.627345234375,37.4915275390625Q46.674095234375,37.4345275390625,46.726205234375,37.382427539062505Q46.778315234375,37.330327539062495,46.835275234375,37.2836275390625Q46.892238234375,37.2368275390625,46.953510234375,37.195927539062495Q47.014781234375,37.1549275390625,47.079770234375,37.1202275390625Q47.144759234375,37.0855275390625,47.212840234375,37.0573275390625Q47.280921234375,37.0291275390625,47.351438234375,37.0077275390625Q47.421955234375,36.9863275390625,47.494230234375,36.9719275390625Q47.566504234375,36.9575275390625,47.639839234375,36.9503275390625Q47.713174934375,36.9431275390625,47.786865234375,36.9431275390625Q47.860555534375,36.9431275390625,47.933891234375,36.9503275390625Q48.007226234375,36.9575275390625,48.079500234375,36.9719275390625Q48.151775234375,36.9863275390625,48.222292234375,37.0077275390625Q48.292809234375,37.0291275390625,48.360890234375,37.0573275390625Q48.428971234375,37.0855275390625,48.493960234375,37.1202275390625Q48.558949234375,37.1549275390625,48.620220234375,37.195927539062495Q48.681492234375,37.2368275390625,48.738455234375,37.2836275390625Q48.795415234375,37.330327539062495,48.847525234375,37.382427539062505Q48.899635234375,37.4345275390625,48.946385234375,37.4915275390625Q48.993125234375,37.548527539062505,49.034065234375,37.609727539062504Q49.075005234375,37.6710275390625,49.109745234375,37.736027539062505Q49.144485234375,37.8010275390625,49.172685234375,37.869127539062504Q49.200885234375,37.9371275390625,49.222275234375,38.0077275390625Q49.243665234375,38.078227539062496,49.258045234375,38.1505275390625Q49.272415234375,38.222727539062504,49.279645234375,38.296127539062496Q49.286865234375,38.3694275390625,49.286865234375,38.4431275390625ZM49.286865234375,13.4957284927365Q49.286865234375,13.5694187390625,49.279645234375,13.6427545390625Q49.272415234375,13.7160895390625,49.258045234375,13.7883635390625Q49.243665234375,13.8606385390625,49.222275234375,13.9311555390625Q49.200885234375,14.0016725390625,49.172685234375,14.0697535390625Q49.144485234375,14.1378345390625,49.109745234375,14.2028235390625Q49.075005234375,14.2678125390625,49.034065234375,14.3290835390625Q48.993125234375,14.3903545390625,48.946385234375,14.4473185390625Q48.899635234375,14.5042775390625,48.847525234375,14.5563875390625Q48.795415234375,14.6084975390625,48.738455234375,14.6552475390625Q48.681492234375,14.7019975390625,48.620220234375,14.742937539062499Q48.558949234375,14.7838775390625,48.493960234375,14.8186075390625Q48.428971234375,14.8533475390625,48.360890234375,14.8815475390625Q48.292809234375,14.9097475390625,48.222292234375,14.931137539062501Q48.151775234375,14.9525275390625,48.079500234375,14.9669075390625Q48.007226234375,14.9812875390625,47.933891234375,14.9885075390625Q47.860555534375,14.9957275390625,47.786865234375,14.9957275390625Q47.713174934375,14.9957275390625,47.639839234375,14.9885075390625Q47.566504234375,14.9812875390625,47.494230234375,14.9669075390625Q47.421955234375,14.9525275390625,47.351438234375,14.931137539062501Q47.280921234375,14.9097475390625,47.212840234375,14.8815475390625Q47.144759234375,14.8533475390625,47.079770234375,14.8186075390625Q47.014781234375,14.7838775390625,46.953510234375,14.742937539062499Q46.892238234375,14.7019975390625,46.835275234375,14.6552475390625Q46.778315234375,14.6084975390625,46.726205234375,14.5563875390625Q46.674095234375,14.5042775390625,46.627345234375,14.4473185390625Q46.580605234375,14.3903555390625,46.539665234375,14.3290835390625Q46.498725234375,14.2678125390625,46.463985234375,14.2028235390625Q46.429245234375,14.1378345390625,46.401045234375,14.0697535390625Q46.372845234375,14.0016725390625,46.351455234375,13.9311555390625Q46.330065234375,13.8606385390625,46.315685234375,13.7883635390625Q46.301315234375,13.7160895390625,46.294085234375,13.6427545390625Q46.286865234375,13.5694187390625,46.286865234375,13.4957284927365Q46.286865234375,13.4220382390625,46.294085234375,13.3487025390625Q46.301315234375,13.2753675390625,46.315685234375,13.2030935390625Q46.330065234375,13.1308185390625,46.351455234375,13.0603015390625Q46.372845234375,12.9897845390625,46.401045234375,12.9217035390625Q46.429245234375,12.8536225390625,46.463985234375,12.7886335390625Q46.498725234375,12.7236445390625,46.539665234375,12.6623735390625Q46.580605234375,12.6011015390625,46.627345234375,12.5441385390625Q46.674095234375,12.4871775390625,46.726205234375,12.4350675390625Q46.778315234375,12.3829575390625,46.835275234375,12.336217539062499Q46.892238234375,12.2894675390625,46.953510234375,12.2485275390625Q47.014781234375,12.2075875390625,47.079770234375,12.1728475390625Q47.144759234375,12.1381075390625,47.212840234375,12.1099075390625Q47.280921234375,12.0817075390625,47.351438234375,12.060317539062499Q47.421955234375,12.0389275390625,47.494230234375,12.0245475390625Q47.566504234375,12.0101775390625,47.639839234375,12.0029475390625Q47.713174934375,11.9957275390625,47.786865234375,11.9957275390625Q47.860555534375,11.9957275390625,47.933891234375,12.0029475390625Q48.007226234375,12.0101775390625,48.079500234375,12.0245475390625Q48.151775234375,12.0389275390625,48.222292234375,12.060317539062499Q48.292809234375,12.0817075390625,48.360890234375,12.1099075390625Q48.428971234375,12.1381075390625,48.493960234375,12.1728475390625Q48.558949234375,12.2075875390625,48.620220234375,12.2485275390625Q48.681492234375,12.2894675390625,48.738455234375,12.336217539062499Q48.795415234375,12.3829575390625,48.847525234375,12.4350675390625Q48.899635234375,12.4871775390625,48.946385234375,12.5441385390625Q48.993125234375,12.6011015390625,49.034065234375,12.6623735390625Q49.075005234375,12.7236445390625,49.109745234375,12.7886335390625Q49.144485234375,12.8536225390625,49.172685234375,12.9217035390625Q49.200885234375,12.9897845390625,49.222275234375,13.0603015390625Q49.243665234375,13.1308185390625,49.258045234375,13.2030935390625Q49.272415234375,13.2753675390625,49.279645234375,13.3487025390625Q49.286865234375,13.4220382390625,49.286865234375,13.4957284927365Z" transform="matrix(0.49999991059303284,0.8660253882408142,-0.8660253882408142,0.49999991059303284,35.58107957127504,-34.63677354126776)" fill="#FFFFFF" fill-opacity="1"/></g></g></g></svg>