<svg xmlns="http://www.w3.org/2000/svg" xmlns:xlink="http://www.w3.org/1999/xlink" fill="none" version="1.1" width="46.0693359375" height="45.2325439453125" viewBox="0 0 46.0693359375 45.2325439453125"><g style="mix-blend-mode:passthrough"><g style="mix-blend-mode:passthrough"><path d="M11.10847282409668,42.23259353637695L34.864772824096676,42.23259353637695C35.69317282409668,42.23259353637695,36.364772824096676,42.904166536376955,36.364772824096676,43.73259353637695C36.364772824096676,44.56102353637695,35.69317282409668,45.23259353637695,34.864772824096676,45.23259353637695L11.10847282409668,45.23259353637695C10.28004582409668,45.23259353637695,9.60847282409668,44.56102353637695,9.60847282409668,43.73259353637695C9.60847282409668,42.904166536376955,10.28004582409668,42.23259353637695,11.10847282409668,42.23259353637695Z" fill-rule="evenodd" fill="#00C155" fill-opacity="1"/></g><g style="mix-blend-mode:passthrough"><path d="M1.037137508392334,1C1.037137508392334,0.447715,1.484852508392334,0,2.037137508392334,0L43.93603750839233,0C44.488337508392334,0,44.93603750839233,0.447715,44.93603750839233,1L44.93603750839233,31.0096C44.93603750839233,31.5618,44.488337508392334,32.0096,43.93603750839233,32.0096L2.037137508392334,32.0096C1.484852508392334,32.0096,1.037137508392334,31.5618,1.037137508392334,31.0096L1.037137508392334,1Z" fill="#00C155" fill-opacity="1"/></g><g style="mix-blend-mode:passthrough"><path d="M1.5,23.845069885253906L44.5694,23.845069885253906C45.3979,23.845069885253906,46.0694,24.516642885253905,46.0694,25.345069885253906C46.0694,26.173499885253907,45.3979,26.845069885253906,44.5694,26.845069885253906L1.5,26.845069885253906C0.671573,26.845069885253906,0,26.173499885253907,0,25.345069885253906C0,24.516642885253905,0.671573,23.845069885253906,1.5,23.845069885253906Z" fill-rule="evenodd" fill="#FFFFFF" fill-opacity="1"/></g><g style="mix-blend-mode:passthrough"><path d="M18.41379737854004,30.643415451049805L27.559407378540037,30.643415451049805L27.559407378540037,45.09981545104981L18.41379737854004,45.09981545104981L18.41379737854004,30.643415451049805Z" fill="#00C155" fill-opacity="1"/></g></g></svg>