<svg xmlns="http://www.w3.org/2000/svg" xmlns:xlink="http://www.w3.org/1999/xlink" fill="none" version="1.1" width="47.999942779541016" height="32.826820373535156" viewBox="0 0 47.999942779541016 32.826820373535156"><defs><mask id="master_svg0_151_4443"><g style="mix-blend-mode:passthrough"><path d="M37.54296991378784,6.6865973472595215L37.54296991378784,32.82659734725952L32.31662464138784,32.82659734725952L32.31662464138784,6.6865973472595215L37.54296991378784,6.6865973472595215Z" fill="#FFFFFF" fill-opacity="1"/></g></mask></defs><g style="mix-blend-mode:passthrough"><g><g style="mix-blend-mode:passthrough"><g><g style="mix-blend-mode:passthrough"><g><g style="mix-blend-mode:passthrough"><path d="M37.54321834594727,6.686751365661621L37.54321834594727,32.82675136566162L32.316873073547264,32.82675136566162L32.316873073547264,6.686751365661621L37.54321834594727,6.686751365661621Z" fill="#000000" fill-opacity="1"/></g><g style="mix-blend-mode:passthrough"><g><g style="mix-blend-mode:passthrough"><g mask="url(#master_svg0_151_4443)"><g style="mix-blend-mode:passthrough"><path d="M40.56104565963745,8.951916694641113L25.66744565963745,17.55069669464111L26.88529565963745,19.660016694641115L41.778845659637454,11.061286694641113L40.56104565963745,8.951916694641113ZM25.66744565963745,22.904816694641113L40.56104565963745,14.305986694641113L41.778845659637454,16.415356694641112L26.88529565963745,25.014116694641114L25.66744565963745,22.904816694641113ZM40.56104565963745,19.660016694641115L25.66744565963745,28.258816694641112L26.88529565963745,30.368216694641113L41.778845659637454,21.769416694641116L40.56104565963745,19.660016694641115ZM40.56104565963745,25.014116694641114L25.66744565963745,33.612916694641115L26.88529565963745,35.72231669464111L41.778845659637454,27.123516694641115L40.56104565963745,25.014116694641114Z" fill-rule="evenodd" fill="#FFFFFF" fill-opacity="1"/></g></g></g><g style="mix-blend-mode:passthrough"><path d="M31.66235328125,0.2784466502993652Q31.40168328125,0.32810964559936523,31.14400328125,0.38565114559936525Q30.88632328125,0.44319214559936526,30.63207328125,0.5085141455993653Q30.377823281250002,0.5738371455993652,30.12743328125,0.6468291455993652Q29.87704328125,0.7198211455993653,29.63094328125,0.8003591455993653Q29.38483328125,0.8808971455993653,29.14344328125,0.9688451455993652Q28.902043281250002,1.0567931455993653,28.665753281249998,1.1520011455993653Q28.42946328125,1.2472091455993652,28.19869328125,1.3495181455993652Q27.967923281250002,1.4518181455993653,27.74305328125,1.5610581455993653Q27.51818328125,1.6702881455993652,27.29960328125,1.7862581455993651Q27.08102328125,1.9022281455993653,26.86910328125,2.0247481455993652Q26.65718328125,2.1472581455993653,26.45227328125,2.2761081455993653Q26.24737328125,2.404958145599365,26.04982328125,2.539928145599365Q25.85228328125,2.6748981455993652,25.66244328125,2.815748145599365Q25.47260328125,2.956608145599365,25.29078328125,3.103108145599365Q25.10896328125,3.2496081455993653,24.93548328125,3.4015181455993653Q24.76199328125,3.553418145599365,24.59712328125,3.710468145599365Q24.432263281250002,3.8675081455993654,24.27630328125,4.029438145599365Q24.12034328125,4.191358145599365,23.97355328125,4.357878145599365Q23.82676328125,4.524408145599366,23.68939328125,4.695248145599365Q23.55201328125,4.866088145599365,23.42429328125,5.040958145599365Q23.29657328125,5.215838145599365,23.17872328125,5.3944381455993655Q23.06086328125,5.5730481455993655,22.95308328125,5.755078145599366Q22.84529428125,5.937108145599365,22.74775828125,6.1222681455993655Q22.65022228125,6.307418145599366,22.56310328125,6.495378145599365Q22.47598328125,6.683348145599365,22.39942728125,6.873798145599365Q22.32287128125,7.0642481455993655,22.25700928125,7.256858145599365Q22.19114628125,7.449468145599365,22.13608928125,7.643918145599366Q22.08103228125,7.8383681455993655,22.03687428125,8.034328145599364Q21.99271628125,8.230288145599365,21.95953158125,8.427428145599364Q21.92634708125,8.624558145599366,21.90419248125,8.822538145599365Q21.88203798125,9.020518145599365,21.87095088125,9.218998145599365Q21.859863920201,9.417478145599365,21.85986328125,9.616128145599365L47.999963281250004,9.616128145599365Q47.999963281250004,9.417478145599365,47.988863281250005,9.218988145599365Q47.97776328125,9.020508145599365,47.95566328125,8.822528145599366Q47.93346328125,8.624558145599366,47.900263281250005,8.427418145599365Q47.86706328125,8.230288145599365,47.82296328125,8.034328145599364Q47.77876328125,7.8383681455993655,47.72376328125,7.643908145599365Q47.668663281250005,7.449458145599365,47.60276328125,7.256848145599365Q47.536963281249996,7.064228145599365,47.46036328125,6.873778145599365Q47.38386328125,6.683328145599365,47.296663281250005,6.4953681455993655Q47.20956328125,6.307408145599365,47.11206328125,6.122248145599365Q47.01446328125,5.937098145599365,46.90676328125,5.7550581455993655Q46.798963281249996,5.573028145599365,46.681063281250005,5.394418145599365Q46.56326328125,5.215818145599365,46.43546328125,5.040948145599366Q46.307763281250004,4.866068145599365,46.170363281250005,4.695228145599366Q46.03306328125,4.5243881455993655,45.886263281249995,4.357858145599365Q45.739463281249996,4.1913381455993655,45.583463281250005,4.0294081455993656Q45.42756328125,3.8674881455993653,45.26266328125,3.7104381455993654Q45.097763281249996,3.553398145599365,44.92426328125,3.401488145599365Q44.75086328125,3.249588145599365,44.56896328125,3.1030781455993655Q44.38716328125,2.9565781455993654,44.19736328125,2.815728145599365Q44.00746328125,2.674868145599365,43.80996328125,2.5398981455993654Q43.61236328125,2.404938145599365,43.40746328125,2.276088145599365Q43.20256328125,2.147238145599365,42.99066328125,2.0247181455993655Q42.77876328125,1.9022081455993651,42.56016328125,1.7862281455993652Q42.341563281250004,1.6702581455993653,42.11666328125,1.5610281455993653Q41.89186328125,1.4517981455993652,41.66106328125,1.3494881455993653Q41.43026328125,1.2471841455993653,41.19396328125,1.1519761455993653Q40.95766328125,1.0567681455993654,40.71626328125,0.9688211455993653Q40.474863281249995,0.8808741455993653,40.22876328125,0.8003371455993652Q39.98266328125,0.7197991455993653,39.73226328125,0.6468081455993653Q39.48196328125,0.5738161455993652,39.22766328125,0.5084951455993653Q38.97336328125,0.44317414559936524,38.71576328125,0.38563314559936523Q38.45806328125,0.32809264559936524,38.19736328125,0.27843065839936526L38.19736328125,4.2877381455993655L31.66235328125,4.2877381455993655L31.66235328125,0.2784466502993652Z" fill-rule="evenodd" fill="#000000" fill-opacity="1"/></g></g></g></g></g></g></g><g style="mix-blend-mode:passthrough"><g><path d="M33.9505935546875,46.9196111328125L33.9505935546875,61.3929111328125C33.9505935546875,61.6690111328125,33.726793554687504,61.8929111328125,33.4505935546875,61.8929111328125L31.7345935546875,61.8929111328125C31.4584235546875,61.8929111328125,31.234563554687497,61.6690111328125,31.234563554687497,61.3929111328125L31.234563554687497,46.9196111328125C31.234563554687497,46.6435111328125,31.0107135546875,46.4196111328125,30.734563554687497,46.4196111328125L22.6903965546875,46.4196111328125C22.2855595546875,46.4196111328125,22.0485585546875,45.9636111328125,22.2811895546875,45.632311132812504L32.1833935546875,31.5292201328125C32.3824935546875,31.2456401328125,32.8026935546875,31.2456401328125,33.0017935546875,31.5292201328125L42.9039935546875,45.632311132812504C43.1365935546875,45.9636111328125,42.8995935546875,46.4196111328125,42.494793554687504,46.4196111328125L34.4505935546875,46.4196111328125C34.1744935546875,46.4196111328125,33.9505935546875,46.6435111328125,33.9505935546875,46.9196111328125" transform="matrix(-1,0,0,-1,43.456787109375,61.892822265625)" fill="#000000" fill-opacity="1"/><g style="mix-blend-mode:passthrough"><path d="M43.4567935546875,33.724853515625L21.7283935546875,33.724853515625L21.7283935546875,30.724853515625L43.4567935546875,30.724853515625L43.4567935546875,33.724853515625ZM44.9567935546875,32.224853515625Q44.9567935546875,32.298543815625,44.949593554687496,32.371879515625Q44.942293554687495,32.445214515625,44.927993554687504,32.517488515625Q44.913593554687495,32.589763515625,44.892193554687495,32.660280515625Q44.870793554687495,32.730797515625,44.8425935546875,32.798878515625Q44.8143935546875,32.866959515625,44.7796935546875,32.931948515625Q44.7448935546875,32.996937515625,44.7039935546875,33.058208515625Q44.6630935546875,33.119480515625,44.6162935546875,33.176443515625Q44.5695935546875,33.233403515625,44.517493554687505,33.285513515625Q44.4652935546875,33.337623515625,44.4083935546875,33.384373515625Q44.351393554687505,33.431113515625,44.2900935546875,33.472053515625Q44.2288935546875,33.512993515625,44.163893554687505,33.547733515625Q44.0988935546875,33.582473515625,44.0307935546875,33.610673515625Q43.962693554687505,33.638873515625,43.892193554687495,33.660263515625Q43.8216935546875,33.681653515625,43.7493935546875,33.696033515625Q43.6771935546875,33.710403515625,43.6037935546875,33.717633515625Q43.530493554687496,33.724853515625,43.4567935546875,33.724853515625Q43.3830935546875,33.724853515625,43.3097935546875,33.717633515625Q43.236393554687496,33.710403515625,43.1641935546875,33.696033515625Q43.0918935546875,33.681653515625,43.0213935546875,33.660263515625Q42.9507935546875,33.638873515625,42.882793554687495,33.610673515625Q42.8146935546875,33.582473515625,42.7496935546875,33.547733515625Q42.6846935546875,33.512993515625,42.623393554687496,33.472053515625Q42.5621935546875,33.431113515625,42.5051935546875,33.384373515625Q42.4481935546875,33.337623515625,42.396093554687496,33.285513515625Q42.3439935546875,33.233403515625,42.2972935546875,33.176443515625Q42.250493554687495,33.119480515625,42.2095935546875,33.058208515625Q42.168593554687504,32.996937515625,42.1338935546875,32.931948515625Q42.0991935546875,32.866959515625,42.070993554687504,32.798878515625Q42.0427935546875,32.730797515625,42.0213935546875,32.660280515625Q41.9999935546875,32.589763515625,41.9855935546875,32.517488515625Q41.9711935546875,32.445214515625,41.963993554687505,32.371879515625Q41.9567935546875,32.298543815625,41.9567935546875,32.224853515625Q41.9567935546875,32.151163215625,41.963993554687505,32.077827515625Q41.9711935546875,32.004492515625,41.9855935546875,31.932218515625Q41.9999935546875,31.859943515625,42.0213935546875,31.789426515625Q42.0427935546875,31.718909515625,42.070993554687504,31.650828515625Q42.0991935546875,31.582747515625,42.1338935546875,31.517758515625Q42.168593554687504,31.452769515625,42.2095935546875,31.391498515625Q42.250493554687495,31.330226515625,42.2972935546875,31.273263515625Q42.3439935546875,31.216303515625,42.396093554687496,31.164193515625Q42.4481935546875,31.112083515625,42.5051935546875,31.065333515625Q42.5621935546875,31.018593515625,42.623393554687496,30.977653515625Q42.6846935546875,30.936713515625,42.7496935546875,30.901973515625Q42.8146935546875,30.867233515625,42.882793554687495,30.839033515625Q42.9507935546875,30.810833515625,43.0213935546875,30.789443515625Q43.0918935546875,30.768053515625,43.1641935546875,30.753673515625Q43.236393554687496,30.739303515625,43.3097935546875,30.732073515625Q43.3830935546875,30.724853515625,43.4567935546875,30.724853515625Q43.530493554687496,30.724853515625,43.6037935546875,30.732073515625Q43.6771935546875,30.739303515625,43.7493935546875,30.753673515625Q43.8216935546875,30.768053515625,43.892193554687495,30.789443515625Q43.962693554687505,30.810833515625,44.0307935546875,30.839033515625Q44.0988935546875,30.867233515625,44.163893554687505,30.901973515625Q44.2288935546875,30.936713515625,44.2900935546875,30.977653515625Q44.351393554687505,31.018593515625,44.4083935546875,31.065333515625Q44.4652935546875,31.112083515625,44.517493554687505,31.164193515625Q44.5695935546875,31.216303515625,44.6162935546875,31.273263515625Q44.6630935546875,31.330226515625,44.7039935546875,31.391498515625Q44.7448935546875,31.452769515625,44.7796935546875,31.517758515625Q44.8143935546875,31.582747515625,44.8425935546875,31.650828515625Q44.870793554687495,31.718909515625,44.892193554687495,31.789426515625Q44.913593554687495,31.859943515625,44.927993554687504,31.932218515625Q44.942293554687495,32.004492515625,44.949593554687496,32.077827515625Q44.9567935546875,32.151163215625,44.9567935546875,32.224853515625ZM23.2283935546875,32.224853515625Q23.2283935546875,32.298543815625,23.2211735546875,32.371879515625Q23.2139435546875,32.445214515625,23.1995735546875,32.517488515625Q23.1851935546875,32.589763515625,23.1638035546875,32.660280515625Q23.1424135546875,32.730797515625,23.1142135546875,32.798878515625Q23.0860135546875,32.866959515625,23.0512735546875,32.931948515625Q23.0165335546875,32.996937515625,22.9755935546875,33.058208515625Q22.9346535546875,33.119480515625,22.8879135546875,33.176443515625Q22.8411635546875,33.233403515625,22.7890535546875,33.285513515625Q22.7369435546875,33.337623515625,22.6799835546875,33.384373515625Q22.6230205546875,33.431113515625,22.5617485546875,33.472053515625Q22.5004775546875,33.512993515625,22.4354885546875,33.547733515625Q22.3704995546875,33.582473515625,22.3024185546875,33.610673515625Q22.2343375546875,33.638873515625,22.1638205546875,33.660263515625Q22.0933035546875,33.681653515625,22.0210285546875,33.696033515625Q21.9487545546875,33.710403515625,21.8754195546875,33.717633515625Q21.8020838546875,33.724853515625,21.7283935546875,33.724853515625Q21.6547032546875,33.724853515625,21.5813675546875,33.717633515625Q21.5080325546875,33.710403515625,21.4357585546875,33.696033515625Q21.3634835546875,33.681653515625,21.2929665546875,33.660263515625Q21.2224495546875,33.638873515625,21.1543685546875,33.610673515625Q21.0862875546875,33.582473515625,21.0212985546875,33.547733515625Q20.9563095546875,33.512993515625,20.8950385546875,33.472053515625Q20.8337665546875,33.431113515625,20.7768035546875,33.384373515625Q20.7198435546875,33.337623515625,20.6677335546875,33.285513515625Q20.6156235546875,33.233403515625,20.5688735546875,33.176443515625Q20.5221335546875,33.119480515625,20.4811935546875,33.058208515625Q20.4402535546875,32.996937515625,20.4055135546875,32.931948515625Q20.3707735546875,32.866959515625,20.3425735546875,32.798878515625Q20.3143735546875,32.730797515625,20.2929835546875,32.660280515625Q20.2715935546875,32.589763515625,20.2572135546875,32.517488515625Q20.2428435546875,32.445214515625,20.2356135546875,32.371879515625Q20.2283935546875,32.298543815625,20.2283935546875,32.224853515625Q20.2283935546875,32.151163215625,20.2356135546875,32.077827515625Q20.2428435546875,32.004492515625,20.2572135546875,31.932218515625Q20.2715935546875,31.859943515625,20.2929835546875,31.789426515625Q20.3143735546875,31.718909515625,20.3425735546875,31.650828515625Q20.3707735546875,31.582747515625,20.4055135546875,31.517758515625Q20.4402535546875,31.452769515625,20.4811935546875,31.391498515625Q20.5221335546875,31.330226515625,20.5688735546875,31.273263515625Q20.6156235546875,31.216303515625,20.6677335546875,31.164193515625Q20.7198435546875,31.112083515625,20.7768035546875,31.065333515625Q20.8337665546875,31.018593515625,20.8950385546875,30.977653515625Q20.9563095546875,30.936713515625,21.0212985546875,30.901973515625Q21.0862875546875,30.867233515625,21.1543685546875,30.839033515625Q21.2224495546875,30.810833515625,21.2929665546875,30.789443515625Q21.3634835546875,30.768053515625,21.4357585546875,30.753673515625Q21.5080325546875,30.739303515625,21.5813675546875,30.732073515625Q21.6547032546875,30.724853515625,21.7283935546875,30.724853515625Q21.8020838546875,30.724853515625,21.8754195546875,30.732073515625Q21.9487545546875,30.739303515625,22.0210285546875,30.753673515625Q22.0933035546875,30.768053515625,22.1638205546875,30.789443515625Q22.2343375546875,30.810833515625,22.3024185546875,30.839033515625Q22.3704995546875,30.867233515625,22.4354885546875,30.901973515625Q22.5004775546875,30.936713515625,22.5617485546875,30.977653515625Q22.6230205546875,31.018593515625,22.6799835546875,31.065333515625Q22.7369435546875,31.112083515625,22.7890535546875,31.164193515625Q22.8411635546875,31.216303515625,22.8879135546875,31.273263515625Q22.9346535546875,31.330226515625,22.9755935546875,31.391498515625Q23.0165335546875,31.452769515625,23.0512735546875,31.517758515625Q23.0860135546875,31.582747515625,23.1142135546875,31.650828515625Q23.1424135546875,31.718909515625,23.1638035546875,31.789426515625Q23.1851935546875,31.859943515625,23.1995735546875,31.932218515625Q23.2139435546875,32.004492515625,23.2211735546875,32.077827515625Q23.2283935546875,32.151163215625,23.2283935546875,32.224853515625Z" transform="matrix(-1,0,0,-1,43.456787109375,64.44970703125)" fill="#00C155" fill-opacity="1"/></g></g></g></g></g></svg>