<svg xmlns="http://www.w3.org/2000/svg" xmlns:xlink="http://www.w3.org/1999/xlink" fill="none" version="1.1" width="91.96142578125" height="100.0001220703125" viewBox="0 0 91.96142578125 100.0001220703125"><defs><filter id="master_svg0_668_5691" filterUnits="objectBoundingBox" color-interpolation-filters="sRGB" x="-20" y="-16" width="91.9615249633789" height="100"><feFlood flood-opacity="0" result="BackgroundImageFix"/><feColorMatrix in="SourceAlpha" type="matrix" values="0 0 0 0 0 0 0 0 0 0 0 0 0 0 0 0 0 0 127 0"/><feOffset dy="4" dx="0"/><feGaussianBlur stdDeviation="5"/><feColorMatrix type="matrix" values="0 0 0 0 0 0 0 0 0 0 0 0 0 0 0 0 0 0 0.3019607961177826 0"/><feBlend mode="normal" in2="BackgroundImageFix" result="effect1_dropShadow"/><feBlend mode="normal" in="SourceGraphic" in2="effect1_dropShadow" result="shape"/></filter></defs><g style="mix-blend-mode:passthrough"><g style="mix-blend-mode:passthrough" filter="url(#master_svg0_668_5691)"><path d="M45.9808,16L71.9615,31L71.9615,61L45.9808,76L20.000000953674,61L20,31L45.9808,16Z" fill="#FFFFFF" fill-opacity="1"/><path d="M45.9808,18.3094L22,32.1547L22,59.8453L45.9808,73.6906L69.9615,59.8453L69.9615,32.1547L45.9808,18.3094ZM71.9615,31L71.9615,61L45.9808,76L20,61L20,31L45.9808,16L71.9615,31Z" fill-rule="evenodd" fill="#D61D00" fill-opacity="1"/></g><g style="mix-blend-mode:passthrough"><g style="mix-blend-mode:passthrough"><path d="M58.997712890624996,51.1533Q59.980712890625,48.6704,59.980712890625,46Q59.980712890625,43.3296,58.997712890624996,40.84667Q57.930412890625,38.15075,55.880212890625,36.1005Q53.829912890624996,34.05025,51.134012890625,32.982964Q48.651112890625,32,45.980712890625,32Q43.310312890625,31.9999999370215,40.827382890625,32.982964Q38.131472890625,34.05025,36.081212890625,36.1005Q34.030962890625,38.15076,32.963676890625,40.84667Q31.980713016582,43.3296,31.980712890625,46Q31.9807128276465,48.6704,32.963676890625,51.1533Q34.030962890625,53.849199999999996,36.081212890625,55.8995Q38.131462890625,57.9497,40.827382890625,59.016999999999996Q43.310312890625,60,45.980712890625,60Q48.651112890625,60,51.134012890625,59.016999999999996Q53.829912890624996,57.9497,55.880212890625,55.8995Q57.930512890624996,53.849199999999996,58.997712890624996,51.1533ZM57.524112890625,41.43007Q58.395812890624995,43.6319,58.395812890624995,46Q58.395812890624995,48.3681,57.524112890625,50.569900000000004Q56.577612890625005,52.9607,54.759512890625004,54.778800000000004Q52.941412890625,56.596900000000005,50.550612890625004,57.5434Q48.348812890625,58.415099999999995,45.980712890625,58.415099999999995Q43.612612890625,58.415099999999995,41.410782890625,57.5434Q39.020052890625,56.596900000000005,37.201912890624996,54.778800000000004Q35.383762890625,52.9606,34.437302890625,50.569900000000004Q33.565622890625,48.3681,33.565622890625,46Q33.565622890625,43.6319,34.437302890625,41.43007Q35.383762890625,39.03935,37.201912890624996,37.221199999999996Q39.020062890625,35.403059999999996,41.410782890625,34.45659Q43.612612890625,33.58491,45.980712890625,33.58491Q48.348812890625,33.58491,50.550612890625004,34.45659Q52.941312890625,35.40305,54.759512890625004,37.221199999999996Q56.577612890625005,39.03934,57.524112890625,41.43007Z" fill-rule="evenodd" fill="#D61D00" fill-opacity="1"/></g><g style="mix-blend-mode:passthrough"><g style="mix-blend-mode:passthrough"><path d="M42.54520320892334,49.962263126831054L42.54520320892334,42.03773612683106C42.54520320892334,41.600076126831055,42.89999620892334,41.245283126831055,43.33765620892334,41.245283126831055C43.77531320892334,41.245283126831055,44.13011320892334,41.600076126831055,44.13011320892334,42.03773612683106L44.13011320892334,49.962263126831054C44.13011320892334,50.399923126831055,43.77531320892334,50.75471312683106,43.33765620892334,50.75471312683106C42.89999620892334,50.75471312683106,42.54520320892334,50.399923126831055,42.54520320892334,49.962263126831054Z" fill="#D61D00" fill-opacity="1"/></g><g style="mix-blend-mode:passthrough"><path d="M47.83125305175781,49.962263126831054L47.83125305175781,42.03773612683106C47.83125305175781,41.600076126831055,48.18604605175781,41.245283126831055,48.623706051757814,41.245283126831055C49.061363051757816,41.245283126831055,49.41616305175781,41.600076126831055,49.41616305175781,42.03773612683106L49.41616305175781,49.962263126831054C49.41616305175781,50.399923126831055,49.061363051757816,50.75471312683106,48.623706051757814,50.75471312683106C48.18604605175781,50.75471312683106,47.83125305175781,50.399923126831055,47.83125305175781,49.962263126831054Z" fill="#D61D00" fill-opacity="1"/></g></g></g></g></svg>