<svg xmlns="http://www.w3.org/2000/svg"
    xmlns:xlink="http://www.w3.org/1999/xlink"  version="1.1" width="127.490234375" height="13.796661376953125" viewBox="0 0 127.490234375 13.796661376953125">
    <g style="mix-blend-mode:passthrough">
        <path d="M1.5,5.72745L7.48633,5.72745L7.48633,7.22745L6.26398,6.35804L9.2569,2.150125Q9.299610000000001,2.090075,9.347999999999999,2.034501Q9.39639,1.978926,9.45,1.928362Q9.5036,1.877799,9.56191,1.832733Q9.62021,1.787667,9.68265,1.7485330000000001Q9.74509,1.709399,9.81107,1.676573Q9.87704,1.643747,9.94592,1.617547Q10.01479,1.5913459,10.08591,1.5720223Q10.15702,1.5526986,10.22968,1.5404382Q10.30234,1.5281777,10.37586,1.5230986Q10.44937,1.5180194,10.52303,1.5201704Q10.59669,1.5223214,10.66978,1.5316819Q10.74288,1.5410424,10.8147,1.5575222Q10.88653,1.574002,10.95639,1.5974425Q11.02625,1.620883,11.09348,1.651058Q11.16071,1.681234,11.22466,1.717853Q11.2886,1.754473,11.34865,1.7971840000000001Q11.6066,1.980631,11.7684,2.252644L17.2872,11.5298L15.998,12.2967L14.6593,11.6201L20.1151,0.823484Q20.1483,0.757714,20.1878,0.695518Q20.2274,0.633323,20.2728,0.5753Q20.3182,0.517278,20.3691,0.4639899999999999Q20.42,0.41070000000000007,20.4759,0.3626499999999999Q20.5318,0.31461000000000006,20.5921,0.27227Q20.6524,0.22992999999999997,20.7166,0.19371000000000005Q20.7807,0.1574899999999999,20.8481,0.1277299999999999Q20.9156,0.09797999999999996,20.9856,0.07496999999999998Q21.0556,0.05197000000000007,21.1275,0.03593000000000002Q21.1994,0.01990000000000003,21.2726,0.010990000000000055Q21.3457,0.0020899999999999253,21.4194,0.00039999999999995595Q21.4931,-0.0013000000000000789,21.5665,0.0042400000000000215Q21.64,0.0097799999999999,21.7126,0.0224899999999999Q21.7852,0.0351999999999999,21.8562,0.0549599999999999Q21.9272,0.07472999999999996,21.9959,0.1013599999999999Q22.0646,0.12799000000000005,22.1304,0.16121999999999992Q22.34,0.26716000000000006,22.5072,0.43212000000000006Q22.6745,0.597073,22.7833,0.805252L25.7764,6.5327L24.447,7.22745L24.447,5.72745L32.6226,5.72742L38.6089,5.72745L38.6089,7.22745L37.3865,6.35804L40.3795,2.150125Q40.4222,2.090075,40.4706,2.034501Q40.5189,1.978926,40.5726,1.928362Q40.6262,1.877799,40.6845,1.832733Q40.7428,1.787667,40.8052,1.7485330000000001Q40.8676,1.709399,40.9336,1.676573Q40.9996,1.643747,41.0685,1.617547Q41.1374,1.5913459,41.2085,1.5720223Q41.2796,1.5526986,41.3522,1.5404382Q41.4249,1.5281777,41.4984,1.5230986Q41.5719,1.5180194,41.6456,1.5201704Q41.7192,1.5223214,41.7923,1.5316819Q41.8654,1.5410424,41.9373,1.5575222Q42.0091,1.574002,42.0789,1.5974425Q42.1488,1.620883,42.216,1.651058Q42.2833,1.681234,42.3472,1.717853Q42.4112,1.754473,42.4712,1.7971840000000001Q42.7291,1.980631,42.8909,2.252644L48.4097,11.5298L47.1206,12.2967L45.7818,11.6201L51.2376,0.823484Q51.2709,0.757714,51.3104,0.695518Q51.3499,0.633323,51.3953,0.5753Q51.4408,0.517278,51.4917,0.4639899999999999Q51.5426,0.41070000000000007,51.5984,0.3626499999999999Q51.6543,0.31461000000000006,51.7146,0.27227Q51.7749,0.22992999999999997,51.8391,0.19371000000000005Q51.9033,0.1574899999999999,51.9707,0.1277299999999999Q52.0381,0.09797999999999996,52.1081,0.07496999999999998Q52.1781,0.05197000000000007,52.2501,0.03593000000000002Q52.322,0.01990000000000003,52.3951,0.010990000000000055Q52.4683,0.0020899999999999253,52.542,0.00039999999999995595Q52.6156,-0.0013000000000000789,52.6891,0.0042400000000000215Q52.7626,0.0097799999999999,52.8352,0.0224899999999999Q52.9078,0.0351999999999999,52.9787,0.0549599999999999Q53.0497,0.07472999999999996,53.1185,0.1013599999999999Q53.1872,0.12799000000000005,53.2529,0.16121999999999992Q53.4626,0.26716000000000006,53.6298,0.43212000000000006Q53.797,0.597073,53.9058,0.805252L56.899,6.5327L55.5696,7.22745L55.5696,5.72745L63.7451,5.72742L69.7315,5.72745L69.7314,7.22745L68.5091,6.35804L71.502,2.150125Q71.5447,2.090075,71.5931,2.034501Q71.6415,1.978926,71.6951,1.928362Q71.7487,1.877799,71.807,1.832733Q71.8653,1.787667,71.9278,1.7485330000000001Q71.9902,1.709399,72.0562,1.676573Q72.1222,1.643747,72.191,1.617547Q72.2599,1.5913459,72.331,1.5720223Q72.4021,1.5526986,72.4748,1.5404382Q72.5475,1.5281777,72.621,1.5230986Q72.6945,1.5180194,72.7681,1.5201704Q72.8418,1.5223214,72.9149,1.5316819Q72.988,1.5410424,73.0598,1.5575222Q73.1316,1.574002,73.2015,1.5974425Q73.2714,1.620883,73.3386,1.651058Q73.4058,1.681234,73.4698,1.717853Q73.5337,1.754473,73.5938,1.7971840000000001Q73.8517,1.980631,74.0135,2.252644L79.5323,11.5298L78.2432,12.2967L76.9044,11.6201L82.3602,0.823484Q82.3934,0.757714,82.433,0.695518Q82.4725,0.633323,82.5179,0.5753Q82.5633,0.517278,82.6142,0.4639899999999999Q82.6651,0.41070000000000007,82.721,0.3626499999999999Q82.7769,0.31461000000000006,82.8372,0.27227Q82.8975,0.22992999999999997,82.9617,0.19371000000000005Q83.0258,0.1574899999999999,83.0933,0.1277299999999999Q83.1607,0.09797999999999996,83.2307,0.07496999999999998Q83.3007,0.05197000000000007,83.3726,0.03593000000000002Q83.4445,0.01990000000000003,83.5177,0.010990000000000055Q83.5908,0.0020899999999999253,83.6645,0.00039999999999995595Q83.7382,-0.0013000000000000789,83.8117,0.0042400000000000215Q83.8851,0.0097799999999999,83.9577,0.0224899999999999Q84.0303,0.0351999999999999,84.1013,0.0549599999999999Q84.1723,0.07472999999999996,84.241,0.1013599999999999Q84.3097,0.12799000000000005,84.3755,0.16121999999999992Q84.5851,0.26716000000000006,84.7524,0.43212000000000006Q84.9196,0.597073,85.0284,0.805252L88.0215,6.5327L86.6921,7.22745L86.6921,5.72745L94.8677,5.72745L100.854,5.72745L100.854,7.22745L99.6317,6.35804L102.625,2.150125Q102.667,2.090075,102.716,2.034501Q102.764,1.978926,102.818,1.928362Q102.871,1.877799,102.93,1.832733Q102.988,1.787667,103.05,1.7485330000000001Q103.113,1.709399,103.179,1.676573Q103.245,1.643747,103.314,1.617547Q103.382,1.5913459,103.454,1.5720223Q103.525,1.5526986,103.597,1.5404382Q103.67,1.5281777,103.744,1.5230986Q103.817,1.5180194,103.891,1.5201704Q103.964,1.5223214,104.037,1.5316819Q104.111,1.5410424,104.182,1.5575222Q104.254,1.574002,104.324,1.5974425Q104.394,1.620883,104.461,1.651058Q104.528,1.681234,104.592,1.717853Q104.656,1.754473,104.716,1.7971840000000001Q104.974,1.980631,105.136,2.252644L110.655,11.5298L109.366,12.2967L108.027,11.6201L113.483,0.823484Q113.516,0.757714,113.556,0.695518Q113.595,0.633323,113.64,0.5753Q113.686,0.517278,113.737,0.4639899999999999Q113.788,0.41070000000000007,113.844,0.3626499999999999Q113.899,0.31461000000000006,113.96,0.27227Q114.02,0.22992999999999997,114.084,0.19371000000000005Q114.148,0.1574899999999999,114.216,0.1277299999999999Q114.283,0.09797999999999996,114.353,0.07496999999999998Q114.423,0.05197000000000007,114.495,0.03593000000000002Q114.567,0.01990000000000003,114.64,0.010990000000000055Q114.713,0.0020899999999999253,114.787,0.00039999999999995595Q114.861,-0.0013000000000000789,114.934,0.0042400000000000215Q115.008,0.0097799999999999,115.08,0.0224899999999999Q115.153,0.0351999999999999,115.224,0.0549599999999999Q115.295,0.07472999999999996,115.364,0.1013599999999999Q115.432,0.12799000000000005,115.498,0.16121999999999992Q115.708,0.26716000000000006,115.875,0.43212000000000006Q116.042,0.597073,116.151,0.805252L119.144,6.5327L117.815,7.22745L117.815,5.72745L125.99,5.72742L125.99,8.72742L117.815,8.727450000000001Q117.712,8.727450000000001,117.611,8.71357Q117.51,8.69968,117.411,8.67218Q117.313,8.64467,117.219,8.60405Q117.125,8.56342,117.038,8.51044Q116.95,8.45745,116.871,8.393080000000001Q116.791,8.328710000000001,116.721,8.25415Q116.651,8.179590000000001,116.592,8.09621Q116.533,8.01284,116.485,7.9222L113.492,2.194748L114.822,1.5L116.16,2.176516L110.704,12.9732Q110.608,13.164,110.462,13.3202Q110.316,13.4765,110.133,13.5858Q110.069,13.6235,110.003,13.6548Q109.936,13.686,109.866,13.7106Q109.797,13.7352,109.725,13.7529Q109.654,13.7706,109.581,13.7811Q109.508,13.7917,109.434,13.7951Q109.361,13.7985,109.287,13.7946Q109.214,13.7907,109.141,13.7797Q109.068,13.7686,108.996,13.7505Q108.925,13.7324,108.856,13.7073Q108.786,13.6822,108.72,13.6505Q108.653,13.6188,108.59,13.5807Q108.527,13.5426,108.468,13.4985Q108.409,13.4544,108.355,13.4047Q108.3,13.3551,108.251,13.3003Q108.202,13.2455,108.158,13.1862Q108.114,13.1269,108.077,13.0635L102.558,3.78642L103.847,3.01953L105.069,3.88894L102.076,8.09685Q101.972,8.243089999999999,101.837,8.36066Q101.701,8.47824,101.542,8.56051Q101.3822,8.64278,101.2078,8.685120000000001Q101.0335,8.727450000000001,100.854,8.727450000000001L94.8677,8.727450000000001L86.6921,8.727450000000001Q86.5899,8.727450000000001,86.4885,8.71357Q86.3872,8.69968,86.2887,8.67218Q86.1902,8.64467,86.0963,8.60405Q86.0025,8.56342,85.915,8.51044Q85.8275,8.45745,85.7481,8.393080000000001Q85.6686,8.328710000000001,85.5986,8.25415Q85.5286,8.179590000000001,85.4693,8.09621Q85.4101,8.01284,85.3627,7.9222L82.3696,2.194748L83.699,1.5L85.0378,2.176516L79.5819,12.9732Q79.4855,13.164,79.3397,13.3202Q79.1938,13.4765,79.01,13.5858Q78.9467,13.6235,78.88,13.6548Q78.8133,13.686,78.7438,13.7106Q78.6744,13.7352,78.6028,13.7529Q78.5313,13.7706,78.4583,13.7811Q78.3854,13.7917,78.3118,13.7951Q78.2382,13.7985,78.1646,13.7946Q78.091,13.7907,78.0182,13.7797Q77.9453,13.7686,77.8739,13.7505Q77.8025,13.7324,77.7332,13.7073Q77.6638,13.6822,77.5973,13.6505Q77.5308,13.6188,77.4677,13.5807Q77.4047,13.5426,77.3456,13.4985Q77.2866,13.4544,77.2321,13.4047Q77.1777,13.3551,77.1284,13.3003Q77.0791,13.2455,77.0354,13.1862Q76.9917,13.1269,76.954,13.0635L71.4352,3.78642L72.7244,3.01953L73.9467,3.88894L70.9538,8.09685Q70.8498,8.243089999999999,70.7142,8.36066Q70.5786,8.47824,70.4192,8.56051Q70.2597,8.64279,70.0853,8.685120000000001Q69.9109,8.727450000000001,69.7314,8.727450000000001L63.7451,8.72742L55.5696,8.727450000000001Q55.4673,8.727450000000001,55.366,8.71357Q55.2647,8.69968,55.1662,8.67218Q55.0676,8.64467,54.9738,8.60405Q54.8799,8.56342,54.7924,8.51044Q54.705,8.45745,54.6255,8.393080000000001Q54.546,8.328710000000001,54.476,8.25415Q54.406,8.179590000000001,54.3468,8.09621Q54.2875,8.01284,54.2402,7.9222L51.247,2.194748L52.5764,1.5L53.9152,2.176516L48.4594,12.9732Q48.363,13.164,48.2171,13.3202Q48.0712,13.4765,47.8875,13.5858Q47.8242,13.6235,47.7574,13.6548Q47.6907,13.686,47.6213,13.7106Q47.5518,13.7352,47.4803,13.7529Q47.4087,13.7706,47.3358,13.7811Q47.2628,13.7917,47.1892,13.7951Q47.1156,13.7985,47.042,13.7946Q46.9684,13.7907,46.8956,13.7797Q46.8227,13.7686,46.7513,13.7505Q46.6799,13.7324,46.6106,13.7073Q46.5413,13.6822,46.4748,13.6505Q46.4083,13.6188,46.3452,13.5807Q46.2821,13.5426,46.2231,13.4985Q46.164,13.4544,46.1096,13.4047Q46.0552,13.3551,46.0058,13.3003Q45.9565,13.2455,45.9128,13.1862Q45.8691,13.1269,45.8315,13.0635L40.3127,3.78642L41.6018,3.01953L42.8242,3.88894L39.8312,8.09685Q39.7272,8.243089999999999,39.5916,8.36066Q39.4561,8.47824,39.2966,8.56051Q39.1371,8.64279,38.9627,8.685120000000001Q38.7883,8.727450000000001,38.6089,8.727450000000001L32.6226,8.72742L24.447,8.727450000000001Q24.3448,8.727450000000001,24.2434,8.71357Q24.1421,8.69968,24.0436,8.67218Q23.9451,8.64467,23.8512,8.60405Q23.7574,8.56342,23.6699,8.51044Q23.5824,8.45745,23.5029,8.393080000000001Q23.4235,8.328710000000001,23.3535,8.25415Q23.2835,8.179590000000001,23.2242,8.09621Q23.165,8.01284,23.1176,7.9222L20.1245,2.194748L21.4539,1.5L22.7926,2.176516L17.3368,12.9732Q17.2404,13.164,17.0945,13.3202Q16.948700000000002,13.4765,16.7649,13.5858Q16.7016,13.6235,16.634900000000002,13.6548Q16.568199999999997,13.686,16.4987,13.7106Q16.4292,13.7352,16.3577,13.7529Q16.2862,13.7706,16.2132,13.7811Q16.1403,13.7917,16.0667,13.7951Q15.9931,13.7985,15.9195,13.7946Q15.8459,13.7907,15.773,13.7797Q15.7002,13.7686,15.6288,13.7505Q15.5573,13.7324,15.488,13.7073Q15.4187,13.6822,15.3522,13.6505Q15.2857,13.6188,15.2226,13.5807Q15.1596,13.5426,15.1005,13.4985Q15.0415,13.4544,14.987,13.4047Q14.9326,13.3551,14.8833,13.3003Q14.834,13.2455,14.7903,13.1862Q14.7466,13.1269,14.7089,13.0635L9.19011,3.78642L10.47925,3.01953L11.7016,3.88894L8.708680000000001,8.09685Q8.604659999999999,8.243089999999999,8.46909,8.36066Q8.33352,8.47824,8.17404,8.56051Q8.01456,8.64278,7.84017,8.685120000000001Q7.66578,8.727450000000001,7.48633,8.727450000000001L1.5,8.727450000000001L1.5,5.72745ZM127.49,7.22742Q127.49,7.30111,127.483,7.37444Q127.476,7.44778,127.461,7.52005Q127.447,7.59233,127.426,7.66284Q127.404,7.73336,127.376,7.80144Q127.348,7.86952,127.313,7.93451Q127.278,7.9995,127.237,8.06077Q127.196,8.12204,127.15,8.17901Q127.103,8.23597,127.051,8.28808Q126.999,8.34018,126.942,8.38693Q126.885,8.433679999999999,126.824,8.47462Q126.762,8.51556,126.697,8.5503Q126.632,8.58504,126.564,8.613240000000001Q126.496,8.64144,126.426,8.66283Q126.355,8.68422,126.283,8.69859Q126.211,8.71297,126.137,8.720189999999999Q126.064,8.72742,125.99,8.72742Q125.917,8.72742,125.843,8.720189999999999Q125.77,8.71297,125.698,8.69859Q125.625,8.68422,125.555,8.66283Q125.484,8.64144,125.416,8.613240000000001Q125.348,8.58504,125.283,8.5503Q125.218,8.51556,125.157,8.47462Q125.096,8.433679999999999,125.039,8.38693Q124.982,8.34018,124.93,8.28808Q124.877,8.23597,124.831,8.17901Q124.784,8.12204,124.743,8.06077Q124.702,7.9995,124.667,7.93451Q124.633,7.86952,124.604,7.80144Q124.576,7.73336,124.555,7.66284Q124.533,7.59233,124.519,7.52005Q124.505,7.44778,124.497,7.37444Q124.49,7.30111,124.49,7.22742Q124.49,7.15373,124.497,7.08039Q124.505,7.00706,124.519,6.93478Q124.533,6.86251,124.555,6.79199Q124.576,6.72147,124.604,6.65339Q124.633,6.58531,124.667,6.52032Q124.702,6.45533,124.743,6.39406Q124.784,6.33279,124.831,6.27583Q124.877,6.21886,124.93,6.16676Q124.982,6.11465,125.039,6.0679Q125.096,6.02115,125.157,5.98021Q125.218,5.93927,125.283,5.90453Q125.348,5.8698,125.416,5.8416Q125.484,5.8134,125.555,5.79201Q125.625,5.77062,125.698,5.75624Q125.77,5.74186,125.843,5.73464Q125.917,5.72742,125.99,5.72742Q126.064,5.72742,126.137,5.73464Q126.211,5.74186,126.283,5.75624Q126.355,5.77062,126.426,5.79201Q126.496,5.8134,126.564,5.8416Q126.632,5.8698,126.697,5.90453Q126.762,5.93927,126.824,5.98021Q126.885,6.02115,126.942,6.0679Q126.999,6.11465,127.051,6.16676Q127.103,6.21886,127.15,6.27583Q127.196,6.33279,127.237,6.39406Q127.278,6.45533,127.313,6.52032Q127.348,6.58531,127.376,6.65339Q127.404,6.72147,127.426,6.79199Q127.447,6.86251,127.461,6.93478Q127.476,7.00706,127.483,7.08039Q127.49,7.15373,127.49,7.22742Z"  fill-opacity="1"/>
    </g>
</svg>