<svg xmlns="http://www.w3.org/2000/svg" xmlns:xlink="http://www.w3.org/1999/xlink" fill="none" version="1.1"
     width="132.056396484375" height="73.281982421875" viewBox="0 0 132.056396484375 73.281982421875">
    <g style="mix-blend-mode:passthrough">
        <g style="mix-blend-mode:passthrough">
            <g style="mix-blend-mode:passthrough">
                <path d="M69.231,72.87894671630859L22.0207,72.87894671630859C21.3061,72.87894671630859,20.6459,72.4977467163086,20.2886,71.87894671630859L0.577348,37.73794671630859C0.220084,37.11914671630859,0.220084,36.35674671630859,0.577348,35.73794671630859L20.2886,1.5969467163085938C20.6459,0.9781447163085937,21.3061,0.5969467163085938,22.0207,0.5969467163085938L69.231,0.5969467163085938L109.808,0.5969467163085938C110.523,0.5969467163085938,111.183,0.9781447163085937,111.54,1.5969467163085938L131.252,35.73794671630859C131.609,36.35674671630859,131.609,37.11914671630859,131.252,37.73794671630859L111.54,71.87894671630859C111.183,72.4977467163086,110.523,72.87894671630859,109.808,72.87894671630859L71.9834,72.87894671630859L69.231,72.87894671630859ZM48.9423,37.73794671630859L65.767,66.87894671630859C66.5368,68.2122467163086,65.5745,69.87894671630859,64.0349,69.87894671630859L23.7528,69.87894671630859C23.0383,69.87894671630859,22.3781,69.4977467163086,22.0208,68.87894671630859L4.04147,37.73794671630859C3.6842,37.11914671630859,3.6842,36.35674671630859,4.04147,35.73794671630859L22.0208,4.596946716308594C22.3781,3.978146716308594,23.0383,3.5969467163085938,23.7528,3.5969467163085938L64.0349,3.5969467163085938C65.5745,3.5969467163085938,66.5368,5.263616716308594,65.767,6.596946716308594L48.9423,35.73794671630859C48.5851,36.35674671630859,48.5851,37.11914671630859,48.9423,37.73794671630859M70.453,4.480516716308594L52.4065,35.73794671630859C52.0492,36.35674671630859,52.0492,37.11914671630859,52.4065,37.73794671630859L70.453,68.99534671630859C70.7687,69.5421467163086,71.3521,69.87894671630859,71.9834,69.87894671630859L108.076,69.87894671630859C108.791,69.87894671630859,109.451,69.4977467163086,109.808,68.87894671630859L127.788,37.73794671630859C128.145,37.11914671630859,128.145,36.35674671630859,127.788,35.73794671630859L109.808,4.596946716308594C109.451,3.978146716308594,108.791,3.5969467163085938,108.076,3.5969467163085938L71.9834,3.5969467163085938C71.3521,3.5969467163085938,70.7687,3.9337667163085936,70.453,4.480516716308594"
                      fill-rule="evenodd" fill="#3B3B3B" fill-opacity="1"/>
            </g>
            <g style="mix-blend-mode:passthrough">
                <g style="mix-blend-mode:passthrough">
                    <path d="M16,25.596946716308594C16,24.492332716308592,16.895508,23.596946716308594,18,23.596946716308594L26.6252,23.596946716308594C27.7297,23.596946716308594,28.6252,24.492332716308592,28.6252,25.596946716308594L28.6252,34.2220467163086C28.6252,35.326646716308595,27.7297,36.2220467163086,26.6252,36.2220467163086L18,36.2220467163086C16.895508,36.2220467163086,16,35.326646716308595,16,34.2220467163086L16,25.596946716308594ZM19,33.222066716308596L19,26.596946716308594L25.625239999999998,26.596946716308594L25.625239999999998,33.222066716308596L19,33.222066716308596Z"
                          fill-rule="evenodd" fill="#3B3B3B" fill-opacity="1"/>
                </g>
                <g style="mix-blend-mode:passthrough">
                    <path d="M16,40.4520902633667C16,39.3474762633667,16.895508,38.4520902633667,18,38.4520902633667L26.6252,38.4520902633667C27.7297,38.4520902633667,28.6252,39.3474762633667,28.6252,40.4520902633667L28.6252,49.0771902633667C28.6252,50.1817902633667,27.7297,51.0771902633667,26.6252,51.0771902633667L18,51.0771902633667C16.895508,51.0771902633667,16,50.1817902633667,16,49.0771902633667L16,40.4520902633667ZM19,48.0772102633667L19,41.4520902633667L25.625239999999998,41.4520902633667L25.625239999999998,48.0772102633667L19,48.0772102633667Z"
                          fill-rule="evenodd" fill="#3B3B3B" fill-opacity="1"/>
                </g>
                <g style="mix-blend-mode:passthrough">
                    <path d="M31.126462936401367,40.4520902633667C31.126462936401367,39.3474762633667,32.02197093640137,38.4520902633667,33.12646293640137,38.4520902633667L41.75166293640137,38.4520902633667C42.85616293640137,38.4520902633667,43.75166293640137,39.3474762633667,43.75166293640137,40.4520902633667L43.75166293640137,49.0771902633667C43.75166293640137,50.1817902633667,42.85616293640137,51.0771902633667,41.75166293640137,51.0771902633667L33.12646293640137,51.0771902633667C32.02197093640137,51.0771902633667,31.126462936401367,50.1817902633667,31.126462936401367,49.0771902633667L31.126462936401367,40.4520902633667ZM34.12646293640137,48.0772102633667L34.12646293640137,41.4520902633667L40.751702936401365,41.4520902633667L40.751702936401365,48.0772102633667L34.12646293640137,48.0772102633667Z"
                          fill-rule="evenodd" fill="#3B3B3B" fill-opacity="1"/>
                </g>
                <g style="mix-blend-mode:passthrough">
                    <path d="M31.12646484375,25.596946716308594C31.12646484375,24.492332716308592,32.02197284375,23.596946716308594,33.12646484375,23.596946716308594L41.75166484375,23.596946716308594C42.85616484375,23.596946716308594,43.75166484375,24.492332716308592,43.75166484375,25.596946716308594L43.75166484375,34.2220467163086C43.75166484375,35.326646716308595,42.85616484375,36.2220467163086,41.75166484375,36.2220467163086L33.12646484375,36.2220467163086C32.02197284375,36.2220467163086,31.12646484375,35.326646716308595,31.12646484375,34.2220467163086L31.12646484375,25.596946716308594ZM34.12646484375,33.222066716308596L34.12646484375,26.596946716308594L40.75170484375,26.596946716308594L40.75170484375,33.222066716308596L34.12646484375,33.222066716308596Z"
                          fill-rule="evenodd" fill="#3B3B3B" fill-opacity="1"/>
                </g>
            </g>
        </g>
        <g style="mix-blend-mode:passthrough">
            <g style="mix-blend-mode:passthrough">
                <g style="mix-blend-mode:passthrough"
                   transform="matrix(0,-1,1,0,-20.606903076171875,121.9571533203125)">
                    <path d="M118.95712512207031,90.3952281982422C119.57592512207032,90.75252819824219,119.95712512207031,91.41282819824218,119.95712512207031,92.1273281982422L119.95712512207031,129.81792819824219C119.95712512207031,130.5324281982422,119.57592512207032,131.19272819824218,118.95712512207031,131.54992819824218L86.3161251220703,150.39532819824217C85.69732512207031,150.7525281982422,84.93492512207031,150.7525281982422,84.3161251220703,150.39532819824217L51.67512512207031,131.54992819824218C51.056324122070315,131.19272819824218,50.67512607574431,130.5324281982422,50.67512607574431,129.81792819824219L50.67512512207031,92.1273281982422C50.67512512207031,91.41282819824218,51.05632312207031,90.75252819824219,51.67512512207031,90.39532819824218L84.3161251220703,71.54997719824219C84.93492512207031,71.19271179824219,85.69732512207031,71.19271179824219,86.3161251220703,71.54997719824219L118.95712512207031,90.3952281982422Z"
                          fill="#00C155" fill-opacity="1"/>
                </g>
                <g style="mix-blend-mode:passthrough"
                   transform="matrix(0,-1,1,0,-24.606903076171875,121.9571533203125)">
                    <path d="M121.42122512207031,94.1273281982422Q120.88532512207031,93.19912819824219,119.95712512207031,92.6632281982422L87.3161251220703,73.81792619824219Q86.38792512207031,73.28202819824219,85.3161251220703,73.28202819824219Q84.24432512207031,73.28202819824219,83.3161251220703,73.81792619824219L50.67512512207031,92.6632281982422Q49.74691512207031,93.19912819824219,49.21102412207031,94.1273281982422Q48.67512512207031,95.05552819824219,48.67512512207031,96.1273281982422L48.67512607574431,133.81792819824219Q48.67512607574431,134.88972819824218,49.21102412207031,135.81792819824219Q49.746925122070316,136.7461281982422,50.67512512207031,137.2820281982422L83.3161251220703,156.1273281982422Q84.24432512207031,156.6632281982422,85.3161251220703,156.6632281982422Q86.38792512207031,156.6632281982422,87.3161251220703,156.1273281982422L119.95712512207031,137.2820281982422Q120.88532512207031,136.7461281982422,121.42122512207031,135.81792819824219Q121.95712512207031,134.88972819824218,121.95712512207031,133.81792819824219L121.95712512207031,96.1273281982422Q121.95712512207031,95.05552819824219,121.42122512207031,94.1273281982422ZM85.3161251220703,77.28202819824219L117.95712512207031,96.1273281982422L117.95712512207031,133.81792819824219L85.3161251220703,152.6632281982422L52.67512512207031,133.81792819824219L52.67512512207031,96.1273281982422L85.3161251220703,77.28202819824219Z"
                          fill-rule="evenodd" fill="#00C155" fill-opacity="1"/>
                </g>
            </g>
        </g>
    </g>
</svg>