<svg xmlns="http://www.w3.org/2000/svg" xmlns:xlink="http://www.w3.org/1999/xlink" fill="none" version="1.1" width="33.3876953125" height="33.3876953125" viewBox="0 0 33.3876953125 33.3876953125"><g style="mix-blend-mode:passthrough"><path d="M0,7.5L0,25.8877Q1.19209e-7,28.9943,2.1967,31.191Q4.3934,33.3877,7.5,33.3877L25.8877,33.3877Q28.9943,33.3877,31.191,31.191Q33.3877,28.9943,33.3877,25.8877L33.3877,7.5Q33.3877,4.39339,31.191,2.19669Q28.9943,1.19209e-7,25.8877,0L7.5,0Q4.3934,-1.19209e-7,2.1967,2.19669Q0,4.39339,0,7.5ZM4.31802,29.0697Q3,27.7517,3,25.8877L3,7.5Q3,5.63603,4.31802,4.31802Q5.63604,3,7.5,3L25.8877,3Q27.7517,3,29.0697,4.31802Q30.3877,5.63603,30.3877,7.5L30.3877,19.7531Q30.2431,19.0578,29.7091,18.5238L28.4752,17.2898Q27.7429,16.5576,26.7074,16.5576Q25.6719,16.5576,24.9397,17.2898L23.3837,18.8458C23.4199,18.7153,23.4382,18.5805,23.4382,18.4451C23.4382,17.9635,23.2071,17.5113,22.8167,17.2292Q21.971,16.6182,21.0663,16.1868Q22.9476,14.2764,22.9476,11.5867Q22.9476,8.86751,21.0249,6.9448Q19.1021,5.02209,16.383,5.02209Q13.6638,5.02209,11.7411,6.9448Q9.81836,8.86751,9.81836,11.5867Q9.81836,14.2807,11.7056,16.1929Q9.97395,17.0055,8.60739,18.3721Q7.08621,19.8932,6.25145,21.8668Q5.38672,23.9113,5.38672,26.1475C5.38672,26.9759,6.05829,27.6475,6.88672,27.6475C7.71515,27.6475,8.38672,26.9759,8.38672,26.1475Q8.38672,22.8354,10.7287,20.4934Q13.0707,18.1514,16.383,18.1514Q18.968,18.1514,21.0555,19.6578Q21.0566,19.6586,21.0577,19.6594Q21.0587,19.6602,21.0597,19.6609C21.3154,19.8456,21.6228,19.9451,21.9382,19.9451C22.0736,19.9451,22.2084,19.9267,22.3389,19.8906L18.014,24.2155Q17.2818,24.9475,17.2818,25.9833L17.2818,27.2172Q17.2819,28.2527,18.014,28.9849Q18.7463,29.7172,19.7818,29.7172L21.0157,29.7172Q22.0512,29.7172,22.7834,28.9851L29.7091,22.0593Q30.2431,21.5253,30.3877,20.83L30.3877,25.8877Q30.3877,27.7517,29.0697,29.0697Q27.7517,30.3877,25.8877,30.3877L7.5,30.3877Q5.63604,30.3877,4.31802,29.0697ZM16.383,15.1514Q17.8595,15.1514,18.9035,14.1073Q19.9476,13.0632,19.9476,11.5867Q19.9476,10.1102,18.9035,9.06613Q17.8595,8.02209,16.383,8.02209Q14.9064,8.02209,13.8624,9.06613Q12.8184,10.1102,12.8184,11.5867Q12.8184,13.0632,13.8624,14.1073Q14.9065,15.1514,16.383,15.1514ZM27.2342,20.2916L26.7074,19.7647L20.2818,26.1903L20.2818,26.7172L20.8087,26.7172L27.2342,20.2916Z" fill-rule="evenodd" fill="#3B3B3B" fill-opacity="1"/></g></svg>