<svg xmlns="http://www.w3.org/2000/svg" xmlns:xlink="http://www.w3.org/1999/xlink" fill="none" version="1.1" width="52.15966796875" height="48" viewBox="0 0 52.15966796875 48"><g style="mix-blend-mode:passthrough"><g style="mix-blend-mode:passthrough"><g style="mix-blend-mode:passthrough"><path d="M5.079833984375,1C5.079833984375,0.447715,5.527548984375,0,6.079833984375,0L46.079833984375,0C46.632133984375,0,47.079833984375,0.447715,47.079833984375,1L47.079833984375,47C47.079833984375,47.5523,46.632133984375,48,46.079833984375,48L6.079833984375,48C5.527548984375,48,5.079833984375,47.5523,5.079833984375,47L5.079833984375,1Z" fill="#00C155" fill-opacity="1"/></g></g><g style="mix-blend-mode:passthrough"><g style="mix-blend-mode:passthrough"><g style="mix-blend-mode:passthrough"><g style="mix-blend-mode:passthrough"><g style="mix-blend-mode:passthrough" transform="matrix(-1,0,0,-1,23.29008674621582,22.017333984375)"><path d="M13.14504337310791,11.0086669921875L21.79004337310791,11.0086669921875C22.61854337310791,11.0086669921875,23.29004337310791,11.6802399921875,23.29004337310791,12.5086669921875C23.29004337310791,13.3370969921875,22.61854337310791,14.0086669921875,21.79004337310791,14.0086669921875L13.14504337310791,14.0086669921875C12.31661637310791,14.0086669921875,11.64504337310791,13.3370969921875,11.64504337310791,12.5086669921875C11.64504337310791,11.6802399921875,12.31661637310791,11.0086669921875,13.14504337310791,11.0086669921875Z" fill-rule="evenodd" fill="#00C155" fill-opacity="1"/></g><g style="mix-blend-mode:passthrough" transform="matrix(-1,0,0,-1,23.29008674621582,51.00009536743164)"><path d="M13.14504337310791,25.50004768371582L21.79004337310791,25.50004768371582C22.61854337310791,25.50004768371582,23.29004337310791,26.17162068371582,23.29004337310791,27.00004768371582C23.29004337310791,27.82847768371582,22.61854337310791,28.50004768371582,21.79004337310791,28.50004768371582L13.14504337310791,28.50004768371582C12.31661637310791,28.50004768371582,11.64504337310791,27.82847768371582,11.64504337310791,27.00004768371582C11.64504337310791,26.17162068371582,12.31661637310791,25.50004768371582,13.14504337310791,25.50004768371582Z" fill-rule="evenodd" fill="#00C155" fill-opacity="1"/></g><g style="mix-blend-mode:passthrough" transform="matrix(-1,0,0,-1,23.29008674621582,79.98285675048828)"><path d="M13.14504337310791,39.99142837524414L21.79004337310791,39.99142837524414C22.61854337310791,39.99142837524414,23.29004337310791,40.66300137524414,23.29004337310791,41.49142837524414C23.29004337310791,42.31985837524414,22.61854337310791,42.99142837524414,21.79004337310791,42.99142837524414L13.14504337310791,42.99142837524414C12.31661637310791,42.99142837524414,11.64504337310791,42.31985837524414,11.64504337310791,41.49142837524414C11.64504337310791,40.66300137524414,12.31661637310791,39.99142837524414,13.14504337310791,39.99142837524414Z" fill-rule="evenodd" fill="#00C155" fill-opacity="1"/></g></g></g></g><g style="mix-blend-mode:passthrough"><g style="mix-blend-mode:passthrough"><g style="mix-blend-mode:passthrough"><g style="mix-blend-mode:passthrough" transform="matrix(-1,0,0,-1,104.31891822814941,22.017333984375)"><path d="M53.65945911407471,11.0086669921875L62.3044591140747,11.0086669921875C63.13295911407471,11.0086669921875,63.8044591140747,11.6802399921875,63.8044591140747,12.5086669921875C63.8044591140747,13.3370969921875,63.13295911407471,14.0086669921875,62.3044591140747,14.0086669921875L53.65945911407471,14.0086669921875C52.83103211407471,14.0086669921875,52.15945911407471,13.3370969921875,52.15945911407471,12.5086669921875C52.15945911407471,11.6802399921875,52.83103211407471,11.0086669921875,53.65945911407471,11.0086669921875Z" fill-rule="evenodd" fill="#00C155" fill-opacity="1"/></g><g style="mix-blend-mode:passthrough" transform="matrix(-1,0,0,-1,104.31891822814941,51.00009536743164)"><path d="M53.65945911407471,25.50004768371582L62.3044591140747,25.50004768371582C63.13295911407471,25.50004768371582,63.8044591140747,26.17162068371582,63.8044591140747,27.00004768371582C63.8044591140747,27.82847768371582,63.13295911407471,28.50004768371582,62.3044591140747,28.50004768371582L53.65945911407471,28.50004768371582C52.83103211407471,28.50004768371582,52.15945911407471,27.82847768371582,52.15945911407471,27.00004768371582C52.15945911407471,26.17162068371582,52.83103211407471,25.50004768371582,53.65945911407471,25.50004768371582Z" fill-rule="evenodd" fill="#00C155" fill-opacity="1"/></g><g style="mix-blend-mode:passthrough" transform="matrix(-1,0,0,-1,104.31891822814941,79.98285675048828)"><path d="M53.65945911407471,39.99142837524414L62.3044591140747,39.99142837524414C63.13295911407471,39.99142837524414,63.8044591140747,40.66300137524414,63.8044591140747,41.49142837524414C63.8044591140747,42.31985837524414,63.13295911407471,42.99142837524414,62.3044591140747,42.99142837524414L53.65945911407471,42.99142837524414C52.83103211407471,42.99142837524414,52.15945911407471,42.31985837524414,52.15945911407471,41.49142837524414C52.15945911407471,40.66300137524414,52.83103211407471,39.99142837524414,53.65945911407471,39.99142837524414Z" fill-rule="evenodd" fill="#00C155" fill-opacity="1"/></g></g></g></g></g><g style="mix-blend-mode:passthrough"><path d="M18.35262232849121,32.88675081176758L15.153402328491211,32.88675081176758L15.153402328491211,14.470050811767578L18.35262232849121,14.470050811767578L18.35262232849121,32.88675081176758ZM37.29400232849121,24.14388081176758Q37.29400232849121,26.78455081176758,36.35460232849121,28.773450811767578Q35.415102328491216,30.753950811767577,33.67160232849121,31.82035081176758Q31.92810232849121,32.88675081176758,29.65140232849121,32.88675081176758Q27.408602328491213,32.88675081176758,25.64820232849121,31.82035081176758Q23.887782328491213,30.753950811767577,22.93139232849121,28.790350811767578Q21.97501232849121,26.81835081176758,21.95809232849121,24.24544081176758L21.95809232849121,23.23828081176758Q21.95809232849121,20.614580811767578,22.91447232849121,18.60872081176758Q23.87931232849121,16.602860811767577,25.62280232849121,15.536460811767578Q27.36630232849121,14.470050811767578,29.62610232849121,14.470050811767578Q31.88580232849121,14.470050811767578,33.62930232849121,15.527990811767578Q35.381302328491216,16.57747081176758,36.329202328491206,18.55794081176758Q37.28560232849121,20.529950811767577,37.29400232849121,23.145180811767577L37.29400232849121,24.14388081176758ZM34.086302328491215,23.21289081176758Q34.086302328491215,20.27604081176758,32.91840232849121,18.710290811767578Q31.75890232849121,17.136070811767578,29.62610232849121,17.136070811767578Q27.54400232849121,17.136070811767578,26.36760232849121,18.70182081176758Q25.19960232849121,20.259110811767577,25.174202328491212,23.11979081176758L25.174202328491212,24.14388081176758Q25.174202328491212,27.06385081176758,26.35910232849121,28.654950811767577Q27.54400232849121,30.246050811767578,29.65140232849121,30.246050811767578Q31.78430232849121,30.246050811767578,32.93530232849121,28.68885081176758Q34.086302328491215,27.13155081176758,34.086302328491215,24.14388081176758L34.086302328491215,23.21289081176758Z" fill="#FFFFFF" fill-opacity="1"/></g></g></svg>