<svg xmlns="http://www.w3.org/2000/svg" xmlns:xlink="http://www.w3.org/1999/xlink" fill="none" version="1.1" width="131.8291015625" height="73.281982421875" viewBox="0 0 131.8291015625 73.281982421875"><g style="mix-blend-mode:passthrough"><g style="mix-blend-mode:passthrough"><g style="mix-blend-mode:passthrough"><path d="M69.231,72.878923828125L22.0207,72.878923828125C21.3061,72.878923828125,20.6459,72.497723828125,20.2886,71.878923828125L0.577348,37.737923828125C0.220084,37.119123828125,0.220084,36.356723828125,0.577348,35.737923828125L20.2886,1.596923828125C20.6459,0.9781218281249999,21.3061,0.596923828125,22.0207,0.596923828125L69.231,0.596923828125L109.808,0.596923828125C110.523,0.596923828125,111.183,0.9781218281249999,111.54,1.596923828125L131.252,35.737923828125C131.609,36.356723828125,131.609,37.119123828125,131.252,37.737923828125L111.54,71.878923828125C111.183,72.497723828125,110.523,72.878923828125,109.808,72.878923828125L71.9834,72.878923828125L69.231,72.878923828125ZM48.9423,37.737923828125L65.767,66.878923828125C66.5368,68.212223828125,65.5745,69.878923828125,64.0349,69.878923828125L23.7528,69.878923828125C23.0383,69.878923828125,22.3781,69.497723828125,22.0208,68.878923828125L4.04147,37.737923828125C3.6842,37.119123828125,3.6842,36.356723828125,4.04147,35.737923828125L22.0208,4.596923828125C22.3781,3.978123828125,23.0383,3.596923828125,23.7528,3.596923828125L64.0349,3.596923828125C65.5745,3.596923828125,66.5368,5.263593828125,65.767,6.596923828125L48.9423,35.737923828125C48.5851,36.356723828125,48.5851,37.119123828125,48.9423,37.737923828125M70.453,4.480493828125001L52.4065,35.737923828125C52.0492,36.356723828125,52.0492,37.119123828125,52.4065,37.737923828125L70.453,68.995323828125C70.7687,69.542123828125,71.3521,69.878923828125,71.9834,69.878923828125L108.076,69.878923828125C108.791,69.878923828125,109.451,69.497723828125,109.808,68.878923828125L127.788,37.737923828125C128.145,37.119123828125,128.145,36.356723828125,127.788,35.737923828125L109.808,4.596923828125C109.451,3.978123828125,108.791,3.596923828125,108.076,3.596923828125L71.9834,3.596923828125C71.3521,3.596923828125,70.7687,3.933743828125,70.453,4.480493828125001" fill-rule="evenodd" fill="#3B3B3B" fill-opacity="1"/></g><g style="mix-blend-mode:passthrough"><g style="mix-blend-mode:passthrough"><path d="M16,25.596923828125C16,24.492309828125,16.895508,23.596923828125,18,23.596923828125L26.6252,23.596923828125C27.7297,23.596923828125,28.6252,24.492309828125,28.6252,25.596923828125L28.6252,34.222023828125C28.6252,35.326623828125,27.7297,36.222023828125,26.6252,36.222023828125L18,36.222023828125C16.895508,36.222023828125,16,35.326623828125,16,34.222023828125L16,25.596923828125ZM19,33.222043828125L19,26.596923828125L25.625239999999998,26.596923828125L25.625239999999998,33.222043828125L19,33.222043828125Z" fill-rule="evenodd" fill="#3B3B3B" fill-opacity="1"/></g><g style="mix-blend-mode:passthrough"><path d="M16,40.452067375183105C16,39.34745337518311,16.895508,38.452067375183105,18,38.452067375183105L26.6252,38.452067375183105C27.7297,38.452067375183105,28.6252,39.34745337518311,28.6252,40.452067375183105L28.6252,49.07716737518311C28.6252,50.18176737518311,27.7297,51.07716737518311,26.6252,51.07716737518311L18,51.07716737518311C16.895508,51.07716737518311,16,50.18176737518311,16,49.07716737518311L16,40.452067375183105ZM19,48.07718737518311L19,41.452067375183105L25.625239999999998,41.452067375183105L25.625239999999998,48.07718737518311L19,48.07718737518311Z" fill-rule="evenodd" fill="#3B3B3B" fill-opacity="1"/></g><g style="mix-blend-mode:passthrough"><path d="M31.126462936401367,40.452067375183105C31.126462936401367,39.34745337518311,32.02197093640137,38.452067375183105,33.12646293640137,38.452067375183105L41.75166293640137,38.452067375183105C42.85616293640137,38.452067375183105,43.75166293640137,39.34745337518311,43.75166293640137,40.452067375183105L43.75166293640137,49.07716737518311C43.75166293640137,50.18176737518311,42.85616293640137,51.07716737518311,41.75166293640137,51.07716737518311L33.12646293640137,51.07716737518311C32.02197093640137,51.07716737518311,31.126462936401367,50.18176737518311,31.126462936401367,49.07716737518311L31.126462936401367,40.452067375183105ZM34.12646293640137,48.07718737518311L34.12646293640137,41.452067375183105L40.751702936401365,41.452067375183105L40.751702936401365,48.07718737518311L34.12646293640137,48.07718737518311Z" fill-rule="evenodd" fill="#3B3B3B" fill-opacity="1"/></g><g style="mix-blend-mode:passthrough"><path d="M31.12646484375,25.596923828125C31.12646484375,24.492309828125,32.02197284375,23.596923828125,33.12646484375,23.596923828125L41.75166484375,23.596923828125C42.85616484375,23.596923828125,43.75166484375,24.492309828125,43.75166484375,25.596923828125L43.75166484375,34.222023828125C43.75166484375,35.326623828125,42.85616484375,36.222023828125,41.75166484375,36.222023828125L33.12646484375,36.222023828125C32.02197284375,36.222023828125,31.12646484375,35.326623828125,31.12646484375,34.222023828125L31.12646484375,25.596923828125ZM34.12646484375,33.222043828125L34.12646484375,26.596923828125L40.75170484375,26.596923828125L40.75170484375,33.222043828125L34.12646484375,33.222043828125Z" fill-rule="evenodd" fill="#3B3B3B" fill-opacity="1"/></g></g></g><g style="mix-blend-mode:passthrough"><g style="mix-blend-mode:passthrough"><g style="mix-blend-mode:passthrough"><g style="mix-blend-mode:passthrough" transform="matrix(0,-1,1,0,-69.43667507171631,73.12727451324463)"><path d="M1.8452997207641602,137.54997479248047C1.8452997207641602,138.31977479248047,2.6786327207641603,138.80087479248047,3.34529972076416,138.41597479248048L35.98629972076416,119.57067479248047C36.29569972076416,119.39197479248047,36.67689972076416,119.39197479248047,36.98629972076416,119.57067479248047L69.62729972076416,138.41597479248048C70.29399972076416,138.80087479248047,71.12729972076416,138.31977479248047,71.12729972076416,137.54987479248047L71.12729972076416,91.85937479248047C71.12729972076416,91.50207479248047,70.93669972076415,91.17197479248047,70.62729972076416,90.99327479248046L36.98629972076416,71.57064979248047C36.67689972076416,71.39201679248048,36.29569972076416,71.39201679248048,35.98629972076416,71.57064979248047L2.34529972076416,90.99327479248046C2.0358987207641603,91.17197479248047,1.8452997207641602,91.50207479248047,1.8452997207641602,91.85937479248047L1.8452997207641602,137.54997479248047Z" fill="#00C155" fill-opacity="1"/></g><g style="mix-blend-mode:passthrough" transform="matrix(0,-1,1,0,-73.28188991546631,73.28205966949463)"><path d="M35.14108487701416,73.68382979248047L1.5000848770141602,93.10647479248047Q0.8039178770141602,93.50857479248047,0.40206287701416016,94.20457479248047Q0.00008487701416015625,94.90087479248047,0.00008487701416015625,95.70457479248047L0.00008487701416015625,141.39527479248045Q0.00008487701416015625,142.22997479248045,0.42647687701416015,142.93947479248047Q0.8256468770141602,143.60397479248047,1.5000848770141602,143.99337479248047Q2.1745248770141603,144.38277479248046,2.94942487701416,144.39627479248048Q3.77706487701416,144.41067479248045,4.50008487701416,143.99337479248047L36.64108487701416,125.43677479248046L68.78208487701416,143.99337479248047Q69.50508487701416,144.41067479248045,70.33268487701416,144.39627479248048Q71.10758487701416,144.38277479248046,71.78208487701416,143.99337479248047Q72.45658487701417,143.60397479248047,72.85578487701416,142.93947479248047Q73.28208487701416,142.22997479248045,73.28208487701416,141.39527479248045L73.28208487701416,95.70457479248047Q73.28208487701416,94.90087479248047,72.88018487701416,94.20457479248047Q72.47818487701416,93.50857479248047,71.78208487701416,93.10647479248047L38.14108487701416,73.68382979248047Q37.44488487701416,73.28197479248047,36.64108487701416,73.28197479248047Q35.83728487701416,73.28197479248047,35.14108487701416,73.68382979248047ZM4.00008487701416,96.28197479248047L4.00008487701416,139.66307479248047L35.14108487701416,121.68387479248047Q35.83728487701416,121.28197479248047,36.64108487701416,121.28197479248047Q37.44488487701416,121.28197479248047,38.14108487701416,121.68387479248047L69.28208487701416,139.66307479248047L69.28208487701416,96.28197479248047L36.64108487701416,77.43676479248047L4.00008487701416,96.28197479248047Z" fill-rule="evenodd" fill="#00C155" fill-opacity="1"/></g><g style="mix-blend-mode:passthrough"><path d="M15.76693058013916,24.91613006591797C15.76693058013916,23.811516065917967,16.66243858013916,22.91613006591797,17.76693058013916,22.91613006591797L26.39213058013916,22.91613006591797C27.49663058013916,22.91613006591797,28.39213058013916,23.811516065917967,28.39213058013916,24.91613006591797L28.39213058013916,33.54123006591797C28.39213058013916,34.64583006591797,27.49663058013916,35.54123006591797,26.39213058013916,35.54123006591797L17.76693058013916,35.54123006591797C16.66243858013916,35.54123006591797,15.76693058013916,34.64583006591797,15.76693058013916,33.54123006591797L15.76693058013916,24.91613006591797ZM18.76693058013916,32.54125006591797L18.76693058013916,25.91613006591797L25.392170580139158,25.91613006591797L25.392170580139158,32.54125006591797L18.76693058013916,32.54125006591797Z" fill-rule="evenodd" fill="#FFFFFF" fill-opacity="1"/></g><g style="mix-blend-mode:passthrough"><path d="M15.76693058013916,39.77127456665039C15.76693058013916,38.66666056665039,16.66243858013916,37.77127456665039,17.76693058013916,37.77127456665039L26.39213058013916,37.77127456665039C27.49663058013916,37.77127456665039,28.39213058013916,38.66666056665039,28.39213058013916,39.77127456665039L28.39213058013916,48.396374566650394C28.39213058013916,49.50097456665039,27.49663058013916,50.396374566650394,26.39213058013916,50.396374566650394L17.76693058013916,50.396374566650394C16.66243858013916,50.396374566650394,15.76693058013916,49.50097456665039,15.76693058013916,48.396374566650394L15.76693058013916,39.77127456665039ZM18.76693058013916,47.39639456665039L18.76693058013916,40.77127456665039L25.392170580139158,40.77127456665039L25.392170580139158,47.39639456665039L18.76693058013916,47.39639456665039Z" fill-rule="evenodd" fill="#FFFFFF" fill-opacity="1"/></g><g style="mix-blend-mode:passthrough"><path d="M30.893393516540527,39.77127456665039C30.893393516540527,38.66666056665039,31.788901516540527,37.77127456665039,32.89339351654053,37.77127456665039L41.51859351654053,37.77127456665039C42.62309351654053,37.77127456665039,43.51859351654053,38.66666056665039,43.51859351654053,39.77127456665039L43.51859351654053,48.396374566650394C43.51859351654053,49.50097456665039,42.62309351654053,50.396374566650394,41.51859351654053,50.396374566650394L32.89339351654053,50.396374566650394C31.788901516540527,50.396374566650394,30.893393516540527,49.50097456665039,30.893393516540527,48.396374566650394L30.893393516540527,39.77127456665039ZM33.89339351654053,47.39639456665039L33.89339351654053,40.77127456665039L40.518633516540525,40.77127456665039L40.518633516540525,47.39639456665039L33.89339351654053,47.39639456665039Z" fill-rule="evenodd" fill="#FFFFFF" fill-opacity="1"/></g><g style="mix-blend-mode:passthrough"><path d="M30.89339542388916,24.91613006591797C30.89339542388916,23.811516065917967,31.78890342388916,22.91613006591797,32.89339542388916,22.91613006591797L41.51859542388916,22.91613006591797C42.62309542388916,22.91613006591797,43.51859542388916,23.811516065917967,43.51859542388916,24.91613006591797L43.51859542388916,33.54123006591797C43.51859542388916,34.64583006591797,42.62309542388916,35.54123006591797,41.51859542388916,35.54123006591797L32.89339542388916,35.54123006591797C31.78890342388916,35.54123006591797,30.89339542388916,34.64583006591797,30.89339542388916,33.54123006591797L30.89339542388916,24.91613006591797ZM33.89339542388916,32.54125006591797L33.89339542388916,25.91613006591797L40.51863542388916,25.91613006591797L40.51863542388916,32.54125006591797L33.89339542388916,32.54125006591797Z" fill-rule="evenodd" fill="#FFFFFF" fill-opacity="1"/></g></g></g></g></g></svg>