<svg xmlns="http://www.w3.org/2000/svg" xmlns:xlink="http://www.w3.org/1999/xlink" fill="none" version="1.1" width="52" height="52" viewBox="0 0 52 52"><g style="mix-blend-mode:passthrough"><path d="M46.5167,63.8453Q46.7437,63.9764,46.9517,64.136Q47.1597,64.29560000000001,47.3451,64.481Q47.5305,64.6664,47.6901,64.8744Q47.8497,65.0824,47.9808,65.3094Q48.1118,65.5365,48.2122,65.7787Q48.3125,66.0209,48.3804,66.2741Q48.4482,66.5274,48.4824,66.7873Q48.5167,67.0472,48.5167,67.3094L48.5167,88.6906Q48.5167,88.9528,48.4824,89.2127Q48.4482,89.4726,48.3804,89.7259Q48.3125,89.9791,48.2122,90.2213Q48.1118,90.4636,47.9808,90.6906Q47.8497,90.9176,47.6901,91.12559999999999Q47.5305,91.33359999999999,47.3451,91.519Q47.1597,91.70439999999999,46.9517,91.864Q46.7437,92.0236,46.5167,92.15469999999999L28,102.84530000000001Q27.773,102.9764,27.5307,103.0767Q27.2885,103.17699999999999,27.0353,103.2449Q26.782,103.31280000000001,26.5221,103.34700000000001Q26.2622,103.3812,26,103.3812Q25.7378,103.3812,25.4779,103.34700000000001Q25.218,103.31280000000001,24.9647,103.2449Q24.7115,103.17699999999999,24.4693,103.0767Q24.227,102.9764,24,102.84530000000001L5.48334,92.15469999999999Q5.25629,92.0236,5.04829,91.864Q4.8403,91.70439999999999,4.65491,91.519Q4.46953,91.33359999999999,4.30993,91.12559999999999Q4.15032,90.9176,4.01924,90.6906Q3.88815,90.4636,3.78782,90.2213Q3.68749,89.9791,3.61964,89.7259Q3.55178,89.4726,3.51756,89.2127Q3.48334,88.9528,3.48334,88.6906L3.48334,67.3094Q3.48334,67.0472,3.51756,66.7873Q3.55178,66.5274,3.61964,66.2741Q3.68749,66.0209,3.78782,65.7787Q3.88815,65.5365,4.01924,65.3094Q4.15032,65.0824,4.30993,64.8744Q4.46953,64.6664,4.65491,64.481Q4.8403,64.29560000000001,5.04829,64.136Q5.25629,63.9764,5.48334,63.8453L24,53.1547Q24.227,53.02361,24.4693,52.923284Q24.7115,52.822955,24.9647,52.755099Q25.218,52.687243,25.4779,52.653023Q25.7378,52.618802,26,52.618802Q26.2622,52.618802,26.5221,52.653023Q26.782,52.687243,27.0353,52.755099Q27.2885,52.822955,27.5307,52.923284Q27.773,53.02361,28,53.1547L46.5167,63.8453Z" transform="matrix(0,-1,1,0,-52,52)" fill="#00C155" fill-opacity="1"/></g></svg>