<svg xmlns="http://www.w3.org/2000/svg" xmlns:xlink="http://www.w3.org/1999/xlink" fill="none" version="1.1" width="91.96142578125" height="100" viewBox="0 0 91.96142578125 100"><defs><filter id="master_svg0_668_5815" filterUnits="objectBoundingBox" color-interpolation-filters="sRGB" x="-20" y="-16" width="91.9615249633789" height="100"><feFlood flood-opacity="0" result="BackgroundImageFix"/><feColorMatrix in="SourceAlpha" type="matrix" values="0 0 0 0 0 0 0 0 0 0 0 0 0 0 0 0 0 0 127 0"/><feOffset dy="4" dx="0"/><feGaussianBlur stdDeviation="5"/><feColorMatrix type="matrix" values="0 0 0 0 0 0 0 0 0 0.7568627595901489 0 0 0 0 0.3333333432674408 0 0 0 0.30000001192092896 0"/><feBlend mode="normal" in2="BackgroundImageFix" result="effect1_dropShadow"/><feBlend mode="normal" in="SourceGraphic" in2="effect1_dropShadow" result="shape"/></filter><filter id="master_svg1_668_5814" filterUnits="objectBoundingBox" color-interpolation-filters="sRGB" x="-20" y="-16" width="91.9615249633789" height="100"><feFlood flood-opacity="0" result="BackgroundImageFix"/><feColorMatrix in="SourceAlpha" type="matrix" values="0 0 0 0 0 0 0 0 0 0 0 0 0 0 0 0 0 0 127 0"/><feOffset dy="4" dx="0"/><feGaussianBlur stdDeviation="5"/><feColorMatrix type="matrix" values="0 0 0 0 0 0 0 0 0 0.7568627595901489 0 0 0 0 0.3333333432674408 0 0 0 0.30000001192092896 0"/><feBlend mode="normal" in2="BackgroundImageFix" result="effect1_dropShadow"/><feBlend mode="normal" in="SourceGraphic" in2="effect1_dropShadow" result="shape"/></filter></defs><g style="mix-blend-mode:passthrough"><g style="mix-blend-mode:passthrough"><g style="mix-blend-mode:passthrough" filter="url(#master_svg0_668_5815)"><path d="M45.9808,16L71.9615,31L71.9615,61L45.9808,76L20.000000953674,61L20,31L45.9808,16Z" fill="#FFFFFF" fill-opacity="1"/></g><g style="mix-blend-mode:passthrough" filter="url(#master_svg1_668_5814)"><path d="M45.9808,16L71.9615,31L71.9615,61L45.9808,76L20.000000953674,61L20,31L45.9808,16ZM45.9808,18.3094L69.9615,32.1547L69.9615,59.8453L45.9808,73.6906L22,59.8453L22,32.1547L45.9808,18.3094Z" fill-rule="evenodd" fill="#00C155" fill-opacity="1"/></g><g style="mix-blend-mode:passthrough"><path d="M58.997712890624996,51.1533Q59.980712890625,48.6704,59.980712890625,46Q59.980712890625,43.3296,58.997712890624996,40.84667Q57.930412890625,38.15075,55.880212890625,36.1005Q53.829912890624996,34.05025,51.134012890625,32.982964Q48.651112890625,32,45.980712890625,32Q43.310312890625,31.9999999370215,40.827382890625,32.982964Q38.131472890625,34.05025,36.081212890625,36.1005Q34.030962890625,38.15076,32.963676890625,40.84667Q31.980713016582,43.3296,31.980712890625,46Q31.9807128276465,48.6704,32.963676890625,51.1533Q34.030962890625,53.849199999999996,36.081212890625,55.8995Q38.131462890625,57.9497,40.827382890625,59.016999999999996Q43.310312890625,60,45.980712890625,60Q48.651112890625,60,51.134012890625,59.016999999999996Q53.829912890624996,57.9497,55.880212890625,55.8995Q57.930512890624996,53.849199999999996,58.997712890624996,51.1533ZM57.524112890625,41.43007Q58.395812890624995,43.6319,58.395812890624995,46Q58.395812890624995,48.3681,57.524112890625,50.569900000000004Q56.577612890625005,52.9607,54.759512890625004,54.778800000000004Q52.941412890625,56.596900000000005,50.550612890625004,57.5434Q48.348812890625,58.415099999999995,45.980712890625,58.415099999999995Q43.612612890625,58.415099999999995,41.410782890625,57.5434Q39.020052890625,56.596900000000005,37.201912890624996,54.778800000000004Q35.383762890625,52.9606,34.437302890625,50.569900000000004Q33.565622890625,48.3681,33.565622890625,46Q33.565622890625,43.6319,34.437302890625,41.43007Q35.383762890625,39.03935,37.201912890624996,37.221199999999996Q39.020062890625,35.403059999999996,41.410782890625,34.45659Q43.612612890625,33.58491,45.980712890625,33.58491Q48.348812890625,33.58491,50.550612890625004,34.45659Q52.941312890625,35.40305,54.759512890625004,37.221199999999996Q56.577612890625005,39.03934,57.524112890625,41.43007Z" fill-rule="evenodd" fill="#000000" fill-opacity="1"/></g><g style="mix-blend-mode:passthrough" transform="matrix(0,1,-1,0,92.33698844909668,-12.311281204223633)"><path d="M64.29453482666015,48.434623622436526Q64.26533482666015,47.97231362243652,64.02163482666016,47.57836362243653L59.88379482666016,40.88917462243652Q59.649184826660154,40.509906622436525,59.267474826660155,40.27928462243652Q58.82649482666016,40.01285360669193,58.311284826660156,40.012853653925724Q57.79606482666016,40.012853716904225,57.35508482666015,40.27928462243652Q56.973374826660155,40.50990562243652,56.73876482666016,40.88917462243652L52.60092682666016,47.57836362243653Q52.35723472666016,47.97231362243652,52.32805511666016,48.434623622436526Q52.293839326660155,48.97672362243652,52.558253826660156,49.45119362243652Q52.822666826660154,49.92567362243652,53.301691826660154,50.181753622436524Q53.710214826660156,50.40015362243652,54.173434826660156,50.40015362243652L62.449134826660156,50.40015362243652Q62.91233482666016,50.40015362243652,63.32083482666016,50.181753622436524Q63.799934826660156,49.92567362243652,64.06433482666016,49.45119362243652Q64.32873482666015,48.97672362243652,64.29453482666015,48.434623622436526ZM58.53592482666016,41.722943622436524L62.67373482666016,48.41213362243652Q62.75543482666016,48.54411362243653,62.679834826660155,48.67968362243652Q62.60433482666016,48.815243622436526,62.449134826660156,48.815243622436526L54.173434826660156,48.815243622436526Q54.01824482666016,48.815243622436526,53.94269482666016,48.67968362243652Q53.867154826660155,48.54411362243653,53.948794826660155,48.41213362243652L58.08663482666016,41.722943622436524Q58.164074826660155,41.597763622436524,58.311284826660156,41.597763622436524Q58.458484826660154,41.597763622436524,58.53592482666016,41.722943622436524Z" fill-rule="evenodd" fill="#000000" fill-opacity="1"/></g></g></g></svg>