<svg xmlns="http://www.w3.org/2000/svg" xmlns:xlink="http://www.w3.org/1999/xlink" fill="none" version="1.1" width="39.596923828125" height="39.3896484375" viewBox="0 0 39.596923828125 39.3896484375"><g style="mix-blend-mode:passthrough"><g style="mix-blend-mode:passthrough"><g style="mix-blend-mode:passthrough"><g style="mix-blend-mode:passthrough"><rect x="1.5" y="9.724190711975098" width="28.164731979370117" height="28.164779663085938" rx="2" fill-opacity="0" stroke-opacity="1" stroke="#000000" fill="none" stroke-width="3"/></g></g><g style="mix-blend-mode:passthrough"><g style="mix-blend-mode:passthrough" transform="matrix(0,1,-1,0,32.39703035354614,1.1337409019470215)"><path d="M29.71404472579956,18.265385627746582L15.63164472579956,18.265385627746582L15.63164472579956,15.265385627746582L29.71404472579956,15.265385627746582L29.71404472579956,18.265385627746582ZM31.21404472579956,16.765385627746582Q31.21404472579956,16.83907592774658,31.206844725799563,16.912411627746582Q31.199544725799562,16.985746627746583,31.18524472579956,17.058020627746583Q31.17084472579956,17.13029562774658,31.14944472579956,17.200812627746583Q31.128044725799562,17.27132962774658,31.09984472579956,17.33941062774658Q31.07164472579956,17.40749162774658,31.03694472579956,17.47248062774658Q31.00214472579956,17.53746962774658,30.96124472579956,17.598740627746583Q30.92034472579956,17.660012627746582,30.87354472579956,17.71697562774658Q30.82684472579956,17.77393562774658,30.77464472579956,17.82604562774658Q30.72254472579956,17.878155627746583,30.66564472579956,17.924905627746583Q30.60864472579956,17.971645627746582,30.54734472579956,18.01258562774658Q30.486144725799562,18.05352562774658,30.42114472579956,18.088265627746583Q30.35614472579956,18.123005627746583,30.28804472579956,18.15120562774658Q30.21994472579956,18.179405627746583,30.14944472579956,18.200795627746583Q30.07894472579956,18.222185627746583,30.00664472579956,18.236565627746582Q29.93444472579956,18.250935627746582,29.86104472579956,18.258165627746582Q29.787744725799563,18.265385627746582,29.71404472579956,18.265385627746582Q29.640344725799558,18.265385627746582,29.567044725799562,18.258165627746582Q29.493644725799562,18.250935627746582,29.42144472579956,18.236565627746582Q29.34914472579956,18.222185627746583,29.27864472579956,18.200795627746583Q29.20804472579956,18.179405627746583,29.140044725799562,18.15120562774658Q29.07194472579956,18.123005627746583,29.00694472579956,18.088265627746583Q28.94194472579956,18.05352562774658,28.880644725799563,18.01258562774658Q28.81944472579956,17.971645627746582,28.76244472579956,17.924905627746583Q28.70544472579956,17.878155627746583,28.65334472579956,17.82604562774658Q28.60124472579956,17.77393562774658,28.55454472579956,17.71697562774658Q28.50774472579956,17.660012627746582,28.46684472579956,17.598740627746583Q28.42584472579956,17.53746962774658,28.39114472579956,17.47248062774658Q28.356444725799562,17.40749162774658,28.32824472579956,17.33941062774658Q28.30004472579956,17.27132962774658,28.27864472579956,17.200812627746583Q28.25724472579956,17.13029562774658,28.24284472579956,17.058020627746583Q28.228444725799562,16.985746627746583,28.22124472579956,16.912411627746582Q28.21404472579956,16.83907592774658,28.21404472579956,16.765385627746582Q28.21404472579956,16.691695327746583,28.22124472579956,16.61835962774658Q28.228444725799562,16.54502462774658,28.24284472579956,16.47275062774658Q28.25724472579956,16.400475627746584,28.27864472579956,16.32995862774658Q28.30004472579956,16.259441627746583,28.32824472579956,16.191360627746583Q28.356444725799562,16.123279627746584,28.39114472579956,16.058290627746583Q28.42584472579956,15.993301627746582,28.46684472579956,15.932030627746583Q28.50774472579956,15.870758627746582,28.55454472579956,15.813795627746583Q28.60124472579956,15.756835627746582,28.65334472579956,15.704725627746582Q28.70544472579956,15.652615627746583,28.76244472579956,15.605865627746581Q28.81944472579956,15.559125627746582,28.880644725799563,15.518185627746583Q28.94194472579956,15.477245627746582,29.00694472579956,15.442505627746582Q29.07194472579956,15.407765627746581,29.140044725799562,15.379565627746581Q29.20804472579956,15.351365627746581,29.27864472579956,15.329975627746581Q29.34914472579956,15.308585627746583,29.42144472579956,15.294205627746582Q29.493644725799562,15.279835627746582,29.567044725799562,15.272605627746582Q29.640344725799558,15.265385627746582,29.71404472579956,15.265385627746582Q29.787744725799563,15.265385627746582,29.86104472579956,15.272605627746582Q29.93444472579956,15.279835627746582,30.00664472579956,15.294205627746582Q30.07894472579956,15.308585627746583,30.14944472579956,15.329975627746581Q30.21994472579956,15.351365627746581,30.28804472579956,15.379565627746581Q30.35614472579956,15.407765627746581,30.42114472579956,15.442505627746582Q30.486144725799562,15.477245627746582,30.54734472579956,15.518185627746583Q30.60864472579956,15.559125627746582,30.66564472579956,15.605865627746581Q30.72254472579956,15.652615627746583,30.77464472579956,15.704725627746582Q30.82684472579956,15.756835627746582,30.87354472579956,15.813795627746583Q30.92034472579956,15.870758627746582,30.96124472579956,15.932030627746583Q31.00214472579956,15.993301627746582,31.03694472579956,16.058290627746583Q31.07164472579956,16.123279627746584,31.09984472579956,16.191360627746583Q31.128044725799562,16.259441627746583,31.14944472579956,16.32995862774658Q31.17084472579956,16.400475627746584,31.18524472579956,16.47275062774658Q31.199544725799562,16.54502462774658,31.206844725799563,16.61835962774658Q31.21404472579956,16.691695327746583,31.21404472579956,16.765385627746582ZM17.13164472579956,16.765385627746582Q17.13164472579956,16.83907592774658,17.12442472579956,16.912411627746582Q17.11719472579956,16.985746627746583,17.10282472579956,17.058020627746583Q17.08844472579956,17.13029562774658,17.06705472579956,17.200812627746583Q17.04566472579956,17.27132962774658,17.01746472579956,17.33941062774658Q16.98926472579956,17.40749162774658,16.954524725799562,17.47248062774658Q16.91978472579956,17.53746962774658,16.87884472579956,17.598740627746583Q16.83790472579956,17.660012627746582,16.79116472579956,17.71697562774658Q16.74441472579956,17.77393562774658,16.69230472579956,17.82604562774658Q16.64019472579956,17.878155627746583,16.58323472579956,17.924905627746583Q16.52627172579956,17.971645627746582,16.46499972579956,18.01258562774658Q16.40372872579956,18.05352562774658,16.33873972579956,18.088265627746583Q16.27375072579956,18.123005627746583,16.20566972579956,18.15120562774658Q16.13758872579956,18.179405627746583,16.06707172579956,18.200795627746583Q15.99655472579956,18.222185627746583,15.924279725799561,18.236565627746582Q15.852005725799561,18.250935627746582,15.77867072579956,18.258165627746582Q15.705335025799561,18.265385627746582,15.63164472579956,18.265385627746582Q15.55795442579956,18.265385627746582,15.48461872579956,18.258165627746582Q15.41128372579956,18.250935627746582,15.33900972579956,18.236565627746582Q15.26673472579956,18.222185627746583,15.19621772579956,18.200795627746583Q15.125700725799561,18.179405627746583,15.05761972579956,18.15120562774658Q14.98953872579956,18.123005627746583,14.92454972579956,18.088265627746583Q14.859560725799561,18.05352562774658,14.798289725799561,18.01258562774658Q14.73701772579956,17.971645627746582,14.680054725799561,17.924905627746583Q14.623094725799561,17.878155627746583,14.57098472579956,17.82604562774658Q14.518874725799561,17.77393562774658,14.47212472579956,17.71697562774658Q14.42538472579956,17.660012627746582,14.384444725799561,17.598740627746583Q14.34350472579956,17.53746962774658,14.308764725799561,17.47248062774658Q14.27402472579956,17.40749162774658,14.24582472579956,17.33941062774658Q14.21762472579956,17.27132962774658,14.19623472579956,17.200812627746583Q14.174844725799561,17.13029562774658,14.16046472579956,17.058020627746583Q14.14609472579956,16.985746627746583,14.13886472579956,16.912411627746582Q14.13164472579956,16.83907592774658,14.13164472579956,16.765385627746582Q14.13164472579956,16.691695327746583,14.13886472579956,16.61835962774658Q14.14609472579956,16.54502462774658,14.16046472579956,16.47275062774658Q14.174844725799561,16.400475627746584,14.19623472579956,16.32995862774658Q14.21762472579956,16.259441627746583,14.24582472579956,16.191360627746583Q14.27402472579956,16.123279627746584,14.308764725799561,16.058290627746583Q14.34350472579956,15.993301627746582,14.384444725799561,15.932030627746583Q14.42538472579956,15.870758627746582,14.47212472579956,15.813795627746583Q14.518874725799561,15.756835627746582,14.57098472579956,15.704725627746582Q14.623094725799561,15.652615627746583,14.680054725799561,15.605865627746581Q14.73701772579956,15.559125627746582,14.798289725799561,15.518185627746583Q14.859560725799561,15.477245627746582,14.92454972579956,15.442505627746582Q14.98953872579956,15.407765627746581,15.05761972579956,15.379565627746581Q15.125700725799561,15.351365627746581,15.19621772579956,15.329975627746581Q15.26673472579956,15.308585627746583,15.33900972579956,15.294205627746582Q15.41128372579956,15.279835627746582,15.48461872579956,15.272605627746582Q15.55795442579956,15.265385627746582,15.63164472579956,15.265385627746582Q15.705335025799561,15.265385627746582,15.77867072579956,15.272605627746582Q15.852005725799561,15.279835627746582,15.924279725799561,15.294205627746582Q15.99655472579956,15.308585627746583,16.06707172579956,15.329975627746581Q16.13758872579956,15.351365627746581,16.20566972579956,15.379565627746581Q16.27375072579956,15.407765627746581,16.33873972579956,15.442505627746582Q16.40372872579956,15.477245627746582,16.46499972579956,15.518185627746583Q16.52627172579956,15.559125627746582,16.58323472579956,15.605865627746581Q16.64019472579956,15.652615627746583,16.69230472579956,15.704725627746582Q16.74441472579956,15.756835627746582,16.79116472579956,15.813795627746583Q16.83790472579956,15.870758627746582,16.87884472579956,15.932030627746583Q16.91978472579956,15.993301627746582,16.954524725799562,16.058290627746583Q16.98926472579956,16.123279627746584,17.01746472579956,16.191360627746583Q17.04566472579956,16.259441627746583,17.06705472579956,16.32995862774658Q17.08844472579956,16.400475627746584,17.10282472579956,16.47275062774658Q17.11719472579956,16.54502462774658,17.12442472579956,16.61835962774658Q17.13164472579956,16.691695327746583,17.13164472579956,16.765385627746582Z" fill="#000000" fill-opacity="1"/></g><g style="mix-blend-mode:passthrough" transform="matrix(-1,0,0,-1,45.247097969055176,47.711947441101074)"><path d="M36.70594898452759,25.355973720550537L22.623548984527588,25.355973720550537L22.623548984527588,22.355973720550537L36.70594898452759,22.355973720550537L36.70594898452759,25.355973720550537ZM38.20594898452759,23.855973720550537Q38.20594898452759,23.929664020550536,38.19874898452759,24.002999720550537Q38.19144898452759,24.076334720550538,38.17714898452759,24.148608720550538Q38.16274898452759,24.220883720550535,38.14134898452759,24.291400720550538Q38.11994898452759,24.361917720550537,38.091748984527584,24.429998720550536Q38.063548984527586,24.498079720550535,38.028848984527585,24.563068720550536Q37.99404898452759,24.628057720550537,37.95314898452759,24.689328720550538Q37.91224898452759,24.750600720550537,37.86544898452759,24.807563720550537Q37.81874898452759,24.864523720550537,37.76654898452759,24.916633720550536Q37.714448984527586,24.96874372055054,37.65754898452759,25.015493720550538Q37.60054898452759,25.062233720550537,37.53924898452759,25.103173720550537Q37.47804898452759,25.144113720550536,37.41304898452759,25.17885372055054Q37.34804898452759,25.213593720550538,37.279948984527586,25.241793720550536Q37.21184898452759,25.269993720550538,37.14134898452759,25.291383720550538Q37.070848984527586,25.31277372055054,36.99854898452759,25.327153720550537Q36.926348984527586,25.341523720550537,36.852948984527586,25.348753720550537Q36.77964898452759,25.355973720550537,36.70594898452759,25.355973720550537Q36.632248984527585,25.355973720550537,36.55894898452759,25.348753720550537Q36.48554898452759,25.341523720550537,36.41334898452759,25.327153720550537Q36.34104898452759,25.31277372055054,36.270548984527586,25.291383720550538Q36.19994898452759,25.269993720550538,36.13194898452759,25.241793720550536Q36.06384898452759,25.213593720550538,35.998848984527584,25.17885372055054Q35.933848984527586,25.144113720550536,35.87254898452759,25.103173720550537Q35.811348984527584,25.062233720550537,35.75434898452759,25.015493720550538Q35.697348984527586,24.96874372055054,35.64524898452758,24.916633720550536Q35.59314898452759,24.864523720550537,35.546448984527586,24.807563720550537Q35.49964898452759,24.750600720550537,35.45874898452759,24.689328720550538Q35.41774898452759,24.628057720550537,35.38304898452759,24.563068720550536Q35.34834898452759,24.498079720550535,35.32014898452759,24.429998720550536Q35.291948984527586,24.361917720550537,35.270548984527586,24.291400720550538Q35.24914898452759,24.220883720550535,35.234748984527585,24.148608720550538Q35.22034898452759,24.076334720550538,35.21314898452759,24.002999720550537Q35.20594898452759,23.929664020550536,35.20594898452759,23.855973720550537Q35.20594898452759,23.782283420550538,35.21314898452759,23.708947720550537Q35.22034898452759,23.635612720550537,35.234748984527585,23.563338720550536Q35.24914898452759,23.49106372055054,35.270548984527586,23.420546720550536Q35.291948984527586,23.350029720550538,35.32014898452759,23.281948720550538Q35.34834898452759,23.21386772055054,35.38304898452759,23.148878720550538Q35.41774898452759,23.083889720550538,35.45874898452759,23.022618720550536Q35.49964898452759,22.961346720550537,35.546448984527586,22.904383720550538Q35.59314898452759,22.847423720550537,35.64524898452758,22.79531372055054Q35.697348984527586,22.743203720550536,35.75434898452759,22.696453720550537Q35.811348984527584,22.649713720550537,35.87254898452759,22.608773720550538Q35.933848984527586,22.56783372055054,35.998848984527584,22.533093720550536Q36.06384898452759,22.498353720550536,36.13194898452759,22.470153720550538Q36.19994898452759,22.441953720550536,36.270548984527586,22.420563720550536Q36.34104898452759,22.399173720550536,36.41334898452759,22.384793720550537Q36.48554898452759,22.370423720550537,36.55894898452759,22.363193720550537Q36.632248984527585,22.355973720550537,36.70594898452759,22.355973720550537Q36.77964898452759,22.355973720550537,36.852948984527586,22.363193720550537Q36.926348984527586,22.370423720550537,36.99854898452759,22.384793720550537Q37.070848984527586,22.399173720550536,37.14134898452759,22.420563720550536Q37.21184898452759,22.441953720550536,37.279948984527586,22.470153720550538Q37.34804898452759,22.498353720550536,37.41304898452759,22.533093720550536Q37.47804898452759,22.56783372055054,37.53924898452759,22.608773720550538Q37.60054898452759,22.649713720550537,37.65754898452759,22.696453720550537Q37.714448984527586,22.743203720550536,37.76654898452759,22.79531372055054Q37.81874898452759,22.847423720550537,37.86544898452759,22.904383720550538Q37.91224898452759,22.961346720550537,37.95314898452759,23.022618720550536Q37.99404898452759,23.083889720550538,38.028848984527585,23.148878720550538Q38.063548984527586,23.21386772055054,38.091748984527584,23.281948720550538Q38.11994898452759,23.350029720550538,38.14134898452759,23.420546720550536Q38.16274898452759,23.49106372055054,38.17714898452759,23.563338720550536Q38.19144898452759,23.635612720550537,38.19874898452759,23.708947720550537Q38.20594898452759,23.782283420550538,38.20594898452759,23.855973720550537ZM24.123548984527588,23.855973720550537Q24.123548984527588,23.929664020550536,24.116328984527588,24.002999720550537Q24.109098984527588,24.076334720550538,24.09472898452759,24.148608720550538Q24.08034898452759,24.220883720550535,24.05895898452759,24.291400720550538Q24.03756898452759,24.361917720550537,24.009368984527587,24.429998720550536Q23.98116898452759,24.498079720550535,23.94642898452759,24.563068720550536Q23.911688984527586,24.628057720550537,23.870748984527587,24.689328720550538Q23.829808984527588,24.750600720550537,23.78306898452759,24.807563720550537Q23.73631898452759,24.864523720550537,23.684208984527586,24.916633720550536Q23.632098984527588,24.96874372055054,23.575138984527587,25.015493720550538Q23.518175984527588,25.062233720550537,23.45690398452759,25.103173720550537Q23.395632984527587,25.144113720550536,23.330643984527587,25.17885372055054Q23.265654984527586,25.213593720550538,23.197573984527587,25.241793720550536Q23.129492984527587,25.269993720550538,23.05897598452759,25.291383720550538Q22.988458984527586,25.31277372055054,22.91618398452759,25.327153720550537Q22.84390998452759,25.341523720550537,22.770574984527588,25.348753720550537Q22.697239284527587,25.355973720550537,22.623548984527588,25.355973720550537Q22.54985868452759,25.355973720550537,22.476522984527588,25.348753720550537Q22.403187984527587,25.341523720550537,22.330913984527587,25.327153720550537Q22.25863898452759,25.31277372055054,22.188121984527587,25.291383720550538Q22.11760498452759,25.269993720550538,22.04952398452759,25.241793720550536Q21.98144298452759,25.213593720550538,21.91645398452759,25.17885372055054Q21.85146498452759,25.144113720550536,21.790193984527587,25.103173720550537Q21.728921984527588,25.062233720550537,21.67195898452759,25.015493720550538Q21.61499898452759,24.96874372055054,21.56288898452759,24.916633720550536Q21.510778984527587,24.864523720550537,21.464028984527587,24.807563720550537Q21.417288984527588,24.750600720550537,21.37634898452759,24.689328720550538Q21.33540898452759,24.628057720550537,21.300668984527587,24.563068720550536Q21.265928984527587,24.498079720550535,21.23772898452759,24.429998720550536Q21.209528984527587,24.361917720550537,21.188138984527587,24.291400720550538Q21.166748984527587,24.220883720550535,21.152368984527588,24.148608720550538Q21.137998984527588,24.076334720550538,21.130768984527588,24.002999720550537Q21.123548984527588,23.929664020550536,21.123548984527588,23.855973720550537Q21.123548984527588,23.782283420550538,21.130768984527588,23.708947720550537Q21.137998984527588,23.635612720550537,21.152368984527588,23.563338720550536Q21.166748984527587,23.49106372055054,21.188138984527587,23.420546720550536Q21.209528984527587,23.350029720550538,21.23772898452759,23.281948720550538Q21.265928984527587,23.21386772055054,21.300668984527587,23.148878720550538Q21.33540898452759,23.083889720550538,21.37634898452759,23.022618720550536Q21.417288984527588,22.961346720550537,21.464028984527587,22.904383720550538Q21.510778984527587,22.847423720550537,21.56288898452759,22.79531372055054Q21.61499898452759,22.743203720550536,21.67195898452759,22.696453720550537Q21.728921984527588,22.649713720550537,21.790193984527587,22.608773720550538Q21.85146498452759,22.56783372055054,21.91645398452759,22.533093720550536Q21.98144298452759,22.498353720550536,22.04952398452759,22.470153720550538Q22.11760498452759,22.441953720550536,22.188121984527587,22.420563720550536Q22.25863898452759,22.399173720550536,22.330913984527587,22.384793720550537Q22.403187984527587,22.370423720550537,22.476522984527588,22.363193720550537Q22.54985868452759,22.355973720550537,22.623548984527588,22.355973720550537Q22.697239284527587,22.355973720550537,22.770574984527588,22.363193720550537Q22.84390998452759,22.370423720550537,22.91618398452759,22.384793720550537Q22.988458984527586,22.399173720550536,23.05897598452759,22.420563720550536Q23.129492984527587,22.441953720550536,23.197573984527587,22.470153720550538Q23.265654984527586,22.498353720550536,23.330643984527587,22.533093720550536Q23.395632984527587,22.56783372055054,23.45690398452759,22.608773720550538Q23.518175984527588,22.649713720550537,23.575138984527587,22.696453720550537Q23.632098984527588,22.743203720550536,23.684208984527586,22.79531372055054Q23.73631898452759,22.847423720550537,23.78306898452759,22.904383720550538Q23.829808984527588,22.961346720550537,23.870748984527587,23.022618720550536Q23.911688984527586,23.083889720550538,23.94642898452759,23.148878720550538Q23.98116898452759,23.21386772055054,24.009368984527587,23.281948720550538Q24.03756898452759,23.350029720550538,24.05895898452759,23.420546720550536Q24.08034898452759,23.49106372055054,24.09472898452759,23.563338720550536Q24.109098984527588,23.635612720550537,24.116328984527588,23.708947720550537Q24.123548984527588,23.782283420550538,24.123548984527588,23.855973720550537Z" fill="#000000" fill-opacity="1"/></g></g></g><g style="mix-blend-mode:passthrough"><g style="mix-blend-mode:passthrough"><g style="mix-blend-mode:passthrough"><path d="M8.432130813598633,9.76044L8.432130813598633,3.5Q8.432130813598633,2.050253,9.457256813598633,1.025126Q10.482383813598632,0,11.932130813598633,0L36.09683081359863,0Q37.54663081359863,0,38.571730813598634,1.025126Q39.59683081359863,2.050253,39.59683081359863,3.5L39.59683081359863,27.6648Q39.59683081359863,29.1145,38.571730813598634,30.1397Q37.54663081359863,31.1648,36.09683081359863,31.1648L29.90363081359863,31.1648L29.90363081359863,28.1648L36.09683081359863,28.1648Q36.30393081359863,28.1648,36.45043081359863,28.0183Q36.59683081359863,27.8719,36.59683081359863,27.6648L36.59683081359863,3.5Q36.59683081359863,3.29289,36.45043081359863,3.1464499999999997Q36.30393081359863,3,36.09683081359863,3L11.932130813598633,3Q11.725020813598633,3,11.578580813598633,3.1464499999999997Q11.432130813598633,3.29289,11.432130813598633,3.5L11.432130813598633,9.76044L8.432130813598633,9.76044Z" fill="#000000" fill-opacity="1"/></g></g></g></g></svg>