<svg xmlns="http://www.w3.org/2000/svg"
    xmlns:xlink="http://www.w3.org/1999/xlink"  version="1.1" width="24.097900390625" height="24.09765625" viewBox="0 0 24.097900390625 24.09765625">
    <g style="mix-blend-mode:passthrough">
        <path d="M4.50181,1.55469C4.50181,0.696057,5.21318,0,6.09066,0L22.509,0C23.3865,0,24.0979,0.696057,24.0979,1.55469L24.0979,17.6198C24.0979,18.4784,23.3865,19.1745,22.509,19.1745L18.0072,19.1745L18.0072,23.3203C18.0072,23.7496,17.6516,24.0977,17.2128,24.0977L0.794436,24.0977C0.355681,24.0977,0,23.7496,0,23.3203L0,7.2552C0,6.8259,0.355681,6.47785,0.794436,6.47785L4.50181,6.47785L4.50181,1.55469ZM22.509,17.6198L18.0072,17.6198L18.0072,7.2552C18.0072,6.8259,17.6516,6.47785,17.2128,6.47785L6.09066,6.47785L6.09066,1.55469L22.509,1.55469L22.509,17.6198ZM1.58887,8.03255L1.58887,22.543L16.4183,22.543L16.4183,8.03255L1.58887,8.03255ZM9.53325,10.8828C9.53325,10.4535,9.17757,10.1055,8.73878,10.1055C8.30004,10.1055,7.94435,10.4535,7.94435,10.8828L7.94435,14.2513L4.50181,14.2513C4.06307,14.2513,3.70737,14.5993,3.70737,15.0286C3.70737,15.458,4.06307,15.806,4.50181,15.806L7.94435,15.806L7.94435,19.1745C7.94435,19.6038,8.30004,19.9518,8.73878,19.9518C9.17757,19.9518,9.53325,19.6038,9.53325,19.1745L9.53325,15.806L12.9758,15.806C13.4145,15.806,13.7702,15.458,13.7702,15.0287C13.7702,14.5993,13.4145,14.2513,12.9758,14.2513L9.53325,14.2513L9.53325,10.8828Z" fill-rule="evenodd"  fill-opacity="1"/>
    </g>
</svg>