<svg xmlns="http://www.w3.org/2000/svg" xmlns:xlink="http://www.w3.org/1999/xlink" fill="none" version="1.1" width="40" height="40" viewBox="0 0 40 40"><g style="mix-blend-mode:passthrough"><path d="M1.7229,1.7229Q0,3.4458,0,5.88235L0,34.1176Q0,36.5542,1.7229,38.2771Q3.4458,40,5.88235,40L34.1176,40Q36.5542,40,38.2771,38.2771Q40,36.5542,40,34.1176L40,5.88235Q40,3.4458,38.2771,1.7229Q36.5542,0,34.1176,0L5.88235,0Q3.4458,0,1.7229,1.7229ZM2.35294,34.1176L2.35294,5.88235Q2.35294,4.42042,3.38668,3.38668Q4.42042,2.35294,5.88235,2.35294L34.1176,2.35294Q35.5796,2.35294,36.6133,3.38668Q37.6471,4.42042,37.6471,5.88235L37.6471,34.1176Q37.6471,35.5796,36.6133,36.6133Q35.5796,37.6471,34.1176,37.6471L5.88235,37.6471Q4.42042,37.6471,3.38668,36.6133Q2.35294,35.5796,2.35294,34.1176ZM26.5426,16.4156Q27.0658,15.0941,27.0658,13.6729Q27.0658,12.2517,26.5426,10.9302Q25.9746,9.49544,24.8834,8.40427Q23.7923,7.3131,22.3575,6.74507Q21.036,6.22192,19.6148,6.22192Q18.1936,6.22192,16.8721,6.74507Q15.4373,7.3131,14.3462,8.40427Q13.255,9.49544,12.687,10.9302Q12.1638,12.2517,12.1638,13.6729Q12.1638,15.0941,12.687,16.4156Q13.255,17.8504,14.3462,18.9415Q14.696,19.2913,15.0811,19.5874Q14.8279,19.6824,14.5771,19.7885Q12.2545,20.7708,10.464,22.5614Q8.67343,24.3519,7.69105,26.6745Q6.67358,29.08,6.67358,31.7121C6.67358,32.3619,7.20031,32.8886,7.85005,32.8886C8.4998,32.8886,9.02653,32.3619,9.02653,31.7121Q9.02653,29.5572,9.85812,27.5911Q10.6617,25.6912,12.1277,24.2251Q13.5938,22.7591,15.4937,21.9555Q17.4598,21.1239,19.6148,21.1239Q23.0402,21.1239,25.8068,23.1222L25.8082,23.1232C26.0088,23.2681,26.2498,23.3461,26.4972,23.3461C27.147,23.3461,27.6737,22.8194,27.6737,22.1696C27.6737,21.7919,27.4924,21.4372,27.1862,21.216L27.1838,21.2143Q25.7449,20.1751,24.1608,19.5779Q24.5392,19.2858,24.8834,18.9415Q25.9746,17.8504,26.5426,16.4156ZM23.2197,10.068Q24.7128,11.5612,24.7128,13.6729Q24.7128,15.7846,23.2197,17.2778Q21.7265,18.7709,19.6148,18.7709Q17.5031,18.7709,16.0099,17.2778Q14.5168,15.7846,14.5168,13.6729Q14.5168,11.5612,16.0099,10.068Q17.5031,8.57487,19.6148,8.57487Q21.7265,8.57487,23.2197,10.068ZM29.0577,26.832L31.8704,22.7665L33.8053,24.1052L33.1642,25.032L34.5943,26.0214L33.2556,27.9564L31.8255,26.967L30.9741,28.1976C32.1277,29.6402,32.2546,31.7233,31.1497,33.3203C29.8008,35.2701,27.1267,35.7571,25.177,34.4082C23.2272,33.0593,22.7402,30.3852,24.0891,28.4355C25.2177,26.8041,27.2741,26.1967,29.0577,26.832ZM29.5279,30.5303Q29.6719,31.3208,29.2147,31.9816Q28.7576,32.6424,27.967,32.7864Q27.1765,32.9304,26.5157,32.4732Q25.8549,32.0161,25.7109,31.2255Q25.5669,30.435,26.0241,29.7742Q26.4812,29.1134,27.2718,28.9694Q28.0623,28.8254,28.7231,29.2826Q29.3839,29.7397,29.5279,30.5303Z" fill-rule="evenodd" fill="#000000" fill-opacity="1"/></g></svg>