<svg xmlns="http://www.w3.org/2000/svg" xmlns:xlink="http://www.w3.org/1999/xlink" fill="none" version="1.1" width="41" height="41" viewBox="0 0 41 41"><g style="mix-blend-mode:passthrough"><g style="mix-blend-mode:passthrough"><path d="M0,2.5L0,9.48022C0,10.3087,0.671573,10.9802,1.5,10.9802C2.32843,10.9802,3,10.3087,3,9.48022L3,3L9.58691,3C10.4153,3,11.0869,2.32843,11.0869,1.5C11.0869,0.671573,10.4153,0,9.58691,0L2.5,0Q1.46447,-1.19209e-7,0.732233,0.732233Q0,1.46447,0,2.5ZM31.4492,0L38.5,0Q39.5355,-1.19209e-7,40.2678,0.732233Q41,1.46446,41,2.5L41,9.48022C41,10.3087,40.3284,10.9802,39.5,10.9802C38.6716,10.9802,38,10.3087,38,9.48022L38,3L31.4492,3C30.6208,3,29.9492,2.32843,29.9492,1.5C29.9492,0.671573,30.6208,0,31.4492,0ZM34.7643,13.4767C34.8955,13.2489,34.9646,12.9907,34.9646,12.7279C34.9646,11.8995,34.293,11.2279,33.4646,11.2279C32.9282,11.2279,32.4326,11.5143,32.1649,11.9791L32.1646,11.9796L25.0999,24.2427Q24.9804,24.4502,24.7438,24.4871Q24.5071,24.524,24.3301,24.3628L17.24,17.9088Q16.0353,16.8122,14.4222,17.026Q12.8063,17.2401,11.9316,18.6165Q6.6938,26.8583,6.30687,27.4114L6.30651,27.412C6.13005,27.6641,6.0354,27.9644,6.0354,28.2721C6.0354,29.1005,6.70697,29.7721,7.5354,29.7721C8.0249,29.7721,8.4836,29.5333,8.76429,29.1322L8.76462,29.1318L8.76514,29.131Q9.19269,28.5194,14.4635,20.2256Q14.5877,20.0303,14.8164,20Q15.047,19.9694,15.2205,20.1273L22.3106,26.5813Q23.5502,27.7097,25.2064,27.4512Q26.8626,27.1927,27.6994,25.7402L34.7641,13.4771L34.7643,13.4767ZM0,31.4553C0,30.6269,0.671573,29.9553,1.5,29.9553C2.32843,29.9553,3,30.6269,3,31.4553L3,38L9.55859,38C10.387,38,11.0586,38.6716,11.0586,39.5C11.0586,40.3284,10.387,41,9.55859,41L2.5,41Q1.46446,41,0.732233,40.2678Q-1.19209e-7,39.5355,0,38.5L0,31.4553ZM38,31.4553C38,30.6269,38.6716,29.9553,39.5,29.9553C40.3284,29.9553,41,30.6269,41,31.4553L41,38.5Q41,39.5355,40.2678,40.2678Q39.5355,41,38.5,41L31.4211,41C30.5927,41,29.9211,40.3284,29.9211,39.5C29.9211,38.6716,30.5927,38,31.4211,38L38,38L38,31.4553Z" fill-rule="evenodd" fill="#000000" fill-opacity="1"/></g></g></svg>