<svg xmlns="http://www.w3.org/2000/svg" xmlns:xlink="http://www.w3.org/1999/xlink" fill="none" version="1.1" width="53" height="62.80908203125" viewBox="0 0 53 62.80908203125"><g style="mix-blend-mode:passthrough"><g style="mix-blend-mode:passthrough"><g style="mix-blend-mode:passthrough"><path d="M18.77278834411621,40.11569368286133L15.573568344116211,40.11569368286133L15.573568344116211,21.698993682861328L18.77278834411621,21.698993682861328L18.77278834411621,40.11569368286133ZM37.71416834411621,31.37282368286133Q37.71416834411621,34.01349368286133,36.77476834411621,36.002393682861324Q35.835268344116216,37.98289368286133,34.09176834411621,39.04929368286133Q32.34826834411621,40.11569368286133,30.07156834411621,40.11569368286133Q27.828768344116213,40.11569368286133,26.06836834411621,39.04929368286133Q24.307948344116213,37.98289368286133,23.35155834411621,36.01929368286133Q22.39517834411621,34.04729368286133,22.37825834411621,31.47438368286133L22.37825834411621,30.46722368286133Q22.37825834411621,27.843523682861328,23.33463834411621,25.83766368286133Q24.29947834411621,23.831803682861327,26.04296834411621,22.76540368286133Q27.78646834411621,21.698993682861328,30.04626834411621,21.698993682861328Q32.30596834411621,21.698993682861328,34.04946834411621,22.756933682861327Q35.801468344116216,23.80641368286133,36.749368344116206,25.78688368286133Q37.70576834411621,27.758893682861327,37.71416834411621,30.374123682861327L37.71416834411621,31.37282368286133ZM34.506468344116215,30.44183368286133Q34.506468344116215,27.50498368286133,33.33856834411621,25.939233682861328Q32.17906834411621,24.365013682861328,30.04626834411621,24.365013682861328Q27.96416834411621,24.365013682861328,26.78776834411621,25.93076368286133Q25.61976834411621,27.488053682861327,25.594368344116212,30.34873368286133L25.594368344116212,31.37282368286133Q25.594368344116212,34.29279368286133,26.77926834411621,35.88389368286133Q27.96416834411621,37.474993682861324,30.07156834411621,37.474993682861324Q32.20446834411621,37.474993682861324,33.35546834411621,35.91779368286133Q34.506468344116215,34.36049368286133,34.506468344116215,31.37282368286133L34.506468344116215,30.44183368286133Z" fill="#000000" fill-opacity="1"/></g><g style="mix-blend-mode:passthrough"><path d="M18.77278834411621,40.11569368286133L15.573568344116211,40.11569368286133L15.573568344116211,21.698993682861328L18.77278834411621,21.698993682861328L18.77278834411621,40.11569368286133ZM37.71416834411621,31.37282368286133Q37.71416834411621,34.01349368286133,36.77476834411621,36.002393682861324Q35.835268344116216,37.98289368286133,34.09176834411621,39.04929368286133Q32.34826834411621,40.11569368286133,30.07156834411621,40.11569368286133Q27.828768344116213,40.11569368286133,26.06836834411621,39.04929368286133Q24.307948344116213,37.98289368286133,23.35155834411621,36.01929368286133Q22.39517834411621,34.04729368286133,22.37825834411621,31.47438368286133L22.37825834411621,30.46722368286133Q22.37825834411621,27.843523682861328,23.33463834411621,25.83766368286133Q24.29947834411621,23.831803682861327,26.04296834411621,22.76540368286133Q27.78646834411621,21.698993682861328,30.04626834411621,21.698993682861328Q32.30596834411621,21.698993682861328,34.04946834411621,22.756933682861327Q35.801468344116216,23.80641368286133,36.749368344116206,25.78688368286133Q37.70576834411621,27.758893682861327,37.71416834411621,30.374123682861327L37.71416834411621,31.37282368286133ZM16.57356834411621,39.11569368286133L17.77278834411621,39.11569368286133L17.77278834411621,22.698993682861328L16.57356834411621,22.698993682861328L16.57356834411621,39.11569368286133ZM36.71416834411621,31.37282368286133L36.71416834411621,30.37736368286133Q36.70646834411621,27.990113682861328,35.84736834411621,26.218613682861328Q35.02936834411621,24.50961368286133,33.53076834411621,23.611853682861327Q32.02636834411621,22.698992682861327,30.04626834411621,22.698993682861328Q28.068068344116213,22.698993682861328,26.56476834411621,23.618473682861328Q25.07282834411621,24.531013682861328,24.23728834411621,26.26804368286133Q23.37825834411621,28.06972368286133,23.37825834411621,30.46722368286133L23.378238344116212,31.46780368286133Q23.39367834411621,33.814493682861325,24.25058834411621,35.58139368286133Q25.07798834411621,37.28019368286133,26.586468344116213,38.19399368286133Q28.108068344116212,39.11569368286133,30.07156834411621,39.11569368286133Q32.06676834411621,39.11569368286133,33.56996834411621,38.19619368286133Q35.05946834411621,37.285193682861326,35.87056834411621,35.57529368286133Q36.71416834411621,33.789193682861324,36.71416834411621,31.37282368286133ZM35.506468344116215,30.44183368286133L35.506468344116215,31.37282368286133Q35.506468344116215,34.689893682861324,34.15966834411621,36.51209368286133Q32.70876834411621,38.474993682861324,30.07156834411621,38.474993682861324Q27.46206834411621,38.474993682861324,25.97726834411621,36.48119368286133Q24.59439834411621,34.62419368286133,24.59439834411621,31.37282368286133L24.594438344116213,30.339863682861328Q24.62274834411621,27.150783682861327,25.98826834411621,25.33007368286133Q27.46476834411621,23.365013682861328,30.04626834411621,23.365013682861328Q32.68446834411621,23.365013682861328,34.140068344116216,25.341313682861326Q35.506468344116215,27.173093682861328,35.506468344116215,30.44183368286133ZM34.506468344116215,30.44183368286133Q34.506468344116215,27.50498368286133,33.33856834411621,25.939233682861328Q32.17906834411621,24.365013682861328,30.04626834411621,24.365013682861328Q27.96416834411621,24.365013682861328,26.78776834411621,25.93076368286133Q25.61976834411621,27.488053682861327,25.594368344116212,30.34873368286133L25.594368344116212,31.37282368286133Q25.594368344116212,34.29279368286133,26.77926834411621,35.88389368286133Q27.96416834411621,37.474993682861324,30.07156834411621,37.474993682861324Q32.20446834411621,37.474993682861324,33.35546834411621,35.91779368286133Q34.506468344116215,34.36049368286133,34.506468344116215,31.37282368286133L34.506468344116215,30.44183368286133Z" fill-rule="evenodd" fill="#000000" fill-opacity="1"/></g><g style="mix-blend-mode:passthrough"><path d="M52.3417,11.7724Q51.6876,11.0587,50.7222,10.9681Q35.3707,9.52855,28.4719,0.957071Q27.7202,0.02312,26.5095,0.000548601Q25.3041,-0.0219214,24.516,0.87592Q17.0396,9.39317,2.2555,10.9595Q1.30338,11.0604,0.657164,11.7666Q0,12.4849,0,13.4544L0,36.391Q0,51.0563,25.4852,62.5796Q26.5,63.0385,27.5149,62.5796Q53,51.0563,53,36.391L53,13.4649Q53,12.4907,52.3417,11.7724ZM50,13.912Q34.0562,12.3028,26.4467,3.21782Q18.3239,12.1613,3,13.8958L3,36.391Q3,49.0609,26.5,59.7458Q50,49.0609,50,36.391L50,13.912Z" fill-rule="evenodd" fill="#000000" fill-opacity="1"/></g></g></g></svg>