<!-- Generated by IcoMoon.io -->
<svg version="1.1" xmlns="http://www.w3.org/2000/svg" width="64" height="64" viewBox="0 0 64 64">
<title>D004</title>
<path d="M1.943 20c1.029 0 1.943-0.914 1.943-1.943v-14.171h14.171c1.029 0 1.943-0.914 1.943-1.943s-0.8-1.943-1.829-1.943h-16.229c-1.029 0-1.943 0.914-1.943 1.943v16.114c0 1.143 0.914 1.943 1.943 1.943z"></path>
<path d="M62.057 0h-16.114c-1.029 0-1.943 0.914-1.943 1.943s0.914 1.943 1.943 1.943h14.171v14.171c0 1.029 0.914 1.943 1.943 1.943s1.943-0.914 1.943-1.943v-16.114c0-1.029-0.914-1.943-1.943-1.943z"></path>
<path d="M18.171 60.114h-14.286v-14.286c0-1.029-0.914-1.943-1.943-1.943s-1.943 0.914-1.943 1.943v16.229c0 1.029 0.914 1.943 1.943 1.943h16.229c1.029 0 1.943-0.914 1.943-1.943 0-1.143-0.914-1.943-1.943-1.943z"></path>
<path d="M62.057 43.886c-1.029 0-1.943 0.914-1.943 1.943v14.286h-14.171c-1.029 0-1.943 0.914-1.943 1.943s0.914 1.943 1.943 1.943h16.114c1.029 0 1.943-0.914 1.943-1.943v-16.229c0-1.029-0.914-1.943-1.943-1.943z"></path>
<path d="M52.114 37.143c1.371 0 2.743-0.571 3.771-1.6s1.486-2.286 1.486-3.771c0-2.629-2.057-4.914-4.686-5.143-0.229 0-0.343 0-0.571 0-2.057 0-3.886 1.257-4.8 3.086h-5.6c-0.114 0-0.114-0.114-0.114-0.114v-2.286c0-2.743-2.286-5.029-5.029-5.029-1.257 0-2.629 0.571-3.657 1.6-0.914 0.914-1.371 2.171-1.371 3.429v17.029c0 0.343-0.343 0.686-0.686 0.686 0 0-0.114 0-0.114 0-0.343 0-0.571-0.343-0.571-0.686v-24.8c0-1.371-0.571-2.629-1.486-3.543s-2.171-1.486-3.543-1.486c-2.743 0.114-4.914 2.286-4.914 5.029v10.057c0 0.114-0.114 0.114-0.114 0.114h-3.543c-0.8-1.829-2.743-3.086-4.8-3.086-1.371 0-2.743 0.571-3.657 1.486-1.029 1.029-1.486 2.286-1.486 3.771 0.114 2.971 2.4 5.371 5.257 5.371 2.057 0 3.886-1.257 4.8-3.086h5.6c1.371 0 2.4-1.029 2.4-2.4v-12.229c0-0.343 0.229-0.686 0.686-0.686 0 0 0 0 0 0 0.343 0 0.686 0.343 0.686 0.686v24.8c0 2.743 2.286 5.029 5.029 5.029 0.229 0 0.457 0 0.686 0 2.514-0.343 4.343-2.514 4.343-5.029v-17.029c0-0.229 0-0.343 0.114-0.457 0.229-0.229 0.343-0.229 0.571-0.229 0.343 0 0.686 0.343 0.686 0.686v4.457c0 1.371 1.029 2.4 2.4 2.4h7.657c0.686 1.714 2.514 2.971 4.571 2.971zM52.229 33.714c-1.029 0-1.714-0.686-1.714-1.714 0-0.914 0.8-1.714 1.714-1.714 0.457 0 0.914 0.229 1.257 0.571s0.457 0.8 0.457 1.257c-0.114 0.8-0.8 1.486-1.714 1.6zM11.543 33.714c-0.686 0-1.371-0.686-1.486-1.371-0.114-0.571 0-1.029 0.343-1.371 0.343-0.457 0.8-0.686 1.371-0.686 0.229 0 0.457 0 0.686 0.114 0.571 0.229 1.029 0.8 1.029 1.486 0 0.457-0.114 0.914-0.457 1.257s-0.8 0.571-1.486 0.571c0.114 0 0 0 0 0z"></path>
</svg>
