<svg xmlns="http://www.w3.org/2000/svg" xmlns:xlink="http://www.w3.org/1999/xlink" fill="none" version="1.1" width="37.561279296875" height="39.3583984375" viewBox="0 0 37.561279296875 39.3583984375"><g style="mix-blend-mode:passthrough"><g style="mix-blend-mode:passthrough"><path d="M35.7906,5.25391L27.0019,5.25391L27.0019,2.95113Q27.0019,1.72873,26.1375,0.864366Q25.2732,0,24.0508,0L13.5112,0Q12.2888,0,11.4244,0.864366Q10.5601,1.72873,10.5601,2.95113L10.5601,5.25391L1.77067,5.25391C0.792756,5.25391,0,6.04667,0,7.02458C0,8.0025,0.792756,8.79526,1.77067,8.79526L35.7906,8.79526C36.7685,8.79526,37.5613,8.0025,37.5613,7.02458C37.5613,6.04667,36.7685,5.25391,35.7906,5.25391ZM23.4606,5.25391L14.1014,5.25391L14.1014,3.54136L23.4606,3.54136L23.4606,5.25391ZM4.10962,12.6467C4.10962,12.7075,4.11276,12.7683,4.11902,12.8289L6.58957,36.7112Q6.70628,37.8394,7.54854,38.599Q8.39081,39.3587,9.52502,39.3587L28.0365,39.3587Q29.1708,39.3587,30.013,38.599Q30.8553,37.8394,30.972,36.7112L33.4426,12.8289C33.4488,12.7683,33.452,12.7075,33.452,12.6467C33.452,11.6687,32.6592,10.876,31.6813,10.876C30.7739,10.876,30.0134,11.5619,29.92,12.4645L27.5042,35.8173L10.0573,35.8173L7.64156,12.4645C7.54819,11.5619,6.78766,10.876,5.88029,10.876C4.90238,10.876,4.10962,11.6687,4.10962,12.6467ZM16.1753,29.226L16.1753,18.9054C16.1753,17.9275,15.3825,17.1348,14.4046,17.1348C13.4267,17.1348,12.634,17.9275,12.634,18.9054L12.634,29.226C12.634,30.2039,13.4267,30.9967,14.4046,30.9967C15.3825,30.9967,16.1753,30.2039,16.1753,29.226ZM24.9282,29.226L24.9282,18.9054C24.9282,17.9275,24.1355,17.1348,23.1576,17.1348C22.1796,17.1348,21.3869,17.9275,21.3869,18.9054L21.3869,29.226C21.3869,30.2039,22.1796,30.9967,23.1576,30.9967C24.1355,30.9967,24.9282,30.2039,24.9282,29.226Z" fill-rule="evenodd" fill="#D61D00" fill-opacity="1"/></g></g></svg>