<svg xmlns="http://www.w3.org/2000/svg"
    xmlns:xlink="http://www.w3.org/1999/xlink"  version="1.1" width="39.183349609375" height="33.1756591796875" viewBox="0 0 39.183349609375 33.1756591796875">
    <g style="mix-blend-mode:passthrough">
        <g style="mix-blend-mode:passthrough">
            <path d="M1.5,30.1756591796875L37.5,30.1756591796875C38.3284,30.1756591796875,39,30.8472321796875,39,31.6756591796875C39,32.5040891796875,38.3284,33.1756591796875,37.5,33.1756591796875L1.5,33.1756591796875C0.671573,33.1756591796875,0,32.5040891796875,0,31.6756591796875C0,30.8472321796875,0.671573,30.1756591796875,1.5,30.1756591796875Z" fill-rule="evenodd"  fill-opacity="1"/>
        </g>
        <g style="mix-blend-mode:passthrough">
            <path d="M16.335205078125,0L37.500005078125,0C38.328405078125,0,39.000005078125,0.671573,39.000005078125,1.5C39.000005078125,2.32843,38.328405078125,3,37.500005078125,3L16.335205078125,3C15.506778078125,3,14.835205078125,2.32843,14.835205078125,1.5C14.835205078125,0.671573,15.506778078125,0,16.335205078125,0Z" fill-rule="evenodd"  fill-opacity="1"/>
        </g>
        <g style="mix-blend-mode:passthrough">
            <path d="M24.9945068359375,20.1171875L37.5000068359375,20.1171875C38.3284068359375,20.1171875,39.0000068359375,20.7887605,39.0000068359375,21.6171875C39.0000068359375,22.4456175,38.3284068359375,23.1171875,37.5000068359375,23.1171875L24.9945068359375,23.1171875C24.1660798359375,23.1171875,23.4945068359375,22.4456175,23.4945068359375,21.6171875C23.4945068359375,20.7887605,24.1660798359375,20.1171875,24.9945068359375,20.1171875Z" fill-rule="evenodd"  fill-opacity="1"/>
        </g>
        <g style="mix-blend-mode:passthrough">
            <path d="M21.280517578125,10.05859375L37.683417578125,10.05859375C38.511817578125005,10.05859375,39.183417578125,10.73016675,39.183417578125,11.55859375C39.183417578125,12.38702375,38.511817578125005,13.05859375,37.683417578125,13.05859375L21.280517578125,13.05859375C20.452090578125,13.05859375,19.780517578125,12.38702375,19.780517578125,11.55859375C19.780517578125,10.73016675,20.452090578125,10.05859375,21.280517578125,10.05859375Z" fill-rule="evenodd"  fill-opacity="1"/>
        </g>
        <g style="mix-blend-mode:passthrough">
            <path d="M18.38150830078125,27.845766038513183L18.38180830078125,27.846466038513185C18.60560830078125,28.423966038513182,19.16120830078125,28.804566038513183,19.78050830078125,28.804566038513183C20.60890830078125,28.804566038513183,21.28050830078125,28.132966038513185,21.28050830078125,27.304566038513183C21.28050830078125,27.119166038513182,21.24620830078125,26.935466038513184,21.17920830078125,26.762666038513185L21.17890830078125,26.761866038513183L11.54740830078125,1.9042260385131837C11.40370830078125,1.5332740385131836,11.11850830078125,1.2346120385131836,10.75450830078125,1.0739420385131835C10.39060830078125,0.9132720385131836,9.97775830078125,0.9037561385131836,9.60679830078125,1.0474880385131835C9.19257830078125,1.2079860385131835,8.87079830078125,1.5438350385131836,8.72816830078125,1.9645460385131837L0.30042960078125003,26.822966038513183C0.24783720078125,26.978066038513184,0.22100830078125,27.140766038513185,0.22100830078125,27.304566038513183C0.22100830078125,28.132966038513185,0.89258130078125,28.804566038513183,1.72100830078125,28.804566038513183C2.36382830078125,28.804566038513183,2.93518830078125,28.394966038513182,3.14158830078125,27.786166038513183L5.86968830078125,19.739366038513182L15.24060830078125,19.739366038513182L18.38150830078125,27.845766038513183ZM14.07820830078125,16.739366038513182L10.24280830078125,6.840586038513184L6.88677830078125,16.739366038513182L14.07820830078125,16.739366038513182Z" fill-rule="evenodd"  fill-opacity="1"/>
        </g>
        <g style="mix-blend-mode:passthrough">
            <path d="M18.38150830078125,27.845766038513183L15.24060830078125,19.739366038513182L5.86968830078125,19.739366038513182L3.14158830078125,27.786166038513183C2.93518830078125,28.394966038513182,2.36382830078125,28.804566038513183,1.72100830078125,28.804566038513183C0.89258130078125,28.804566038513183,0.22100830078125,28.132966038513185,0.22100830078125,27.304566038513183C0.22100830078125,27.140766038513185,0.24783720078125,26.978066038513184,0.30042960078125003,26.822966038513183L8.72816830078125,1.9645460385131837C8.87079830078125,1.5438350385131836,9.19257830078125,1.2079860385131835,9.60679830078125,1.0474880385131835C9.97775830078125,0.9037561385131836,10.39060830078125,0.9132720385131836,10.75450830078125,1.0739420385131835C11.11850830078125,1.2346120385131836,11.40370830078125,1.5332740385131836,11.54740830078125,1.9042260385131837L21.17890830078125,26.761866038513183L21.17920830078125,26.762666038513185C21.24620830078125,26.935466038513184,21.28050830078125,27.119166038513182,21.28050830078125,27.304566038513183C21.28050830078125,28.132966038513185,20.60890830078125,28.804566038513183,19.78050830078125,28.804566038513183C19.16120830078125,28.804566038513183,18.60560830078125,28.423966038513182,18.38180830078125,27.846466038513185L18.38150830078125,27.845766038513183ZM19.31360830078125,27.483566038513185L19.31390830078125,27.484266038513184Q19.43810830078125,27.804566038513183,19.78050830078125,27.804566038513183Q19.98760830078125,27.804566038513183,20.13410830078125,27.658066038513184Q20.28050830078125,27.511666038513184,20.28050830078125,27.304566038513183Q20.28050830078125,27.211066038513184,20.24670830078125,27.123966038513185L20.24630830078125,27.122766038513184L10.61500830078125,2.2655160385131836Q10.54010830078125,2.0724060385131837,10.35070830078125,1.9887560385131835Q10.16121830078125,1.9051130385131836,9.96809830078125,1.9799360385131837Q9.75023830078125,2.064356038513184,9.67521830078125,2.2856260385131835L1.24747830078125,27.144066038513184Q1.22100830078125,27.222066038513184,1.22100830078125,27.304566038513183Q1.22100830078125,27.511666038513184,1.36745830078125,27.658066038513184Q1.51390830078125,27.804566038513183,1.72100830078125,27.804566038513183Q2.07944830078125,27.804566038513183,2.1945383007812502,27.465066038513182L5.15281830078125,18.739366038513182L15.92560830078125,18.739366038513182L19.31360830078125,27.483566038513185ZM15.53810830078125,17.739366038513182L5.49184830078125,17.739366038513182L10.18008830078125,3.9109760385131835L15.01070830078125,16.378066038513182L15.53810830078125,17.739366038513182ZM14.07820830078125,16.739366038513182L13.69070830078125,15.739366038513184L10.80590830078125,8.294006038513183L10.24280830078125,6.840586038513184L9.74229830078125,8.316766038513183L7.22580830078125,15.739366038513184L6.88677830078125,16.739366038513182L14.07820830078125,16.739366038513182Z" fill-rule="evenodd"  fill-opacity="1"/>
        </g>
    </g>
</svg>