<!-- Generated by IcoMoon.io -->
<svg version="1.1" xmlns="http://www.w3.org/2000/svg" width="48" height="64" viewBox="0 0 48 64">
<title>E021_Double_Right</title>
<path d="M45.475 33.063l-18.35 18.5c-0.587 0.587-1.538 0.587-2.125 0l-2.475-2.475c-0.587-0.587-0.587-1.538 0-2.125l14.813-14.962-14.813-14.962c-0.587-0.587-0.587-1.537 0-2.125l2.475-2.475c0.587-0.588 1.538-0.588 2.125 0l18.35 18.5c0.587 0.587 0.587 1.538 0 2.125zM25.475 30.938l-18.35-18.5c-0.588-0.588-1.537-0.588-2.125 0l-2.475 2.475c-0.587 0.588-0.587 1.537 0 2.125l14.812 14.962-14.813 14.962c-0.587 0.587-0.587 1.538 0 2.125l2.475 2.475c0.588 0.587 1.537 0.587 2.125 0l18.35-18.5c0.587-0.587 0.587-1.538 0-2.125z"></path>
</svg>
