<svg xmlns="http://www.w3.org/2000/svg" xmlns:xlink="http://www.w3.org/1999/xlink" fill="none" version="1.1" width="53" height="53" viewBox="0 0 53 53"><g style="mix-blend-mode:passthrough"><g style="mix-blend-mode:passthrough"><g style="mix-blend-mode:passthrough"><path d="M51.1394,36.2545Q53,31.5547,53,26.5Q53,21.4453,51.1394,16.7455Q49.1191,11.6425,45.2383,7.76167Q41.3575,3.88083,36.2545,1.86061Q31.5547,0,26.5,0Q21.4453,-1.19209e-7,16.7455,1.86061Q11.6425,3.88083,7.76167,7.76167Q3.88083,11.6425,1.86061,16.7455Q2.38419e-7,21.4453,0,26.5Q-1.19209e-7,31.5547,1.86061,36.2545Q3.88083,41.3575,7.76167,45.2383Q11.6425,49.1192,16.7455,51.1394Q21.4453,53,26.5,53Q31.5547,53,36.2545,51.1394Q41.3575,49.1192,45.2383,45.2383Q49.1192,41.3575,51.1394,36.2545ZM48.35,17.8498Q50,22.0175,50,26.5Q50,30.9825,48.35,35.1502Q46.5585,39.6755,43.117,43.117Q39.6755,46.5585,35.1502,48.35Q30.9825,50,26.5,50Q22.0175,50,17.8498,48.35Q13.3245,46.5585,9.88299,43.117Q6.44149,39.6755,4.64997,35.1502Q3,30.9825,3,26.5Q3,22.0175,4.64997,17.8498Q6.4415,13.3245,9.88299,9.88299Q13.3245,6.4415,17.8498,4.64997Q22.0175,3,26.5,3Q30.9825,3,35.1502,4.64997Q39.6755,6.44149,43.117,9.88299Q46.5585,13.3245,48.35,17.8498Z" fill-rule="evenodd" fill="#000000" fill-opacity="1"/></g><g transform="matrix(-1,0,0,-1,77.130859375,88.51509857177734)"><path d="M52.2544296875,63.01514928588867L52.2544296875,79.51304928588867C52.2544296875,80.06534928588867,51.8067296875,80.51304928588867,51.2544296875,80.51304928588867L50.007529687499996,80.51304928588867C49.4552296875,80.51304928588867,49.007529687499996,80.06534928588867,49.007529687499996,79.51304928588867L49.007529687499996,63.01514928588867C49.007529687499996,62.46284928588867,48.5597796875,62.01514928588867,48.0074896875,62.01514928588867L39.5671696875,62.01514928588867C38.7575006875,62.01514928588867,38.2834976875,61.103149285888676,38.7487586875,60.44054928588867L49.8125296875,44.682921285888675C50.2107296875,44.115758285888674,51.0511296875,44.115758285888674,51.4494296875,44.682921285888675L62.5131296875,60.44054928588867C62.9784296875,61.103149285888676,62.5044296875,62.01514928588867,61.6947296875,62.01514928588867L53.2544296875,62.01514928588867C52.7021296875,62.01514928588867,52.2544296875,62.46284928588867,52.2544296875,63.01514928588867Z" fill="#000000" fill-opacity="1"/></g></g></g></svg>