<svg xmlns="http://www.w3.org/2000/svg"
    xmlns:xlink="http://www.w3.org/1999/xlink" class="icon" version="1.1" width="51.73118591308594" height="61.16230392456055" viewBox="0 0 51.73118591308594 61.16230392456055">
    <!-- <g style="mix-blend-mode:passthrough"> -->
        <path d="M0,3.72053C0,1.66574,1.62217,0,3.62322,0L20.0467,0C21.0473,0,21.8584,0.832867,21.8584,1.86027C21.8584,2.88766,21.0473,3.72053,20.0467,3.72053L3.62322,3.72053L3.62324,57.4418L48.108,57.4418L48.108,32.5353C48.108,31.5079,48.919,30.675,49.9195,30.675C50.9201,30.675,51.7312,31.5079,51.7312,32.5353L51.7312,57.4418C51.7312,59.4965,50.109,61.1623,48.108,61.1623L3.62324,61.1623C1.62218,61.1623,0.00000490695,59.4965,0.000004732,57.4418L0,3.72053ZM12.9446,29.2377C12.6576,29.5325,12.4753,29.9177,12.4269,30.3315L11.0823,41.8379C10.9424,43.035,11.9312,44.0503,13.0968,43.9066L24.3024,42.5258C24.7054,42.4762,25.0805,42.289,25.3676,41.9942L50.748,15.9322C51.4555,15.2057,51.4555,14.0279,50.748,13.3014L40.8871,3.17567C40.1796,2.4492,39.0326,2.4492,38.3251,3.17567L12.9446,29.2377ZM15.9496,31.4136L14.9544,39.9306L23.2486,38.9086L46.905,14.6168L39.6062,7.12189L15.9496,31.4136Z" fill-rule="evenodd"  fill-opacity="1"/>
    <!-- </g> -->
</svg>