<svg xmlns="http://www.w3.org/2000/svg" xmlns:xlink="http://www.w3.org/1999/xlink" fill="none" version="1.1" width="40" height="40" viewBox="0 0 40 40"><g style="mix-blend-mode:passthrough"><g style="mix-blend-mode:passthrough"><path d="M0.0001220703125,5.882355722045898Q0.0001220703125,3.4458357220458984,1.7230820703125,1.7228757220458983Q3.4458520703125,0.0000057220458984375,5.8824720703125,0.0000057220458984375L34.1177220703125,0.0000057220458984375Q36.5544220703125,0.0000057220458984375,38.2771220703125,1.7228757220458983Q40.0001220703125,3.4458357220458984,40.0001220703125,5.882355722045898L40.0001220703125,34.1176057220459Q40.0001220703125,36.5542057220459,38.2771220703125,38.277105722045896Q36.5544220703125,40.0000057220459,34.1177220703125,40.0000057220459L5.8824720703125,40.0000057220459Q3.4458520703125,40.0000057220459,1.7230820703125,38.277105722045896Q0.0001220703125,36.5542057220459,0.0001220703125,34.1176057220459L0.0001220703125,5.882355722045898ZM2.3530620703125,5.882355722045898L2.3530620703125,34.1176057220459Q2.3530620703125,35.5796057220459,3.3868820703125,36.6133057220459Q4.4205020703125,37.6471057220459,5.8824720703125,37.6471057220459L34.1177220703125,37.6471057220459Q35.5797220703125,37.6471057220459,36.6133220703125,36.6133057220459Q37.6472220703125,35.5796057220459,37.6472220703125,34.1176057220459L37.6472220703125,5.882355722045898Q37.6472220703125,4.420385722045898,36.6133220703125,3.3866657220458984Q35.5797220703125,2.3529457220458982,34.1177220703125,2.3529457220458982L5.8824720703125,2.3529457220458982Q4.4205020703125,2.3529457220458982,3.3868820703125,3.3866657220458984Q2.3530620703125,4.420385722045898,2.3530620703125,5.882355722045898ZM27.0660220703125,13.672905722045899Q27.0660220703125,15.094105722045898,26.5429220703125,16.4156057220459Q25.9747220703125,17.8504057220459,24.8837220703125,18.9416057220459Q24.5393220703125,19.2859057220459,24.1608220703125,19.578105722045898Q25.7460220703125,20.175805722045897,27.1865220703125,21.2160057220459C27.4926220703125,21.4372057220459,27.6740220703125,21.791905722045897,27.6740220703125,22.169605722045898C27.6740220703125,22.819305722045897,27.1472220703125,23.3461057220459,26.4975220703125,23.3461057220459C26.2501220703125,23.3461057220459,26.0090220703125,23.2680057220459,25.8070220703125,23.122105722045898Q23.0405220703125,21.123905722045897,19.6150220703125,21.123905722045897Q17.4601220703125,21.123905722045897,15.4939220703125,21.9555057220459Q13.5940220703125,22.7591057220459,12.1280220703125,24.2252057220459Q10.6621220703125,25.691205722045897,9.8584220703125,27.5911057220459Q9.0268120703125,29.5572057220459,9.0268120703125,31.712105722045898C9.0268120703125,32.3618057220459,8.5000420703125,32.888605722045895,7.8503420703125,32.888605722045895C7.2006420703125,32.888605722045895,6.6738720703125,32.3618057220459,6.6738720703125,31.712105722045898Q6.6738720703125,29.080005722045897,7.6914120703125,26.674405722045897Q8.6737220703125,24.3518057220459,10.4643220703125,22.561405722045897Q12.2548220703125,20.7708057220459,14.5773220703125,19.788405722045898Q14.8281220703125,19.6824057220459,15.0813220703125,19.587405722045897Q14.6962220703125,19.291305722045898,14.3464220703125,18.9416057220459Q13.2553220703125,17.8504057220459,12.6872220703125,16.4156057220459Q12.1640220703125,15.094105722045898,12.1640220703125,13.672905722045899Q12.1640220703125,12.251705722045898,12.6872220703125,10.930205722045898Q13.2553220703125,9.495445722045899,14.3464220703125,8.404285722045898Q15.4376220703125,7.313115722045898,16.8724220703125,6.745085722045898Q18.1938220703125,6.221955722045898,19.6150220703125,6.221955722045898Q21.0362220703125,6.221955722045898,22.3576220703125,6.745085722045898Q23.7924220703125,7.313115722045898,24.8837220703125,8.404285722045898Q25.9747220703125,9.495445722045899,26.5429220703125,10.930205722045898Q27.0660220703125,12.251705722045898,27.0660220703125,13.672905722045899ZM16.0102220703125,17.277805722045898Q17.5034220703125,18.7710057220459,19.6150220703125,18.7710057220459Q21.7267220703125,18.7710057220459,23.2199220703125,17.277805722045898Q24.7131220703125,15.784605722045898,24.7131220703125,13.672905722045899Q24.7131220703125,11.561305722045898,23.2199220703125,10.068105722045898Q21.7267220703125,8.574895722045898,19.6150220703125,8.574895722045898Q17.5034220703125,8.574895722045898,16.0102220703125,10.068105722045898Q14.5170220703125,11.561305722045898,14.5170220703125,13.672905722045899Q14.5170220703125,15.784605722045898,16.0102220703125,17.277805722045898ZM27.2562220703125,24.732305722045897Q28.1500220703125,23.8385057220459,29.3422220703125,23.4400057220459Q30.4932220703125,23.055105722045898,31.7009220703125,23.2037057220459Q32.2759220703125,23.274505722045898,32.6887220703125,23.6549057220459Q33.0767220703125,24.012605722045897,33.2025220703125,24.5345057220459Q33.4495220703125,25.5587057220459,32.6832220703125,26.325105722045897L31.5980220703125,27.410205722045898L32.1533220703125,27.965605722045897L33.2386220703125,26.8804057220459Q34.0050220703125,26.1140057220459,35.0292220703125,26.3611057220459Q35.5512220703125,26.486905722045897,35.9087220703125,26.8748057220459Q36.2892220703125,27.2875057220459,36.3600220703125,27.8628057220459Q36.5086220703125,29.070405722045898,36.1237220703125,30.221505722045897Q35.7252220703125,31.413605722045897,34.8314220703125,32.307505722045896Q33.8772220703125,33.2616057220459,32.5853220703125,33.6498057220459Q31.3650220703125,34.016405722045896,30.1184220703125,33.7961057220459L27.9225220703125,35.992005722045896Q27.3483220703125,36.5662057220459,26.5360220703125,36.5662057220459Q25.7239220703125,36.5662057220459,25.1496220703125,35.992005722045896L23.5718220703125,34.4142057220459Q22.9974220703125,33.839805722045895,22.9974220703125,33.0276057220459Q22.9974220703125,32.2155057220459,23.5718220703125,31.6412057220459L25.7678220703125,29.445305722045898Q25.5474220703125,28.198705722045897,25.9140220703125,26.9784057220459Q26.3022220703125,25.686505722045897,27.2562220703125,24.732305722045897ZM28.9199220703125,26.3961057220459Q28.3849220703125,26.9311057220459,28.1674220703125,27.6554057220459Q27.9510220703125,28.375405722045898,28.0991220703125,29.1110057220459Q28.3218220703125,30.2189057220459,27.5598220703125,30.980605722045897L25.5129220703125,33.0276057220459L26.5360220703125,34.0509057220459L28.5831220703125,32.0039057220459Q29.3448220703125,31.2421057220459,30.4526220703125,31.4647057220459Q31.1883220703125,31.6127057220459,31.9082220703125,31.3963057220459Q32.6326220703125,31.178705722045898,33.1676220703125,30.643705722045897Q33.6568220703125,30.154405722045897,33.8751220703125,29.5714057220459L33.5399220703125,29.9067057220459Q32.9656220703125,30.4810057220459,32.1533220703125,30.4810057220459Q31.3412220703125,30.4810057220459,30.7670220703125,29.9067057220459L29.6570220703125,28.7967057220459Q29.0825220703125,28.2224057220459,29.0825220703125,27.410205722045898Q29.0825220703125,26.598005722045897,29.6570220703125,26.0237057220459L29.9919220703125,25.6887057220459Q29.4092220703125,25.9070057220459,28.9199220703125,26.3961057220459Z" fill-rule="evenodd" fill="#000000" fill-opacity="1"/></g></g></svg>