<svg xmlns="http://www.w3.org/2000/svg" xmlns:xlink="http://www.w3.org/1999/xlink" fill="#fff" version="1.1" width="44.260986328125" height="39.834716796875" viewBox="0 0 44.260986328125 39.834716796875"><g style="mix-blend-mode:passthrough"><g style="mix-blend-mode:passthrough"><path d="M2.62829,3L15.2435,17.3993C15.4032,17.5817,15.4913,17.8158,15.4913,18.0583L15.4913,26.1423C15.4913,26.4075,15.5967,26.6618,15.7842,26.8494L25.7696,36.8347L25.837,36.9022L27.0625,38.1276C27.6924,38.7576,28.7696,38.3114,28.7696,37.4205L28.7696,17.4173C28.7696,17.1684,28.8624,16.9285,29.0298,16.7444L41.532,3L41.573,2.95489L42.7392,1.67289C43.3234,1.03058,42.8677,0,41.9994,0L2.20559,0C1.34613,0,0.887064,1.01252,1.45342,1.65897L2.59541,2.96247L2.62829,3ZM6.61676,3L17.5,15.4224Q18.4913,16.5539,18.4913,18.0583L18.4913,25.3138L25.7696,32.5921L25.7696,17.4173Q25.7696,15.8702,26.8106,14.7257L37.4765,3L6.61676,3Z" fill-rule="evenodd" fill="#ffffff" fill-opacity="1"/></g></g></svg>