<svg xmlns="http://www.w3.org/2000/svg" xmlns:xlink="http://www.w3.org/1999/xlink" fill="none" version="1.1" width="510.900146484375" height="307.992431640625" viewBox="0 0 510.900146484375 307.992431640625"><g style="mix-blend-mode:passthrough"><g style="mix-blend-mode:passthrough"><g style="mix-blend-mode:passthrough"><path d="M17.39994659423828,15.0688L8.69994659423828,0L-0.00005340576171875,15.0688L7.199946594238281,15.0688L7.199946594238281,291.064L495.8309465942383,291.064L495.8309465942383,298.264L510.89994659423826,289.564L495.8309465942383,280.864L495.8309465942383,288.064L10.19994659423828,288.064L10.19994659423828,15.0688L17.39994659423828,15.0688Z" fill-rule="evenodd" fill="#000000" fill-opacity="1"/></g><g style="mix-blend-mode:passthrough"><path d="M124.867920703125,298.0924377441406L119.844970703125,300.9924377441406L124.867920703125,303.89243774414064L124.867920703125,301.4924377441406L153.822070703125,301.4924377441406L153.822070703125,303.89243774414064L158.844970703125,300.9924377441406L153.822070703125,298.0924377441406L153.822070703125,300.4924377441406L124.867920703125,300.4924377441406L124.867920703125,298.0924377441406Z" fill-rule="evenodd" fill="#3B3B3B" fill-opacity="1"/></g><g style="mix-blend-mode:passthrough"><path d="M9.116455078125,288.970458984375L9.116455078125,289.921557984375L10.116455078125,289.921557984375L10.116455078125,288.970458984375L9.116455078125,288.970458984375ZM9.116455078125,291.823758984375L9.116455078125,293.725948984375L10.116455078125,293.725948984375L10.116455078125,291.823758984375L9.116455078125,291.823758984375ZM9.116455078125,295.628148984375L9.116455078125,297.530348984375L10.116455078125,297.530348984375L10.116455078125,295.628148984375L9.116455078125,295.628148984375ZM9.116455078125,299.432558984375L9.116455078125,301.334758984375L10.116455078125,301.334758984375L10.116455078125,299.432558984375L9.116455078125,299.432558984375ZM9.116455078125,303.236958984375L9.116455078125,305.139158984375L10.116455078125,305.139158984375L10.116455078125,303.236958984375L9.116455078125,303.236958984375ZM9.116455078125,307.041358984375L9.116455078125,307.992458984375L10.116455078125,307.992458984375L10.116455078125,307.041358984375L9.116455078125,307.041358984375Z" fill-rule="evenodd" fill="#00C155" fill-opacity="1"/></g><g style="mix-blend-mode:passthrough"><path d="M119.344970703125,288.970458984375L119.344970703125,289.921557984375L120.344970703125,289.921557984375L120.344970703125,288.970458984375L119.344970703125,288.970458984375ZM119.344970703125,291.823758984375L119.344970703125,293.725948984375L120.344970703125,293.725948984375L120.344970703125,291.823758984375L119.344970703125,291.823758984375ZM119.344970703125,295.628148984375L119.344970703125,297.530348984375L120.344970703125,297.530348984375L120.344970703125,295.628148984375L119.344970703125,295.628148984375ZM119.344970703125,299.432558984375L119.344970703125,301.334758984375L120.344970703125,301.334758984375L120.344970703125,299.432558984375L119.344970703125,299.432558984375ZM119.344970703125,303.236958984375L119.344970703125,305.139158984375L120.344970703125,305.139158984375L120.344970703125,303.236958984375L119.344970703125,303.236958984375ZM119.344970703125,307.041358984375L119.344970703125,307.992458984375L120.344970703125,307.992458984375L120.344970703125,307.041358984375L119.344970703125,307.041358984375Z" fill-rule="evenodd" fill="#00C155" fill-opacity="1"/></g><g style="mix-blend-mode:passthrough"><path d="M39.995330859375,302.49522094726564L45.018330859375,299.5952209472656L39.995330859375,296.6952209472656L39.995330859375,299.0952209472656L9.796630859375,299.0952209472656L9.796630859375,300.0952209472656L39.995330859375,300.0952209472656L39.995330859375,302.49522094726564Z" fill-rule="evenodd" fill="#00C155" fill-opacity="1"/></g><g style="mix-blend-mode:passthrough"><path d="M415.7318442840576,291.492431640625L456.8448442840576,291.492431640625L456.8448442840576,288.492431640625L418.0468442840576,288.492431640625L386.58184428405764,168.492431640625L337.79584428405764,168.492431640625L308.8278442840576,288.492431640625L266.6838442840576,288.492431640625L231.7238442840576,168.492431640625L182.41084428405762,168.492431640625L159.43584428405762,288.492431640625L121.38384428405762,288.492431640625L90.41824428405762,168.492431640625L43.68054428405762,168.492431640625L8.404844284057617,289.572431640625L11.285094284057617,290.412431640625L45.93124428405762,171.492431640625L88.09404428405762,171.492431640625L119.05984428405762,291.492431640625L161.9158442840576,291.492431640625L184.8908442840576,171.492431640625L229.47284428405763,171.492431640625L264.4338442840576,291.492431640625L311.18984428405764,291.492431640625L340.1578442840576,171.492431640625L384.2678442840576,171.492431640625L415.7318442840576,291.492431640625Z" fill-rule="evenodd" fill="#00C155" fill-opacity="1"/></g><g style="mix-blend-mode:passthrough"><path d="M8.844970703125,169.992431640625L9.844634703125,169.992431640625L9.844634703125,168.992431640625L8.844970703125,168.992431640625L8.844970703125,169.992431640625ZM11.843930703125,169.992431640625L13.843230703125,169.992431640625L13.843230703125,168.992431640625L11.843930703125,168.992431640625L11.843930703125,169.992431640625ZM15.842560703124999,169.992431640625L17.841860703125,169.992431640625L17.841860703125,168.992431640625L15.842560703124999,168.992431640625L15.842560703124999,169.992431640625ZM19.841170703125,169.992431640625L21.840470703125,169.992431640625L21.840470703125,168.992431640625L19.841170703125,168.992431640625L19.841170703125,169.992431640625ZM23.839770703124998,169.992431640625L25.839070703125,169.992431640625L25.839070703125,168.992431640625L23.839770703124998,168.992431640625L23.839770703124998,169.992431640625ZM27.838370703125,169.992431640625L29.837670703125,169.992431640625L29.837670703125,168.992431640625L27.838370703125,168.992431640625L27.838370703125,169.992431640625ZM31.837070703125,169.992431640625L33.836370703125,169.992431640625L33.836370703125,168.992431640625L31.837070703125,168.992431640625L31.837070703125,169.992431640625ZM35.835670703125004,169.992431640625L37.834970703124995,169.992431640625L37.834970703124995,168.992431640625L35.835670703125004,168.992431640625L35.835670703125004,169.992431640625ZM39.834270703125,169.992431640625L41.833570703125,169.992431640625L41.833570703125,168.992431640625L39.834270703125,168.992431640625L39.834270703125,169.992431640625ZM43.832870703125,169.992431640625L45.832170703125,169.992431640625L45.832170703125,168.992431640625L43.832870703125,168.992431640625L43.832870703125,169.992431640625ZM47.831470703125,169.992431640625L49.830770703125,169.992431640625L49.830770703125,168.992431640625L47.831470703125,168.992431640625L47.831470703125,169.992431640625ZM51.830170703125,169.992431640625L53.829470703125,169.992431640625L53.829470703125,168.992431640625L51.830170703125,168.992431640625L51.830170703125,169.992431640625ZM55.828770703125,169.992431640625L57.828070703125,169.992431640625L57.828070703125,168.992431640625L55.828770703125,168.992431640625L55.828770703125,169.992431640625ZM59.827370703125,169.992431640625L61.826670703125,169.992431640625L61.826670703125,168.992431640625L59.827370703125,168.992431640625L59.827370703125,169.992431640625ZM63.825970703125,169.992431640625L65.825270703125,169.992431640625L65.825270703125,168.992431640625L63.825970703125,168.992431640625L63.825970703125,169.992431640625ZM67.824570703125,169.992431640625L69.82387070312501,169.992431640625L69.82387070312501,168.992431640625L67.824570703125,168.992431640625L67.824570703125,169.992431640625ZM71.82327070312499,169.992431640625L73.822570703125,169.992431640625L73.822570703125,168.992431640625L71.82327070312499,168.992431640625L71.82327070312499,169.992431640625ZM75.821870703125,169.992431640625L77.821170703125,169.992431640625L77.821170703125,168.992431640625L75.821870703125,168.992431640625L75.821870703125,169.992431640625ZM79.820470703125,169.992431640625L81.819770703125,169.992431640625L81.819770703125,168.992431640625L79.820470703125,168.992431640625L79.820470703125,169.992431640625ZM83.819070703125,169.992431640625L85.818370703125,169.992431640625L85.818370703125,168.992431640625L83.819070703125,168.992431640625L83.819070703125,169.992431640625ZM87.817670703125,169.992431640625L89.816970703125,169.992431640625L89.816970703125,168.992431640625L87.817670703125,168.992431640625L87.817670703125,169.992431640625ZM91.816370703125,169.992431640625L93.815670703125,169.992431640625L93.815670703125,168.992431640625L91.816370703125,168.992431640625L91.816370703125,169.992431640625ZM95.814970703125,169.992431640625L97.814270703125,169.992431640625L97.814270703125,168.992431640625L95.814970703125,168.992431640625L95.814970703125,169.992431640625ZM99.813570703125,169.992431640625L101.812870703125,169.992431640625L101.812870703125,168.992431640625L99.813570703125,168.992431640625L99.813570703125,169.992431640625ZM103.812170703125,169.992431640625L105.811470703125,169.992431640625L105.811470703125,168.992431640625L103.812170703125,168.992431640625L103.812170703125,169.992431640625ZM107.810870703125,169.992431640625L109.809970703125,169.992431640625L109.809970703125,168.992431640625L107.810870703125,168.992431640625L107.810870703125,169.992431640625ZM111.808970703125,169.992431640625L113.808970703125,169.992431640625L113.808970703125,168.992431640625L111.808970703125,168.992431640625L111.808970703125,169.992431640625ZM115.807970703125,169.992431640625L117.806970703125,169.992431640625L117.806970703125,168.992431640625L115.807970703125,168.992431640625L115.807970703125,169.992431640625ZM119.806970703125,169.992431640625L121.805970703125,169.992431640625L121.805970703125,168.992431640625L119.806970703125,168.992431640625L119.806970703125,169.992431640625ZM123.804970703125,169.992431640625L125.804970703125,169.992431640625L125.804970703125,168.992431640625L123.804970703125,168.992431640625L123.804970703125,169.992431640625ZM127.803970703125,169.992431640625L129.802970703125,169.992431640625L129.802970703125,168.992431640625L127.803970703125,168.992431640625L127.803970703125,169.992431640625ZM131.802970703125,169.992431640625L133.801970703125,169.992431640625L133.801970703125,168.992431640625L131.802970703125,168.992431640625L131.802970703125,169.992431640625ZM135.80097070312502,169.992431640625L137.800970703125,169.992431640625L137.800970703125,168.992431640625L135.80097070312502,168.992431640625L135.80097070312502,169.992431640625ZM139.799970703125,169.992431640625L141.798970703125,169.992431640625L141.798970703125,168.992431640625L139.799970703125,168.992431640625L139.799970703125,169.992431640625ZM143.797970703125,169.992431640625L145.797970703125,169.992431640625L145.797970703125,168.992431640625L143.797970703125,168.992431640625L143.797970703125,169.992431640625ZM147.796970703125,169.992431640625L149.795970703125,169.992431640625L149.795970703125,168.992431640625L147.796970703125,168.992431640625L147.796970703125,169.992431640625ZM151.795970703125,169.992431640625L153.794970703125,169.992431640625L153.794970703125,168.992431640625L151.795970703125,168.992431640625L151.795970703125,169.992431640625ZM155.793970703125,169.992431640625L157.793970703125,169.992431640625L157.793970703125,168.992431640625L155.793970703125,168.992431640625L155.793970703125,169.992431640625ZM159.792970703125,169.992431640625L161.791970703125,169.992431640625L161.791970703125,168.992431640625L159.792970703125,168.992431640625L159.792970703125,169.992431640625ZM163.791970703125,169.992431640625L165.790970703125,169.992431640625L165.790970703125,168.992431640625L163.791970703125,168.992431640625L163.791970703125,169.992431640625ZM167.789970703125,169.992431640625L169.788970703125,169.992431640625L169.788970703125,168.992431640625L167.789970703125,168.992431640625L167.789970703125,169.992431640625ZM171.788970703125,169.992431640625L173.787970703125,169.992431640625L173.787970703125,168.992431640625L171.788970703125,168.992431640625L171.788970703125,169.992431640625ZM175.786970703125,169.992431640625L177.786970703125,169.992431640625L177.786970703125,168.992431640625L175.786970703125,168.992431640625L175.786970703125,169.992431640625ZM179.785970703125,169.992431640625L181.784970703125,169.992431640625L181.784970703125,168.992431640625L179.785970703125,168.992431640625L179.785970703125,169.992431640625ZM183.784970703125,169.992431640625L185.783970703125,169.992431640625L185.783970703125,168.992431640625L183.784970703125,168.992431640625L183.784970703125,169.992431640625ZM187.782970703125,169.992431640625L189.782970703125,169.992431640625L189.782970703125,168.992431640625L187.782970703125,168.992431640625L187.782970703125,169.992431640625ZM191.781970703125,169.992431640625L193.780970703125,169.992431640625L193.780970703125,168.992431640625L191.781970703125,168.992431640625L191.781970703125,169.992431640625ZM195.779970703125,169.992431640625L197.779970703125,169.992431640625L197.779970703125,168.992431640625L195.779970703125,168.992431640625L195.779970703125,169.992431640625ZM199.778970703125,169.992431640625L201.777970703125,169.992431640625L201.777970703125,168.992431640625L199.778970703125,168.992431640625L199.778970703125,169.992431640625ZM203.777970703125,169.992431640625L205.776970703125,169.992431640625L205.776970703125,168.992431640625L203.777970703125,168.992431640625L203.777970703125,169.992431640625ZM207.775970703125,169.992431640625L209.775970703125,169.992431640625L209.775970703125,168.992431640625L207.775970703125,168.992431640625L207.775970703125,169.992431640625ZM211.774970703125,169.992431640625L213.773970703125,169.992431640625L213.773970703125,168.992431640625L211.774970703125,168.992431640625L211.774970703125,169.992431640625ZM215.773970703125,169.992431640625L217.772970703125,169.992431640625L217.772970703125,168.992431640625L215.773970703125,168.992431640625L215.773970703125,169.992431640625ZM219.771970703125,169.992431640625L221.771970703125,169.992431640625L221.771970703125,168.992431640625L219.771970703125,168.992431640625L219.771970703125,169.992431640625ZM223.770970703125,169.992431640625L225.769970703125,169.992431640625L225.769970703125,168.992431640625L223.770970703125,168.992431640625L223.770970703125,169.992431640625ZM227.768970703125,169.992431640625L229.768970703125,169.992431640625L229.768970703125,168.992431640625L227.768970703125,168.992431640625L227.768970703125,169.992431640625ZM231.767970703125,169.992431640625L233.766970703125,169.992431640625L233.766970703125,168.992431640625L231.767970703125,168.992431640625L231.767970703125,169.992431640625ZM235.766970703125,169.992431640625L237.765970703125,169.992431640625L237.765970703125,168.992431640625L235.766970703125,168.992431640625L235.766970703125,169.992431640625ZM239.764970703125,169.992431640625L241.764970703125,169.992431640625L241.764970703125,168.992431640625L239.764970703125,168.992431640625L239.764970703125,169.992431640625ZM243.763970703125,169.992431640625L245.762970703125,169.992431640625L245.762970703125,168.992431640625L243.763970703125,168.992431640625L243.763970703125,169.992431640625ZM247.762970703125,169.992431640625L249.761970703125,169.992431640625L249.761970703125,168.992431640625L247.762970703125,168.992431640625L247.762970703125,169.992431640625ZM251.760970703125,169.992431640625L253.759970703125,169.992431640625L253.759970703125,168.992431640625L251.760970703125,168.992431640625L251.760970703125,169.992431640625ZM255.759970703125,169.992431640625L257.758970703125,169.992431640625L257.758970703125,168.992431640625L255.759970703125,168.992431640625L255.759970703125,169.992431640625ZM259.757970703125,169.992431640625L261.757970703125,169.992431640625L261.757970703125,168.992431640625L259.757970703125,168.992431640625L259.757970703125,169.992431640625ZM263.75697070312503,169.992431640625L265.755970703125,169.992431640625L265.755970703125,168.992431640625L263.75697070312503,168.992431640625L263.75697070312503,169.992431640625ZM267.755970703125,169.992431640625L269.754970703125,169.992431640625L269.754970703125,168.992431640625L267.755970703125,168.992431640625L267.755970703125,169.992431640625ZM271.753970703125,169.992431640625L273.753970703125,169.992431640625L273.753970703125,168.992431640625L271.753970703125,168.992431640625L271.753970703125,169.992431640625ZM275.752970703125,169.992431640625L277.751970703125,169.992431640625L277.751970703125,168.992431640625L275.752970703125,168.992431640625L275.752970703125,169.992431640625ZM279.750970703125,169.992431640625L281.750970703125,169.992431640625L281.750970703125,168.992431640625L279.750970703125,168.992431640625L279.750970703125,169.992431640625ZM283.749970703125,169.992431640625L285.748970703125,169.992431640625L285.748970703125,168.992431640625L283.749970703125,168.992431640625L283.749970703125,169.992431640625ZM287.748970703125,169.992431640625L289.747970703125,169.992431640625L289.747970703125,168.992431640625L287.748970703125,168.992431640625L287.748970703125,169.992431640625ZM291.746970703125,169.992431640625L293.746970703125,169.992431640625L293.746970703125,168.992431640625L291.746970703125,168.992431640625L291.746970703125,169.992431640625ZM295.745970703125,169.992431640625L297.744970703125,169.992431640625L297.744970703125,168.992431640625L295.745970703125,168.992431640625L295.745970703125,169.992431640625ZM299.744970703125,169.992431640625L301.743970703125,169.992431640625L301.743970703125,168.992431640625L299.744970703125,168.992431640625L299.744970703125,169.992431640625ZM303.742970703125,169.992431640625L305.742970703125,169.992431640625L305.742970703125,168.992431640625L303.742970703125,168.992431640625L303.742970703125,169.992431640625ZM307.741970703125,169.992431640625L309.740970703125,169.992431640625L309.740970703125,168.992431640625L307.741970703125,168.992431640625L307.741970703125,169.992431640625ZM311.739970703125,169.992431640625L313.739970703125,169.992431640625L313.739970703125,168.992431640625L311.739970703125,168.992431640625L311.739970703125,169.992431640625ZM315.738970703125,169.992431640625L317.737970703125,169.992431640625L317.737970703125,168.992431640625L315.738970703125,168.992431640625L315.738970703125,169.992431640625ZM319.737970703125,169.992431640625L321.736970703125,169.992431640625L321.736970703125,168.992431640625L319.737970703125,168.992431640625L319.737970703125,169.992431640625ZM323.735970703125,169.992431640625L325.735970703125,169.992431640625L325.735970703125,168.992431640625L323.735970703125,168.992431640625L323.735970703125,169.992431640625ZM327.734970703125,169.992431640625L329.733970703125,169.992431640625L329.733970703125,168.992431640625L327.734970703125,168.992431640625L327.734970703125,169.992431640625ZM331.733970703125,169.992431640625L333.732970703125,169.992431640625L333.732970703125,168.992431640625L331.733970703125,168.992431640625L331.733970703125,169.992431640625ZM335.731970703125,169.992431640625L337.730970703125,169.992431640625L337.730970703125,168.992431640625L335.731970703125,168.992431640625L335.731970703125,169.992431640625ZM339.730970703125,169.992431640625L341.729970703125,169.992431640625L341.729970703125,168.992431640625L339.730970703125,168.992431640625L339.730970703125,169.992431640625ZM343.728970703125,169.992431640625L345.728970703125,169.992431640625L345.728970703125,168.992431640625L343.728970703125,168.992431640625L343.728970703125,169.992431640625ZM347.727970703125,169.992431640625L349.726970703125,169.992431640625L349.726970703125,168.992431640625L347.727970703125,168.992431640625L347.727970703125,169.992431640625ZM351.726970703125,169.992431640625L353.725970703125,169.992431640625L353.725970703125,168.992431640625L351.726970703125,168.992431640625L351.726970703125,169.992431640625ZM355.724970703125,169.992431640625L357.724970703125,169.992431640625L357.724970703125,168.992431640625L355.724970703125,168.992431640625L355.724970703125,169.992431640625ZM359.723970703125,169.992431640625L361.722970703125,169.992431640625L361.722970703125,168.992431640625L359.723970703125,168.992431640625L359.723970703125,169.992431640625ZM363.722970703125,169.992431640625L365.721970703125,169.992431640625L365.721970703125,168.992431640625L363.722970703125,168.992431640625L363.722970703125,169.992431640625ZM367.720970703125,169.992431640625L369.719970703125,169.992431640625L369.719970703125,168.992431640625L367.720970703125,168.992431640625L367.720970703125,169.992431640625ZM371.719970703125,169.992431640625L373.718970703125,169.992431640625L373.718970703125,168.992431640625L371.719970703125,168.992431640625L371.719970703125,169.992431640625ZM375.717970703125,169.992431640625L377.717970703125,169.992431640625L377.717970703125,168.992431640625L375.717970703125,168.992431640625L375.717970703125,169.992431640625ZM379.716970703125,169.992431640625L381.715970703125,169.992431640625L381.715970703125,168.992431640625L379.716970703125,168.992431640625L379.716970703125,169.992431640625ZM383.715970703125,169.992431640625L385.714970703125,169.992431640625L385.714970703125,168.992431640625L383.715970703125,168.992431640625L383.715970703125,169.992431640625ZM387.713970703125,169.992431640625L389.713970703125,169.992431640625L389.713970703125,168.992431640625L387.713970703125,168.992431640625L387.713970703125,169.992431640625ZM391.712970703125,169.992431640625L393.711970703125,169.992431640625L393.711970703125,168.992431640625L391.712970703125,168.992431640625L391.712970703125,169.992431640625ZM395.710970703125,169.992431640625L397.710970703125,169.992431640625L397.710970703125,168.992431640625L395.710970703125,168.992431640625L395.710970703125,169.992431640625ZM399.709970703125,169.992431640625L401.708970703125,169.992431640625L401.708970703125,168.992431640625L399.709970703125,168.992431640625L399.709970703125,169.992431640625ZM403.708970703125,169.992431640625L405.707970703125,169.992431640625L405.707970703125,168.992431640625L403.708970703125,168.992431640625L403.708970703125,169.992431640625ZM407.706970703125,169.992431640625L409.706970703125,169.992431640625L409.706970703125,168.992431640625L407.706970703125,168.992431640625L407.706970703125,169.992431640625ZM411.705970703125,169.992431640625L413.704970703125,169.992431640625L413.704970703125,168.992431640625L411.705970703125,168.992431640625L411.705970703125,169.992431640625ZM415.704970703125,169.992431640625L417.703970703125,169.992431640625L417.703970703125,168.992431640625L415.704970703125,168.992431640625L415.704970703125,169.992431640625ZM419.702970703125,169.992431640625L421.701970703125,169.992431640625L421.701970703125,168.992431640625L419.702970703125,168.992431640625L419.702970703125,169.992431640625ZM423.701970703125,169.992431640625L425.700970703125,169.992431640625L425.700970703125,168.992431640625L423.701970703125,168.992431640625L423.701970703125,169.992431640625ZM427.699970703125,169.992431640625L429.699970703125,169.992431640625L429.699970703125,168.992431640625L427.699970703125,168.992431640625L427.699970703125,169.992431640625ZM431.698970703125,169.992431640625L433.697970703125,169.992431640625L433.697970703125,168.992431640625L431.698970703125,168.992431640625L431.698970703125,169.992431640625ZM435.697970703125,169.992431640625L437.696970703125,169.992431640625L437.696970703125,168.992431640625L435.697970703125,168.992431640625L435.697970703125,169.992431640625ZM439.695970703125,169.992431640625L441.695970703125,169.992431640625L441.695970703125,168.992431640625L439.695970703125,168.992431640625L439.695970703125,169.992431640625ZM443.694970703125,169.992431640625L445.693970703125,169.992431640625L445.693970703125,168.992431640625L443.694970703125,168.992431640625L443.694970703125,169.992431640625ZM447.693970703125,169.992431640625L449.692970703125,169.992431640625L449.692970703125,168.992431640625L447.693970703125,168.992431640625L447.693970703125,169.992431640625ZM451.691970703125,169.992431640625L453.690970703125,169.992431640625L453.690970703125,168.992431640625L451.691970703125,168.992431640625L451.691970703125,169.992431640625ZM455.690970703125,169.992431640625L457.689970703125,169.992431640625L457.689970703125,168.992431640625L455.690970703125,168.992431640625L455.690970703125,169.992431640625ZM459.688970703125,169.992431640625L461.688970703125,169.992431640625L461.688970703125,168.992431640625L459.688970703125,168.992431640625L459.688970703125,169.992431640625ZM463.687970703125,169.992431640625L465.686970703125,169.992431640625L465.686970703125,168.992431640625L463.687970703125,168.992431640625L463.687970703125,169.992431640625ZM467.686970703125,169.992431640625L469.685970703125,169.992431640625L469.685970703125,168.992431640625L467.686970703125,168.992431640625L467.686970703125,169.992431640625ZM471.684970703125,169.992431640625L473.684970703125,169.992431640625L473.684970703125,168.992431640625L471.684970703125,168.992431640625L471.684970703125,169.992431640625ZM475.683970703125,169.992431640625L477.682970703125,169.992431640625L477.682970703125,168.992431640625L475.683970703125,168.992431640625L475.683970703125,169.992431640625ZM479.681970703125,169.992431640625L480.681970703125,169.992431640625L480.681970703125,168.992431640625L479.681970703125,168.992431640625L479.681970703125,169.992431640625Z" fill-rule="evenodd" fill="#3B3B3B" fill-opacity="1"/></g><g style="mix-blend-mode:passthrough"><path d="M44.844970703125,173.492431640625L44.844970703125,174.481399640625L45.844970703125,174.481399640625L45.844970703125,173.492431640625L44.844970703125,173.492431640625ZM44.844970703125,176.459351640625L44.844970703125,178.437281640625L45.844970703125,178.437281640625L45.844970703125,176.459351640625L44.844970703125,176.459351640625ZM44.844970703125,180.415231640625L44.844970703125,182.393161640625L45.844970703125,182.393161640625L45.844970703125,180.415231640625L44.844970703125,180.415231640625ZM44.844970703125,184.371131640625L44.844970703125,186.34903164062501L45.844970703125,186.34903164062501L45.844970703125,184.371131640625L44.844970703125,184.371131640625ZM44.844970703125,188.327031640625L44.844970703125,190.304931640625L45.844970703125,190.304931640625L45.844970703125,188.327031640625L44.844970703125,188.327031640625ZM44.844970703125,192.282831640625L44.844970703125,194.26083164062499L45.844970703125,194.26083164062499L45.844970703125,192.282831640625L44.844970703125,192.282831640625ZM44.844970703125,196.238731640625L44.844970703125,198.216731640625L45.844970703125,198.216731640625L45.844970703125,196.238731640625L44.844970703125,196.238731640625ZM44.844970703125,200.194631640625L44.844970703125,202.172531640625L45.844970703125,202.172531640625L45.844970703125,200.194631640625L44.844970703125,200.194631640625ZM44.844970703125,204.150531640625L44.844970703125,206.128431640625L45.844970703125,206.128431640625L45.844970703125,204.150531640625L44.844970703125,204.150531640625ZM44.844970703125,208.106431640625L44.844970703125,210.084331640625L45.844970703125,210.084331640625L45.844970703125,208.106431640625L44.844970703125,208.106431640625ZM44.844970703125,212.062331640625L44.844970703125,214.040231640625L45.844970703125,214.040231640625L45.844970703125,212.062331640625L44.844970703125,212.062331640625ZM44.844970703125,216.018131640625L44.844970703125,217.996131640625L45.844970703125,217.996131640625L45.844970703125,216.018131640625L44.844970703125,216.018131640625ZM44.844970703125,219.97403164062501L44.844970703125,221.952031640625L45.844970703125,221.952031640625L45.844970703125,219.97403164062501L44.844970703125,219.97403164062501ZM44.844970703125,223.929931640625L44.844970703125,225.907831640625L45.844970703125,225.907831640625L45.844970703125,223.929931640625L44.844970703125,223.929931640625ZM44.844970703125,227.88583164062499L44.844970703125,229.863731640625L45.844970703125,229.863731640625L45.844970703125,227.88583164062499L44.844970703125,227.88583164062499ZM44.844970703125,231.841731640625L44.844970703125,233.819631640625L45.844970703125,233.819631640625L45.844970703125,231.841731640625L44.844970703125,231.841731640625ZM44.844970703125,235.797531640625L44.844970703125,237.775531640625L45.844970703125,237.775531640625L45.844970703125,235.797531640625L44.844970703125,235.797531640625ZM44.844970703125,239.753431640625L44.844970703125,241.731431640625L45.844970703125,241.731431640625L45.844970703125,239.753431640625L44.844970703125,239.753431640625ZM44.844970703125,243.709331640625L44.844970703125,245.68733164062502L45.844970703125,245.68733164062502L45.844970703125,243.709331640625L44.844970703125,243.709331640625ZM44.844970703125,247.665231640625L44.844970703125,249.643131640625L45.844970703125,249.643131640625L45.844970703125,247.665231640625L44.844970703125,247.665231640625ZM44.844970703125,251.62113164062498L44.844970703125,253.59903164062501L45.844970703125,253.59903164062501L45.844970703125,251.62113164062498L44.844970703125,251.62113164062498ZM44.844970703125,255.577031640625L44.844970703125,257.554931640625L45.844970703125,257.554931640625L45.844970703125,255.577031640625L44.844970703125,255.577031640625ZM44.844970703125,259.532831640625L44.844970703125,261.510831640625L45.844970703125,261.510831640625L45.844970703125,259.532831640625L44.844970703125,259.532831640625ZM44.844970703125,263.488731640625L44.844970703125,265.46673164062497L45.844970703125,265.46673164062497L45.844970703125,263.488731640625L44.844970703125,263.488731640625ZM44.844970703125,267.444631640625L44.844970703125,269.422531640625L45.844970703125,269.422531640625L45.844970703125,267.444631640625L44.844970703125,267.444631640625ZM44.844970703125,271.400531640625L44.844970703125,273.37843164062497L45.844970703125,273.37843164062497L45.844970703125,271.400531640625L44.844970703125,271.400531640625ZM44.844970703125,275.35643164062503L44.844970703125,277.334431640625L45.844970703125,277.334431640625L45.844970703125,275.35643164062503L44.844970703125,275.35643164062503ZM44.844970703125,279.312431640625L44.844970703125,281.290431640625L45.844970703125,281.290431640625L45.844970703125,279.312431640625L44.844970703125,279.312431640625ZM44.844970703125,283.268431640625L44.844970703125,285.246431640625L45.844970703125,285.246431640625L45.844970703125,283.268431640625L44.844970703125,283.268431640625ZM44.844970703125,287.22443164062497L44.844970703125,289.202431640625L45.844970703125,289.202431640625L45.844970703125,287.22443164062497L44.844970703125,287.22443164062497ZM44.844970703125,291.180431640625L44.844970703125,293.157431640625L45.844970703125,293.157431640625L45.844970703125,291.180431640625L44.844970703125,291.180431640625ZM44.844970703125,295.13543164062503L44.844970703125,297.113431640625L45.844970703125,297.113431640625L45.844970703125,295.13543164062503L44.844970703125,295.13543164062503ZM44.844970703125,299.091431640625L44.844970703125,301.069431640625L45.844970703125,301.069431640625L45.844970703125,299.091431640625L44.844970703125,299.091431640625ZM44.844970703125,303.047431640625L44.844970703125,305.025431640625L45.844970703125,305.025431640625L45.844970703125,303.047431640625L44.844970703125,303.047431640625ZM44.844970703125,307.00343164062497L44.844970703125,307.992431640625L45.844970703125,307.992431640625L45.844970703125,307.00343164062497L44.844970703125,307.00343164062497Z" fill-rule="evenodd" fill="#00C155" fill-opacity="1"/></g><g style="mix-blend-mode:passthrough"><path d="M159.34497833251953,215.992431640625L159.34497833251953,216.992431640625L160.34497833251953,216.992431640625L160.34497833251953,215.992431640625L159.34497833251953,215.992431640625ZM159.34497833251953,218.992431640625L159.34497833251953,220.992431640625L160.34497833251953,220.992431640625L160.34497833251953,218.992431640625L159.34497833251953,218.992431640625ZM159.34497833251953,222.992431640625L159.34497833251953,224.992431640625L160.34497833251953,224.992431640625L160.34497833251953,222.992431640625L159.34497833251953,222.992431640625ZM159.34497833251953,226.992431640625L159.34497833251953,228.992431640625L160.34497833251953,228.992431640625L160.34497833251953,226.992431640625L159.34497833251953,226.992431640625ZM159.34497833251953,230.992431640625L159.34497833251953,232.992431640625L160.34497833251953,232.992431640625L160.34497833251953,230.992431640625L159.34497833251953,230.992431640625ZM159.34497833251953,234.992431640625L159.34497833251953,236.992431640625L160.34497833251953,236.992431640625L160.34497833251953,234.992431640625L159.34497833251953,234.992431640625ZM159.34497833251953,238.992431640625L159.34497833251953,240.992431640625L160.34497833251953,240.992431640625L160.34497833251953,238.992431640625L159.34497833251953,238.992431640625ZM159.34497833251953,242.992431640625L159.34497833251953,244.992431640625L160.34497833251953,244.992431640625L160.34497833251953,242.992431640625L159.34497833251953,242.992431640625ZM159.34497833251953,246.992431640625L159.34497833251953,248.992431640625L160.34497833251953,248.992431640625L160.34497833251953,246.992431640625L159.34497833251953,246.992431640625ZM159.34497833251953,250.992431640625L159.34497833251953,252.992431640625L160.34497833251953,252.992431640625L160.34497833251953,250.992431640625L159.34497833251953,250.992431640625ZM159.34497833251953,254.992431640625L159.34497833251953,256.992431640625L160.34497833251953,256.992431640625L160.34497833251953,254.992431640625L159.34497833251953,254.992431640625ZM159.34497833251953,258.992431640625L159.34497833251953,260.992431640625L160.34497833251953,260.992431640625L160.34497833251953,258.992431640625L159.34497833251953,258.992431640625ZM159.34497833251953,262.992431640625L159.34497833251953,264.992431640625L160.34497833251953,264.992431640625L160.34497833251953,262.992431640625L159.34497833251953,262.992431640625ZM159.34497833251953,266.992431640625L159.34497833251953,268.992431640625L160.34497833251953,268.992431640625L160.34497833251953,266.992431640625L159.34497833251953,266.992431640625ZM159.34497833251953,270.992431640625L159.34497833251953,272.992431640625L160.34497833251953,272.992431640625L160.34497833251953,270.992431640625L159.34497833251953,270.992431640625ZM159.34497833251953,274.992431640625L159.34497833251953,276.992431640625L160.34497833251953,276.992431640625L160.34497833251953,274.992431640625L159.34497833251953,274.992431640625ZM159.34497833251953,278.992431640625L159.34497833251953,280.992431640625L160.34497833251953,280.992431640625L160.34497833251953,278.992431640625L159.34497833251953,278.992431640625ZM159.34497833251953,282.992431640625L159.34497833251953,284.992431640625L160.34497833251953,284.992431640625L160.34497833251953,282.992431640625L159.34497833251953,282.992431640625ZM159.34497833251953,286.992431640625L159.34497833251953,288.992431640625L160.34497833251953,288.992431640625L160.34497833251953,286.992431640625L159.34497833251953,286.992431640625ZM159.34497833251953,290.992431640625L159.34497833251953,292.992431640625L160.34497833251953,292.992431640625L160.34497833251953,290.992431640625L159.34497833251953,290.992431640625ZM159.34497833251953,294.992431640625L159.34497833251953,296.992431640625L160.34497833251953,296.992431640625L160.34497833251953,294.992431640625L159.34497833251953,294.992431640625ZM159.34497833251953,298.992431640625L159.34497833251953,300.992431640625L160.34497833251953,300.992431640625L160.34497833251953,298.992431640625L159.34497833251953,298.992431640625ZM159.34497833251953,302.992431640625L159.34497833251953,304.992431640625L160.34497833251953,304.992431640625L160.34497833251953,302.992431640625L159.34497833251953,302.992431640625ZM159.34497833251953,306.992431640625L159.34497833251953,307.992431640625L160.34497833251953,307.992431640625L160.34497833251953,306.992431640625L159.34497833251953,306.992431640625Z" fill-rule="evenodd" fill="#00C155" fill-opacity="1"/></g></g></g></svg>