<svg xmlns="http://www.w3.org/2000/svg" xmlns:xlink="http://www.w3.org/1999/xlink" fill="none" version="1.1" width="38.721134185791016" height="38.721134185791016" viewBox="0 0 38.721134185791016 38.721134185791016"><g style="mix-blend-mode:passthrough"><path d="M19.3606,38.7211C30.0532,38.7211,38.7211,30.0532,38.7211,19.3606C38.7211,8.66802,30.0532,0,19.3606,0C8.66802,0,0,8.66802,0,19.3606C0,30.0532,8.66802,38.7211,19.3606,38.7211ZM19.3606,36.3979C28.7701,36.3979,36.3979,28.7701,36.3979,19.3606C36.3979,9.95113,28.7701,2.32327,19.3606,2.32327C9.95113,2.32327,2.32327,9.95113,2.32327,19.3606C2.32327,28.7701,9.95113,36.3979,19.3606,36.3979ZM18.1989,10.8419C18.1989,10.2004,18.719,9.68028,19.3606,9.68028C20.0022,9.68028,20.5222,10.2004,20.5222,10.8419C20.5222,11.4835,20.0022,12.0036,19.3606,12.0036C18.719,12.0036,18.1989,11.4835,18.1989,10.8419ZM19.3606,29.0409C18.719,29.0409,18.1989,28.5208,18.1989,27.8792L18.1989,14.714C18.1989,14.0724,18.719,13.5524,19.3606,13.5524C20.0022,13.5524,20.5222,14.0724,20.5222,14.714L20.5222,27.8792C20.5222,28.5208,20.0022,29.0409,19.3606,29.0409Z" fill-rule="evenodd" fill="#5A5A5A" fill-opacity="1"/></g></svg>