<svg xmlns="http://www.w3.org/2000/svg" xmlns:xlink="http://www.w3.org/1999/xlink" fill="none" version="1.1" width="198" height="187" viewBox="0 0 198 187"><g style="mix-blend-mode:passthrough"><path d="M41.1699,0L182.806,0L182.806,0.0454155Q188.803,0.468488,193.167,4.83274Q198,9.66548,198,16.5L198,39.6167L168,39.6167L168,170.5Q168,177.335,163.167,182.167Q158.335,187,151.5,187L13.5,187Q7.90812,187,3.95406,183.046Q0,179.092,0,173.5L0,160L27.6699,160L27.6699,13.5Q27.6699,7.90812,31.624,3.95406Q35.578,0,41.1699,0ZM136.5,160L30.6699,160L30.6699,13.5Q30.6699,9.15075,33.7453,6.07538Q36.8207,3,41.1699,3L171.973,3Q170.858,3.80766,169.833,4.83274Q165,9.66547,165,16.5L165,170.5Q165,176.092,161.046,180.046Q157.092,184,151.5,184Q145.908,184,141.954,180.046Q138,176.092,138,170.5L138,160.018L136.5,160.018L136.5,160ZM171.954,6.95406Q175.908,3,181.5,3Q187.092,3,191.046,6.95406Q195,10.9081,195,16.5L195,36.6167L168,36.6167L168,16.5Q168,10.9081,171.954,6.95406ZM67.1699,23.9106L57.1699,23.9106L57.1699,26.9106L67.1699,26.9106L67.1699,23.9106ZM85.0244,23.9106L75.0244,23.9106L75.0244,26.9106L85.0244,26.9106L85.0244,23.9106ZM102.879,23.9106L92.8794,23.9106L92.8794,26.9106L102.879,26.9106L102.879,23.9106ZM120.734,23.9106L110.734,23.9106L110.734,26.9106L120.734,26.9106L120.734,23.9106ZM138.588,23.9106L128.588,23.9106L128.588,26.9106L138.588,26.9106L138.588,23.9106ZM68.8789,56.8337Q68.8789,51.2419,72.833,47.2878Q76.787,43.3337,82.3789,43.3337L113.379,43.3337Q118.971,43.3337,122.925,47.2878Q126.879,51.2419,126.879,56.8337L126.879,83.3935Q129.348,83.696,131.182,85.5304Q133.379,87.7271,133.379,90.8337L133.379,130.834Q133.379,133.94,131.182,136.137Q128.986,138.334,125.879,138.334L69.8789,138.334Q66.7723,138.334,64.5756,136.137Q62.3789,133.94,62.3789,130.834L62.3789,90.8337Q62.3789,87.7271,64.5756,85.5304Q66.41,83.696,68.8789,83.3935L68.8789,56.8337ZM123.879,56.8337L123.879,83.3337L115.379,83.3337L115.379,62.8337Q115.379,59.7271,113.182,57.5304Q110.986,55.3337,107.879,55.3337L87.8789,55.3337Q84.7723,55.3337,82.5756,57.5304Q80.3789,59.7271,80.3789,62.8337L80.3789,83.3337L71.8789,83.3337L71.8789,56.8337Q71.8789,52.4845,74.9543,49.4091Q78.0297,46.3337,82.3789,46.3337L113.379,46.3337Q117.728,46.3337,120.804,49.4091Q123.879,52.4845,123.879,56.8337ZM83.3789,83.3337L112.379,83.3337L112.379,62.8337Q112.379,60.9698,111.061,59.6518Q109.743,58.3337,107.879,58.3337L87.8789,58.3337Q86.0149,58.3337,84.6969,59.6518Q83.3789,60.9698,83.3789,62.8337L83.3789,83.3337ZM69.8789,86.3337L125.879,86.3337Q127.743,86.3337,129.061,87.6518Q130.379,88.9698,130.379,90.8337L130.379,130.834Q130.379,132.698,129.061,134.016Q127.743,135.334,125.879,135.334L69.8789,135.334Q68.015,135.334,66.6969,134.016Q65.3789,132.698,65.3789,130.834L65.3789,90.8337Q65.3789,88.9698,66.6969,87.6518Q68.0149,86.3337,69.8789,86.3337ZM107.879,103.739C107.879,108.752,104.19,112.903,99.3789,113.627L99.3789,124.024L96.3789,124.024L96.3789,113.627C91.5676,112.903,87.8789,108.752,87.8789,103.739C87.8789,98.2158,92.3561,93.7386,97.8789,93.7386C103.402,93.7386,107.879,98.2158,107.879,103.739ZM102.829,98.7889Q104.879,100.839,104.879,103.739Q104.879,106.638,102.829,108.688Q100.778,110.739,97.8789,110.739Q94.9794,110.739,92.9292,108.688Q90.8789,106.638,90.8789,103.739Q90.8789,100.839,92.9292,98.7889Q94.9794,96.7386,97.8789,96.7386Q100.778,96.7386,102.829,98.7889ZM135,163L3,163L3,173.5Q3,177.849,6.07538,180.925Q9.15076,184,13.5,184L141.973,184Q140.858,183.192,139.833,182.167Q135,177.335,135,170.5L135,163Z" fill-rule="evenodd" fill="#656565" fill-opacity="1"/></g></svg>