<svg xmlns="http://www.w3.org/2000/svg"
    xmlns:xlink="http://www.w3.org/1999/xlink"  version="1.1" width="40.707275390625" height="36.4468994140625" viewBox="0 0 40.707275390625 36.4468994140625">
    <g style="mix-blend-mode:passthrough">
        <g style="mix-blend-mode:passthrough">
            <path d="M0,1.5C0,0.671573,0.671573,0,1.5,0C2.32843,0,3,0.671573,3,1.5L3,33.4468L39.2073,33.4469C40.0357,33.4469,40.7073,34.1185,40.7073,34.9469C40.7073,35.7753,40.0357,36.4469,39.2073,36.4469L2.5,36.4468Q1.46446,36.4468,0.73223,35.7145Q0,34.9823,0,33.9468L0,1.5ZM36.5629,10.0881C36.6941,9.86039,36.7632,9.60218,36.7632,9.33936C36.7632,8.51093,36.0916,7.83936,35.2632,7.83936C34.7268,7.83936,34.2312,8.12579,33.9634,8.59058L33.9629,8.59144L26.8985,20.8541Q26.7789,21.0616,26.5423,21.0985Q26.3057,21.1355,26.1286,20.9743L19.0385,14.5203Q17.8338,13.4236,16.2208,13.6374Q14.6049,13.8516,13.7302,15.228Q8.49236,23.4697,8.10545,24.0229L8.10509,24.0234C7.92863,24.2755,7.83398,24.5758,7.83398,24.8835C7.83398,25.712,8.50556,26.3835,9.33398,26.3835C9.82348,26.3835,10.2822,26.1447,10.5629,25.7437Q10.986,25.1392,16.2621,16.8371Q16.3863,16.6417,16.615,16.6114Q16.8456,16.5809,17.0191,16.7388L24.1092,23.1928Q25.3488,24.3212,27.005,24.0627Q28.6612,23.8041,29.498,22.3517L36.5627,10.0886L36.5629,10.0881Z" fill-rule="evenodd"  fill-opacity="1"/>
        </g>
    </g>
</svg>