<svg xmlns="http://www.w3.org/2000/svg" xmlns:xlink="http://www.w3.org/1999/xlink" fill="none" version="1.1" width="51" height="51" viewBox="0 0 51 51"><g style="mix-blend-mode:passthrough"><g style="mix-blend-mode:passthrough"><g style="mix-blend-mode:passthrough"><g style="mix-blend-mode:passthrough"><path d="M2.1967,2.1967Q0,4.3934,0,7.5L0,43.5Q-2.38419e-7,46.6066,2.1967,48.8033Q4.39339,51,7.5,51L43.5,51Q46.6066,51,48.8033,48.8033Q51,46.6066,51,43.5L51,7.5Q51,4.39339,48.8033,2.1967Q46.6066,0,43.5,0L7.5,0Q4.3934,-2.38419e-7,2.1967,2.1967ZM3,43.5L3,7.5Q3,5.63604,4.31802,4.31802Q5.63604,3,7.5,3L43.5,3Q45.364,3,46.682,4.31802Q48,5.63604,48,7.5L48,43.5Q48,45.364,46.682,46.682Q45.364,48,43.5,48L7.5,48Q5.63604,48,4.31802,46.682Q3,45.364,3,43.5Z" fill-rule="evenodd" fill="#00C155" fill-opacity="1"/></g><g style="mix-blend-mode:passthrough"><path d="M34.333,20.9969Q35,19.3121,35,17.5Q35,15.687940000000001,34.333,14.0031Q33.6088,12.173729999999999,32.2175,10.78249Q30.8263,9.39124,28.9969,8.667011Q27.3121,8,25.5,8Q23.68794,8,22.0031,8.667011Q20.17373,9.39124,18.78249,10.78249Q17.39124,12.173729999999999,16.667011,14.0031Q16,15.687940000000001,16,17.5Q16,19.3121,16.667011,20.9969Q17.39124,22.8263,18.78249,24.2175Q20.17373,25.6088,22.0031,26.333Q23.68794,27,25.5,27Q27.3121,27,28.9969,26.333Q30.8263,25.6088,32.2175,24.2175Q33.6088,22.8263,34.333,20.9969ZM30.0962,12.90381Q32,14.80761,32,17.5Q32,20.1924,30.0962,22.0962Q28.1924,24,25.5,24Q22.80761,24,20.90381,22.0962Q19,20.1924,19,17.5Q19,14.80761,20.90381,12.90381Q22.80761,11,25.5,11Q28.1924,11,30.0962,12.90381Z" fill-rule="evenodd" fill="#000000" fill-opacity="1"/></g><g style="mix-blend-mode:passthrough"><path d="M9,36.5L9,41.5C9,42.3284,9.671573,43,10.5,43C11.32843,43,12,42.3284,12,41.5L12,36.5Q12,34.63604,13.31802,33.31802Q14.636040000000001,32,16.5,32L34.5,32Q36.364000000000004,32,37.682,33.31802Q39,34.63604,39,36.5L39,41.5C39,42.3284,39.6716,43,40.5,43C41.3284,43,42,42.3284,42,41.5L42,36.5Q42,33.3934,39.8033,31.1967Q37.6066,28.999999880791,34.5,29L16.5,29Q13.3934,28.999999761581,11.1967,31.1967Q9,33.3934,9,36.5Z" fill-rule="evenodd" fill="#000000" fill-opacity="1"/></g></g></g></g></svg>