<svg xmlns="http://www.w3.org/2000/svg"
    xmlns:xlink="http://www.w3.org/1999/xlink"  version="1.1" width="32.526912689208984" height="42.526912689208984" viewBox="0 0 32.526912689208984 42.526912689208984">
    <g style="mix-blend-mode:passthrough">
        <g>
            <g style="mix-blend-mode:passthrough">
                <g>
                    <g style="mix-blend-mode:passthrough" transform="matrix(-0.7071067690849304,0.7071067690849304,-0.7071067690849304,-0.7071067690849304,67.02691289917027,4.763456274617397)">
                        <path d="M32.526912689208984,17.763456344604492C32.526912689208984,16.93502934460449,33.19848568920899,16.263456344604492,34.026912689208984,16.263456344604492C34.85534268920898,16.263456344604492,35.526912689208984,16.93502934460449,35.526912689208984,17.763456344604492L35.526912689208984,36.26345634460449L54.026912689208984,36.26345634460449C54.855312689208986,36.26345634460449,55.526912689208984,36.93505634460449,55.526912689208984,37.76345634460449C55.526912689208984,38.591856344604494,54.855312689208986,39.26345634460449,54.026912689208984,39.26345634460449L35.026912689208984,39.26345634460449Q33.99138268920898,39.26345634460449,33.259145689208985,38.53125634460449Q32.526912689208984,37.79895634460449,32.526912689208984,36.76345634460449L32.526912689208984,17.763456344604492Z" fill-rule="evenodd"  fill-opacity="1"/>
                    </g>
                    <g style="mix-blend-mode:passthrough" transform="matrix(-0.7071067690849304,0.7071067690849304,-0.7071067690849304,-0.7071067690849304,74.09798059001957,21.8345239654667)">
                        <path d="M32.526912689208984,27.763456344604492C32.526912689208984,26.93502934460449,33.19848568920899,26.263456344604492,34.026912689208984,26.263456344604492C34.85534268920898,26.263456344604492,35.526912689208984,26.93502934460449,35.526912689208984,27.763456344604492L35.526912689208984,46.26345634460449L54.026912689208984,46.26345634460449C54.855312689208986,46.26345634460449,55.526912689208984,46.93505634460449,55.526912689208984,47.76345634460449C55.526912689208984,48.591856344604494,54.855312689208986,49.26345634460449,54.026912689208984,49.26345634460449L35.026912689208984,49.26345634460449Q33.99138268920898,49.26345634460449,33.259145689208985,48.53125634460449Q32.526912689208984,47.79895634460449,32.526912689208984,46.76345634460449L32.526912689208984,27.763456344604492Z" fill-rule="evenodd"  fill-opacity="1"/>
                    </g>
                </g>
            </g>
        </g>
    </g>
</svg>