<svg xmlns="http://www.w3.org/2000/svg"
    xmlns:xlink="http://www.w3.org/1999/xlink" version="1.1" width="32.526912689208984" height="42.526912689208984" viewBox="0 0 32.526912689208984 42.526912689208984">
    <g style="mix-blend-mode:passthrough" transform="matrix(-1,0,0,-1,65.05382537841797,85.05382537841797)">
        <g>
            <g style="mix-blend-mode:passthrough">
                <g>
                    <g style="mix-blend-mode:passthrough" transform="matrix(-0.7071067690849304,0.7071067690849304,-0.7071067690849304,-0.7071067690849304,152.62489355917694,54.361436654675686)">
                        <path d="M65.05382537841797,60.29036903381348C65.05382537841797,59.46194203381348,65.72539837841796,58.79036903381348,66.55382537841797,58.79036903381348C67.38225537841797,58.79036903381348,68.05382537841797,59.46194203381348,68.05382537841797,60.29036903381348L68.05382537841797,78.79036903381348L86.55382537841797,78.79036903381348C87.38222537841797,78.79036903381348,88.05382537841797,79.46196903381347,88.05382537841797,80.29036903381348C88.05382537841797,81.11876903381348,87.38222537841797,81.79036903381348,86.55382537841797,81.79036903381348L67.55382537841797,81.79036903381348Q66.51829537841797,81.79036903381348,65.78605837841796,81.05816903381347Q65.05382537841797,80.32586903381348,65.05382537841797,79.29036903381348L65.05382537841797,60.29036903381348Z" fill-rule="evenodd"  fill-opacity="1"/>
                    </g>
                    <g style="mix-blend-mode:passthrough" transform="matrix(-0.7071067690849304,0.7071067690849304,-0.7071067690849304,-0.7071067690849304,159.69596125002624,71.43250434552499)">
                        <path d="M65.05382537841797,70.29036903381348C65.05382537841797,69.46194203381347,65.72539837841796,68.79036903381348,66.55382537841797,68.79036903381348C67.38225537841797,68.79036903381348,68.05382537841797,69.46194203381347,68.05382537841797,70.29036903381348L68.05382537841797,88.79036903381348L86.55382537841797,88.79036903381348C87.38222537841797,88.79036903381348,88.05382537841797,89.46196903381347,88.05382537841797,90.29036903381348C88.05382537841797,91.11876903381348,87.38222537841797,91.79036903381348,86.55382537841797,91.79036903381348L67.55382537841797,91.79036903381348Q66.51829537841797,91.79036903381348,65.78605837841796,91.05816903381347Q65.05382537841797,90.32586903381348,65.05382537841797,89.29036903381348L65.05382537841797,70.29036903381348Z" fill-rule="evenodd"  fill-opacity="1"/>
                    </g>
                </g>
            </g>
        </g>
    </g>
</svg>