<svg xmlns="http://www.w3.org/2000/svg"
    xmlns:xlink="http://www.w3.org/1999/xlink" class="icon" version="1.1" width="40" height="40" viewBox="0 0 40 40">
    <!-- <g style="mix-blend-mode:passthrough"> -->
        <path d="M20,40C31.0457,40,40,31.0457,40,20C40,8.95431,31.0457,0,20,0C8.95431,0,0,8.95431,0,20C0,31.0457,8.95431,40,20,40ZM20,37.6C29.7202,37.6,37.6,29.7202,37.6,20C37.6,10.2798,29.7202,2.4,20,2.4C10.2798,2.4,2.4,10.2798,2.4,20C2.4,29.7202,10.2798,37.6,20,37.6ZM7.15147,19.225C7.6201,18.7564,8.3799,18.7564,8.84853,19.225L16.4853,26.8617L30.9103,12.4368C31.3789,11.9681,32.1387,11.9681,32.6073,12.4368C33.0759,12.9054,33.0759,13.6652,32.6073,14.1338L18.1823,28.5588C17.2451,29.496,15.7255,29.4961,14.7882,28.5588L7.15147,20.922C6.68284,20.4534,6.68284,19.6936,7.15147,19.225Z" fill-rule="evenodd"  fill-opacity="1"/>
    <!-- </g> -->
</svg>