<svg xmlns="http://www.w3.org/2000/svg" xmlns:xlink="http://www.w3.org/1999/xlink" fill="none" version="1.1" width="54.93701171875" height="63.707763671875" viewBox="0 0 54.93701171875 63.707763671875"><g style="mix-blend-mode:passthrough"><g><path d="M4.25384521484375,22.04211609375Q4.25384521484375,21.23082609375,4.82750321484375,20.65721909375Q5.40119521484375,20.08349609375,6.21246521484375,20.08349609375L24.46114521484375,20.08349609375Q25.27234521484375,20.08349609375,25.84604521484375,20.65721909375Q26.41974521484375,21.23082609375,26.41974521484375,22.04211609375Q26.41974521484375,23.74280609375,25.21724521484375,24.94521609375Q24.34064521484375,25.82182609375,23.19944521484375,26.059416093750002L23.19944521484375,32.86779609375Q23.19944521484375,35.41999609375,21.39474521484375,37.22469609375Q20.73154521484375,37.88789609375,19.96754521484375,38.30729609375Q19.97904521484375,38.42899609375,19.97904521484375,38.555396093750005L19.97904521484375,39.87989609375Q19.97904521484375,40.86149609375,19.284945214843752,41.55569609375Q18.59084521484375,42.24969609375,17.60924521484375,42.24969609375L13.06440521484375,42.24969609375Q12.08278521484375,42.24969609375,11.388675214843751,41.55569609375Q10.69455521484375,40.86149609375,10.69455521484375,39.87989609375L10.69455521484375,38.555396093750005Q10.69455521484375,38.42899609375,10.70606521484375,38.30729609375Q9.94201521484375,37.88789609375,9.27889521484375,37.22469609375Q7.47419521484375,35.41999609375,7.47419521484375,32.86779609375L7.47419521484375,26.059416093750002Q6.33291521484375,25.82183609375,5.4563252148437495,24.94521609375Q4.25384521484375,23.74280609375,4.25384521484375,22.04211609375ZM8.359395214843751,23.30389609375L22.31414521484375,23.30389609375Q22.83684521484375,23.30389609375,23.20634521484375,22.93440609375Q23.20974521484375,22.93093609375,23.21334521484375,22.92734609375L7.46025521484375,22.92734609375Q7.46372521484375,22.93082609375,7.46722521484375,22.93440609375Q7.83676521484375,23.30389609375,8.359395214843751,23.30389609375ZM19.383845214843753,35.21379609375Q18.422645214843747,36.174996093749996,17.06754521484375,36.185496093750004L13.60602521484375,36.185496093750004Q12.250995214843751,36.174996093749996,11.28976521484375,35.21379609375Q10.31801521484375,34.241996093750004,10.31801521484375,32.86779609375L10.31801521484375,26.14774609375L20.35554521484375,26.14774609375L20.35554521484375,32.86779609375Q20.35554521484375,34.241996093750004,19.383845214843753,35.21379609375ZM29.99334521484375,33.97519609375L29.99334521484375,38.251596093749995L27.36614521484375,38.251596093749995L30.36874521484375,42.52809609375L33.37124521484375,38.251596093749995L30.74404521484375,38.251596093749995L30.74404521484375,33.97519609375L29.99334521484375,33.97519609375ZM13.63580521484375,39.02939609375Q13.61547521484375,39.02939609375,13.59520521484375,39.02929609375L13.53837521484375,39.02929609375L13.53837521484375,39.40589609375L17.13524521484375,39.40589609375L17.13524521484375,39.02929609375L17.07844521484375,39.02929609375Q17.058145214843748,39.02939609375,17.03784521484375,39.02939609375L13.63580521484375,39.02939609375ZM7.60796521484375,44.14589609375L26.93004521484375,44.14589609375C27.45354521484375,44.14589609375,27.87794521484375,44.57029609375,27.87794521484375,45.09379609375C27.87794521484375,45.61729609375,27.45354521484375,46.04179609375,26.93004521484375,46.04179609375L7.60796521484375,46.04179609375C7.0844452148437504,46.04179609375,6.66002521484375,45.61729609375,6.66002521484375,45.09379609375C6.66002521484375,44.57029609375,7.0844452148437504,44.14589609375,7.60796521484375,44.14589609375Z" fill-rule="evenodd" fill="#000000" fill-opacity="1"/></g><g style="mix-blend-mode:passthrough" transform="matrix(0,1,-1,0,53.4532470703125,-51.0152587890625)"><path d="M114.71345292968749,48.669594140625Q114.6424529296875,47.544494140625,114.0493529296875,46.585694140625L87.3056529296875,3.351684140625Q86.7346529296875,2.428664140625,85.8056529296875,1.867406140625Q84.7324529296875,1.218994140625,83.4786529296875,1.218994140625Q82.2247529296875,1.218994140625,81.1515529296875,1.867406140625Q80.2225529296875,2.428674140625,79.6516529296875,3.351684140625L52.9078649296875,46.585694140625Q52.3148036296875,47.544494140625,52.2437925296875,48.669594140625Q52.1605267296875,49.988894140625,52.8040239296875,51.143594140625Q53.4475229296875,52.298294140625,54.6133129296875,52.921494140625Q55.6075029296875,53.452994140625,56.7348529296875,53.452994140625L110.2223529296875,53.452994140625Q111.3497529296875,53.452994140625,112.3439529296875,52.921494140625Q113.5097529296875,52.298294140625,114.1532529296875,51.143594140625Q114.7967529296875,49.988794140625,114.71345292968749,48.669594140625ZM84.75425292968751,4.9298941406250005L111.4980529296875,48.163894140625Q111.9616529296875,48.913394140625,111.5326529296875,49.683194140625Q111.1036529296875,50.452994140625,110.2223529296875,50.452994140625L56.7348529296875,50.452994140625Q55.8535829296875,50.452994140625,55.4245829296875,49.683194140625Q54.9955829296875,48.913394140625,55.459192929687504,48.163894140625L82.2029529296875,4.9298941406250005Q82.6427529296875,4.218994140625,83.4786529296875,4.218994140625Q84.3145529296875,4.218994140625,84.75425292968751,4.9298941406250005Z" fill-rule="evenodd" fill="#000000" fill-opacity="1"/></g></g></svg>