<svg xmlns="http://www.w3.org/2000/svg" xmlns:xlink="http://www.w3.org/1999/xlink" fill="none" version="1.1" width="52.73681640625" height="47.13294982910156" viewBox="0 0 52.73681640625 47.13294982910156"><g style="mix-blend-mode:passthrough"><g><g style="mix-blend-mode:passthrough"><path d="M67.25951640625,55.01951982910156C67.63461640625,54.687939829101566,68.01261640625,54.36068982910156,68.39291640625,54.03870982910156L68.39311640625,54.03836982910156L68.39311640625,54.038199829101565L68.39331640625,54.036609829101565L68.39441640625,54.03643982910156L68.39521640625,54.03681982910156C71.84111640625,51.119769829101564,75.47351640625,48.63531982910156,78.74431640625,47.27864882910156C78.97721640625,47.182026129101565,79.23341640625,47.182049129101564,79.46631640625,47.27867282910156C82.73771640625,48.63562982910156,86.37101640624999,51.12087982910156,89.81991640625,54.04068982910157C95.30441640625,58.68424982910156,100.31551640625,64.42294982910155,102.64261640625,68.45354982910156C107.75461640625,77.30784982910157,105.75351640625,88.03364982910156,98.17291640625001,92.41024982910156C92.45981640625,95.70874982910156,85.20811640625,94.45964982910156,79.79371640625,89.85384982910156C79.39381640625,89.51364982910155,78.81671640625,89.51364982910155,78.41691640625,89.85384982910156C73.00241640625,94.45964982910156,65.75071640625,95.70874982910156,60.03764640625,92.41024982910156C52.45704940625,88.03364982910156,50.45587640625,77.30784982910157,55.56790640625,68.45354982910156C57.73383640625,64.70204982910155,62.22495640625,59.47094982910156,67.25871640625,55.020269829101565L67.25951640625,55.01951982910156ZM70.32421640625,56.334399829101564L70.33141640625,56.328359829101565L70.33271640625,56.327219829101566L70.33351640625,56.32655982910156Q75.19171640625,52.213989829101564,79.10531640625,50.39655982910156Q83.00271640625,52.206559829101565,87.83871640625,56.29415982910156Q87.88061640625,56.33096982910156,87.92381640625,56.36619982910156Q91.78121640625,59.63734982910157,95.16871640625,63.46514982910156Q98.41871640625,67.13754982910156,100.04461640625,69.95354982910156Q101.66451640625,72.75934982910157,102.21331640625,75.84254982910156Q102.73671640625,78.78264982910156,102.21841640625,81.56074982910155Q101.71241640625,84.27274982910157,100.29261640625,86.40084982910156Q98.85871640625,88.55024982910156,96.67291640625001,89.81214982910157Q93.35331640625,91.72874982910156,89.31191640624999,91.12864982910156Q85.20571640624999,90.51904982910156,81.73751640625,87.56874982910156Q80.59711640625,86.59874982910156,79.10531640625,86.59874982910156Q77.61341640625,86.59874982910156,76.47311640625,87.56874982910156Q73.00481640625,90.51904982910156,68.89861640625,91.12864982910156Q64.85721640625,91.72874982910156,61.53764640625,89.81224982910156Q59.35188640625,88.55024982910156,57.91789640625,86.40084982910156Q56.49812640625,84.27274982910157,55.99214640625,81.56074982910155Q55.47382640625,78.78264982910156,55.99721640625,75.84254982910156Q56.54604640625,72.75934982910157,58.16597640625,69.95354982910156Q59.79205640625,67.13714982910156,63.04271640625,63.46414982910156Q66.44651640625,59.61814982910156,70.32421640625,56.334399829101564ZM69.36281640625,55.18295982910156L69.36211640625,55.18352982910156L70.33071640625,56.32759982910156L70.33211640625001,56.32643982910156L69.36281640625,55.18295982910156ZM68.55661640625,57.03261982910156Q68.31331640625,57.04619982910156,68.07931640625,57.02291982910156Q68.31481640625,57.04707982910156,68.55661640625,57.03261982910156Z" fill-rule="evenodd" transform="matrix(-1,0,0,-1,105.4736328125,94.26589965820312)" fill="#000000" fill-opacity="1"/></g><g style="mix-blend-mode:passthrough"><path d="M42.6069,24.869523735351564L32.202600000000004,24.869543735351563Q32.100300000000004,24.869543735351563,31.999,24.855653735351563Q31.8977,24.841773735351563,31.7992,24.814263735351563Q31.7007,24.786763735351563,31.6068,24.746133735351563Q31.513,24.705513735351563,31.4255,24.652523735351565Q31.338,24.599533735351564,31.2585,24.53516373535156Q31.179,24.470793735351563,31.109,24.396233735351565Q31.039,24.321663735351564,30.9798,24.238283735351562Q30.9206,24.154913735351563,30.8732,24.064273735351563L27.0642,16.77543273535156L28.3936,16.080703735351562L29.7324,16.75722273535156L22.7892,30.49720373535156Q22.756,30.563003735351565,22.7165,30.625203735351562Q22.6769,30.687403735351563,22.6315,30.745403735351562Q22.5861,30.803403735351562,22.5352,30.856703735351562Q22.4843,30.910003735351562,22.4284,30.95800373535156Q22.3725,31.006103735351562,22.3122,31.048403735351563Q22.2519,31.090803735351564,22.1877,31.127003735351565Q22.1236,31.163203735351562,22.0561,31.19300373535156Q21.9887,31.222703735351562,21.9187,31.24570373535156Q21.8487,31.268703735351565,21.7768,31.284803735351563Q21.7049,31.300803735351565,21.6317,31.30970373535156Q21.5586,31.318603735351562,21.4849,31.320303735351562Q21.4112,31.322003735351565,21.3377,31.316403735351564Q21.2643,31.310903735351562,21.1917,31.298203735351564Q21.1191,31.28550373535156,21.0481,31.265703735351565Q20.9771,31.246003735351565,20.9084,31.219303735351563Q20.8397,31.192703735351564,20.7739,31.159503735351564Q20.5831,31.06310373535156,20.4269,30.917203735351563Q20.2706,30.771303735351562,20.1613,30.587603735351564L13.138,18.78136373535156L14.4272,18.01448373535156L15.6495,18.883913735351562L11.84048,24.238973735351564Q11.73647,24.385203735351563,11.6009,24.50277373535156Q11.46533,24.62034373535156,11.30585,24.702613735351562Q11.14637,24.784883735351563,10.97199,24.827213735351563Q10.7976,24.869543735351563,10.61816,24.869543735351563L3,24.869543735351563L3,21.869543735351563L10.61816,21.869543735351563L10.61816,23.369543735351563L9.39583,22.500103735351562L13.2048,17.145043735351564Q13.3883,16.887144735351562,13.6603,16.725337735351562Q13.7236,16.687662735351562,13.7903,16.65637673535156Q13.857,16.625091735351564,13.9265,16.60049573535156Q13.996,16.575900735351563,14.0675,16.558232735351563Q14.1391,16.540564735351563,14.212,16.529993735351564Q14.2849,16.51942273535156,14.3585,16.516050735351563Q14.4321,16.512678735351564,14.5057,16.516538735351563Q14.5793,16.520398735351563,14.6522,16.53145273535156Q14.725,16.542506735351562,14.7965,16.560648735351563Q14.8679,16.57879173535156,14.9372,16.603846735351564Q15.0065,16.628901735351562,15.073,16.660629735351563Q15.1395,16.692356735351563,15.2026,16.730450735351564Q15.2657,16.768543735351564,15.3247,16.81263773535156Q15.3837,16.85673073535156,15.4382,16.906398735351562Q15.4926,16.956066735351563,15.5419,17.010831735351562Q15.5912,17.06559573535156,15.6349,17.12493373535156Q15.6786,17.184263735351564,15.7163,17.24759373535156L22.7396,29.053803735351565L21.4504,29.820703735351564L20.1117,29.14420373535156L27.0548,15.404184735351562Q27.1608,15.194534735351562,27.3257,15.027303735351563Q27.4907,14.860083735351562,27.6989,14.751283735351562Q27.7642,14.717153735351562,27.8325,14.689593735351563Q27.9009,14.662023735351562,27.9716,14.641293735351562Q28.0423,14.620563735351563,28.1147,14.606863735351563Q28.1871,14.593163735351563,28.2605,14.586623735351562Q28.3339,14.580083735351563,28.4076,14.580773735351563Q28.4813,14.581453735351563,28.5546,14.589363735351562Q28.6278,14.597273735351562,28.7,14.612313735351563Q28.7721,14.627363735351562,28.8424,14.649413735351562Q28.9127,14.671463735351562,28.9805,14.700293735351563Q29.0484,14.729133735351562,29.113,14.764473735351562Q29.1777,14.799813735351563,29.2386,14.841323735351562Q29.2994,14.882833735351563,29.356,14.930113735351563Q29.4125,14.977393735351562,29.4641,15.029983735351562Q29.5157,15.082570735351563,29.562,15.139967735351563Q29.6082,15.197364735351563,29.6485,15.259014735351563Q29.6889,15.320664735351562,29.723,15.385974735351562L33.532,22.674813735351563L32.202600000000004,23.369543735351563L32.202600000000004,21.869543735351563L42.6069,21.869523735351564L42.6069,24.869523735351564ZM44.1069,23.369523735351564Q44.1069,23.443213735351563,44.0997,23.51654373535156Q44.0925,23.589883735351563,44.0781,23.662153735351563Q44.0637,23.734433735351562,44.0423,23.80495373535156Q44.021,23.875463735351563,43.9928,23.94354373535156Q43.9646,24.011623735351563,43.9298,24.076613735351565Q43.8951,24.141603735351563,43.8541,24.202873735351563Q43.8132,24.26414373535156,43.7664,24.321113735351563Q43.7197,24.378073735351563,43.6676,24.430183735351562Q43.6155,24.48228373535156,43.5585,24.52903373535156Q43.5016,24.575783735351564,43.4403,24.616723735351563Q43.379,24.657663735351562,43.314,24.69240373535156Q43.249,24.72714373535156,43.181,24.755343735351563Q43.1129,24.783543735351564,43.0424,24.80493373535156Q42.9718,24.826323735351565,42.8996,24.840693735351564Q42.8273,24.85507373535156,42.754,24.86230373535156Q42.6806,24.869523735351564,42.6069,24.869523735351564Q42.5332,24.869523735351564,42.4599,24.86230373535156Q42.3866,24.85507373535156,42.3143,24.840693735351564Q42.242,24.826323735351565,42.1715,24.80493373535156Q42.101,24.783543735351564,42.0329,24.755343735351563Q41.9648,24.72714373535156,41.8998,24.69240373535156Q41.8348,24.657663735351562,41.7736,24.616723735351563Q41.7123,24.575783735351564,41.6553,24.52903373535156Q41.5984,24.48228373535156,41.5463,24.430183735351562Q41.4942,24.378073735351563,41.4474,24.321113735351563Q41.4007,24.26414373535156,41.3597,24.202873735351563Q41.3188,24.141603735351563,41.2841,24.076613735351565Q41.2493,24.011623735351563,41.2211,23.94354373535156Q41.1929,23.875463735351563,41.1715,23.804943735351564Q41.1501,23.734433735351562,41.1358,23.662153735351563Q41.1214,23.589883735351563,41.1142,23.51654373535156Q41.1069,23.443213735351563,41.1069,23.369523735351564Q41.1069,23.295833735351565,41.1142,23.222493735351563Q41.1214,23.149163735351564,41.1358,23.07688373535156Q41.1501,23.004613735351562,41.1715,22.934093735351563Q41.1929,22.86357373535156,41.2211,22.795493735351563Q41.2493,22.72741373535156,41.2841,22.662423735351563Q41.3188,22.59743373535156,41.3597,22.536163735351565Q41.4007,22.474893735351564,41.4474,22.41793373535156Q41.4942,22.360973735351564,41.5463,22.30886373535156Q41.5984,22.256753735351563,41.6553,22.210003735351563Q41.7123,22.163253735351564,41.7736,22.12231373535156Q41.8348,22.081373735351562,41.8998,22.046643735351562Q41.9648,22.011903735351563,42.0329,21.98370373535156Q42.101,21.955503735351563,42.1715,21.934113735351563Q42.242,21.912723735351562,42.3143,21.898343735351563Q42.3866,21.883963735351564,42.4599,21.87674373535156Q42.5332,21.869523735351564,42.6069,21.869523735351564Q42.6806,21.869523735351564,42.754,21.87674373535156Q42.8273,21.883963735351564,42.8996,21.898343735351563Q42.9718,21.912723735351562,43.0424,21.934113735351563Q43.1129,21.955503735351563,43.181,21.98370373535156Q43.249,22.011903735351563,43.314,22.046643735351562Q43.379,22.081373735351562,43.4403,22.12231373535156Q43.5016,22.163253735351564,43.5585,22.210003735351563Q43.6155,22.256753735351563,43.6676,22.30886373535156Q43.7197,22.360973735351564,43.7664,22.41793373535156Q43.8132,22.474893735351564,43.8541,22.536163735351565Q43.8951,22.59743373535156,43.9298,22.662423735351563Q43.9646,22.72741373535156,43.9928,22.795493735351563Q44.021,22.86357373535156,44.0423,22.934093735351563Q44.0637,23.004613735351562,44.0781,23.07688373535156Q44.0925,23.149163735351564,44.0997,23.222493735351563Q44.1069,23.295833735351565,44.1069,23.369523735351564Z" fill="#000000" fill-opacity="1"/></g></g></g></svg>