<svg xmlns="http://www.w3.org/2000/svg" xmlns:xlink="http://www.w3.org/1999/xlink" fill="none" version="1.1" width="52.159423828125" height="51" viewBox="0 0 52.159423828125 51"><g style="mix-blend-mode:passthrough"><g style="mix-blend-mode:passthrough"><g style="mix-blend-mode:passthrough"><path d="M4.312011984375,0.732178Q3.579833984375,1.46448,3.579833984375,2.5L3.579833984375,48.5Q3.579833984375,49.5355,4.312011984375,50.2678Q5.044193984375,51,6.079833984375,51L46.079833984375,51Q47.115433984375,51,47.847633984375,50.2678Q48.579833984375,49.5355,48.579833984375,48.5L48.579833984375,2.5Q48.579833984375,1.46448,47.847633984375,0.732178Q47.115433984375,0,46.079833984375,0L6.079833984375,0Q5.044193984375,0,4.312011984375,0.732178ZM6.579833984375,3L6.579833984375,48L45.579833984375,48L45.579833984375,3L6.579833984375,3Z" fill-rule="evenodd" fill="#000000" fill-opacity="1"/></g></g><g style="mix-blend-mode:passthrough"><g style="mix-blend-mode:passthrough"><g style="mix-blend-mode:passthrough"><g style="mix-blend-mode:passthrough"><g style="mix-blend-mode:passthrough" transform="matrix(-1,0,0,-1,23.29008674621582,25.017333984375)"><path d="M13.14504337310791,12.5086669921875L21.79004337310791,12.5086669921875C22.618443373107908,12.5086669921875,23.29004337310791,13.1802979921875,23.29004337310791,14.0086669921875C23.29004337310791,14.8370369921875,22.618443373107908,15.5086669921875,21.79004337310791,15.5086669921875L13.14504337310791,15.5086669921875C12.31667437310791,15.5086669921875,11.64504337310791,14.8370369921875,11.64504337310791,14.0086669921875C11.64504337310791,13.1802979921875,12.31667437310791,12.5086669921875,13.14504337310791,12.5086669921875Z" fill-rule="evenodd" fill="#000000" fill-opacity="1"/></g><g style="mix-blend-mode:passthrough" transform="matrix(-1,0,0,-1,23.29008674621582,54.00009536743164)"><path d="M13.14504337310791,27.00004768371582L21.79004337310791,27.00004768371582C22.618443373107908,27.00004768371582,23.29004337310791,27.67167868371582,23.29004337310791,28.50004768371582C23.29004337310791,29.32841768371582,22.618443373107908,30.00004768371582,21.79004337310791,30.00004768371582L13.14504337310791,30.00004768371582C12.31667437310791,30.00004768371582,11.64504337310791,29.32841768371582,11.64504337310791,28.50004768371582C11.64504337310791,27.67167868371582,12.31667437310791,27.00004768371582,13.14504337310791,27.00004768371582Z" fill-rule="evenodd" fill="#000000" fill-opacity="1"/></g><g style="mix-blend-mode:passthrough" transform="matrix(-1,0,0,-1,23.29008674621582,82.98285675048828)"><path d="M13.14504337310791,41.49142837524414L21.79004337310791,41.49142837524414C22.618443373107908,41.49142837524414,23.29004337310791,42.16305937524414,23.29004337310791,42.99142837524414C23.29004337310791,43.81979837524414,22.618443373107908,44.49142837524414,21.79004337310791,44.49142837524414L13.14504337310791,44.49142837524414C12.31667437310791,44.49142837524414,11.64504337310791,43.81979837524414,11.64504337310791,42.99142837524414C11.64504337310791,42.16305937524414,12.31667437310791,41.49142837524414,13.14504337310791,41.49142837524414Z" fill-rule="evenodd" fill="#000000" fill-opacity="1"/></g></g></g></g><g style="mix-blend-mode:passthrough"><g style="mix-blend-mode:passthrough"><g style="mix-blend-mode:passthrough"><g style="mix-blend-mode:passthrough" transform="matrix(-1,0,0,-1,104.31891822814941,25.017333984375)"><path d="M53.65945911407471,12.5086669921875L62.3044591140747,12.5086669921875C63.132859114074705,12.5086669921875,63.8044591140747,13.1802979921875,63.8044591140747,14.0086669921875C63.8044591140747,14.8370369921875,63.132859114074705,15.5086669921875,62.3044591140747,15.5086669921875L53.65945911407471,15.5086669921875C52.831090114074705,15.5086669921875,52.15945911407471,14.8370369921875,52.15945911407471,14.0086669921875C52.15945911407471,13.1802979921875,52.831090114074705,12.5086669921875,53.65945911407471,12.5086669921875Z" fill-rule="evenodd" fill="#000000" fill-opacity="1"/></g><g style="mix-blend-mode:passthrough" transform="matrix(-1,0,0,-1,104.31891822814941,54.00009536743164)"><path d="M53.65945911407471,27.00004768371582L62.3044591140747,27.00004768371582C63.132859114074705,27.00004768371582,63.8044591140747,27.67167868371582,63.8044591140747,28.50004768371582C63.8044591140747,29.32841768371582,63.132859114074705,30.00004768371582,62.3044591140747,30.00004768371582L53.65945911407471,30.00004768371582C52.831090114074705,30.00004768371582,52.15945911407471,29.32841768371582,52.15945911407471,28.50004768371582C52.15945911407471,27.67167868371582,52.831090114074705,27.00004768371582,53.65945911407471,27.00004768371582Z" fill-rule="evenodd" fill="#000000" fill-opacity="1"/></g><g style="mix-blend-mode:passthrough" transform="matrix(-1,0,0,-1,104.31891822814941,82.98285675048828)"><path d="M53.65945911407471,41.49142837524414L62.3044591140747,41.49142837524414C63.132859114074705,41.49142837524414,63.8044591140747,42.16305937524414,63.8044591140747,42.99142837524414C63.8044591140747,43.81979837524414,63.132859114074705,44.49142837524414,62.3044591140747,44.49142837524414L53.65945911407471,44.49142837524414C52.831090114074705,44.49142837524414,52.15945911407471,43.81979837524414,52.15945911407471,42.99142837524414C52.15945911407471,42.16305937524414,52.831090114074705,41.49142837524414,53.65945911407471,41.49142837524414Z" fill-rule="evenodd" fill="#000000" fill-opacity="1"/></g></g></g></g></g><g style="mix-blend-mode:passthrough"><path d="M18.35262232849121,34.38665081176758L15.153402328491211,34.38665081176758L15.153402328491211,15.970050811767578L18.35262232849121,15.970050811767578L18.35262232849121,34.38665081176758ZM37.29400232849121,25.64388081176758Q37.29400232849121,28.28455081176758,36.35460232849121,30.27335081176758Q35.415102328491216,32.25385081176758,33.67170232849121,33.32025081176758Q31.92810232849121,34.38665081176758,29.65140232849121,34.38665081176758Q27.40850232849121,34.38665081176758,25.648302328491212,33.32025081176758Q23.887782328491213,32.25385081176758,22.93148232849121,30.290350811767578Q21.97493232849121,28.31835081176758,21.95809232849121,25.74544081176758L21.95809232849121,24.73824081176758Q21.95809232849121,22.114580811767578,22.91439232849121,20.10872081176758Q23.879232328491213,18.102860811767577,25.62290232849121,17.03646081176758Q27.36630232849121,15.970050811767578,29.62610232849121,15.970050811767578Q31.88580232849121,15.970050811767578,33.62920232849121,17.02803081176758Q35.38120232849121,18.07747081176758,36.329202328491206,20.05794081176758Q37.28550232849121,22.02999081176758,37.29400232849121,24.64522081176758L37.29400232849121,25.64388081176758ZM34.086302328491215,24.71285081176758Q34.086302328491215,21.776080811767578,32.91830232849121,20.21028081176758Q31.75890232849121,18.636070811767578,29.62610232849121,18.636070811767578Q27.54400232849121,18.636070811767578,26.367502328491213,20.201860811767578Q25.19950232849121,21.759110811767577,25.174202328491212,24.619830811767578L25.174202328491212,25.64388081176758Q25.174202328491212,28.56385081176758,26.35920232849121,30.154950811767577Q27.54400232849121,31.746050811767578,29.65140232849121,31.746050811767578Q31.78430232849121,31.746050811767578,32.93540232849121,30.18885081176758Q34.086302328491215,28.63155081176758,34.086302328491215,25.64388081176758L34.086302328491215,24.71285081176758Z" fill="#000000" fill-opacity="1"/></g><g style="mix-blend-mode:passthrough"><path d="M18.35262232849121,34.38665081176758L15.153402328491211,34.38665081176758L15.153402328491211,15.970050811767578L18.35262232849121,15.970050811767578L18.35262232849121,34.38665081176758ZM37.29400232849121,25.64388081176758Q37.29400232849121,28.28455081176758,36.35460232849121,30.27335081176758Q35.415102328491216,32.25385081176758,33.67170232849121,33.32025081176758Q31.92810232849121,34.38665081176758,29.65140232849121,34.38665081176758Q27.40850232849121,34.38665081176758,25.648302328491212,33.32025081176758Q23.887782328491213,32.25385081176758,22.93148232849121,30.290350811767578Q21.97493232849121,28.31835081176758,21.95809232849121,25.74544081176758L21.95809232849121,24.73824081176758Q21.95809232849121,22.114580811767578,22.91439232849121,20.10872081176758Q23.879232328491213,18.102860811767577,25.62290232849121,17.03646081176758Q27.36630232849121,15.970050811767578,29.62610232849121,15.970050811767578Q31.88580232849121,15.970050811767578,33.62920232849121,17.02803081176758Q35.38120232849121,18.07747081176758,36.329202328491206,20.05794081176758Q37.28550232849121,22.02999081176758,37.29400232849121,24.64522081176758L37.29400232849121,25.64388081176758ZM16.15340232849121,33.38665081176758L17.35262232849121,33.38665081176758L17.35262232849121,16.970050811767578L16.15340232849121,16.970050811767578L16.15340232849121,33.38665081176758ZM36.29400232849121,25.64388081176758L36.29400232849121,24.648390811767577Q36.286202328491214,22.261190811767577,35.427102328491216,20.489700811767577Q34.60920232849121,18.78072081176758,33.11040232849121,17.882890811767577Q31.60600232849121,16.970050811767578,29.62610232849121,16.970050811767578Q27.64780232849121,16.970050811767578,26.14460232849121,17.889480811767577Q24.65267232849121,18.802080811767578,23.817222328491212,20.539140811767577Q22.95809232849121,22.34078081176758,22.95809232849121,24.73824081176758L22.95809232849121,25.738850811767577Q22.973472328491212,28.08555081176758,23.83040232849121,29.85245081176758Q24.65779232849121,31.55125081176758,26.166302328491213,32.46505081176758Q27.68780232849121,33.38665081176758,29.65140232849121,33.38665081176758Q31.646602328491213,33.38665081176758,33.149702328491216,32.46725081176758Q34.63920232849121,31.556250811767576,35.45030232849121,29.84635081176758Q36.29400232849121,28.060250811767578,36.29400232849121,25.64388081176758ZM35.086302328491215,24.71285081176758L35.086302328491215,25.64388081176758Q35.086302328491215,28.961050811767578,33.739602328491216,30.783150811767577Q32.28870232849121,32.746050811767574,29.65140232849121,32.746050811767574Q27.04180232849121,32.746050811767574,25.557002328491212,30.752150811767578Q24.17415232849121,28.89525081176758,24.17415232849121,25.64388081176758L24.17415232849121,24.610920811767578Q24.20247232849121,21.421830811767578,25.56820232849121,19.601150811767578Q27.044502328491212,17.636070811767578,29.62610232849121,17.636070811767578Q32.26420232849121,17.636070811767578,33.72010232849121,19.61238081176758Q35.086302328491215,21.444170811767577,35.086302328491215,24.71285081176758ZM34.086302328491215,24.71285081176758Q34.086302328491215,21.776080811767578,32.91830232849121,20.21028081176758Q31.75890232849121,18.636070811767578,29.62610232849121,18.636070811767578Q27.54400232849121,18.636070811767578,26.367502328491213,20.201860811767578Q25.19950232849121,21.759110811767577,25.174202328491212,24.619830811767578L25.174202328491212,25.64388081176758Q25.174202328491212,28.56385081176758,26.35920232849121,30.154950811767577Q27.54400232849121,31.746050811767578,29.65140232849121,31.746050811767578Q31.78430232849121,31.746050811767578,32.93540232849121,30.18885081176758Q34.086302328491215,28.63155081176758,34.086302328491215,25.64388081176758L34.086302328491215,24.71285081176758Z" fill-rule="evenodd" fill="#000000" fill-opacity="1"/></g></g></svg>