<svg xmlns="http://www.w3.org/2000/svg" xmlns:xlink="http://www.w3.org/1999/xlink" fill="none" version="1.1" width="47.913818359375" height="44.719566345214844" viewBox="0 0 47.913818359375 44.719566345214844"><g style="mix-blend-mode:passthrough"><path d="M42.8162,30.4875Q42.8511,30.544,42.8822,30.6027Q42.9134,30.6614,42.9405,30.722Q42.9677,30.7826,42.9907,30.8449Q43.0138,30.9072,43.0327,30.9709Q43.0516,31.0346,43.0662,31.0993Q43.0808,31.1641,43.0911,31.2298Q43.1014,31.2954,43.1073,31.3615Q43.1133,31.4277,43.1148,31.4941Q43.1163,31.5605,43.1134,31.6269Q43.1105,31.6932,43.1032,31.7593Q43.0959,31.8253,43.0843,31.8907Q43.0726,31.9561,43.0566,32.0205Q43.0407,32.085,43.0204,32.1483Q43.0002,32.2116,42.9759,32.2733Q42.9515,32.3351,42.9231,32.3952Q42.8947,32.4552,42.8623,32.5132Q42.83,32.5713,42.7939,32.627Q42.7578,32.6828,42.718,32.736Q42.6783,32.7892,42.6351,32.8397Q42.592,32.8902,42.5455,32.9377Q42.4991,32.9852,42.4496,33.0295Q42.4001,33.0738,42.3478,33.1147Q42.2955,33.1557,42.2406,33.1931Q42.1857,33.2304,42.1284,33.2641Q42.0711,33.2977,42.0118,33.3275Q41.9524,33.3573,41.8912,33.383Q41.8299,33.4088,41.7672,33.4305Q41.7044,33.4521,41.6403,33.4695Q41.5762,33.487,41.5111,33.5001Q41.4459,33.5133,41.3801,33.5221Q41.3143,33.5309,41.248,33.5353Q41.1817,33.5397,41.1153,33.5397L6.79852,33.5397Q6.7321,33.5397,6.66582,33.5353Q6.59954,33.5309,6.5337,33.5221Q6.46787,33.5133,6.40276,33.5001Q6.33765,33.487,6.27355,33.4695Q6.20946,33.4521,6.14666,33.4305Q6.08386,33.4088,6.02264,33.383Q5.96142,33.3573,5.90204,33.3275Q5.84267,33.2977,5.7854,33.2641Q5.72813,33.2304,5.67321,33.1931Q5.6183,33.1557,5.56599,33.1147Q5.51368,33.0738,5.4642,33.0295Q5.41472,32.9852,5.36829,32.9377Q5.32186,32.8902,5.27868,32.8397Q5.23551,32.7892,5.19578,32.736Q5.15604,32.6828,5.11993,32.627Q5.08382,32.5713,5.05148,32.5132Q5.01915,32.4552,4.99074,32.3952Q4.96232,32.3351,4.93796,32.2733Q4.91359,32.2116,4.89337,32.1483Q4.87316,32.085,4.85719,32.0205Q4.84122,31.9561,4.82956,31.8907Q4.81791,31.8253,4.81061,31.7593Q4.80332,31.6932,4.80042,31.6269Q4.79753,31.5605,4.79904,31.4941Q4.80055,31.4277,4.80647,31.3615Q4.81239,31.2954,4.82268,31.2298Q4.83297,31.1641,4.84759,31.0993Q4.86222,31.0346,4.88111,30.9709Q4.9,30.9072,4.92307,30.8449Q4.94615,30.7826,4.97331,30.722Q5.00046,30.6614,5.03158,30.6027Q5.0627,30.544,5.09764,30.4875L22.256,2.74961Q22.2895,2.69554,22.3263,2.64371Q22.3631,2.59188,22.4031,2.54249Q22.4432,2.4931,22.4862,2.44635Q22.5293,2.39961,22.5753,2.35569Q22.6212,2.31177,22.6699,2.27086Q22.7186,2.22995,22.7697,2.19222Q22.8209,2.15448,22.8743,2.12007Q22.9278,2.08566,22.9833,2.05471Q23.0389,2.02377,23.0963,1.99641Q23.1536,1.96905,23.2126,1.9454Q23.2717,1.92174,23.332,1.90188Q23.3924,1.88201,23.454,1.86603Q23.5155,1.85004,23.5779,1.83799Q23.6403,1.82595,23.7034,1.81789Q23.7664,1.80983,23.8299,1.80579Q23.8933,1.80175,23.9569,1.80175Q24.0205,1.80175,24.0839,1.80579Q24.1474,1.80983,24.2104,1.81789Q24.2735,1.82595,24.3359,1.83799Q24.3983,1.85004,24.4599,1.86603Q24.5214,1.88201,24.5818,1.90188Q24.6422,1.92174,24.7012,1.9454Q24.7602,1.96905,24.8176,1.99641Q24.875,2.02377,24.9305,2.05471Q24.986,2.08566,25.0395,2.12007Q25.0929,2.15448,25.1441,2.19222Q25.1953,2.22995,25.2439,2.27086Q25.2926,2.31177,25.3385,2.35569Q25.3845,2.39961,25.4276,2.44635Q25.4707,2.4931,25.5107,2.54249Q25.5507,2.59188,25.5875,2.64371Q25.6243,2.69554,25.6578,2.74961L42.8162,30.4875Z" fill="#D61D00" fill-opacity="1"/></g></svg>