<svg xmlns="http://www.w3.org/2000/svg" xmlns:xlink="http://www.w3.org/1999/xlink" fill="none" version="1.1" width="28.9755859375" height="43.5765380859375" viewBox="0 0 28.9755859375 43.5765380859375"><g style="mix-blend-mode:passthrough" transform="matrix(-1,0,0,-1,57.951171875,87.153076171875)"><g><path d="M45.0868859375,69.6552486328125L45.0868859375,86.1530486328125C45.0868859375,86.7053486328125,44.6391859375,87.1530486328125,44.0868859375,87.1530486328125L42.8398859375,87.1530486328125C42.2875859375,87.1530486328125,41.8398859375,86.7053486328125,41.8398859375,86.1530486328125L41.8398859375,69.6552486328125C41.8398859375,69.1029486328125,41.3920859375,68.6552486328125,40.8398859375,68.6552486328125L32.3995859375,68.6552486328125C31.5899159375,68.6552486328125,31.1159089375,67.7432486328125,31.5811659375,67.08054863281251L42.644985937499996,51.3229786328125C43.0431859375,50.7558136328125,43.8835859375,50.7558136328125,44.281785937500004,51.3229786328125L55.345585937500005,67.08054863281251C55.810885937500004,67.7432486328125,55.3368859375,68.6552486328125,54.5271859375,68.6552486328125L46.0868859375,68.6552486328125C45.5345859375,68.6552486328125,45.0868859375,69.1029486328125,45.0868859375,69.6552486328125" fill="#000000" fill-opacity="1"/></g><g style="mix-blend-mode:passthrough"><path d="M30.4755859375,43.5765380859375L56.4511859375,43.5765380859375C57.2795859375,43.5765380859375,57.9511859375,44.2481110859375,57.9511859375,45.0765380859375C57.9511859375,45.9049680859375,57.2795859375,46.5765380859375,56.4511859375,46.5765380859375L30.4755859375,46.5765380859375C29.6471589375,46.5765380859375,28.9755859375,45.9049680859375,28.9755859375,45.0765380859375C28.9755859375,44.2481110859375,29.6471589375,43.5765380859375,30.4755859375,43.5765380859375Z" fill-rule="evenodd" fill="#000000" fill-opacity="1"/></g></g></svg>