<svg xmlns="http://www.w3.org/2000/svg" xmlns:xlink="http://www.w3.org/1999/xlink" fill="none" version="1.1" width="41" height="41" viewBox="0 0 41 41"><g style="mix-blend-mode:passthrough"><g style="mix-blend-mode:passthrough"><path d="M0,9.48026L0,2.5Q0,1.46447,0.732233,0.732233Q1.46447,0,2.5,0L9.58683,0C10.4153,0,11.0868,0.671573,11.0868,1.5C11.0868,2.32843,10.4153,3,9.58683,3L3,3L3,9.48026C3,10.3087,2.32843,10.9803,1.5,10.9803C0.671573,10.9803,0,10.3087,0,9.48026ZM38,9.48026L38,3L31.4492,3C30.6208,3,29.9492,2.32843,29.9492,1.5C29.9492,0.671573,30.6208,0,31.4492,0L38.5,0Q39.5355,0,40.2678,0.732233Q41,1.46446,41,2.5L41,9.48026C41,10.3087,40.3284,10.9803,39.5,10.9803C38.6716,10.9803,38,10.3087,38,9.48026ZM15.8223,24.1895L24.7578,24.1895L26.7891,30L29.6797,30L21.5156,8.75L19.0547,8.75L10.9102,30L13.8105,30L15.8223,24.1895ZM23.918,21.875L16.6719,21.875L20.2852,12.207L23.918,21.875ZM9.55865,41L2.5,41Q1.46446,41,0.732233,40.2678Q0,39.5355,0,38.5L0,31.4553C0,30.6268,0.671573,29.9553,1.5,29.9553C2.32843,29.9553,3,30.6268,3,31.4553L3,38L9.55865,38C10.3871,38,11.0586,38.6716,11.0586,39.5C11.0586,40.3284,10.3871,41,9.55865,41ZM41,31.4553L41,38.5Q41,39.5355,40.2678,40.2678Q39.5355,41,38.5,41L31.4211,41C30.5926,41,29.9211,40.3284,29.9211,39.5C29.9211,38.6716,30.5926,38,31.4211,38L38,38L38,31.4553C38,30.6268,38.6716,29.9553,39.5,29.9553C40.3284,29.9553,41,30.6268,41,31.4553Z" fill-rule="evenodd" fill="#000000" fill-opacity="1"/></g></g></svg>