<svg xmlns="http://www.w3.org/2000/svg" xmlns:xlink="http://www.w3.org/1999/xlink" fill="none" version="1.1" width="49.500244140625" height="33.75537109375" viewBox="0 0 49.500244140625 33.75537109375"><defs><mask id="master_svg0_487_5304"><g style="mix-blend-mode:passthrough"><path d="M39.04321405441284,7.6151957511901855L39.04321405441284,33.755195751190186L33.81686878201284,33.755195751190186L33.81686878201284,7.6151957511901855L39.04321405441284,7.6151957511901855Z" fill="#FFFFFF" fill-opacity="1"/></g></mask></defs><g style="mix-blend-mode:passthrough"><g style="mix-blend-mode:passthrough" transform="matrix(1,0,0,-1,0,67.4498291015625)"><g transform="matrix(-1,0,0,-1,46.457275390625,129.3427734375)"><path d="M35.4508376953125,80.64458671875L35.4508376953125,95.11788671875C35.4508376953125,95.39398671875,35.2269376953125,95.61788671875,34.9508376953125,95.61788671875L33.2347376953125,95.61788671875C32.9585976953125,95.61788671875,32.7347376953125,95.39398671875,32.7347376953125,95.11788671875L32.7347376953125,80.64458671875C32.7347376953125,80.36848671875,32.5108876953125,80.14458671875,32.2347376953125,80.14458671875L24.1906446953125,80.14458671875C23.785806695312502,80.14458671875,23.5488056953125,79.68858671875,23.7814396953125,79.35728671875L33.6837376953125,65.25418971875C33.8828376953125,64.97061171875,34.3030376953125,64.97061171875,34.5021376953125,65.25418971875L44.4043376953125,79.35728671875C44.6369376953125,79.68858671875,44.3999376953125,80.14458671875,43.9951376953125,80.14458671875L35.9508376953125,80.14458671875C35.6746376953125,80.14458671875,35.4508376953125,80.36848671875,35.4508376953125,80.64458671875" fill="#000000" fill-opacity="1"/></g><g style="mix-blend-mode:passthrough" transform="matrix(-1,0,0,-1,49.457275390625,134.899658203125)"><path d="M26.2286376953125,67.4498291015625L47.9570376953125,67.4498291015625C48.785437695312496,67.4498291015625,49.4570376953125,68.1214021015625,49.4570376953125,68.9498291015625C49.4570376953125,69.7782591015625,48.785437695312496,70.4498291015625,47.9570376953125,70.4498291015625L26.2286376953125,70.4498291015625C25.4002106953125,70.4498291015625,24.7286376953125,69.7782591015625,24.7286376953125,68.9498291015625C24.7286376953125,68.1214021015625,25.4002106953125,67.4498291015625,26.2286376953125,67.4498291015625Z" fill-rule="evenodd" fill="#000000" fill-opacity="1"/></g></g><g style="mix-blend-mode:passthrough"><g style="mix-blend-mode:passthrough"><path d="M39.04346248657227,7.615349769592285L39.04346248657227,33.755349769592286L33.817117214172264,33.755349769592286L33.817117214172264,7.615349769592285L39.04346248657227,7.615349769592285Z" fill="#000000" fill-opacity="1"/></g><g style="mix-blend-mode:passthrough"><g style="mix-blend-mode:passthrough" mask="url(#master_svg0_487_5304)"><g style="mix-blend-mode:passthrough"><path d="M27.16768980026245,18.47926509857178L42.06128980026245,9.880515098571777L43.27898980026245,11.989895098571777L28.385459800262453,20.58861509857178L27.16768980026245,18.47926509857178ZM27.16768980026245,23.833415098571777L42.06128980026245,15.234645098571777L43.27898980026245,17.343895098571778L28.385459800262453,25.942815098571778L27.16768980026245,23.833415098571777ZM27.16768980026245,29.187415098571776L42.06128980026245,20.58861509857178L43.27898980026245,22.69801509857178L28.385459800262453,31.296815098571777L27.16768980026245,29.187415098571776ZM27.16768980026245,34.54151509857178L42.06128980026245,25.942815098571778L43.27898980026245,28.05211509857178L28.385459800262453,36.65091509857177L27.16768980026245,34.54151509857178Z" fill-rule="evenodd" fill="#FFFFFF" fill-opacity="1"/></g></g><g style="mix-blend-mode:passthrough"><path d="M33.162597421875,1.2070450542300293C27.474957421875,2.290646549530029,23.360121363175,6.210366549530029,23.360107421875,10.54472654953003L49.500207421875004,10.54472654953003C49.500207421875004,6.210346549530029,45.385307421875,2.2906065495300294,39.697607421875,1.2070290623300293L39.697607421875,5.216396549530029L33.162597421875,5.216396549530029L33.162597421875,1.2070450542300293Z" fill-rule="evenodd" fill="#000000" fill-opacity="1"/></g></g></g></g></svg>