<svg xmlns="http://www.w3.org/2000/svg" xmlns:xlink="http://www.w3.org/1999/xlink" fill="none" version="1.1" width="55.159446716308594" height="23.2113037109375" viewBox="0 0 55.159446716308594 23.2113037109375"><g style="mix-blend-mode:passthrough"><g><g style="mix-blend-mode:passthrough"><path d="M4.645173884643555,21.5021L3.043489884643555,2.29079Q2.9158998846435544,0.760332,3.9557588846435547,-0.369834Q4.995621884643555,-1.5,6.531389884643555,-1.5L48.628009884643554,-1.5Q50.163809884643555,-1.5,51.20370988464355,-0.369834Q52.24350988464356,0.760328,52.11590988464356,2.29079L50.51430988464355,21.5021Q50.40080988464356,22.8626,49.396209884643554,23.7869Q48.39160988464356,24.7113,47.026409884643556,24.7113L8.133069884643554,24.7113Q6.767879884643555,24.7113,5.763239884643554,23.7869Q4.758598884643555,22.8626,4.645173884643555,21.5021L4.645173884643555,21.5021ZM7.634799884643554,21.2528Q7.673019884643555,21.7113,8.133069884643554,21.7113L47.026409884643556,21.7113Q47.48640988464356,21.7113,47.52460988464355,21.2528L49.126309884643554,2.04154Q49.144509884643554,1.82291,48.996009884643556,1.66145Q48.847409884643554,1.5,48.628009884643554,1.5L6.531389884643555,1.5Q6.311999884643555,1.5,6.163439884643555,1.66145Q6.014889884643555,1.8229,6.033119884643555,2.04154L7.634799884643554,21.2528L7.634799884643554,21.2528Z" fill="#000000" fill-opacity="1"/></g><g style="mix-blend-mode:passthrough"><g><g style="mix-blend-mode:passthrough"><ellipse cx="19.68693232536316" cy="20.229342699050903" rx="2.505683183670044" ry="2.5056612491607666" transform="matrix(-1,0,0,-1,34.36249828338623,35.44736289978027)" fill="#000000" fill-opacity="1"/><ellipse cx="19.68693232536316" cy="20.229342699050903" rx="2.005683183670044" ry="2.0056612491607666" transform="matrix(-1,0,0,-1,34.36249828338623,35.44736289978027)" fill-opacity="0" stroke-opacity="1" stroke="#000000" stroke-width="1" fill="none" stroke-dasharray=""/></g><g style="mix-blend-mode:passthrough"><ellipse cx="28.28971219062805" cy="20.229342699050903" rx="2.505683183670044" ry="2.5056612491607666" transform="matrix(-1,0,0,-1,51.568058013916016,35.44736289978027)" fill="#000000" fill-opacity="1"/><ellipse cx="28.28971219062805" cy="20.229342699050903" rx="2.005683183670044" ry="2.0056612491607666" transform="matrix(-1,0,0,-1,51.568058013916016,35.44736289978027)" fill-opacity="0" stroke-opacity="1" stroke="#000000" stroke-width="1" fill="none" stroke-dasharray=""/></g><g style="mix-blend-mode:passthrough"><ellipse cx="36.8924925327301" cy="20.229342699050903" rx="2.505683183670044" ry="2.5056612491607666" transform="matrix(-1,0,0,-1,68.77361869812012,35.44736289978027)" fill="#000000" fill-opacity="1"/><ellipse cx="36.8924925327301" cy="20.229342699050903" rx="2.005683183670044" ry="2.0056612491607666" transform="matrix(-1,0,0,-1,68.77361869812012,35.44736289978027)" fill-opacity="0" stroke-opacity="1" stroke="#000000" stroke-width="1" fill="none" stroke-dasharray=""/></g><g style="mix-blend-mode:passthrough"><ellipse cx="45.49527192115784" cy="20.229342699050903" rx="2.505683183670044" ry="2.5056612491607666" transform="matrix(-1,0,0,-1,85.97917747497559,35.44736289978027)" fill="#000000" fill-opacity="1"/><ellipse cx="45.49527192115784" cy="20.229342699050903" rx="2.005683183670044" ry="2.0056612491607666" transform="matrix(-1,0,0,-1,85.97917747497559,35.44736289978027)" fill-opacity="0" stroke-opacity="1" stroke="#000000" stroke-width="1" fill="none" stroke-dasharray=""/></g></g></g><g style="mix-blend-mode:passthrough"><g><g style="mix-blend-mode:passthrough"><ellipse cx="15.385609865188599" cy="13.00476861000061" rx="2.505683183670044" ry="2.5056612491607666" transform="matrix(-1,0,0,-1,25.75985336303711,20.998214721679688)" fill="#000000" fill-opacity="1"/><ellipse cx="15.385609865188599" cy="13.00476861000061" rx="2.005683183670044" ry="2.0056612491607666" transform="matrix(-1,0,0,-1,25.75985336303711,20.998214721679688)" fill-opacity="0" stroke-opacity="1" stroke="#000000" stroke-width="1" fill="none" stroke-dasharray=""/></g><g style="mix-blend-mode:passthrough"><ellipse cx="23.98838973045349" cy="13.00476861000061" rx="2.505683183670044" ry="2.5056612491607666" transform="matrix(-1,0,0,-1,42.965413093566895,20.998214721679688)" fill="#000000" fill-opacity="1"/><ellipse cx="23.98838973045349" cy="13.00476861000061" rx="2.005683183670044" ry="2.0056612491607666" transform="matrix(-1,0,0,-1,42.965413093566895,20.998214721679688)" fill-opacity="0" stroke-opacity="1" stroke="#000000" stroke-width="1" fill="none" stroke-dasharray=""/></g><g style="mix-blend-mode:passthrough"><ellipse cx="32.59117007255554" cy="13.00476861000061" rx="2.505683183670044" ry="2.5056612491607666" transform="matrix(-1,0,0,-1,60.170973777770996,20.998214721679688)" fill="#000000" fill-opacity="1"/><ellipse cx="32.59117007255554" cy="13.00476861000061" rx="2.005683183670044" ry="2.0056612491607666" transform="matrix(-1,0,0,-1,60.170973777770996,20.998214721679688)" fill-opacity="0" stroke-opacity="1" stroke="#000000" stroke-width="1" fill="none" stroke-dasharray=""/></g><g style="mix-blend-mode:passthrough"><ellipse cx="41.193949460983276" cy="13.00476861000061" rx="2.505683183670044" ry="2.5056612491607666" transform="matrix(-1,0,0,-1,77.37653255462646,20.998214721679688)" fill="#000000" fill-opacity="1"/><ellipse cx="41.193949460983276" cy="13.00476861000061" rx="2.005683183670044" ry="2.0056612491607666" transform="matrix(-1,0,0,-1,77.37653255462646,20.998214721679688)" fill-opacity="0" stroke-opacity="1" stroke="#000000" stroke-width="1" fill="none" stroke-dasharray=""/></g><g style="mix-blend-mode:passthrough"><ellipse cx="49.79672884941101" cy="13.00476861000061" rx="2.505683183670044" ry="2.5056612491607666" transform="matrix(-1,0,0,-1,94.58209133148193,20.998214721679688)" fill="#000000" fill-opacity="1"/><ellipse cx="49.79672884941101" cy="13.00476861000061" rx="2.005683183670044" ry="2.0056612491607666" transform="matrix(-1,0,0,-1,94.58209133148193,20.998214721679688)" fill-opacity="0" stroke-opacity="1" stroke="#000000" stroke-width="1" fill="none" stroke-dasharray=""/></g></g></g><g style="mix-blend-mode:passthrough"><ellipse cx="2.1788549423217773" cy="10.986615896224976" rx="2.1788549423217773" ry="2.1788480281829834" fill-opacity="0" stroke-opacity="1" stroke="#000000" stroke-width="2" fill="none" stroke-dasharray=""/></g><g style="mix-blend-mode:passthrough"><ellipse cx="52.980589866638184" cy="10.986615896224976" rx="2.1788549423217773" ry="2.1788480281829834" fill-opacity="0" stroke-opacity="1" stroke="#000000" stroke-width="2" fill="none" stroke-dasharray=""/></g></g></g></svg>