<svg xmlns="http://www.w3.org/2000/svg" xmlns:xlink="http://www.w3.org/1999/xlink" fill="none" version="1.1" width="28.9755859375" height="43.5765380859375" viewBox="0 0 28.9755859375 43.5765380859375"><g style="mix-blend-mode:passthrough"><g><path d="M16.1113,26.078710546875L16.1113,42.576510546875C16.1113,43.128810546875,15.6636,43.576510546875,15.1113,43.576510546875L13.8643,43.576510546875C13.312,43.576510546875,12.8643,43.128810546875,12.8643,42.576510546875L12.8643,26.078710546875C12.8643,25.526410546875,12.4165,25.078710546875,11.8643,25.078710546875L3.424,25.078710546875C2.61433,25.078710546875,2.140323,24.166710546875,2.60558,23.504010546875L13.6694,7.746440546875C14.0676,7.179275546875,14.908,7.179275546875,15.3062,7.746440546875L26.37,23.504010546875C26.8353,24.166710546875,26.3613,25.078710546875,25.5516,25.078710546875L17.1113,25.078710546875C16.558999999999997,25.078710546875,16.1113,25.526410546875,16.1113,26.078710546875" fill="#000000" fill-opacity="1"/></g><g style="mix-blend-mode:passthrough"><path d="M1.5,0L27.4756,0C28.304,0,28.9756,0.671573,28.9756,1.5C28.9756,2.32843,28.304,3,27.4756,3L1.5,3C0.671573,3,0,2.32843,0,1.5C0,0.671573,0.671573,0,1.5,0Z" fill-rule="evenodd" fill="#000000" fill-opacity="1"/></g></g></svg>