<svg xmlns="http://www.w3.org/2000/svg" xmlns:xlink="http://www.w3.org/1999/xlink" fill="none" version="1.1" width="40.140625" height="41.96356201171875" viewBox="0 0 40.140625 41.96356201171875"><defs><mask id="master_svg0_707_4749"><g style="mix-blend-mode:passthrough"><path d="M21.617534260253905,30.288031009292602L21.617534260253905,14.816931009292603L18.523463249253908,14.816931009292603L18.523463249253908,30.288031009292602L18.522816181153907,30.288031009292602L18.523463249253908,30.2888310092926L18.523463249253908,30.292231009292603L18.526064440253908,30.292231009292603L20.070344260253908,32.2989310092926L21.614624260253905,30.292231009292603L21.617534260253905,30.292231009292603L21.617534260253905,30.2884310092926L21.617874260253906,30.288031009292602L21.617534260253905,30.288031009292602Z" fill-rule="evenodd" fill="#FFFFFF" fill-opacity="1"/></g></mask></defs><g style="mix-blend-mode:passthrough"><g style="mix-blend-mode:passthrough"><g style="mix-blend-mode:passthrough"><path d="M7.07374,35.3648C7.345,35.5955,7.68947,35.7222,8.04557,35.7222C8.87399,35.7222,9.54557,35.0507,9.54557,34.2222C9.54557,33.7823,9.35247,33.3646,9.01739,33.0796Q6.20064,30.6839,4.62714,27.3541Q3,23.9108,3,20.0703Q3,16.5964,4.34086,13.4263Q5.63645,10.3631,7.99979,7.99979Q10.3631,5.63645,13.4263,4.34086Q16.5964,3,20.0703,3Q23.5443,3,26.7144,4.34086Q29.7776,5.63645,32.1409,7.99979Q34.5042,10.3631,35.7998,13.4263Q37.1407,16.5964,37.1407,20.0703Q37.1407,23.9111,35.5133,27.3546Q33.9398,30.6842,31.1232,33.0797L31.1224,33.0804C30.7873,33.3654,30.5942,33.7831,30.5942,34.223C30.5942,35.0515,31.2657,35.723,32.0942,35.723C32.4502,35.723,32.7947,35.5964,33.0659,35.3657Q33.0675,35.3643,33.0692,35.363Q36.3765,32.5492,38.2257,28.6365Q40.1407,24.5843,40.1407,20.0703Q40.1407,15.988,38.5629,12.2576Q37.0393,8.65556,34.2622,5.87847Q31.4851,3.10137,27.8831,1.57784Q24.1526,0.00000214577,20.0703,0Q15.988,2.38419e-7,12.2576,1.57784Q8.65556,3.10138,5.87847,5.87846Q3.10138,8.65555,1.57784,12.2576Q-9.53674e-7,15.988,0,20.0703Q-1.19209e-7,24.584,1.91475,28.6359Q3.76402,32.5492,7.07208,35.3634Q7.07283,35.3641,7.07374,35.3648Z" fill-rule="evenodd" fill="#000000" fill-opacity="1"/></g><g style="mix-blend-mode:passthrough" transform="matrix(-0.7086561322212219,-0.7055537700653076,0.7055540680885315,-0.7086561322212219,25.820725771456637,94.58924826670773)"><path d="M43.747297265625,49.62955201171875C43.842797265625,49.76182201171875,43.748297265625,49.94659201171875,43.585197265625,49.94659201171875L32.640052265625,49.94659201171875C32.476930765625,49.94659201171875,32.382415665625,49.76182201171875,32.477874965625,49.62955201171875L37.950427265625,42.04652121171875C38.030257265624996,41.93590891171875,38.194957265625,41.93590891171875,38.274777265625,42.04652121171875L43.747297265625,49.62955201171875Z" fill="#000000" fill-opacity="1"/></g></g><g style="mix-blend-mode:passthrough"><g style="mix-blend-mode:passthrough" mask="url(#master_svg0_707_4749)"><g style="mix-blend-mode:passthrough"><path d="M21.618133035651425,14.816919565200806L21.618133035651425,30.292219565200806L18.52406202465143,30.292219565200806L18.52406202465143,14.816919565200806L21.618133035651425,14.816919565200806Z" fill="#000000" fill-opacity="1"/></g><g style="mix-blend-mode:passthrough"><path d="M14.586930990219116,21.24863764892578L23.404120990219116,16.15802764892578L24.125110990219117,17.40680764892578L15.307911990219116,22.49740764892578L14.586930990219116,21.24863764892578ZM14.586930990219116,24.418327648925782L23.404120990219116,19.32771764892578L24.125110990219117,20.57649764892578L15.307911990219116,25.667097648925782L14.586930990219116,24.418327648925782ZM14.586930990219116,27.58802764892578L23.404120990219116,22.49740764892578L24.125110990219117,23.746187648925783L15.307911990219116,28.836827648925784L14.586930990219116,27.58802764892578ZM14.586930990219116,30.75772764892578L23.404120990219116,25.667107648925782L24.125110990219117,26.91592764892578L15.307911990219116,32.00652764892578L14.586930990219116,30.75772764892578Z" fill-rule="evenodd" fill="#FFFFFF" fill-opacity="1"/></g></g><g style="mix-blend-mode:passthrough"><path d="M18.1359197756958,11.023139552053497C14.7687497756958,11.664644629333496,12.332704713245802,13.985186629333496,12.3326997756958,16.551196629333496L27.8079997756958,16.551196629333496C27.8079997756958,13.985176629333496,25.371899775695802,11.664635629333496,22.004739775695803,11.023135469133496L22.004739775695803,13.396696629333496L18.1359197756958,13.396696629333496L18.1359197756958,11.023139552053497Z" fill-rule="evenodd" fill="#000000" fill-opacity="1"/></g></g></g></svg>