<svg xmlns="http://www.w3.org/2000/svg" xmlns:xlink="http://www.w3.org/1999/xlink" fill="none" version="1.1" width="53" height="53" viewBox="0 0 53 53"><g style="mix-blend-mode:passthrough"><g style="mix-blend-mode:passthrough"><path d="M51.1394,36.2545Q53,31.5547,53,26.5Q53,21.4453,51.1394,16.7455Q49.1192,11.6425,45.2383,7.76167Q41.3575,3.88083,36.2545,1.86061Q31.5547,0,26.5,0Q21.4453,0,16.7455,1.86061Q11.6425,3.88084,7.76167,7.76167Q3.88084,11.6425,1.86061,16.7455Q0,21.4453,0,26.5Q0,31.5547,1.86061,36.2545Q3.88083,41.3575,7.76167,45.2383Q11.6425,49.1192,16.7455,51.1394Q21.4453,53,26.5,53Q31.5547,53,36.2545,51.1394Q41.3575,49.1192,45.2383,45.2383Q49.1192,41.3575,51.1394,36.2545ZM48.35,17.8498Q50,22.0175,50,26.5Q50,30.9825,48.35,35.1502Q46.5585,39.6755,43.117,43.117Q39.6755,46.5585,35.1502,48.35Q30.9825,50,26.5,50Q22.0175,50,17.8498,48.35Q13.3245,46.5585,9.88299,43.117Q6.44149,39.6755,4.64997,35.1502Q3,30.9825,3,26.5Q3,22.0175,4.64997,17.8498Q6.4415,13.3245,9.88299,9.88299Q13.3245,6.4415,17.8498,4.64997Q22.0175,3,26.5,3Q30.9825,3,35.1502,4.64997Q39.6755,6.44149,43.117,9.88299Q46.5585,13.3245,48.35,17.8498Z" fill-rule="evenodd" fill="#000000" fill-opacity="1"/></g><g style="mix-blend-mode:passthrough"><g style="mix-blend-mode:passthrough" transform="matrix(0.7071065902709961,0.7071069478988647,-0.7071070075035095,0.7071065902709961,18.80363624957448,-2.3467703136255693)"><path d="M13.734619379043579,21.524601936340332L29.87181937904358,21.524601936340332C30.700219379043578,21.524601936340332,31.37181937904358,22.19617493634033,31.37181937904358,23.024601936340332C31.37181937904358,23.853031936340333,30.700219379043578,24.524601936340332,29.87181937904358,24.524601936340332L13.734619379043579,24.524601936340332C12.90619237904358,24.524601936340332,12.234619379043579,23.853031936340333,12.234619379043579,23.024601936340332C12.234619379043579,22.19617493634033,12.90619237904358,21.524601936340332,13.734619379043579,21.524601936340332Z" fill-rule="evenodd" fill="#000000" fill-opacity="1"/></g><g style="mix-blend-mode:passthrough" transform="matrix(-0.7071070075035095,0.7071065306663513,-0.7071065902709961,-0.7071070075035095,85.89890770415138,0.30343645158312427)"><path d="M44.38661003112793,17.94195580482483L68.59241003112793,17.94195580482483C69.42081003112793,17.94195580482483,70.09241003112793,18.613528804824828,70.09241003112793,19.44195580482483C70.09241003112793,20.27038580482483,69.42081003112793,20.94195580482483,68.59241003112793,20.94195580482483L44.38661003112793,20.94195580482483C43.55818303112793,20.94195580482483,42.88661003112793,20.27038580482483,42.88661003112793,19.44195580482483C42.88661003112793,18.613528804824828,43.55818303112793,17.94195580482483,44.38661003112793,17.94195580482483Z" fill-rule="evenodd" fill="#000000" fill-opacity="1"/></g></g></g></svg>