<svg xmlns="http://www.w3.org/2000/svg" xmlns:xlink="http://www.w3.org/1999/xlink" fill="none" version="1.1" width="32.52685546875" height="42.52691650390625" viewBox="0 0 32.52685546875 42.52691650390625"><g style="mix-blend-mode:passthrough" transform="matrix(-1,0,0,-1,65.0537109375,85.0538330078125)"><g style="mix-blend-mode:passthrough" transform="matrix(-0.7071067690849304,0.7071067690849304,-0.7071067690849304,-0.7071067690849304,152.62479857514234,54.36148362774509)"><path d="M65.05376815795898,60.29037284851074C65.05376815795898,59.461945848510744,65.72534115795898,58.79037284851074,66.55376815795898,58.79037284851074C67.38219815795898,58.79037284851074,68.05376815795898,59.461945848510744,68.05376815795898,60.29037284851074L68.05376815795898,78.79037284851074L86.55376815795898,78.79037284851074C87.38216815795899,78.79037284851074,88.05376815795898,79.46197284851074,88.05376815795898,80.29037284851074C88.05376815795898,81.11877284851074,87.38216815795899,81.79037284851074,86.55376815795898,81.79037284851074L67.55376815795898,81.79037284851074Q66.51823815795899,81.79037284851074,65.78600115795898,81.05817284851074Q65.05376815795898,80.32587284851074,65.05376815795898,79.29037284851074L65.05376815795898,60.29037284851074Z" fill-rule="evenodd" fill="#000000" fill-opacity="1"/></g><g style="mix-blend-mode:passthrough" transform="matrix(-0.7071067690849304,0.7071067690849304,-0.7071067690849304,-0.7071067690849304,159.69586626599164,71.43255131859439)"><path d="M65.05376815795898,70.29037284851074C65.05376815795898,69.46194584851074,65.72534115795898,68.79037284851074,66.55376815795898,68.79037284851074C67.38219815795898,68.79037284851074,68.05376815795898,69.46194584851074,68.05376815795898,70.29037284851074L68.05376815795898,88.79037284851074L86.55376815795898,88.79037284851074C87.38216815795899,88.79037284851074,88.05376815795898,89.46197284851074,88.05376815795898,90.29037284851074C88.05376815795898,91.11877284851074,87.38216815795899,91.79037284851074,86.55376815795898,91.79037284851074L67.55376815795898,91.79037284851074Q66.51823815795899,91.79037284851074,65.78600115795898,91.05817284851074Q65.05376815795898,90.32587284851074,65.05376815795898,89.29037284851074L65.05376815795898,70.29037284851074Z" fill-rule="evenodd" fill="#000000" fill-opacity="1"/></g></g></svg>