<svg xmlns="http://www.w3.org/2000/svg" xmlns:xlink="http://www.w3.org/1999/xlink" fill="none" version="1.1" width="131.8291015625" height="72.281982421875" viewBox="0 0 131.8291015625 72.281982421875"><g style="mix-blend-mode:passthrough"><g style="mix-blend-mode:passthrough"><path d="M69.231,72.282L22.0207,72.282C21.3061,72.282,20.6459,71.9008,20.2886,71.282L0.577348,37.141C0.220084,36.5222,0.220084,35.7598,0.577348,35.141L20.2886,1C20.6459,0.381198,21.3061,0,22.0207,0L69.231,0L109.808,0C110.523,0,111.183,0.381198,111.54,1L131.252,35.141C131.609,35.7598,131.609,36.5222,131.252,37.141L111.54,71.282C111.183,71.9008,110.523,72.282,109.808,72.282L71.9834,72.282L69.231,72.282ZM48.9423,37.141L65.767,66.282C66.5368,67.6153,65.5745,69.282,64.0349,69.282L23.7528,69.282C23.0383,69.282,22.3781,68.9008,22.0208,68.282L4.04147,37.141C3.6842,36.5222,3.6842,35.7598,4.04147,35.141L22.0208,4C22.3781,3.3812,23.0383,3,23.7528,3L64.0349,3C65.5745,3,66.5368,4.66667,65.767,6L48.9423,35.141C48.5851,35.7598,48.5851,36.5222,48.9423,37.141M70.453,3.88357L52.4065,35.141C52.0492,35.7598,52.0492,36.5222,52.4065,37.141L70.453,68.3984C70.7687,68.9452,71.3521,69.282,71.9834,69.282L108.076,69.282C108.791,69.282,109.451,68.9008,109.808,68.282L127.788,37.141C128.145,36.5222,128.145,35.7598,127.788,35.141L109.808,4C109.451,3.3812,108.791,3,108.076,3L71.9834,3C71.3521,3,70.7687,3.33682,70.453,3.88357" fill-rule="evenodd" fill="#3B3B3B" fill-opacity="1"/></g><g style="mix-blend-mode:passthrough"><g style="mix-blend-mode:passthrough"><path d="M16,25C16,23.895431,16.895431,23,18,23L26.6251,23C27.7297,23,28.6251,23.895431,28.6251,25L28.6251,33.6252C28.6251,34.7297,27.7297,35.6252,26.6251,35.6252L18,35.6252C16.895431,35.6252,16,34.7297,16,33.6252L16,25ZM19,32.62516L19,26L25.625140000000002,26L25.625140000000002,32.62516L19,32.62516Z" fill-rule="evenodd" fill="#3B3B3B" fill-opacity="1"/></g><g style="mix-blend-mode:passthrough"><path d="M16,39.855143547058105C16,38.75057454705811,16.895431,37.855143547058105,18,37.855143547058105L26.6251,37.855143547058105C27.7297,37.855143547058105,28.6251,38.75057454705811,28.6251,39.855143547058105L28.6251,48.480343547058105C28.6251,49.58484354705811,27.7297,50.480343547058105,26.6251,50.480343547058105L18,50.480343547058105C16.895431,50.480343547058105,16,49.58484354705811,16,48.480343547058105L16,39.855143547058105ZM19,47.48030354705811L19,40.855143547058105L25.625140000000002,40.855143547058105L25.625140000000002,47.48030354705811L19,47.48030354705811Z" fill-rule="evenodd" fill="#3B3B3B" fill-opacity="1"/></g><g style="mix-blend-mode:passthrough"><path d="M31.126462936401367,39.855143547058105C31.126462936401367,38.75057454705811,32.02189393640137,37.855143547058105,33.12646293640137,37.855143547058105L41.75156293640137,37.855143547058105C42.85616293640137,37.855143547058105,43.75156293640137,38.75057454705811,43.75156293640137,39.855143547058105L43.75156293640137,48.480343547058105C43.75156293640137,49.58484354705811,42.85616293640137,50.480343547058105,41.75156293640137,50.480343547058105L33.12646293640137,50.480343547058105C32.02189393640137,50.480343547058105,31.126462936401367,49.58484354705811,31.126462936401367,48.480343547058105L31.126462936401367,39.855143547058105ZM34.12646293640137,47.48030354705811L34.12646293640137,40.855143547058105L40.75160293640137,40.855143547058105L40.75160293640137,47.48030354705811L34.12646293640137,47.48030354705811Z" fill-rule="evenodd" fill="#3B3B3B" fill-opacity="1"/></g><g style="mix-blend-mode:passthrough"><path d="M31.12646484375,25C31.12646484375,23.895431,32.02189584375,23,33.12646484375,23L41.75156484375,23C42.85616484375,23,43.75156484375,23.895431,43.75156484375,25L43.75156484375,33.6252C43.75156484375,34.7297,42.85616484375,35.6252,41.75156484375,35.6252L33.12646484375,35.6252C32.02189584375,35.6252,31.12646484375,34.7297,31.12646484375,33.6252L31.12646484375,25ZM34.12646484375,32.62516L34.12646484375,26L40.75160484375,26L40.75160484375,32.62516L34.12646484375,32.62516Z" fill-rule="evenodd" fill="#3B3B3B" fill-opacity="1"/></g></g></g></svg>