<svg xmlns="http://www.w3.org/2000/svg" xmlns:xlink="http://www.w3.org/1999/xlink" fill="none" version="1.1" width="33" height="33" viewBox="0 0 33 33"><g style="mix-blend-mode:passthrough"><path d="M18.5,14.5L18.5,1.5C18.5,0.671573,17.8284,0,17,0C16.1716,0,15.5,0.671573,15.5,1.5L15.5,14.5L1.5,14.5C0.671573,14.5,0,15.1716,0,16C0,16.8284,0.671573,17.5,1.5,17.5L15.5,17.5L15.5,31.5C15.5,32.3284,16.1716,33,17,33C17.8284,33,18.5,32.3284,18.5,31.5L18.5,17.5L31.5,17.5C32.3284,17.5,33,16.8284,33,16C33,15.1716,32.3284,14.5,31.5,14.5L18.5,14.5Z" fill-rule="evenodd" fill="#000000" fill-opacity="1"/></g></svg>