<svg xmlns="http://www.w3.org/2000/svg" xmlns:xlink="http://www.w3.org/1999/xlink" fill="none" version="1.1" width="50" height="50" viewBox="0 0 50 50"><g style="mix-blend-mode:passthrough"><g style="mix-blend-mode:passthrough"><g style="mix-blend-mode:passthrough"><g style="mix-blend-mode:passthrough"><g style="mix-blend-mode:passthrough"><path d="M48.244627520751955,34.20231226196289Q49.99992752075195,29.76851226196289,49.99992752075195,24.99991226196289Q49.99992752075195,20.23131226196289,48.244627520751955,15.79751226196289Q46.33872752075195,10.98341226196289,42.677627520751955,7.322242261962891Q39.016427520751954,3.661072261962891,34.20232752075195,1.7552022619628906Q29.768527520751952,-0.000087738037109375,24.999927520751953,-0.000087738037109375Q20.231327520751954,-0.000087850499109375,15.797527520751952,1.7552022619628906Q10.983427520751952,3.661072261962891,7.322257520751953,7.322242261962891Q3.6610875207519533,10.98341226196289,1.7552175207519531,15.79751226196289Q-0.000072254325046875,20.23131226196289,-0.000072479248046875,24.99991226196289Q-0.000072591710046875,29.76851226196289,1.7552175207519531,34.20231226196289Q3.6610875207519533,39.01641226196289,7.322257520751953,42.67761226196289Q10.983427520751952,46.33871226196289,15.797527520751952,48.24461226196289Q20.231327520751954,49.99991226196289,24.999927520751953,49.99991226196289Q29.768527520751952,49.99991226196289,34.20232752075195,48.24461226196289Q39.016427520751954,46.33871226196289,42.677627520751955,42.67761226196289Q46.33872752075195,39.01641226196289,48.244627520751955,34.20231226196289ZM45.61312752075195,16.839312261962892Q47.169727520751955,20.77111226196289,47.169727520751955,24.99991226196289Q47.169727520751955,29.22861226196289,45.61312752075195,33.16051226196289Q43.92302752075195,37.42961226196289,40.676327520751954,40.67631226196289Q37.42962752075195,43.92301226196289,33.160527520751955,45.61311226196289Q29.228627520751953,47.16971226196289,24.999927520751953,47.16971226196289Q20.771127520751953,47.16971226196289,16.839327520751954,45.61311226196289Q12.570227520751953,43.92301226196289,9.323507520751953,40.67631226196289Q6.076807520751953,37.42961226196289,4.386697520751953,33.16051226196289Q2.830117520751953,29.22861226196289,2.830117520751953,24.99991226196289Q2.830117520751953,20.77111226196289,4.386697520751953,16.839312261962892Q6.076807520751953,12.57021226196289,9.323507520751953,9.32349226196289Q12.570227520751953,6.076792261962891,16.839327520751954,4.386682261962891Q20.771127520751953,2.8301022619628906,24.999927520751953,2.8301022619628906Q29.228627520751953,2.8301022619628906,33.160527520751955,4.386682261962891Q37.42962752075195,6.076792261962891,40.676327520751954,9.32349226196289Q43.92302752075195,12.57021226196289,45.61312752075195,16.839312261962892Z" fill-rule="evenodd" fill="#969696" fill-opacity="1"/></g><g style="mix-blend-mode:passthrough"><path d="M18.865161895751953,32.07543374633789L18.865161895751953,17.92452374633789C18.865161895751953,17.14299274633789,19.49872089575195,16.50943374633789,20.280251895751952,16.50943374633789C21.061791895751952,16.50943374633789,21.695351895751955,17.14299274633789,21.695351895751955,17.92452374633789L21.695351895751955,32.07543374633789C21.695351895751955,32.85703374633789,21.061791895751952,33.49053374633789,20.280251895751952,33.49053374633789C19.49872089575195,33.49053374633789,18.865161895751953,32.85703374633789,18.865161895751953,32.07543374633789Z" fill="#969696" fill-opacity="1"/></g><g style="mix-blend-mode:passthrough"><path d="M28.304536819458008,32.07543374633789L28.304536819458008,17.92452374633789C28.304536819458008,17.14299274633789,28.938095819458006,16.50943374633789,29.719626819458007,16.50943374633789C30.501166819458007,16.50943374633789,31.13472681945801,17.14299274633789,31.13472681945801,17.92452374633789L31.13472681945801,32.07543374633789C31.13472681945801,32.85703374633789,30.501166819458007,33.49053374633789,29.719626819458007,33.49053374633789C28.938095819458006,33.49053374633789,28.304536819458008,32.85703374633789,28.304536819458008,32.07543374633789Z" fill="#969696" fill-opacity="1"/></g></g></g></g></g></svg>