<svg xmlns="http://www.w3.org/2000/svg" xmlns:xlink="http://www.w3.org/1999/xlink" fill="none" version="1.1" width="60.104156494140625" height="60.104156494140625" viewBox="0 0 60.104156494140625 60.104156494140625"><defs><mask id="master_svg0_113_13652"><g style="mix-blend-mode:passthrough"><path d="M26.748194569244383,16.687185287475586L26.748194569244383,36.687185287475586L22.749473572244383,36.687185287475586L22.749473572244383,16.687185287475586L26.748194569244383,16.687185287475586Z" fill="#FFFFFF" fill-opacity="1"/></g></mask></defs><g style="mix-blend-mode:passthrough"><g><g style="mix-blend-mode:passthrough"><g transform="matrix(0.7071067690849304,-0.7071067690849304,0.7071067690849304,0.7071067690849304,-17.500032411200976,7.2488226897408765)"><g style="mix-blend-mode:passthrough"><ellipse cx="17.500084400177002" cy="42.24869728088379" rx="17.499998092651367" ry="17.5" fill-opacity="0" stroke-opacity="1" stroke="#000000" stroke-width="3" fill="none" stroke-dasharray=""/></g><g style="mix-blend-mode:passthrough"><path d="M16.051844120025635,74.74881935119629L16.051844120025635,59.74881935119629L19.051844120025635,59.74881935119629L19.051844120025635,74.74881935119629L16.051844120025635,74.74881935119629ZM19.051844120025635,74.74881935119629Q19.051844120025635,74.82251935119629,19.044624120025635,74.8958193511963Q19.037394120025635,74.96921935119629,19.023024120025635,75.04141935119628Q19.008644120025636,75.1137193511963,18.987254120025636,75.18421935119629Q18.965864120025635,75.25471935119629,18.937664120025634,75.32281935119629Q18.909464120025635,75.39091935119629,18.874724120025636,75.45591935119629Q18.839984120025633,75.52091935119628,18.799044120025634,75.58221935119629Q18.758104120025635,75.64341935119629,18.711364120025635,75.70041935119629Q18.664614120025636,75.75741935119629,18.612504120025633,75.80951935119629Q18.560394120025634,75.86161935119628,18.503434120025634,75.9083193511963Q18.446471120025635,75.95511935119629,18.385199120025636,75.99601935119628Q18.323928120025634,76.03691935119629,18.258939120025634,76.0717193511963Q18.193950120025633,76.1064193511963,18.125869120025634,76.13461935119629Q18.057788120025634,76.16281935119629,17.987271120025635,76.18421935119629Q17.916754120025633,76.20561935119629,17.844479120025635,76.22001935119629Q17.772205120025635,76.2344193511963,17.698870120025635,76.24161935119629Q17.625534420025634,76.24881935119629,17.551844120025635,76.24881935119629Q17.478153820025636,76.24881935119629,17.404818120025634,76.24161935119629Q17.331483120025634,76.2344193511963,17.259209120025634,76.22001935119629Q17.186934120025636,76.20561935119629,17.116417120025634,76.18421935119629Q17.045900120025635,76.16281935119629,16.977819120025636,76.13461935119629Q16.909738120025636,76.1064193511963,16.844749120025636,76.0717193511963Q16.779760120025635,76.03691935119629,16.718489120025634,75.99601935119628Q16.657217120025635,75.95511935119629,16.600254120025635,75.9083193511963Q16.543294120025635,75.86161935119628,16.491184120025636,75.80951935119629Q16.439074120025634,75.75741935119629,16.392324120025634,75.70041935119629Q16.345584120025634,75.64341935119629,16.304644120025635,75.58221935119629Q16.263704120025636,75.52091935119628,16.228964120025633,75.45591935119629Q16.194224120025634,75.39091935119629,16.166024120025636,75.32281935119629Q16.137824120025634,75.25471935119629,16.116434120025634,75.18421935119629Q16.095044120025634,75.1137193511963,16.080664120025634,75.04141935119628Q16.066294120025635,74.96921935119629,16.059064120025635,74.8958193511963Q16.051844120025635,74.82251935119629,16.051844120025635,74.74881935119629Q16.051844120025635,74.67511935119629,16.059064120025635,74.60181935119628Q16.066294120025635,74.52841935119629,16.080664120025634,74.4562193511963Q16.095044120025634,74.38391935119628,16.116434120025634,74.31341935119629Q16.137824120025634,74.24291935119629,16.166024120025636,74.17481935119629Q16.194224120025634,74.10671935119629,16.228964120025633,74.04171935119629Q16.263704120025636,73.9767193511963,16.304644120025635,73.91541935119629Q16.345584120025634,73.85421935119629,16.392324120025634,73.79721935119629Q16.439074120025634,73.74021935119629,16.491184120025636,73.68811935119629Q16.543294120025635,73.6360193511963,16.600254120025635,73.5893193511963Q16.657217120025635,73.54251935119629,16.718489120025634,73.5016193511963Q16.779760120025635,73.46071935119629,16.844749120025636,73.42591935119628Q16.909738120025636,73.39121935119628,16.977819120025636,73.36301935119629Q17.045900120025635,73.33481935119629,17.116417120025634,73.31341935119629Q17.186934120025636,73.29201935119629,17.259209120025634,73.2776193511963Q17.331483120025634,73.26321935119628,17.404818120025634,73.25601935119629Q17.478153820025636,73.24881935119629,17.551844120025635,73.24881935119629Q17.625534420025634,73.24881935119629,17.698870120025635,73.25601935119629Q17.772205120025635,73.26321935119628,17.844479120025635,73.2776193511963Q17.916754120025633,73.29201935119629,17.987271120025635,73.31341935119629Q18.057788120025634,73.33481935119629,18.125869120025634,73.36301935119629Q18.193950120025633,73.39121935119628,18.258939120025634,73.42591935119628Q18.323928120025634,73.46071935119629,18.385199120025636,73.5016193511963Q18.446471120025635,73.54251935119629,18.503434120025634,73.5893193511963Q18.560394120025634,73.6360193511963,18.612504120025633,73.68811935119629Q18.664614120025636,73.74021935119629,18.711364120025635,73.79721935119629Q18.758104120025635,73.85421935119629,18.799044120025634,73.91541935119629Q18.839984120025633,73.9767193511963,18.874724120025636,74.04171935119629Q18.909464120025635,74.10671935119629,18.937664120025634,74.17481935119629Q18.965864120025635,74.24291935119629,18.987254120025636,74.31341935119629Q19.008644120025636,74.38391935119628,19.023024120025635,74.4562193511963Q19.037394120025635,74.52841935119629,19.044624120025635,74.60181935119628Q19.051844120025635,74.67511935119629,19.051844120025635,74.74881935119629ZM19.051844120025635,59.74881935119629Q19.051844120025635,59.82250965119629,19.044624120025635,59.895845351196286Q19.037394120025635,59.969180351196286,19.023024120025635,60.041454351196286Q19.008644120025636,60.11372935119629,18.987254120025636,60.184246351196286Q18.965864120025635,60.25476335119629,18.937664120025634,60.32284435119629Q18.909464120025635,60.39092535119629,18.874724120025636,60.45591435119629Q18.839984120025633,60.52090335119629,18.799044120025634,60.58217435119629Q18.758104120025635,60.64344635119629,18.711364120025635,60.70040935119629Q18.664614120025636,60.75736935119629,18.612504120025633,60.80947935119629Q18.560394120025634,60.86158935119629,18.503434120025634,60.90833935119629Q18.446471120025635,60.95507935119629,18.385199120025636,60.99601935119629Q18.323928120025634,61.03695935119629,18.258939120025634,61.07169935119629Q18.193950120025633,61.106439351196286,18.125869120025634,61.13463935119629Q18.057788120025634,61.16283935119629,17.987271120025635,61.18422935119629Q17.916754120025633,61.20561935119629,17.844479120025635,61.219999351196286Q17.772205120025635,61.23436935119629,17.698870120025635,61.24159935119629Q17.625534420025634,61.24881935119629,17.551844120025635,61.24881935119629Q17.478153820025636,61.24881935119629,17.404818120025634,61.24159935119629Q17.331483120025634,61.23436935119629,17.259209120025634,61.219999351196286Q17.186934120025636,61.20561935119629,17.116417120025634,61.18422935119629Q17.045900120025635,61.16283935119629,16.977819120025636,61.13463935119629Q16.909738120025636,61.106439351196286,16.844749120025636,61.07169935119629Q16.779760120025635,61.03695935119629,16.718489120025634,60.99601935119629Q16.657217120025635,60.95507935119629,16.600254120025635,60.90833935119629Q16.543294120025635,60.86158935119629,16.491184120025636,60.80947935119629Q16.439074120025634,60.75736935119629,16.392324120025634,60.70040935119629Q16.345584120025634,60.64344635119629,16.304644120025635,60.58217435119629Q16.263704120025636,60.52090335119629,16.228964120025633,60.45591435119629Q16.194224120025634,60.39092535119629,16.166024120025636,60.32284435119629Q16.137824120025634,60.25476335119629,16.116434120025634,60.184246351196286Q16.095044120025634,60.11372935119629,16.080664120025634,60.041454351196286Q16.066294120025635,59.969180351196286,16.059064120025635,59.895845351196286Q16.051844120025635,59.82250965119629,16.051844120025635,59.74881935119629Q16.051844120025635,59.675129051196286,16.059064120025635,59.60179335119629Q16.066294120025635,59.52845835119629,16.080664120025634,59.45618435119629Q16.095044120025634,59.38390935119629,16.116434120025634,59.31339235119629Q16.137824120025634,59.24287535119629,16.166024120025636,59.17479435119629Q16.194224120025634,59.10671335119629,16.228964120025633,59.04172435119629Q16.263704120025636,58.97673535119629,16.304644120025635,58.91546435119629Q16.345584120025634,58.85419235119629,16.392324120025634,58.797229351196286Q16.439074120025634,58.74026935119629,16.491184120025636,58.68815935119629Q16.543294120025635,58.63604935119629,16.600254120025635,58.58929935119629Q16.657217120025635,58.54255935119629,16.718489120025634,58.50161935119629Q16.779760120025635,58.46067935119629,16.844749120025636,58.42593935119629Q16.909738120025636,58.39119935119629,16.977819120025636,58.36299935119629Q17.045900120025635,58.33479935119629,17.116417120025634,58.31340935119629Q17.186934120025636,58.29201935119629,17.259209120025634,58.27763935119629Q17.331483120025634,58.263269351196286,17.404818120025634,58.256039351196286Q17.478153820025636,58.24881935119629,17.551844120025635,58.24881935119629Q17.625534420025634,58.24881935119629,17.698870120025635,58.256039351196286Q17.772205120025635,58.263269351196286,17.844479120025635,58.27763935119629Q17.916754120025633,58.29201935119629,17.987271120025635,58.31340935119629Q18.057788120025634,58.33479935119629,18.125869120025634,58.36299935119629Q18.193950120025633,58.39119935119629,18.258939120025634,58.42593935119629Q18.323928120025634,58.46067935119629,18.385199120025636,58.50161935119629Q18.446471120025635,58.54255935119629,18.503434120025634,58.58929935119629Q18.560394120025634,58.63604935119629,18.612504120025633,58.68815935119629Q18.664614120025636,58.74026935119629,18.711364120025635,58.797229351196286Q18.758104120025635,58.85419235119629,18.799044120025634,58.91546435119629Q18.839984120025633,58.97673535119629,18.874724120025636,59.04172435119629Q18.909464120025635,59.10671335119629,18.937664120025634,59.17479435119629Q18.965864120025635,59.24287535119629,18.987254120025636,59.31339235119629Q19.008644120025636,59.38390935119629,19.023024120025635,59.45618435119629Q19.037394120025635,59.52845835119629,19.044624120025635,59.60179335119629Q19.051844120025635,59.675129051196286,19.051844120025635,59.74881935119629Z" fill="#000000" fill-opacity="1"/></g></g></g><g style="mix-blend-mode:passthrough"><g><g style="mix-blend-mode:passthrough"><g mask="url(#master_svg0_113_13652)"><g style="mix-blend-mode:passthrough"><path d="M26.748192185058592,16.68717384338379L26.748192185058592,36.68717384338379L22.749471188058592,36.68717384338379L22.749471188058592,16.68717384338379L26.748192185058592,16.68717384338379Z" fill="#000000" fill-opacity="1"/></g><g style="mix-blend-mode:passthrough"><path d="M29.057334647369387,18.420400619506836L17.662134647369385,24.999420619506836L18.593918647369385,26.613310619506834L29.989134647369383,20.034300619506837L29.057334647369387,18.420400619506836ZM17.662134647369385,29.095900619506835L29.057334647369387,22.516860619506836L29.989134647369383,24.130760619506837L18.593918647369385,30.709800619506836L17.662134647369385,29.095900619506835ZM29.057334647369387,26.613320619506837L17.662134647369385,33.19230061950684L18.593918647369385,34.80620061950684L29.989134647369383,28.227220619506838L29.057334647369387,26.613320619506837ZM29.057334647369387,30.709800619506836L17.662134647369385,37.28880061950684L18.593918647369385,38.90270061950683L29.989134647369383,32.32370061950684L29.057334647369387,30.709800619506836Z" fill-rule="evenodd" fill="#FFFFFF" fill-opacity="1"/></g></g></g><g style="mix-blend-mode:passthrough"><path d="M22.248804092407227,11.784160146956836Q22.049364092407227,11.822157450756835,21.852204092407227,11.866182650756835Q21.655054092407227,11.910208150756835,21.460524092407226,11.960186150756837Q21.265994092407226,12.010164150756836,21.074424092407227,12.066011150756836Q20.882844092407225,12.121858150756836,20.694544092407227,12.183478150756835Q20.506254092407225,12.245099150756836,20.321554092407226,12.312388150756837Q20.136854092407226,12.379677150756836,19.956074092407228,12.452522150756836Q19.775284092407226,12.525366150756836,19.598724092407227,12.603642150756835Q19.422154092407226,12.681918150756836,19.250104092407227,12.765492150756836Q19.07805409240723,12.849070150756836,18.91081409240723,12.937800150756836Q18.743584092407225,13.026530150756836,18.58143409240723,13.120270150756836Q18.419294092407227,13.214000150756835,18.262514092407226,13.312590150756836Q18.105744092407228,13.411170150756837,17.954594092407227,13.514440150756837Q17.803454092407225,13.617700150756836,17.658204092407228,13.725470150756836Q17.512954092407227,13.833240150756836,17.373844092407225,13.945330150756837Q17.234734092407226,14.057420150756837,17.101994092407228,14.173650150756835Q16.969254092407226,14.289870150756837,16.843124092407226,14.410030150756835Q16.716984092407227,14.530190150756836,16.597654092407225,14.654080150756837Q16.478324092407227,14.777960150756837,16.366014092407227,14.905370150756836Q16.253704092407226,15.032780150756835,16.148594092407226,15.163500150756835Q16.043494092407226,15.294210150756836,15.945774092407227,15.428010150756837Q15.848054092407226,15.561800150756836,15.757884092407227,15.698460150756835Q15.667708092407226,15.835110150756837,15.585239092407226,15.974390150756836Q15.502771092407226,16.113660150756836,15.428145092407227,16.255330150756837Q15.353519092407227,16.396990150756835,15.286863092407227,16.540800150756837Q15.220206092407226,16.684610150756836,15.161632092407226,16.830330150756836Q15.103058092407226,16.976040150756837,15.052666092407227,17.123410150756836Q15.002274092407227,17.270780150756835,14.960149092407226,17.419560150756837Q14.918024092407226,17.568340150756836,14.884238092407227,17.718270150756837Q14.850452092407227,17.868200150756834,14.825062292407226,18.019030150756837Q14.799672292407227,18.169860150756836,14.782721392407227,18.321330150756836Q14.765770592407227,18.472810150756835,14.757287652407227,18.624670150756835Q14.748804718046227,18.776530150756834,14.748804092407227,18.928520150756835L34.74880409240723,18.928520150756835Q34.74880409240723,18.776530150756834,34.74030409240723,18.624670150756835Q34.73180409240723,18.472810150756835,34.714904092407224,18.321330150756836Q34.69790409240723,18.169860150756836,34.67250409240722,18.019030150756837Q34.64720409240722,17.868200150756834,34.61340409240722,17.718270150756837Q34.57960409240722,17.568340150756836,34.537504092407225,17.419560150756837Q34.495304092407224,17.270780150756835,34.44490409240723,17.123410150756836Q34.39460409240723,16.976040150756837,34.33600409240722,16.830330150756836Q34.277404092407224,16.684610150756836,34.21070409240723,16.540800150756837Q34.144104092407225,16.396990150756835,34.06950409240723,16.255330150756837Q33.99480409240722,16.113660150756836,33.91240409240723,15.974390150756836Q33.829904092407226,15.835110150756837,33.73970409240722,15.698460150756835Q33.64960409240723,15.561810150756836,33.551804092407224,15.428010150756837Q33.45410409240723,15.294210150756836,33.34900409240723,15.163500150756835Q33.24390409240723,15.032780150756835,33.13160409240723,14.905370150756836Q33.019304092407225,14.777970150756836,32.90000409240723,14.654080150756837Q32.78060409240723,14.530190150756836,32.65450409240722,14.410030150756835Q32.52840409240723,14.289870150756837,32.395604092407225,14.173650150756835Q32.262904092407226,14.057420150756837,32.12380409240723,13.945330150756837Q31.984704092407227,13.833240150756836,31.839404092407225,13.725470150756836Q31.694204092407226,13.617700150756836,31.543004092407227,13.514440150756837Q31.391904092407227,13.411170150756837,31.235104092407227,13.312590150756836Q31.078304092407226,13.214000150756835,30.916204092407227,13.120270150756836Q30.754004092407225,13.026530150756836,30.586804092407228,12.937800150756836Q30.419604092407226,12.849070150756836,30.247504092407226,12.765492150756836Q30.07550409240723,12.681917150756837,29.89890409240723,12.603641150756836Q29.722304092407228,12.525366150756836,29.541504092407227,12.452521150756835Q29.36080409240723,12.379677150756836,29.17610409240723,12.312387150756836Q28.991404092407226,12.245098150756835,28.803104092407224,12.183477150756836Q28.614804092407226,12.121857150756837,28.423204092407225,12.066010150756837Q28.231604092407224,12.010164150756836,28.037104092407226,11.960185150756836Q27.842604092407228,11.910207150756836,27.645404092407226,11.866181850756837Q27.448204092407227,11.822156750756836,27.248804092407227,11.784159434756836L27.248804092407227,14.851720150756837L22.248804092407227,14.851720150756837L22.248804092407227,11.784160146956836Z" fill-rule="evenodd" fill="#000000" fill-opacity="1"/></g></g></g></g></g></svg>