<svg xmlns="http://www.w3.org/2000/svg" xmlns:xlink="http://www.w3.org/1999/xlink" fill="none" version="1.1" width="48.44189453125" height="32.85137939453125" viewBox="0 0 48.44189453125 32.85137939453125"><g style="mix-blend-mode:passthrough"><g style="mix-blend-mode:passthrough"><g style="mix-blend-mode:passthrough"><path d="M12.6926,30.673682098388674Q14.8703,28.495982098388673,14.8703,25.41626209838867Q14.8703,22.336542098388673,12.6926,20.15886209838867Q10.5149,17.981181979179674,7.43513,17.981182098388672Q4.3554,17.981182098388672,2.1777,20.15886209838867Q1.19209e-7,22.336542098388673,0,25.41626209838867Q1.19209e-7,28.495982098388673,2.1777,30.673682098388674Q4.3554,32.85138209838867,7.43513,32.85138209838867Q10.5149,32.85138209838867,12.6926,30.673682098388674ZM10.5712,22.28019209838867Q11.8703,23.579192098388674,11.8703,25.41626209838867Q11.8703,27.253322098388672,10.5712,28.552282098388673Q9.27222,29.851382098388672,7.43513,29.851382098388672Q5.59803,29.851382098388672,4.29901,28.552282098388673Q3,27.253322098388672,3,25.41626209838867Q3,23.579192098388674,4.29901,22.28019209838867Q5.59803,20.981182098388672,7.43513,20.981182098388672Q9.27222,20.981182098388672,10.5712,22.28019209838867Z" fill-rule="evenodd" fill="#D61D00" fill-opacity="1"/></g><g style="mix-blend-mode:passthrough"><path d="M46.2640111328125,30.673682098388674Q48.4417111328125,28.495982098388673,48.4417111328125,25.41626209838867Q48.4417111328125,22.336542098388673,46.2640111328125,20.15886209838867Q44.0863111328125,17.981181979179674,41.0065411328125,17.981182098388672Q37.9268111328125,17.981182098388672,35.7491111328125,20.15886209838867Q33.5714112520215,22.336542098388673,33.5714111328125,25.41626209838867Q33.5714112520215,28.495982098388673,35.7491111328125,30.673682098388674Q37.9268111328125,32.85138209838867,41.0065411328125,32.85138209838867Q44.0863111328125,32.85138209838867,46.2640111328125,30.673682098388674ZM44.1426111328125,22.28019209838867Q45.4417111328125,23.579192098388674,45.4417111328125,25.41626209838867Q45.4417111328125,27.253322098388672,44.1426111328125,28.552282098388673Q42.843631132812504,29.851382098388672,41.0065411328125,29.851382098388672Q39.1694411328125,29.851382098388672,37.8704211328125,28.552282098388673Q36.5714111328125,27.253322098388672,36.5714111328125,25.41626209838867Q36.5714111328125,23.579192098388674,37.8704211328125,22.28019209838867Q39.1694411328125,20.981182098388672,41.0065411328125,20.981182098388672Q42.843631132812504,20.981182098388672,44.1426111328125,22.28019209838867Z" fill-rule="evenodd" fill="#000000" fill-opacity="1"/></g></g><g style="mix-blend-mode:passthrough"><g style="mix-blend-mode:passthrough"><g style="mix-blend-mode:passthrough"><path d="M5.642373953125,8.37762C5.471539953125,8.62717,5.380126953125,8.92253,5.380126953125,9.22495C5.380126953125,10.0534,6.051699953125,10.7249,6.880126953125,10.7249C7.375146953125,10.7249,7.838296953125,10.4807,8.117906953125,10.0722Q8.118746953125001,10.071,8.119606953125,10.0698Q10.354036953125,6.80701,13.828276953125,4.93361Q17.414226953125002,3,21.517326953125,3Q25.963626953125,3,29.767126953125,5.25052Q33.461226953125,7.43631,35.598326953124996,11.1572Q35.599326953125,11.159,35.600326953125,11.1607C35.867726953125,11.6267,36.363926953125,11.914,36.901226953125004,11.914C37.729626953125,11.914,38.401226953125,11.2424,38.401226953125,10.414C38.401226953125,10.1519,38.332526953125,9.89446,38.202126953125,9.6672Q38.201026953125,9.66529,38.199926953125,9.66348Q35.669226953125005,5.257,31.294826953125,2.66864Q26.784726953125,0,21.517326953125,0Q16.656926953125,-7.15256e-7,12.404416953125,2.29304Q8.288776953125,4.51229,5.643023953125,8.37667L5.642373953125,8.37762Z" fill-rule="evenodd" fill="#000000" fill-opacity="1"/></g></g><g style="mix-blend-mode:passthrough" transform="matrix(-0.6221341490745544,0.7829105257987976,-0.7829105257987976,-0.6221341490745544,79.03239212700024,-24.626835856217184)"><path d="M60.195575109863285,16.800269512176513C60.29107510986328,16.932569512176514,60.19657510986328,17.117369512176513,60.03347510986328,17.117369512176513L45.65953010986328,17.117369512176513C45.49640860986328,17.117369512176513,45.40189350986328,16.932569512176514,45.49735270986328,16.800269512176513L52.68430510986328,6.841728712176514C52.76413510986328,6.7311164121765135,52.92883510986328,6.7311164121765135,53.008655109863284,6.841728712176514L60.195575109863285,16.800269512176513Z" fill="#000000" fill-opacity="1"/></g></g></g></svg>