<svg xmlns="http://www.w3.org/2000/svg" xmlns:xlink="http://www.w3.org/1999/xlink" fill="none" version="1.1" width="48" height="48" viewBox="0 0 48 48"><g style="mix-blend-mode:passthrough"><g><g style="mix-blend-mode:passthrough"><rect x="0" y="0" width="48" height="48" rx="6" fill-opacity="0" stroke-opacity="1" stroke="#000000" stroke-width="3" fill="none" stroke-dasharray=""/></g><g style="mix-blend-mode:passthrough"><g><g style="mix-blend-mode:passthrough"><ellipse cx="24" cy="16" rx="8" ry="8" fill-opacity="0" stroke-opacity="1" stroke="#000000" stroke-width="3" fill="none" stroke-dasharray=""/></g><g style="mix-blend-mode:passthrough"><path d="M7.5,40L7.5,35Q7.5,31.8934,9.696699,29.696699Q11.8934,27.5,15,27.5L33,27.5Q36.1066,27.5,38.3033,29.696699Q40.5,31.8934,40.5,35L40.5,40L37.5,40L37.5,35Q37.5,33.13604,36.182,31.81802Q34.864000000000004,30.5,33,30.5L15,30.5Q13.136040000000001,30.5,11.81802,31.81802Q10.5,33.13604,10.5,35L10.5,40L7.5,40ZM10.5,40Q10.5,40.0737,10.49278,40.147Q10.48555,40.2204,10.47118,40.2926Q10.4568,40.3649,10.435410000000001,40.4354Q10.41402,40.5059,10.38582,40.574Q10.35762,40.6421,10.32288,40.7071Q10.28814,40.7721,10.2472,40.8334Q10.20626,40.8946,10.15952,40.9516Q10.11277,41.0086,10.06066,41.0607Q10.00855,41.1128,9.95159,41.1595Q9.894627,41.2063,9.833355,41.2472Q9.772084,41.2881,9.707095,41.322900000000004Q9.642106,41.3576,9.574025,41.3858Q9.505944,41.414,9.435427,41.4354Q9.36491,41.4568,9.292635,41.471199999999996Q9.220361,41.4856,9.147026,41.4928Q9.0736903,41.5,9,41.5Q8.9263097,41.5,8.852974,41.4928Q8.779639,41.4856,8.707365,41.471199999999996Q8.63509,41.4568,8.564573,41.4354Q8.494056,41.414,8.425975,41.3858Q8.357894,41.3576,8.292905,41.322900000000004Q8.227916,41.2881,8.166645,41.2472Q8.105373,41.2063,8.04841,41.1595Q7.99145,41.1128,7.93934,41.0607Q7.88723,41.0086,7.8404799999999994,40.9516Q7.79374,40.8946,7.7528,40.8334Q7.71186,40.7721,7.67712,40.7071Q7.64238,40.6421,7.61418,40.574Q7.58598,40.5059,7.56459,40.4354Q7.5432,40.3649,7.52882,40.2926Q7.51445,40.2204,7.50722,40.147Q7.5,40.0737,7.5,40Q7.5,39.9263,7.50722,39.853Q7.51445,39.7796,7.52882,39.7074Q7.5432,39.6351,7.56459,39.5646Q7.58598,39.4941,7.61418,39.426Q7.64238,39.3579,7.67712,39.2929Q7.71186,39.2279,7.7528,39.1666Q7.79374,39.1054,7.8404799999999994,39.0484Q7.88723,38.99145,7.93934,38.93934Q7.99145,38.88723,8.04841,38.84048Q8.105373,38.79374,8.166645,38.75279Q8.227916,38.71185,8.292905,38.67712Q8.357894,38.64238,8.425975,38.61418Q8.494056,38.58598,8.564573,38.56459Q8.63509,38.5432,8.707365,38.528819999999996Q8.779639,38.51445,8.852974,38.507220000000004Q8.9263097,38.5,9,38.5Q9.0736903,38.5,9.147026,38.507220000000004Q9.220361,38.51445,9.292635,38.528819999999996Q9.36491,38.5432,9.435427,38.56459Q9.505944,38.58598,9.574025,38.61418Q9.642106,38.64238,9.707095,38.67712Q9.772084,38.71185,9.833355,38.75279Q9.894627,38.79374,9.95159,38.84048Q10.00855,38.88723,10.06066,38.93934Q10.11277,38.99145,10.15952,39.0484Q10.20626,39.1054,10.2472,39.1666Q10.28814,39.2279,10.32288,39.2929Q10.35762,39.3579,10.38582,39.426Q10.41402,39.4941,10.435410000000001,39.5646Q10.4568,39.6351,10.47118,39.7074Q10.48555,39.7796,10.49278,39.853Q10.5,39.9263,10.5,40ZM40.5,40Q40.5,40.0737,40.4928,40.147Q40.485600000000005,40.2204,40.471199999999996,40.2926Q40.4568,40.3649,40.4354,40.4354Q40.414,40.5059,40.3858,40.574Q40.357600000000005,40.6421,40.322900000000004,40.7071Q40.2881,40.7721,40.2472,40.8334Q40.2063,40.8946,40.1595,40.9516Q40.1128,41.0086,40.0607,41.0607Q40.0086,41.1128,39.9516,41.1595Q39.8946,41.2063,39.8334,41.2472Q39.772099999999995,41.2881,39.7071,41.322900000000004Q39.6421,41.3576,39.574,41.3858Q39.5059,41.414,39.4354,41.4354Q39.3649,41.4568,39.2926,41.471199999999996Q39.2204,41.4856,39.147,41.4928Q39.0737,41.5,39,41.5Q38.9263,41.5,38.853,41.4928Q38.7796,41.4856,38.7074,41.471199999999996Q38.6351,41.4568,38.5646,41.4354Q38.4941,41.414,38.426,41.3858Q38.3579,41.3576,38.2929,41.322900000000004Q38.227900000000005,41.2881,38.1666,41.2472Q38.1054,41.2063,38.0484,41.1595Q37.9914,41.1128,37.9393,41.0607Q37.8872,41.0086,37.8405,40.9516Q37.7937,40.8946,37.7528,40.8334Q37.7119,40.7721,37.677099999999996,40.7071Q37.642399999999995,40.6421,37.6142,40.574Q37.586,40.5059,37.5646,40.4354Q37.5432,40.3649,37.528800000000004,40.2926Q37.514399999999995,40.2204,37.5072,40.147Q37.5,40.0737,37.5,40Q37.5,39.9263,37.5072,39.853Q37.514399999999995,39.7796,37.528800000000004,39.7074Q37.5432,39.6351,37.5646,39.5646Q37.586,39.4941,37.6142,39.426Q37.642399999999995,39.3579,37.677099999999996,39.2929Q37.7119,39.2279,37.7528,39.1666Q37.7937,39.1054,37.8405,39.0484Q37.8872,38.99145,37.9393,38.93934Q37.9914,38.88723,38.0484,38.84048Q38.1054,38.79374,38.1666,38.75279Q38.227900000000005,38.71185,38.2929,38.67712Q38.3579,38.64238,38.426,38.61418Q38.4941,38.58598,38.5646,38.56459Q38.6351,38.5432,38.7074,38.528819999999996Q38.7796,38.51445,38.853,38.507220000000004Q38.9263,38.5,39,38.5Q39.0737,38.5,39.147,38.507220000000004Q39.2204,38.51445,39.2926,38.528819999999996Q39.3649,38.5432,39.4354,38.56459Q39.5059,38.58598,39.574,38.61418Q39.6421,38.64238,39.7071,38.67712Q39.772099999999995,38.71185,39.8334,38.75279Q39.8946,38.79374,39.9516,38.84048Q40.0086,38.88723,40.0607,38.93934Q40.1128,38.99145,40.1595,39.0484Q40.2063,39.1054,40.2472,39.1666Q40.2881,39.2279,40.322900000000004,39.2929Q40.357600000000005,39.3579,40.3858,39.426Q40.414,39.4941,40.4354,39.5646Q40.4568,39.6351,40.471199999999996,39.7074Q40.485600000000005,39.7796,40.4928,39.853Q40.5,39.9263,40.5,40Z" fill="#000000" fill-opacity="1"/></g></g></g></g></g></svg>