<svg xmlns="http://www.w3.org/2000/svg" xmlns:xlink="http://www.w3.org/1999/xlink" fill="none" version="1.1" width="48.97265625" height="51.527587890625" viewBox="0 0 48.97265625 51.527587890625"><g style="mix-blend-mode:passthrough"><g><g style="mix-blend-mode:passthrough"><path d="M18.3203,6.5651Q14.1696,7.89469,10.9429,10.8245L7.42234,8.79189Q6.52555,8.27413,5.5253,8.54214Q4.52505,8.81016,4.00728,9.70696L0.341166,16.0569Q-0.176601,16.9537,0.0914152,17.9539Q0.35943,18.9542,1.25623,19.4719L4.77686,21.5046Q4.32193,23.608,4.32193,25.7638Q4.32193,27.9196,4.77686,30.023L1.25623,32.0557Q0.359435,32.5734,0.0914192,33.5737Q-0.176597,34.5739,0.34117,35.4707L4.00729,41.8206Q4.52505,42.7174,5.5253,42.9854Q6.52555,43.2535,7.42235,42.7357L10.9429,40.7031Q14.1696,43.6329,18.3203,44.9625L18.3203,49.0276Q18.3203,50.0631,19.0525,50.7954Q19.7847,51.5276,20.8203,51.5276L28.1525,51.5276Q29.188,51.5276,29.9203,50.7954Q30.6525,50.0631,30.6525,49.0276L30.6525,44.9625Q34.8031,43.6329,38.0299,40.7032L41.5503,42.7357Q42.4471,43.2535,43.4474,42.9855Q44.4476,42.7175,44.9654,41.8207L48.6315,35.4707Q49.1493,34.574,48.8812,33.5737Q48.6132,32.5735,47.7164,32.0557L44.1959,30.0231Q44.6509,27.9196,44.6509,25.7638Q44.6509,23.608,44.1959,21.5045L47.7164,19.4719Q48.6132,18.9541,48.8813,17.9539Q49.1493,16.9536,48.6315,16.0568L44.9654,9.70694Q44.4476,8.81014,43.4474,8.54212Q42.4471,8.27411,41.5503,8.79187L38.0299,10.8244Q34.8031,7.89468,30.6525,6.5651L30.6525,2.5Q30.6525,1.46447,29.9203,0.732233Q29.188,0,28.1525,0L20.8203,0Q19.7847,-1.19209e-7,19.0525,0.732233Q18.3203,1.46447,18.3203,2.5L18.3203,6.5651ZM20.7952,8.4483Q21.3203,7.7682,21.3203,6.91741L21.3203,3L27.6525,3L27.6525,6.91741Q27.6525,7.76819,28.1776,8.44829Q28.6801,9.09912,29.4691,9.33848Q33.2988,10.5002,36.2197,13.2359Q36.8215,13.7996,37.6364,13.9093Q38.488,14.024,39.2248,13.5986L42.6173,11.64L45.7834,17.1238L42.3909,19.0825Q41.6553,19.5072,41.3285,20.2984Q41.0142,21.0592,41.2019,21.8636Q41.6509,23.7878,41.6509,25.7638Q41.6508,27.7397,41.2019,29.664Q41.0142,30.4684,41.3284,31.2292Q41.6553,32.0204,42.3909,32.4451L45.7834,34.4038L42.6173,39.8876L39.2248,37.9289Q38.488,37.5036,37.6364,37.6183Q36.8215,37.728,36.2197,38.2917Q33.2988,41.0274,29.4691,42.1891Q28.6801,42.4285,28.1776,43.0793Q27.6525,43.7594,27.6525,44.6102L27.6525,48.5276L21.3203,48.5276L21.3203,44.6102Q21.3203,43.7594,20.7952,43.0793Q20.2927,42.4285,19.5036,42.1891Q15.6739,41.0274,12.753,38.2916Q12.1512,37.728,11.3363,37.6182Q10.4848,37.5035,9.74797,37.9289L6.35536,39.8876L3.18925,34.4037L6.58187,32.445Q7.31745,32.0203,7.64431,31.2291Q7.9586,30.4684,7.7709,29.664Q7.32193,27.7397,7.32193,25.7638Q7.32193,23.7879,7.7709,21.8636Q7.95859,21.0592,7.64431,20.2984Q7.31745,19.5073,6.58187,19.0826L3.18924,17.1238L6.35536,11.64L9.74797,13.5987Q10.4848,14.0241,11.3363,13.9094Q12.1512,13.7996,12.753,13.236Q15.6739,10.5002,19.5036,9.33848Q20.2927,9.09913,20.7952,8.4483Z" fill-rule="evenodd" fill="#000000" fill-opacity="1"/></g><g style="mix-blend-mode:passthrough"><path d="M34.12358353118897,29.579103710937503Q34.85128353118897,27.740903710937502,34.85128353118897,25.763803710937502Q34.85128353118897,23.7867437109375,34.12358353118897,21.9485037109375Q33.333383531188964,19.9525537109375,31.815483531188963,18.4346437109375Q30.297483531188966,16.9167237109375,28.301583531188967,16.1265477109375Q26.463383531188967,15.3988037109375,24.486283531188967,15.3988037109375Q22.509223531188965,15.3988037109375,20.670983531188966,16.1265477109375Q18.675043531188965,16.9167237109375,17.157123531188965,18.4346437109375Q15.639203531188965,19.9525637109375,14.849027531188964,21.9485037109375Q14.121283531188965,23.7867437109375,14.121283531188965,25.763803710937502Q14.121283531188965,27.740903710937502,14.849028531188965,29.579103710937503Q15.639203531188965,31.5750037109375,17.157123531188965,33.093003710937495Q18.675043531188965,34.6109037109375,20.670983531188966,35.401103710937505Q22.509233531188965,36.128803710937504,24.486283531188967,36.128803710937504Q26.463383531188967,36.128803710937504,28.301583531188967,35.401103710937505Q30.297483531188966,34.6109037109375,31.815483531188963,33.093003710937495Q33.333383531188964,31.5750037109375,34.12358353118897,29.579103710937503ZM29.694083531188966,20.5559637109375Q31.851283531188965,22.713123710937502,31.851283531188965,25.763803710937502Q31.851283531188965,28.8145037109375,29.694083531188966,30.9716037109375Q27.536983531188966,33.128803710937504,24.486283531188967,33.128803710937504Q21.435603531188967,33.128803710937504,19.278443531188966,30.9716037109375Q17.121283531188965,28.8145037109375,17.121283531188965,25.763803710937502Q17.121283531188965,22.713123710937502,19.278443531188966,20.5559637109375Q21.435603531188967,18.3988037109375,24.486283531188967,18.3988037109375Q27.536983531188966,18.3988037109375,29.694083531188966,20.5559637109375Z" fill-rule="evenodd" fill="#000000" fill-opacity="1"/></g></g></g></svg>