<svg xmlns="http://www.w3.org/2000/svg" xmlns:xlink="http://www.w3.org/1999/xlink" fill="none" version="1.1" width="51" height="50.81817626953125" viewBox="0 0 51 50.81817626953125"><g style="mix-blend-mode:passthrough"><g style="mix-blend-mode:passthrough"><g style="mix-blend-mode:passthrough"><g style="mix-blend-mode:passthrough"><g style="mix-blend-mode:passthrough"><path d="M44.59360625,9.878935625C44.77410625,9.625055625,44.87110625,9.321275625,44.87110625,9.009765625C44.87110625,8.181338625,44.19950625,7.509765625,43.37110625,7.509765625C42.88550625,7.509765625,42.42990625,7.744834625,42.14860625,8.140596625L42.14740625,8.142212624999999L29.67830625,25.680465625L20.03090625,13.563365625Q19.25260625,12.585745625000001,18.003406249999998,12.621575625Q16.75430625,12.657395625,16.03326625,13.678025625L6.4045042500000005,27.307365625L6.40379725,27.308365625C6.22493865,27.561465625,6.12890625,27.863865625,6.12890625,28.173865625C6.12890625,29.002265625,6.80047925,29.673865625,7.62890625,29.673865625C8.11608625,29.673865625,8.57291625,29.437265625,8.85401625,29.039365625L8.85472625,29.038365625L18.099006250000002,15.953275625L27.74510625,28.068765625Q28.52200625,29.044565625,29.76880625,29.010665625Q31.01570625,28.976765625,31.73840625,27.960165625L44.59250625,9.880545625L44.59360625,9.878935625Z" fill-rule="evenodd" fill="#000000" fill-opacity="1"/></g><g style="mix-blend-mode:passthrough"><path d="M12.51220703125,47.81817626953125L38.48780703125,47.81817626953125C39.31620703125,47.81817626953125,39.98780703125,48.48974926953125,39.98780703125,49.31817626953125C39.98780703125,50.14660626953125,39.31620703125,50.81817626953125,38.48780703125,50.81817626953125L12.51220703125,50.81817626953125C11.68378003125,50.81817626953125,11.01220703125,50.14660626953125,11.01220703125,49.31817626953125C11.01220703125,48.48974926953125,11.68378003125,47.81817626953125,12.51220703125,47.81817626953125Z" fill-rule="evenodd" fill="#000000" fill-opacity="1"/></g><g style="mix-blend-mode:passthrough"><path d="M0.732233,0.732233Q0,1.46447,0,2.5L0,35.5Q-1.19209e-7,36.5355,0.732233,37.2678Q1.46446,38,2.5,38L48.5,38Q49.5355,38,50.2678,37.2678Q51,36.5355,51,35.5L51,2.5Q51,1.46446,50.2678,0.732233Q49.5355,0,48.5,0L2.5,0Q1.46447,-1.19209e-7,0.732233,0.732233ZM3,3L3,35L48,35L48,3L3,3Z" fill-rule="evenodd" fill="#000000" fill-opacity="1"/></g><g style="mix-blend-mode:passthrough"><path d="M20.5,35.0062255859375L30.5,35.0062255859375L30.5,50.8132255859375L20.5,50.8132255859375L20.5,35.0062255859375ZM23.5,38.0062255859375L23.5,47.8132255859375L27.5,47.8132255859375L27.5,38.0062255859375L23.5,38.0062255859375Z" fill-rule="evenodd" fill="#000000" fill-opacity="1"/></g></g></g></g></g></svg>