<svg xmlns="http://www.w3.org/2000/svg" xmlns:xlink="http://www.w3.org/1999/xlink" fill="none" version="1.1" width="38" height="38" viewBox="0 0 38 38"><g style="mix-blend-mode:passthrough"><g><g style="mix-blend-mode:passthrough"><path d="M36.5,19C36.5,28.665,28.665,36.5,19,36.5C9.33502,36.5,1.5,28.665,1.5,19C1.5,9.33502,9.33502,1.5,19,1.5C28.665,1.5,36.5,9.33502,36.5,19Z" fill="#FAD242" fill-opacity="1"/></g><g style="mix-blend-mode:passthrough"><path d="M36.666,25.9938Q38,22.6241,38,19Q38,15.3759,36.666,12.0062Q35.2175,8.34746,32.435,5.56497Q29.6525,2.78249,25.9938,1.33402Q22.6241,0,19,0Q15.3759,0,12.0062,1.33402Q8.34746,2.78249,5.56497,5.56497Q2.78249,8.34745,1.33402,12.0062Q0,15.3759,0,19Q0,22.6241,1.33402,25.9938Q2.78249,29.6525,5.56497,32.435Q8.34746,35.2175,12.0062,36.666Q15.3759,38,19,38Q22.6241,38,25.9938,36.666Q29.6525,35.2175,32.435,32.435Q35.2175,29.6525,36.666,25.9938ZM33.8766,13.1105Q35,15.9481,35,19Q35,22.0519,33.8766,24.8895Q32.6569,27.9706,30.3137,30.3137Q27.9706,32.6569,24.8895,33.8766Q22.0519,35,19,35Q15.9481,35,13.1105,33.8766Q10.0294,32.6569,7.68629,30.3137Q5.34315,27.9706,4.12339,24.8895Q3,22.0519,3,19Q3,15.9481,4.12339,13.1105Q5.34315,10.0294,7.68629,7.68629Q10.0294,5.34315,13.1105,4.12339Q15.9481,3,19,3Q22.0519,3,24.8895,4.12339Q27.9706,5.34315,30.3137,7.68629Q32.6569,10.0294,33.8766,13.1105Z" fill-rule="evenodd" fill="#FAD242" fill-opacity="1"/></g><g style="mix-blend-mode:passthrough"><g><g style="mix-blend-mode:passthrough"><path d="M20.400000381469727,26.02059211730957C20.400000381469727,26.79379211730957,19.773200381469728,27.42059211730957,19.000000381469725,27.42059211730957C18.226801381469727,27.42059211730957,17.600000381469727,26.79379211730957,17.600000381469727,26.02059211730957C17.600000381469727,25.24739311730957,18.226801381469727,24.62059211730957,19.000000381469725,24.62059211730957C19.773200381469728,24.62059211730957,20.400000381469727,25.24739311730957,20.400000381469727,26.02059211730957Z" fill="#FFFFFF" fill-opacity="1"/></g><g style="mix-blend-mode:passthrough"><path d="M17.9232120513916,11.629492568969727C17.9232120513916,11.049593568969726,18.3933130513916,10.579492568969727,18.973212051391602,10.579492568969727C19.5531120513916,10.579492568969727,20.023212051391603,11.049593568969726,20.023212051391603,11.629492568969727L20.023212051391603,22.129492568969727C20.023212051391603,22.709392568969726,19.5531120513916,23.179492568969728,18.973212051391602,23.179492568969728C18.3933130513916,23.179492568969728,17.9232120513916,22.709392568969726,17.9232120513916,22.129492568969727L17.9232120513916,11.629492568969727Z" fill="#FFFFFF" fill-opacity="1"/></g></g></g></g></g></svg>