<svg xmlns="http://www.w3.org/2000/svg" xmlns:xlink="http://www.w3.org/1999/xlink" fill="none" version="1.1" width="48.478515625" height="48.2200927734375" viewBox="0 0 48.478515625 48.2200927734375"><g style="mix-blend-mode:passthrough"><g style="mix-blend-mode:passthrough"><g style="mix-blend-mode:passthrough"><g style="mix-blend-mode:passthrough"><path d="M1.02513,11.2452227734375Q0,12.2703427734375,0,13.7200927734375L0,44.7200927734375Q0,46.1697927734375,1.02513,47.1949927734375Q2.05025,48.2200927734375,3.5,48.2200927734375L34.5,48.2200927734375Q35.9498,48.2200927734375,36.9749,47.1949927734375Q38,46.1698927734375,38,44.7200927734375L38,13.7200927734375Q38,12.2703427734375,36.9749,11.2452227734375Q35.9497,10.2200927734375,34.5,10.2200927734375L3.5,10.2200927734375Q2.05025,10.2200927734375,1.02513,11.2452227734375ZM3,44.7200927734375L3,13.7200927734375Q3,13.5129827734375,3.14645,13.3665427734375Q3.29289,13.2200927734375,3.5,13.2200927734375L34.5,13.2200927734375Q34.7071,13.2200927734375,34.8536,13.3665427734375Q35,13.5129827734375,35,13.7200927734375L35,44.7200927734375Q35,44.9271927734375,34.8536,45.0736927734375Q34.7071,45.2200927734375,34.5,45.2200927734375L3.5,45.2200927734375Q3.29289,45.2200927734375,3.14645,45.0736927734375Q3,44.9271927734375,3,44.7200927734375Z" fill-rule="evenodd" fill="#000000" fill-opacity="1"/></g></g><g style="mix-blend-mode:passthrough"><g style="mix-blend-mode:passthrough" transform="matrix(0,1,-1,0,39.531331062316895,-1.5911455154418945)"><path d="M22.061238288879395,18.9700927734375L39.561238288879395,18.9700927734375C40.3896382888794,18.9700927734375,41.061238288879395,19.6416657734375,41.061238288879395,20.4700927734375C41.061238288879395,21.2985227734375,40.3896382888794,21.9700927734375,39.561238288879395,21.9700927734375L22.061238288879395,21.9700927734375C21.232811288879393,21.9700927734375,20.561238288879395,21.2985227734375,20.561238288879395,20.4700927734375C20.561238288879395,19.6416657734375,21.232811288879393,18.9700927734375,22.061238288879395,18.9700927734375Z" fill-rule="evenodd" fill="#000000" fill-opacity="1"/></g><g style="mix-blend-mode:passthrough" transform="matrix(-1,0,0,-1,58.5,61.56294631958008)"><path d="M30.75,30.78147315979004L48.25,30.78147315979004C49.0784,30.78147315979004,49.75,31.453046159790038,49.75,32.28147315979004C49.75,33.109903159790036,49.0784,33.78147315979004,48.25,33.78147315979004L30.75,33.78147315979004C29.921573,33.78147315979004,29.25,33.109903159790036,29.25,32.28147315979004C29.25,31.453046159790038,29.921573,30.78147315979004,30.75,30.78147315979004Z" fill-rule="evenodd" fill="#000000" fill-opacity="1"/></g></g></g><g style="mix-blend-mode:passthrough"><g style="mix-blend-mode:passthrough"><g style="mix-blend-mode:passthrough"><path d="M10.478515625,3.5L10.478515625,11.7651L13.478515625,11.7651L13.478515625,3.5Q13.478515625,3.29289,13.624965625,3.14645Q13.771405625,3,13.978515625,3L44.978515625,3Q45.185615625,3,45.332115625,3.14645Q45.478515625,3.29289,45.478515625,3.5L45.478515625,34.5Q45.478515625,34.7071,45.332115625,34.8536Q45.185615625,35,44.978515625,35L36.796915625,35L36.796915625,38L44.978515625,38Q46.428315625,38,47.453415625,36.9749Q48.478515625,35.9498,48.478515625,34.5L48.478515625,3.5Q48.478515625,2.05025,47.453415625,1.02513Q46.428215625,0,44.978515625,0L13.978515625,0Q12.528765625,0,11.503645625,1.02513Q10.478515625,2.05025,10.478515625,3.5Z" fill-rule="evenodd" fill="#000000" fill-opacity="1"/></g></g></g></g></svg>