<svg xmlns="http://www.w3.org/2000/svg" xmlns:xlink="http://www.w3.org/1999/xlink" fill="none" version="1.1" width="48.122802734375" height="38.1490478515625" viewBox="0 0 48.122802734375 38.1490478515625"><defs><mask id="master_svg0_329_5185"><g style="mix-blend-mode:passthrough"><path d="M35.866352043609616,7.510802268981934L35.866352043609616,38.14880226898194L29.74070024490962,38.14880226898194L29.74070024490962,7.510802268981934L35.866352043609616,7.510802268981934Z" fill="#FFFFFF" fill-opacity="1"/></g></mask></defs><g style="mix-blend-mode:passthrough"><g style="mix-blend-mode:passthrough"><path d="M2.2849,11.998351008033753L4.39174,11.998351008033753Q4.99591,11.998351008033753,5.35572,12.483751008033753Q5.71554,12.969051008033752,5.53993,13.547151008033753L4.50713,16.947051008033753L12.0021,9.445661008033753L10.2372,9.445661008033753Q9.63304,9.445661008033753,9.27323,8.960311008033752Q8.91341,8.474961008033752,9.08902,7.896871008033752L10.5768,2.9992510080337524L5.0186,2.9992510080337524L2.2849,11.998351008033753ZM0.2418,13.513051008033752Q0.601612,13.998351008033753,1.20579,13.998351008033753L3.31262,13.998351008033753L1.66357,19.426951008033754Q1.53606,19.846751008033753,1.70639,20.245951008033753Q1.85904,20.603751008033754,2.19486,20.805051008033754Q2.53067,21.006351008033754,2.9182,20.97225100803375Q3.35059,20.93425100803375,3.66066,20.623951008033753L14.7811,9.493821008033752Q15.3477,8.926741008033751,15.0408,8.186201008033752Q14.7339,7.445661008033753,13.9322,7.445661008033753L11.3163,7.445661008033753L12.8041,2.5480410080337523Q12.9797,1.9699490080337525,12.6199,1.4846000080337525Q12.2601,0.9992510676383525,11.6559,0.9992510080337524L4.42552,0.9992510080337524Q4.02922,0.9992510080337524,3.71087,1.2352620080337524Q3.39251,1.4712740080337525,3.27733,1.8504610080337525L0.057597,12.449551008033753Q-0.118012,13.027651008033752,0.2418,13.513051008033752Z" fill-rule="evenodd" fill="#000000" fill-opacity="1"/></g><g style="mix-blend-mode:passthrough"><g transform="matrix(-1,0,0,-1,46.637020111083984,76.29808807373047)"><path d="M31.999420055541993,49.63914403686523L31.999420055541993,59.62924403686523C31.999420055541993,59.905444036865234,31.775560055541995,60.12924403686523,31.499420055541993,60.12924403686523L30.570460055541993,60.12924403686523C30.29432005554199,60.12924403686523,30.070460055541993,59.905444036865234,30.070460055541993,59.62924403686523L30.070460055541993,49.63914403686523C30.070460055541993,49.36304403686523,29.846610055541994,49.13914403686523,29.570460055541993,49.13914403686523L24.280501055541993,49.13914403686523C23.875667055541992,49.13914403686523,23.638665055541992,48.68314403686524,23.871292055541993,48.35184403686523L30.625620055541994,38.731860036865235C30.82472005554199,38.448277036865235,31.244920055541993,38.448274036865236,31.444030055541994,38.73185303686523L38.19861005554199,48.35184403686523C38.431210055541996,48.68314403686524,38.194210055541994,49.13914403686523,37.78941005554199,49.13914403686523L32.49942005554199,49.13914403686523C32.22328005554199,49.13914403686523,31.999420055541993,49.36304403686523,31.999420055541993,49.63914403686523" fill="#000000" fill-opacity="1"/></g></g><g style="mix-blend-mode:passthrough"><g style="mix-blend-mode:passthrough"><path d="M35.866689167480466,7.511007785797119L35.866689167480466,38.149007785797124L29.741037368780468,38.149007785797124L29.741037368780468,7.511007785797119L35.866689167480466,7.511007785797119Z" fill="#000000" fill-opacity="1"/></g><g style="mix-blend-mode:passthrough"><g style="mix-blend-mode:passthrough" mask="url(#master_svg0_329_5185)"><g style="mix-blend-mode:passthrough"><path d="M21.947263717651367,20.244318588638308L39.403563717651366,10.165918588638306L40.83106371765137,12.638268588638306L23.374753717651366,22.716618588638305L21.947263717651367,20.244318588638308ZM21.947263717651367,26.519718588638305L39.403563717651366,16.441308588638307L40.83106371765137,18.91359858863831L23.374753717651366,28.992018588638306L21.947263717651367,26.519718588638305ZM21.947263717651367,32.7951185886383L39.403563717651366,22.716618588638305L40.83106371765137,25.189018588638305L23.374753717651366,35.26741858863831L21.947263717651367,32.7951185886383ZM21.947263717651367,39.070418588638304L39.403563717651366,28.992018588638306L40.83106371765137,31.464418588638306L23.374753717651366,41.54271858863831L21.947263717651367,39.070418588638304Z" fill-rule="evenodd" fill="#FFFFFF" fill-opacity="1"/></g></g><g style="mix-blend-mode:passthrough"><path d="M28.973812329101563,0.000029566581396484376C22.307422329101563,1.2700833921813965,17.484512329101562,5.864303392181396,17.484512329101562,10.944543392181396L48.122612329101564,10.944543392181396C48.122612329101564,5.864293392181397,43.29961232910156,1.2700633921813964,36.633312329101564,0.000022298881396484375L36.633312329101564,4.699183392181396L28.973812329101563,4.699183392181396L28.973812329101563,0.000029566581396484376Z" fill-rule="evenodd" fill="#000000" fill-opacity="1"/></g></g></g></g></svg>