<svg xmlns="http://www.w3.org/2000/svg" xmlns:xlink="http://www.w3.org/1999/xlink" fill="none" version="1.1" width="38.32311248779297" height="31.737918853759766" viewBox="0 0 38.32311248779297 31.737918853759766"><g style="mix-blend-mode:passthrough"><path d="M38.0208,28.6858C38.845,30.0182,37.8867,31.7379,36.3199,31.7379L2.00317,31.7379C0.436448,31.7379,-0.521919,30.0182,0.302291,28.6858L17.4607,0.947854C18.2425,-0.315951,20.0807,-0.315951,20.8624,0.947854L38.0208,28.6858ZM18.4331,7.75757C18.157,7.75757,17.9331,7.98143,17.9331,8.25757L17.9331,21.6317C17.9331,21.9079,18.157,22.1317,18.4331,22.1317L19.8288,22.1317C20.1049,22.1317,20.3288,21.9079,20.3288,21.6317L20.3288,8.25757C20.3288,7.98143,20.1049,7.75757,19.8288,7.75757L18.4331,7.75757ZM20.7587,25.3729C20.7587,26.2549,20.0436,26.97,19.1616,26.97C18.2795,26.97,17.5645,26.2549,17.5645,25.3729C17.5645,24.4908,18.2795,23.7757,19.1616,23.7757C20.0436,23.7757,20.7587,24.4908,20.7587,25.3729Z" fill-rule="evenodd" fill="#FFFFFF" fill-opacity="1"/></g></svg>