<svg xmlns="http://www.w3.org/2000/svg" xmlns:xlink="http://www.w3.org/1999/xlink" fill="none" version="1.1" width="45" height="51" viewBox="0 0 45 51"><g style="mix-blend-mode:passthrough"><g><g style="mix-blend-mode:passthrough"><g><g style="mix-blend-mode:passthrough"><g><g style="mix-blend-mode:passthrough"><path d="M26.75,0L2.5,0Q1.46447,0,0.732233,0.732233Q0,1.46447,0,2.5L0,48.5Q0,49.5355,0.732234,50.2678Q1.46446,51,2.5,51L42.5,51Q43.5355,51,44.2678,50.2678Q45,49.5355,45,48.5L45,18.5Q45,17.4645,44.2678,16.7322Q43.5355,16,42.5,16L29.25,16L29.25,2.5Q29.25,1.46447,28.5178,0.732233Q27.7855,0,26.75,0ZM3,3L3,48L42,48L42,19L28.75,19Q27.7145,19,26.9822,18.2678Q26.25,17.5355,26.25,16.5L26.25,3L3,3Z" fill-rule="evenodd" fill="#000000" fill-opacity="1"/></g><g style="mix-blend-mode:passthrough"><path d="M28.373933359375002,0.5746921742172242L44.121243359375,16.579945174217222L44.122143359375,16.580945174217224C44.398243359375,16.861445174217224,44.552943359375,17.239345174217224,44.552943359375,17.632945174217223C44.552943359375,18.461345174217225,43.881343359374995,19.132945174217223,43.052943359375,19.132945174217223C42.650843359375,19.132945174217223,42.265643359375005,18.971545174217223,41.983743359375,18.684945174217223L41.982743359375,18.683945174217225L26.235452359375,2.678705174217224L26.235201359375,2.6784551742172242C25.959151359375,2.3978851742172242,25.804443359375,2.0200451742172243,25.804443359375,1.6264451742172241C25.804443359375,0.7980181742172241,26.476016359375,0.12644517421722412,27.304443359375,0.12644517421722412C27.706493359375,0.12644517421722412,28.091713359375,0.2878451742172241,28.373683359375,0.5744371742172241L28.373933359375002,0.5746921742172242Z" fill-rule="evenodd" fill="#000000" fill-opacity="1"/></g></g></g></g></g></g></g></svg>