<svg xmlns="http://www.w3.org/2000/svg" xmlns:xlink="http://www.w3.org/1999/xlink" fill="none" version="1.1" width="51.187255859375" height="44.09814453125" viewBox="0 0 51.187255859375 44.09814453125"><g style="mix-blend-mode:passthrough"><g style="mix-blend-mode:passthrough"><g style="mix-blend-mode:passthrough"><g style="mix-blend-mode:passthrough"><path d="M4.04779,15.430122888183593Q5.09527,12.097722888183593,7.13339,9.244932888183595Q9.14432,6.430172888183594,11.9183,4.361942888183593Q14.7252,2.2691128881835936,18.0297,1.1536128881835936Q21.4471,0.00002288818359375,25.0857,0.00002288818359375Q29.5706,0.00002288818359375,33.6687,1.7333628881835939Q37.6258,3.407092888183594,40.6767,6.458042888183594Q43.7277,9.508992888183593,45.4014,13.466122888183595Q45.6964,14.163422888183593,45.9411,14.872022888183594L50.935,13.533822888183593C51.0926,13.491622888183594,51.2317,13.645622888183594,51.1738,13.798122888183594L46.8092,25.277522888183594C46.7607,25.405022888183595,46.6016,25.447622888183595,46.4959,25.361422888183593L36.9763,17.602322888183593C36.8499,17.499222888183592,36.8934,17.296322888183592,37.0509,17.254122888183595L43.0348,15.650722888183594Q42.8518,15.139322888183594,42.6384,14.634822888183594Q41.1926,11.216522888183594,38.5554,8.579362888183594Q35.9182,5.942162888183594,32.5,4.496372888183593Q28.9622,3.0000228881835938,25.0857,3.0000228881835938Q18.7638,3.0000228881835938,13.7115,6.767022888183594Q8.75367,10.463522888183594,6.90973,16.329722888183593C6.71327,16.954822888183593,6.13391,17.379922888183593,5.47876,17.379922888183593C4.65033,17.379922888183593,3.97876,16.708422888183595,3.97876,15.879922888183593C3.97876,15.727422888183593,4.00204,15.575722888183593,4.04779,15.430122888183593ZM14.1363,27.197622888183595C14.2939,27.155422888183594,14.3374,26.952422888183595,14.2109,26.849422888183593L4.6914,19.090222888183593C4.58566,19.004122888183595,4.42658,19.046722888183595,4.3781,19.174222888183593L0.0135036,30.653622888183595C-0.0444682,30.806022888183595,0.0946476,30.960022888183595,0.252211,30.917822888183593L5.29329,29.567122888183594Q5.48824,30.102822888183592,5.7121,30.632022888183595Q7.38583,34.58922288818359,10.4368,37.64012288818359Q13.4877,40.69112288818359,17.4449,42.364822888183596Q21.5429,44.098122888183596,26.0278,44.098122888183596Q29.6664,44.098122888183596,33.0838,42.944622888183595Q36.3883,41.82912288818359,39.1953,39.73622288818359Q41.9692,37.66802288818359,43.9801,34.853222888183595Q46.0183,32.00042288818359,47.0657,28.668022888183593C47.1115,28.522422888183595,47.1348,28.370822888183593,47.1348,28.218222888183593C47.1348,27.389822888183595,46.4632,26.718222888183593,45.6348,26.718222888183593C44.9796,26.718222888183593,44.4003,27.143422888183593,44.2038,27.768422888183593Q42.3599,33.634722888183596,37.4021,37.33112288818359Q32.3497,41.098122888183596,26.0278,41.098122888183596Q22.1513,41.098122888183596,18.6135,39.60182288818359Q15.1953,38.15602288818359,12.5581,35.51882288818359Q9.9209,32.88162288818359,8.47511,29.463422888183594Q8.33275,29.126822888183593,8.20394,28.787222888183592L14.1363,27.197622888183595Z" fill-rule="evenodd" fill="#ffffff" fill-opacity="1"/></g></g></g></g></svg>