<svg xmlns="http://www.w3.org/2000/svg" xmlns:xlink="http://www.w3.org/1999/xlink" fill="none" version="1.1" width="36.093753814697266" height="40.10416793823242" viewBox="0 0 36.093753814697266 40.10416793823242"><g style="mix-blend-mode:passthrough"><path d="M18.0469,4.01042C14.7245,4.01042,12.0313,6.70371,12.0313,10.026C12.0313,13.3484,14.7245,16.0417,18.0469,16.0417C21.3693,16.0417,24.0625,13.3484,24.0625,10.026C24.0625,6.70371,21.3693,4.01042,18.0469,4.01042C18.0469,4.01042,18.0469,4.01042,18.0469,4.01042ZM8.02083,10.026C8.02083,4.48882,12.5097,0,18.0469,0C23.5841,0,28.0729,4.48882,28.0729,10.026C28.0729,15.5633,23.5841,20.0521,18.0469,20.0521C12.5097,20.0521,8.02083,15.5633,8.02083,10.026C8.02083,10.026,8.02083,10.026,8.02083,10.026ZM2.93657,26.9991C4.81681,25.1188,7.36698,24.0625,10.026,24.0625C10.026,24.0625,26.0677,24.0625,26.0677,24.0625C28.7268,24.0625,31.277,25.1188,33.1571,26.9991C35.0374,28.8792,36.0938,31.4294,36.0938,34.0885C36.0938,34.0885,36.0938,38.099,36.0938,38.099C36.0938,39.2064,35.196,40.1042,34.0885,40.1042C32.9811,40.1042,32.0833,39.2064,32.0833,38.099C32.0833,38.099,32.0833,34.0885,32.0833,34.0885C32.0833,32.4932,31.4495,30.963,30.3214,29.8349C29.1932,28.7068,27.6631,28.0729,26.0677,28.0729C26.0677,28.0729,10.026,28.0729,10.026,28.0729C8.4306,28.0729,6.9005,28.7068,5.77235,29.8349C4.6442,30.963,4.01042,32.493,4.01042,34.0885C4.01042,34.0885,4.01042,38.099,4.01042,38.099C4.01042,39.2064,3.11264,40.1042,2.00521,40.1042C0.897762,40.1042,0,39.2064,0,38.099C0,38.099,0,34.0885,0,34.0885C0,31.4294,1.05631,28.8792,2.93657,26.9991C2.93657,26.9991,2.93657,26.9991,2.93657,26.9991Z" fill-rule="evenodd" fill="#000000" fill-opacity="1"/></g></svg>