<svg xmlns="http://www.w3.org/2000/svg" xmlns:xlink="http://www.w3.org/1999/xlink" fill="none" version="1.1" width="14" height="8" viewBox="0 0 14 8"><g style="mix-blend-mode:passthrough" transform="matrix(-1,0,0,-1,28,16)"><path d="M20.29289,8.292893C20.683419999999998,7.9023689,21.316580000000002,7.9023689,21.70711,8.292893C21.70711,8.292893,27.7071,14.29289,27.7071,14.29289C28.0976,14.68342,28.0976,15.31658,27.7071,15.70711C27.3166,16.097630000000002,26.6834,16.097630000000002,26.2929,15.70711C26.2929,15.70711,21,10.41421,21,10.41421C21,10.41421,15.70711,15.70711,15.70711,15.70711C15.31658,16.097630000000002,14.683417,16.097630000000002,14.292893,15.70711C13.9023689,15.31658,13.9023689,14.68342,14.292893,14.29289C14.292893,14.29289,20.29289,8.292893,20.29289,8.292893C20.29289,8.292893,20.29289,8.292893,20.29289,8.292893Z" fill-rule="evenodd" fill="#B0B0B0" fill-opacity="1"/></g></svg>