<svg xmlns="http://www.w3.org/2000/svg" xmlns:xlink="http://www.w3.org/1999/xlink" fill="none" version="1.1" width="40" height="40" viewBox="0 0 40 40"><g style="mix-blend-mode:passthrough"><g style="mix-blend-mode:passthrough"><path d="M-0.000049591064453125,5.882388146972656Q-0.000049591064453125,3.445868146972656,1.722910408935547,1.7229081469726562Q3.445680408935547,0.00003814697265625,5.882300408935547,0.00003814697265625L34.11755040893555,0.00003814697265625Q36.554250408935545,0.00003814697265625,38.27695040893555,1.7229081469726562Q39.99995040893555,3.445868146972656,39.99995040893555,5.882388146972656L39.99995040893555,34.11763814697266Q39.99995040893555,36.55423814697266,38.27695040893555,38.27713814697265Q36.554250408935545,40.000038146972656,34.11755040893555,40.000038146972656L5.882300408935547,40.000038146972656Q3.445680408935547,40.000038146972656,1.722910408935547,38.27713814697265Q-0.000049591064453125,36.55423814697266,-0.000049591064453125,34.11763814697266L-0.000049591064453125,5.882388146972656ZM2.3528904089355467,5.882388146972656L2.3528904089355467,34.11763814697266Q2.3528904089355467,35.579638146972655,3.386710408935547,36.61333814697266Q4.420330408935547,37.64713814697266,5.882300408935547,37.64713814697266L34.11755040893555,37.64713814697266Q35.579550408935546,37.64713814697266,36.613150408935546,36.61333814697266Q37.64705040893555,35.579638146972655,37.64705040893555,34.11763814697266L37.64705040893555,5.882388146972656Q37.64705040893555,4.420418146972656,36.613150408935546,3.3866981469726563Q35.579550408935546,2.352978146972656,34.11755040893555,2.352978146972656L5.882300408935547,2.352978146972656Q4.420330408935547,2.352978146972656,3.386710408935547,3.3866981469726563Q2.3528904089355467,4.420418146972656,2.3528904089355467,5.882388146972656ZM27.065650408935547,13.672938146972657Q27.065650408935547,15.094138146972655,26.542550408935547,16.415638146972658Q25.974450408935546,17.850438146972657,24.88335040893555,18.941638146972657Q24.539150408935548,19.285838146972655,24.160750408935545,19.577938146972656Q25.744850408935548,20.175138146972657,27.183850408935548,21.214238146972658Q27.184950408935546,21.215138146972656,27.186150408935546,21.216038146972657C27.492250408935547,21.437238146972657,27.673650408935547,21.791938146972655,27.673650408935547,22.169638146972655C27.673650408935547,22.819338146972655,27.146850408935546,23.346138146972656,26.497150408935546,23.346138146972656C26.249750408935547,23.346138146972656,26.008650408935548,23.268038146972657,25.806650408935546,23.122138146972656Q23.040150408935546,21.123938146972655,19.614650408935546,21.123938146972655Q17.459750408935548,21.123938146972655,15.493550408935548,21.955538146972657Q13.593750408935547,22.759138146972656,12.127750408935547,24.225238146972657Q10.661750408935546,25.691238146972655,9.858060408935547,27.591138146972657Q9.026450408935547,29.557238146972658,9.026450408935547,31.712138146972656C9.026450408935547,32.36183814697266,8.499680408935546,32.88863814697265,7.849980408935547,32.88863814697265C7.200280408935547,32.88863814697265,6.673510408935547,32.36183814697266,6.673510408935547,31.712138146972656Q6.673510408935547,29.080038146972655,7.6910504089355465,26.674438146972655Q8.673360408935547,24.351838146972657,10.463950408935547,22.561438146972655Q12.254450408935547,20.770838146972658,14.576950408935547,19.788438146972656Q14.827750408935547,19.682438146972657,15.080950408935546,19.587438146972655Q14.695850408935547,19.291338146972656,14.346050408935547,18.941638146972657Q13.254950408935548,17.850438146972657,12.686850408935546,16.415638146972658Q12.163750408935547,15.094138146972655,12.163750408935547,13.672938146972657Q12.163750408935547,12.251738146972656,12.686850408935546,10.930238146972655Q13.254950408935548,9.495478146972657,14.346050408935547,8.404318146972656Q15.437250408935547,7.313148146972656,16.872050408935547,6.745118146972656Q18.193550408935547,6.221988146972656,19.614650408935546,6.221988146972656Q21.03585040893555,6.221988146972656,22.357250408935545,6.745118146972656Q23.79205040893555,7.313148146972656,24.88335040893555,8.404318146972656Q25.974450408935546,9.495478146972657,26.542550408935547,10.930238146972655Q27.065650408935547,12.251738146972656,27.065650408935547,13.672938146972657ZM16.009850408935545,17.277838146972655Q17.503050408935547,18.771038146972657,19.614650408935546,18.771038146972657Q21.72635040893555,18.771038146972657,23.219550408935547,17.277838146972655Q24.71275040893555,15.784638146972656,24.71275040893555,13.672938146972657Q24.71275040893555,11.561338146972655,23.219550408935547,10.068138146972656Q21.72635040893555,8.574928146972656,19.614650408935546,8.574928146972656Q17.503050408935547,8.574928146972656,16.009850408935545,10.068138146972656Q14.516650408935547,11.561338146972655,14.516650408935547,13.672938146972657Q14.516650408935547,15.784638146972656,16.009850408935545,17.277838146972655ZM34.50915040893555,25.486938146972655Q35.15715040893555,25.976738146972657,35.268950408935545,26.781138146972655Q35.380850408935544,27.585538146972656,34.891150408935545,28.233538146972656L30.347350408935547,34.245538146972656Q29.696650408935547,35.10623814697266,28.62125040893555,35.01723814697266L26.823850408935545,34.868538146972654Q26.257050408935548,34.82163814697265,25.803250408935547,34.47873814697266Q25.349450408935546,34.135738146972656,25.149650408935546,33.60323814697266L24.51605040893555,31.914438146972657Q24.136950408935547,30.904238146972656,24.787550408935548,30.043438146972655L29.331450408935545,24.031438146972658Q29.821150408935548,23.383538146972658,30.625550408935545,23.271638146972656Q31.429950408935547,23.159838146972657,32.07795040893555,23.649538146972656L34.50915040893555,25.486938146972655ZM30.972150408935548,25.763038146972658L32.77755040893555,27.127638146972657L28.600250408935548,32.654538146972655L27.265350408935547,32.54413814697266L26.79495040893555,31.289938146972656L30.972150408935548,25.763038146972658Z" fill-rule="evenodd" fill="#000000" fill-opacity="1"/></g></g></svg>